<svg width="41" height="40" viewBox="0 0 41 40" fill="none" xmlns="http://www.w3.org/2000/svg">
<path d="M36.603 23.0606C36.597 23.0606 36.5909 23.0606 36.5848 23.0545L32.9606 20.9394C32.9242 20.9151 32.9 20.8788 32.9 20.8303C32.9 20.7818 32.9242 20.7454 32.9606 20.7212L36.3364 18.7636C36.3545 18.7515 36.3788 18.7576 36.3909 18.7758C36.403 18.7939 36.397 18.8182 36.3788 18.8303L33.003 20.7879C32.9848 20.8 32.9788 20.8121 32.9788 20.8303C32.9788 20.8485 32.9909 20.8667 33.003 20.8727L36.6273 22.9879C36.6454 23 36.6515 23.0242 36.6394 23.0424C36.6333 23.0545 36.6151 23.0606 36.603 23.0606Z" fill="#DBDEE4"/>
<path d="M36.1848 23.3151C35.9121 23.1576 35.9121 22.903 36.1788 22.7454C36.4515 22.5879 36.8939 22.5879 37.1667 22.7454C37.4394 22.903 37.4394 23.1576 37.1727 23.3151C36.9 23.4727 36.4576 23.4727 36.1848 23.3151Z" fill="white"/>
<path d="M36.6757 23.4727C36.4879 23.4727 36.3061 23.4303 36.1606 23.3515C36.0151 23.2666 35.9364 23.1515 35.9364 23.0303C35.9364 22.9091 36.0151 22.7939 36.1606 22.7151C36.4394 22.5515 36.9 22.5515 37.1848 22.7151C37.3303 22.8 37.4091 22.9091 37.4091 23.0363C37.4091 23.1576 37.3303 23.2727 37.1848 23.3515C37.0515 23.4303 36.8636 23.4727 36.6757 23.4727ZM36.6757 22.6667C36.5061 22.6667 36.3303 22.703 36.203 22.7818C36.0818 22.8485 36.0212 22.9394 36.0212 23.0363C36.0212 23.1333 36.0879 23.2182 36.2091 23.2909C36.4697 23.4424 36.9 23.4424 37.1606 23.2909C37.2818 23.2242 37.3424 23.1333 37.3424 23.0363C37.3424 22.9394 37.2757 22.8545 37.1545 22.7818C37.0151 22.703 36.8454 22.6667 36.6757 22.6667Z" fill="#DBDEE4"/>
<path d="M36.6757 22.8546C36.7848 22.8546 36.8879 22.8788 36.9606 22.9212C37.0212 22.9576 37.0515 22.9939 37.0515 23.0364C37.0515 23.0727 37.0212 23.1152 36.9606 23.1515C36.8879 23.1939 36.7848 23.2182 36.6757 23.2182C36.5667 23.2182 36.4636 23.1939 36.3909 23.1515C36.3303 23.1152 36.3 23.0788 36.3 23.0364C36.3 23 36.3303 22.9576 36.3909 22.9212C36.4636 22.8788 36.5667 22.8546 36.6757 22.8546Z" fill="#1FB6FF"/>
<path d="M36.1848 23.3151C35.9121 23.1576 35.9121 22.903 36.1788 22.7454C36.4515 22.5879 36.8939 22.5879 37.1667 22.7454C37.4394 22.903 37.4394 23.1576 37.1727 23.3151C36.9 23.4727 36.4576 23.4727 36.1848 23.3151Z" fill="white"/>
<path d="M36.6757 23.4727C36.4879 23.4727 36.3061 23.4303 36.1606 23.3515C36.0151 23.2666 35.9364 23.1515 35.9364 23.0303C35.9364 22.9091 36.0151 22.7939 36.1606 22.7151C36.4394 22.5515 36.9 22.5515 37.1848 22.7151C37.3303 22.8 37.4091 22.9091 37.4091 23.0363C37.4091 23.1576 37.3303 23.2727 37.1848 23.3515C37.0515 23.4303 36.8636 23.4727 36.6757 23.4727ZM36.6757 22.6667C36.5061 22.6667 36.3303 22.703 36.203 22.7818C36.0818 22.8485 36.0212 22.9394 36.0212 23.0363C36.0212 23.1333 36.0879 23.2182 36.2091 23.2909C36.4697 23.4424 36.9 23.4424 37.1606 23.2909C37.2818 23.2242 37.3424 23.1333 37.3424 23.0363C37.3424 22.9394 37.2757 22.8545 37.1545 22.7818C37.0151 22.703 36.8454 22.6667 36.6757 22.6667Z" fill="#DBDEE4"/>
<path d="M36.6757 22.8546C36.7848 22.8546 36.8879 22.8788 36.9606 22.9212C37.0212 22.9576 37.0515 22.9939 37.0515 23.0364C37.0515 23.0727 37.0212 23.1152 36.9606 23.1515C36.8879 23.1939 36.7848 23.2182 36.6757 23.2182C36.5667 23.2182 36.4636 23.1939 36.3909 23.1515C36.3303 23.1152 36.3 23.0788 36.3 23.0364C36.3 23 36.3303 22.9576 36.3909 22.9212C36.4636 22.8788 36.5667 22.8546 36.6757 22.8546Z" fill="#1FB6FF"/>
<path d="M34.6697 21.6848C34.7849 21.6848 34.8939 21.7091 34.9727 21.7575C35.0333 21.7939 35.0697 21.8363 35.0697 21.8788C35.0697 21.9212 35.0333 21.9636 34.9727 22C34.8939 22.0424 34.7849 22.0727 34.6697 22.0727C34.5545 22.0727 34.4455 22.0485 34.3667 22C34.3061 21.9636 34.2697 21.9212 34.2697 21.8788C34.2697 21.8363 34.3061 21.7939 34.3667 21.7575C34.4455 21.7091 34.5545 21.6848 34.6697 21.6848Z" fill="#373B42"/>
<path d="M4.42119 37.3758C4.40907 37.3758 4.39695 37.3697 4.39089 37.3576C4.37877 37.3394 4.38483 37.3152 4.40301 37.3031L7.82119 35.3334C8.02119 35.2182 8.27574 35.2182 8.47574 35.3334L11.8697 37.3031C11.8879 37.3152 11.8939 37.3394 11.8818 37.3576C11.8697 37.3758 11.8454 37.3819 11.8273 37.3697L8.43331 35.4C8.25149 35.297 8.03331 35.297 7.85149 35.4L4.43331 37.3697C4.43937 37.3758 4.42725 37.3758 4.42119 37.3758Z" fill="#DBDEE4"/>
<path d="M4.96059 37.2667C4.95453 37.2667 4.94847 37.2667 4.94241 37.2606L1.25756 35.1212C1.16665 35.0728 1.11816 34.9758 1.11816 34.8788C1.11816 34.7818 1.17271 34.6849 1.25756 34.6364L10.4212 29.3455C10.4394 29.3334 10.4636 29.3394 10.4757 29.3576C10.4879 29.3758 10.4818 29.4 10.4636 29.4121L1.29392 34.697C1.22725 34.7334 1.19089 34.8 1.19089 34.8788C1.19089 34.9515 1.22725 35.0182 1.29392 35.0606L4.97877 37.2C4.99695 37.2121 5.00301 37.2364 4.99089 37.2546C4.98483 37.2546 4.97271 37.2667 4.96059 37.2667Z" fill="#DBDEE4"/>
<path d="M20.4697 38.1273C20.3667 38.1273 20.2636 38.103 20.1667 38.0485L16.0818 35.6727C16.0636 35.6606 16.0576 35.6364 16.0697 35.6182C16.0818 35.6 16.1061 35.5939 16.1242 35.6061L20.2091 37.9818C20.3727 38.0788 20.5727 38.0788 20.7364 37.9818L26.4818 34.6606C26.5 34.6485 26.5242 34.6545 26.5364 34.6727C26.5485 34.6909 26.5424 34.7151 26.5242 34.7273L20.7788 38.0485C20.6758 38.097 20.5727 38.1273 20.4697 38.1273Z" fill="#DBDEE4"/>
<path d="M16.5909 35.2909C16.8636 35.4545 16.8636 35.7091 16.597 35.8667C16.3242 36.0242 15.8818 36.0242 15.6091 35.8667C15.3364 35.7091 15.3364 35.4545 15.603 35.297C15.8758 35.1333 16.3182 35.1333 16.5909 35.2909Z" fill="white"/>
<path d="M16.1 36.0182C15.9121 36.0182 15.7303 35.9758 15.5848 35.897C15.4394 35.8121 15.3606 35.697 15.3606 35.5758C15.3606 35.4545 15.4394 35.3394 15.5848 35.2606C15.8636 35.097 16.3242 35.097 16.6091 35.2606C16.7545 35.3455 16.8333 35.4606 16.8333 35.5818C16.8333 35.703 16.7545 35.8182 16.6091 35.897C16.4697 35.9818 16.2879 36.0182 16.1 36.0182ZM16.1 35.2121C15.9303 35.2121 15.7545 35.2485 15.6273 35.3273C15.506 35.3939 15.4454 35.4848 15.4454 35.5818C15.4454 35.6788 15.5121 35.7636 15.6333 35.8364C15.8939 35.9879 16.3242 35.9879 16.5848 35.8364C16.7061 35.7697 16.7667 35.6788 16.7667 35.5818C16.7667 35.4848 16.7 35.4 16.5788 35.3273C16.4394 35.2485 16.2697 35.2121 16.1 35.2121Z" fill="#DBDEE4"/>
<path d="M16.1 35.7576C15.9909 35.7576 15.8879 35.7333 15.8152 35.6909C15.7545 35.6545 15.7242 35.6182 15.7242 35.5757C15.7242 35.5394 15.7545 35.4969 15.8152 35.4606C15.8879 35.4182 15.9909 35.3939 16.0939 35.3939C16.203 35.3939 16.3061 35.4182 16.3788 35.4606C16.4394 35.4969 16.4697 35.5394 16.4697 35.5757C16.4697 35.6121 16.4394 35.6545 16.3788 35.6909C16.3121 35.7333 16.2091 35.7576 16.1 35.7576Z" fill="#1FB6FF"/>
<path d="M18.2576 37.0424C18.1424 37.0424 18.0333 37.0182 17.9545 36.9697C17.8939 36.9333 17.8576 36.8909 17.8576 36.8485C17.8576 36.8061 17.8939 36.7636 17.9545 36.7273C18.0333 36.6848 18.1424 36.6545 18.2576 36.6545C18.3727 36.6545 18.4818 36.6788 18.5606 36.7273C18.6212 36.7636 18.6576 36.8061 18.6576 36.8485C18.6576 36.8909 18.6212 36.9333 18.5606 36.9697C18.4818 37.0182 18.3727 37.0424 18.2576 37.0424Z" fill="#373B42"/>
<path d="M27.1303 30.9819C27.1242 30.9819 27.1182 30.9819 27.1121 30.9758L15.6879 24.3455C15.6697 24.3334 15.6636 24.3091 15.6757 24.2909C15.6879 24.2728 15.7121 24.2667 15.7303 24.2788L27.1485 30.9091C27.1666 30.9213 27.1727 30.9455 27.1606 30.9637C27.1545 30.9758 27.1424 30.9819 27.1303 30.9819Z" fill="#DBDEE4"/>
<path d="M21.7242 27.5879C21.8394 27.5879 21.9485 27.6121 22.0273 27.6606C22.0879 27.697 22.1242 27.7394 22.1242 27.7818C22.1242 27.8243 22.0879 27.8667 22.0273 27.903C21.9485 27.9455 21.8394 27.9758 21.7242 27.9758C21.6091 27.9758 21.5 27.9515 21.4212 27.903C21.3606 27.8667 21.3242 27.8243 21.3242 27.7818C21.3242 27.7394 21.3606 27.697 21.4212 27.6606C21.5 27.6121 21.6091 27.5879 21.7242 27.5879Z" fill="#373B42"/>
<path d="M32.2636 39.0122C32.2515 39.0122 32.2394 39.0061 32.2333 38.994C32.2212 38.9758 32.2273 38.9516 32.2454 38.9394L35.4212 37.1091C35.4576 37.091 35.4757 37.0546 35.4757 37.0122C35.4757 36.9697 35.4576 36.9334 35.4212 36.9152L29.6818 33.5879C29.6636 33.5758 29.6576 33.5516 29.6697 33.5334C29.6818 33.5152 29.706 33.5091 29.7242 33.5213L35.4636 36.8485C35.5242 36.8849 35.5545 36.9455 35.5545 37.0122C35.5545 37.0788 35.5182 37.1394 35.4636 37.1758L32.2879 39.0061C32.2757 39.0122 32.2697 39.0122 32.2636 39.0122Z" fill="#DBDEE4"/>
<path d="M33.0212 39.0303C33.2939 38.8728 33.2939 38.6182 33.0273 38.4607C32.7545 38.3031 32.3121 38.3031 32.0394 38.4607C31.7667 38.6182 31.7667 38.8728 32.0333 39.0303C32.3061 39.1879 32.7424 39.1879 33.0212 39.0303Z" fill="white"/>
<path d="M32.5242 39.1879C32.3364 39.1879 32.1545 39.1455 32.0091 39.0667C31.8636 38.9819 31.7848 38.8728 31.7848 38.7516C31.7848 38.6303 31.8636 38.5152 32.0091 38.4303C32.2939 38.2667 32.7545 38.2667 33.0333 38.4303C33.1788 38.5152 33.2576 38.6243 33.2576 38.7455C33.2576 38.8667 33.1788 38.9819 33.0333 39.0667C32.8939 39.1455 32.7121 39.1879 32.5242 39.1879ZM32.5303 38.3819C32.3606 38.3819 32.1848 38.4182 32.0515 38.497C31.9303 38.5637 31.8636 38.6546 31.8636 38.7516C31.8636 38.8425 31.9303 38.9334 32.0454 39.0061C32.306 39.1576 32.7303 39.1576 32.997 39.0061C33.1182 38.9394 33.1848 38.8485 33.1848 38.7516C33.1848 38.6606 33.1182 38.5697 33.003 38.497C32.8757 38.4182 32.7 38.3819 32.5303 38.3819Z" fill="#DBDEE4"/>
<path d="M32.5303 38.5637C32.4212 38.5637 32.3182 38.5879 32.2454 38.6303C32.1848 38.6667 32.1545 38.7031 32.1545 38.7455C32.1545 38.7818 32.1848 38.8243 32.2454 38.8606C32.3182 38.9031 32.4212 38.9273 32.5303 38.9273C32.6394 38.9273 32.7424 38.9031 32.8151 38.8606C32.8757 38.8243 32.906 38.7879 32.906 38.7455C32.906 38.7091 32.8757 38.6667 32.8151 38.6303C32.7363 38.5879 32.6333 38.5637 32.5303 38.5637Z" fill="#1FB6FF"/>
<path d="M33.0212 39.0303C33.2939 38.8728 33.2939 38.6182 33.0273 38.4607C32.7545 38.3031 32.3121 38.3031 32.0394 38.4607C31.7667 38.6182 31.7667 38.8728 32.0333 39.0303C32.3061 39.1879 32.7424 39.1879 33.0212 39.0303Z" fill="white"/>
<path d="M32.5242 39.1879C32.3364 39.1879 32.1545 39.1455 32.0091 39.0667C31.8636 38.9819 31.7848 38.8728 31.7848 38.7516C31.7848 38.6303 31.8636 38.5152 32.0091 38.4303C32.2939 38.2667 32.7545 38.2667 33.0333 38.4303C33.1788 38.5152 33.2576 38.6243 33.2576 38.7455C33.2576 38.8667 33.1788 38.9819 33.0333 39.0667C32.8939 39.1455 32.7121 39.1879 32.5242 39.1879ZM32.5303 38.3819C32.3606 38.3819 32.1848 38.4182 32.0515 38.497C31.9303 38.5637 31.8636 38.6546 31.8636 38.7516C31.8636 38.8425 31.9303 38.9334 32.0454 39.0061C32.306 39.1576 32.7303 39.1576 32.997 39.0061C33.1182 38.9394 33.1848 38.8485 33.1848 38.7516C33.1848 38.6606 33.1182 38.5697 33.003 38.497C32.8757 38.4182 32.7 38.3819 32.5303 38.3819Z" fill="#DBDEE4"/>
<path d="M32.5303 38.5637C32.4212 38.5637 32.3182 38.5879 32.2454 38.6303C32.1848 38.6667 32.1545 38.7031 32.1545 38.7455C32.1545 38.7818 32.1848 38.8243 32.2454 38.8606C32.3182 38.9031 32.4212 38.9273 32.5303 38.9273C32.6394 38.9273 32.7424 38.9031 32.8151 38.8606C32.8757 38.8243 32.906 38.7879 32.906 38.7455C32.906 38.7091 32.8757 38.6667 32.8151 38.6303C32.7363 38.5879 32.6333 38.5637 32.5303 38.5637Z" fill="#1FB6FF"/>
<path d="M34.3242 37.5698C34.2091 37.5698 34.1 37.594 34.0212 37.6425C33.9606 37.6789 33.9242 37.7213 33.9242 37.7637C33.9242 37.8061 33.9606 37.8485 34.0212 37.8849C34.1 37.9273 34.2091 37.9576 34.3242 37.9576C34.4394 37.9576 34.5485 37.9334 34.6273 37.8849C34.6879 37.8485 34.7242 37.8061 34.7242 37.7637C34.7242 37.7213 34.6879 37.6789 34.6273 37.6425C34.5485 37.594 34.4394 37.5698 34.3242 37.5698Z" fill="#373B42"/>
<path d="M38.8636 37.5212C38.8576 37.5212 38.8515 37.5212 38.8454 37.5152L30.9242 32.9212C30.9061 32.9091 30.9 32.8849 30.9121 32.8667C30.9242 32.8485 30.9485 32.8425 30.9667 32.8546L38.8879 37.4485C38.9061 37.4606 38.9121 37.4849 38.9 37.5031C38.8879 37.5152 38.8757 37.5212 38.8636 37.5212Z" fill="#DBDEE4"/>
<path d="M38.2515 37.6303C37.9788 37.4727 37.9788 37.2182 38.2455 37.0606C38.5182 36.903 38.9606 36.903 39.2333 37.0606C39.5061 37.2182 39.5061 37.4727 39.2394 37.6303C38.9667 37.7879 38.5242 37.7879 38.2515 37.6303Z" fill="white"/>
<path d="M38.7424 37.7879C38.5545 37.7879 38.3727 37.7455 38.2273 37.6667C38.0818 37.5818 38.003 37.4667 38.003 37.3455C38.003 37.2243 38.0818 37.1091 38.2273 37.0303C38.5061 36.8667 38.9667 36.8667 39.2515 37.0303C39.397 37.1152 39.4757 37.2303 39.4757 37.3515C39.4757 37.4727 39.397 37.5879 39.2515 37.6667C39.1121 37.7455 38.9303 37.7879 38.7424 37.7879ZM38.2697 37.6C38.5303 37.7515 38.9606 37.7515 39.2212 37.6C39.3424 37.5334 39.403 37.4424 39.403 37.3455C39.403 37.2485 39.3364 37.1637 39.2151 37.0909C38.9545 36.9394 38.5242 36.9394 38.2636 37.0909C38.1424 37.1576 38.0818 37.2485 38.0818 37.3455C38.0818 37.4364 38.1485 37.5273 38.2697 37.6Z" fill="#DBDEE4"/>
<path d="M38.7424 37.1636C38.8515 37.1636 38.9545 37.1879 39.0273 37.2303C39.0879 37.2667 39.1182 37.303 39.1182 37.3455C39.1182 37.3818 39.0879 37.4242 39.0273 37.4606C38.9545 37.503 38.8515 37.5273 38.7424 37.5273C38.6333 37.5273 38.5303 37.503 38.4576 37.4606C38.397 37.4242 38.3667 37.3879 38.3667 37.3455C38.3667 37.3091 38.397 37.2667 38.4576 37.2303C38.5303 37.1879 38.6333 37.1636 38.7424 37.1636Z" fill="#1FB6FF"/>
<path d="M36.9606 36.1576C37.0757 36.1576 37.1848 36.1818 37.2636 36.2303C37.3242 36.2667 37.3606 36.3091 37.3606 36.3515C37.3606 36.394 37.3242 36.4364 37.2636 36.4727C37.1848 36.5152 37.0757 36.5455 36.9606 36.5455C36.8454 36.5455 36.7364 36.5212 36.6576 36.4727C36.597 36.4364 36.5606 36.394 36.5606 36.3515C36.5606 36.3091 36.597 36.2667 36.6576 36.2303C36.7364 36.1879 36.8515 36.1576 36.9606 36.1576Z" fill="#373B42"/>
<g opacity="0.1">
<path d="M28.9485 21.5879L10.2091 32.4788C9.76667 32.7333 9.22121 32.7394 8.77273 32.4788L1.32425 28.1818C1.08788 28.0424 1.08788 27.703 1.32425 27.5637L20.0636 16.6727C20.5061 16.4182 21.0515 16.4121 21.5 16.6727L28.9485 20.9758C29.1848 21.1091 29.1848 21.4485 28.9485 21.5879Z" fill="black"/>
</g>
<path d="M19.8454 23.2424L19.8394 24.6727L8.74847 31.1152L8.75453 29.6849L19.8454 23.2424Z" fill="white"/>
<path d="M8.74846 31.1576C8.7424 31.1576 8.73634 31.1576 8.73028 31.1515C8.71816 31.1454 8.7121 31.1333 8.7121 31.1212L8.71816 29.6909C8.71816 29.6788 8.72422 29.6667 8.73634 29.6606L19.8272 23.2182C19.8394 23.2121 19.8515 23.2121 19.8636 23.2182C19.8757 23.2242 19.8818 23.2363 19.8818 23.2485L19.8757 24.6788C19.8757 24.6909 19.8697 24.703 19.8576 24.7091L8.76664 31.1515C8.76058 31.1515 8.75452 31.1576 8.74846 31.1576ZM8.79089 29.7091L8.78482 31.0545L19.7969 24.6545L19.803 23.3091L8.79089 29.7091Z" fill="#373B42"/>
<path d="M19.8454 23.2424L8.75453 29.6849L2.20908 25.9031L13.2939 19.4606L19.8454 23.2424Z" fill="#BEC4CD"/>
<path d="M8.75453 29.7273C8.74847 29.7273 8.74241 29.7273 8.73635 29.7212L2.18484 25.9394C2.17272 25.9333 2.16666 25.9212 2.16666 25.9091C2.16666 25.897 2.17272 25.8849 2.18484 25.8788L13.2757 19.4364C13.2879 19.4303 13.3 19.4303 13.3121 19.4364L19.8576 23.2182C19.8697 23.2242 19.8757 23.2364 19.8757 23.2485C19.8757 23.2606 19.8697 23.2727 19.8576 23.2788L8.76666 29.7212C8.76666 29.7212 8.7606 29.7273 8.75453 29.7273ZM2.28181 25.903L8.75453 29.6424L19.7667 23.2424L13.2939 19.503L2.28181 25.903Z" fill="#373B42"/>
<path d="M6.35456 17.9697L5.49396 17.0121L24.5424 6.01215L25.403 6.97578L6.35456 17.9697Z" fill="white"/>
<path d="M6.35455 18.0061C6.34243 18.0061 6.33637 18 6.32425 17.9939L5.4697 17.0364C5.46364 17.0303 5.45758 17.0182 5.45758 17.0061C5.45758 16.9939 5.46364 16.9879 5.47576 16.9818L24.5242 5.98183C24.5424 5.97576 24.5606 5.97576 24.5727 5.98789L25.4273 6.94546C25.4333 6.95152 25.4394 6.96364 25.4394 6.97576C25.4394 6.98789 25.4333 6.99395 25.4212 7.00001L6.37273 18C6.36667 18.0061 6.36061 18.0061 6.35455 18.0061ZM5.55455 17.0182L6.36061 17.9212L25.3424 6.96364L24.5364 6.06061L5.55455 17.0182Z" fill="#373B42"/>
<path d="M25.403 6.97577L21.2515 14.9091L2.20303 25.903L6.35455 17.9697L25.403 6.97577Z" fill="#373B42"/>
<path d="M2.20305 25.9455C2.19093 25.9455 2.18487 25.9394 2.17881 25.9333C2.16668 25.9212 2.16062 25.903 2.17274 25.8909L6.3182 17.9515C6.32426 17.9455 6.32426 17.9394 6.33032 17.9333L25.3788 6.93941C25.3909 6.93335 25.4091 6.93335 25.4212 6.94547C25.4333 6.95759 25.4394 6.97577 25.4273 6.98789L21.2879 14.9273C21.2818 14.9333 21.2818 14.9394 21.2758 14.9455L2.22123 25.9394C2.21517 25.9394 2.20911 25.9455 2.20305 25.9455ZM6.38487 18L2.30002 25.8061L21.2273 14.8788L25.3121 7.06668L6.38487 18Z" fill="#373B42"/>
<path d="M8.75456 29.6849L8.7485 31.1152L2.20304 27.3334C2.08789 27.2667 1.9788 27.1819 1.87577 27.0849C1.2091 26.4606 1.08183 25.4546 1.50001 24.6485L5.49395 17.0061L6.35456 17.9637L2.43941 25.4606C2.30607 25.7091 2.39698 26.0182 2.64547 26.1576L8.75456 29.6849Z" fill="white"/>
<path d="M8.74849 31.1576C8.74243 31.1576 8.73637 31.1576 8.73031 31.1515L2.18485 27.3697C2.06364 27.297 1.95455 27.2122 1.85152 27.1152C1.19091 26.497 1.03334 25.4788 1.4697 24.6364L5.46364 16.994C5.4697 16.9818 5.48182 16.9758 5.49394 16.9697C5.50607 16.9697 5.51819 16.9758 5.52425 16.9818L6.38485 17.9394C6.39697 17.9515 6.39697 17.9697 6.39091 17.9818L2.47576 25.4788C2.35455 25.7091 2.4394 26 2.66364 26.1273L8.77273 29.6546C8.78485 29.6606 8.79091 29.6728 8.79091 29.6849L8.78485 31.1152C8.78485 31.1273 8.77879 31.1394 8.76667 31.1455C8.76061 31.1515 8.75455 31.1576 8.74849 31.1576ZM5.50607 17.0788L1.53031 24.6728C1.10607 25.4849 1.25758 26.4667 1.89394 27.0606C1.99091 27.1576 2.1 27.2364 2.21516 27.3031L8.70607 31.0546L8.71213 29.7091L2.62122 26.194C2.36061 26.0425 2.26364 25.7152 2.40304 25.4425L6.30607 17.9758L5.50607 17.0788Z" fill="#373B42"/>
<path d="M24.3909 3.36367C24.2273 3.33943 24.0576 3.36973 23.8879 3.4667L6.01514 13.7879C5.74241 13.9455 5.54241 14.2425 5.44544 14.5758C5.36666 14.8546 5.35453 15.1576 5.42726 15.4425L9.52423 30.7031C9.63332 31.1212 9.90605 31.3818 10.2151 31.4303L9.05756 31.2425C8.74241 31.194 8.47575 30.9273 8.36059 30.5152L4.26969 15.2546C4.1909 14.9697 4.20302 14.6667 4.28787 14.3879C4.38484 14.0485 4.58484 13.7515 4.85756 13.6L22.7303 3.28488C22.9 3.18791 23.0757 3.15155 23.2333 3.18185L24.3909 3.36367Z" fill="#DBDEE4"/>
<path d="M10.2212 31.4727L9.05758 31.2849C8.71818 31.2303 8.44545 30.9455 8.3303 30.5273L4.23333 15.2667C4.16061 14.9879 4.16667 14.6727 4.25151 14.3818C4.36061 14.0182 4.57273 13.7212 4.83939 13.5697L22.7061 3.24849C22.8758 3.15152 23.0576 3.1091 23.2394 3.1394L24.3909 3.32728H24.397C24.4152 3.33334 24.4333 3.35152 24.4273 3.3697C24.4212 3.38789 24.4091 3.40607 24.3848 3.40001H24.3788C24.2212 3.37577 24.0576 3.41213 23.9061 3.50304L6.03333 13.8182C5.78485 13.9636 5.57879 14.2424 5.48182 14.5879C5.40303 14.8667 5.39697 15.1697 5.46364 15.4364L9.56061 30.697C9.66364 31.0788 9.91212 31.3455 10.2212 31.4C10.2394 31.4061 10.2576 31.4243 10.2515 31.4424C10.2576 31.4606 10.2394 31.4727 10.2212 31.4727ZM23.1242 3.20607C22.997 3.20607 22.8697 3.24243 22.7485 3.31516L4.87576 13.6303C4.62727 13.7758 4.42121 14.0546 4.32424 14.4C4.23939 14.6788 4.23333 14.9818 4.30606 15.2485L8.40303 30.5091C8.50606 30.897 8.75455 31.1636 9.0697 31.2121L9.90606 31.3455C9.71212 31.2121 9.56667 30.9939 9.49394 30.7152L5.39091 15.4546C5.31818 15.1758 5.32424 14.8606 5.40909 14.5697C5.51212 14.2061 5.7303 13.9152 5.99697 13.7576L23.8697 3.43637C23.9303 3.40001 23.997 3.3697 24.0636 3.35152L23.2273 3.21819C23.1909 3.21213 23.1606 3.20607 23.1242 3.20607Z" fill="#373B42"/>
<path d="M23.8879 3.4667C24.3788 3.18185 24.9182 3.46064 25.0879 4.09094L29.1849 19.3516C29.3545 19.9819 29.0939 20.7212 28.597 21.0061L10.7242 31.3334C10.2333 31.6182 9.69394 31.3394 9.52425 30.7091L5.42728 15.4425C5.25758 14.8122 5.51819 14.0728 6.01516 13.7879L23.8879 3.4667Z" fill="#373B42"/>
<path d="M10.3303 31.4788C10.2333 31.4788 10.1364 31.4606 10.0454 31.4243C9.78484 31.3152 9.57878 31.0546 9.48787 30.7152L5.3909 15.4546C5.21514 14.8121 5.48787 14.0485 5.99696 13.7576L23.8697 3.43639C24.0939 3.30306 24.3424 3.28488 24.5667 3.37578C24.8333 3.48488 25.0333 3.74548 25.1242 4.08487L29.2212 19.3455C29.397 19.9879 29.1242 20.7515 28.6151 21.0425L10.7424 31.3637C10.6091 31.4424 10.4697 31.4788 10.3303 31.4788ZM23.9061 3.50306L6.03333 13.8182C5.55454 14.097 5.29999 14.8182 5.46363 15.4303L9.5606 30.6909C9.64545 31.0121 9.83333 31.2485 10.0758 31.3515C10.2758 31.4364 10.5 31.4121 10.7061 31.297L28.5788 20.9758C29.0576 20.697 29.3121 19.9758 29.1485 19.3637L25.0515 4.10306C24.9667 3.78791 24.7788 3.54548 24.5364 3.44245C24.3364 3.36366 24.1121 3.38184 23.9061 3.50306Z" fill="#373B42"/>
<path d="M11.5909 30.3576C11.3909 30.3576 11.2151 30.1758 11.1364 29.891L7.03938 14.6303C6.91211 14.1576 7.10605 13.5879 7.45757 13.3819L24.0697 3.78186C24.1424 3.73943 24.2151 3.72125 24.2818 3.72125C24.4818 3.72125 24.6576 3.90307 24.7364 4.18792L28.8333 19.4485C28.9606 19.9213 28.7667 20.491 28.4151 20.697L11.803 30.291C11.7303 30.3334 11.6576 30.3576 11.5909 30.3576Z" fill="white"/>
<path d="M11.5909 30.394C11.3727 30.394 11.1788 30.2 11.1 29.897L7.00303 14.6364C6.86969 14.1515 7.06969 13.5576 7.43939 13.3455L24.0515 3.75154C24.1303 3.70912 24.2091 3.68488 24.2818 3.68488C24.5 3.68488 24.6939 3.87881 24.7727 4.18185L28.8697 19.4425C29.003 19.9334 28.803 20.5212 28.4333 20.7334L11.8212 30.3273C11.7424 30.3697 11.6636 30.394 11.5909 30.394ZM24.2818 3.7576C24.2212 3.7576 24.1545 3.77578 24.0879 3.81821L7.47575 13.4061C7.13636 13.6 6.95454 14.1576 7.07575 14.6121L11.1727 29.8728C11.2455 30.1394 11.4091 30.3152 11.5909 30.3152C11.6515 30.3152 11.7182 30.297 11.7848 30.2546L28.397 20.6667C28.7364 20.4728 28.9182 19.9152 28.797 19.4606L24.7 4.20003C24.6333 3.9273 24.4636 3.7576 24.2818 3.7576Z" fill="#373B42"/>
<path d="M23.6939 5.67877L21.0091 7.23029L23.6939 5.67877Z" fill="white"/>
<path d="M21.0091 7.26666C20.997 7.26666 20.9849 7.2606 20.9788 7.24848C20.9667 7.23029 20.9727 7.20605 20.9909 7.19393L23.6758 5.64241C23.6939 5.63029 23.7182 5.63635 23.7303 5.65454C23.7424 5.67272 23.7364 5.69696 23.7182 5.70908L21.0333 7.2606C21.0273 7.26666 21.0152 7.26666 21.0091 7.26666Z" fill="#373B42"/>
<path d="M23.9303 6.5636L21.2515 8.11511L23.9303 6.5636Z" fill="white"/>
<path d="M21.2515 8.15148C21.2394 8.15148 21.2273 8.14542 21.2212 8.1333C21.2091 8.11512 21.2152 8.09088 21.2333 8.07876L23.9182 6.52724C23.9364 6.51512 23.9606 6.52118 23.9727 6.53936C23.9848 6.55754 23.9788 6.58179 23.9606 6.59391L21.2758 8.14542C21.2636 8.15148 21.2576 8.15148 21.2515 8.15148Z" fill="#373B42"/>
<path d="M24.1727 7.44849L21.4879 9L24.1727 7.44849Z" fill="white"/>
<path d="M21.4879 9.03637C21.4758 9.03637 21.4636 9.03031 21.4576 9.01819C21.4455 9.00001 21.4515 8.97577 21.4697 8.96364L24.1546 7.41213C24.1727 7.40001 24.197 7.40607 24.2091 7.42425C24.2212 7.44243 24.2152 7.46667 24.197 7.4788L21.5121 9.03031C21.5 9.03637 21.4939 9.03637 21.4879 9.03637Z" fill="#373B42"/>
<path d="M24.4091 8.33936L21.7242 9.88481L24.4091 8.33936Z" fill="white"/>
<path d="M21.7242 9.92724C21.7121 9.92724 21.7 9.92118 21.6939 9.90906C21.6818 9.89088 21.6879 9.86663 21.7061 9.85451L24.3909 8.303C24.4091 8.29088 24.4333 8.29694 24.4455 8.31512C24.4576 8.3333 24.4515 8.35754 24.4333 8.36967L21.7485 9.92118C21.7364 9.92118 21.7303 9.92724 21.7242 9.92724Z" fill="#373B42"/>
<path d="M12.6182 28.5836C12.6595 28.3258 12.5375 28.092 12.3458 28.0613C12.1542 28.0306 11.9653 28.2147 11.924 28.4725C11.8828 28.7303 12.0047 28.9641 12.1964 28.9948C12.3881 29.0255 12.577 28.8414 12.6182 28.5836Z" fill="#1FB6FF"/>
<path d="M13.9697 27.8089C14.011 27.5511 13.889 27.3172 13.6973 27.2865C13.5057 27.2559 13.3168 27.44 13.2755 27.6978C13.2343 27.9556 13.3562 28.1894 13.5479 28.2201C13.7396 28.2508 13.9285 28.0667 13.9697 27.8089Z" fill="#1FB6FF"/>
<path d="M18.5424 16.8121L17.3606 17.503L16.1667 16.8121L17.3545 16.1273L18.5424 16.8121Z" fill="white"/>
<path d="M17.3606 17.5394C17.3545 17.5394 17.3485 17.5394 17.3424 17.5333L16.1485 16.8424C16.1363 16.8364 16.1303 16.8242 16.1303 16.8121C16.1303 16.8 16.1363 16.7879 16.1485 16.7818L17.3303 16.0909C17.3424 16.0848 17.3545 16.0848 17.3666 16.0909L18.5606 16.7818C18.5727 16.7879 18.5788 16.8 18.5788 16.8121C18.5788 16.8242 18.5727 16.8364 18.5606 16.8424L17.3788 17.5333C17.3727 17.5394 17.3666 17.5394 17.3606 17.5394ZM16.2454 16.8121L17.3606 17.4545L18.4697 16.8121L17.3545 16.1697L16.2454 16.8121Z" fill="#DBDEE4"/>
<path d="M17.3606 17.503L16.1727 18.194L14.9848 17.503L16.1667 16.8121L17.3606 17.503Z" fill="white"/>
<path d="M16.1727 18.2303C16.1667 18.2303 16.1606 18.2303 16.1545 18.2243L14.9606 17.5333C14.9485 17.5273 14.9424 17.5152 14.9424 17.503C14.9424 17.4909 14.9485 17.4788 14.9606 17.4727L16.1485 16.7818C16.1606 16.7758 16.1727 16.7758 16.1848 16.7818L17.3788 17.4727C17.3909 17.4788 17.397 17.4909 17.397 17.503C17.397 17.5152 17.3909 17.5273 17.3788 17.5333L16.1909 18.2243C16.1909 18.2243 16.1848 18.2303 16.1727 18.2303ZM15.0576 17.503L16.1727 18.1455L17.2818 17.503L16.1667 16.8606L15.0576 17.503Z" fill="#DBDEE4"/>
<path d="M16.1727 18.1939L14.9909 18.8787L13.797 18.1939L14.9848 17.503L16.1727 18.1939Z" fill="white"/>
<path d="M14.9909 18.9151C14.9848 18.9151 14.9788 18.9151 14.9727 18.9091L13.7788 18.2182C13.7667 18.2121 13.7606 18.2 13.7606 18.1879C13.7606 18.1757 13.7667 18.1636 13.7788 18.1576L14.9667 17.4666C14.9788 17.4606 14.9909 17.4606 15.003 17.4666L16.197 18.1576C16.2091 18.1636 16.2151 18.1757 16.2151 18.1879C16.2151 18.2 16.2091 18.2121 16.197 18.2182L15.0091 18.9091C15.003 18.9151 14.997 18.9151 14.9909 18.9151ZM13.8757 18.1939L14.9909 18.8363L16.1 18.1939L14.9848 17.5515L13.8757 18.1939Z" fill="#DBDEE4"/>
<path d="M20.9485 20.9455L19.7606 21.6364L18.5667 20.9455L19.7545 20.2546L20.9485 20.9455Z" fill="white"/>
<path d="M19.7606 21.6728C19.7545 21.6728 19.7485 21.6728 19.7424 21.6667L18.5485 20.9758C18.5363 20.9697 18.5303 20.9576 18.5303 20.9455C18.5303 20.9334 18.5363 20.9212 18.5485 20.9152L19.7363 20.2243C19.7485 20.2182 19.7606 20.2182 19.7727 20.2243L20.9667 20.9152C20.9788 20.9212 20.9848 20.9334 20.9848 20.9455C20.9848 20.9576 20.9788 20.9697 20.9667 20.9758L19.7788 21.6667C19.7727 21.6728 19.7667 21.6728 19.7606 21.6728ZM18.6454 20.9455L19.7606 21.5879L20.8697 20.9455L19.7545 20.3031L18.6454 20.9455Z" fill="#DBDEE4"/>
<path d="M20.9545 22.3212L19.7666 23.0121L18.5788 22.3212L19.7606 21.6364L20.9545 22.3212Z" fill="white"/>
<path d="M19.7666 23.0485C19.7606 23.0485 19.7545 23.0485 19.7485 23.0424L18.5545 22.3515C18.5424 22.3455 18.5363 22.3333 18.5363 22.3212C18.5363 22.3091 18.5424 22.297 18.5545 22.2909L19.7363 21.6C19.7485 21.5939 19.7606 21.5939 19.7727 21.6L20.9666 22.2909C20.9788 22.297 20.9848 22.3091 20.9848 22.3212C20.9848 22.3333 20.9788 22.3455 20.9666 22.3515L19.7848 23.0424C19.7848 23.0485 19.7788 23.0485 19.7666 23.0485ZM18.6515 22.3212L19.7666 22.9636L20.8757 22.3212L19.7606 21.6788L18.6515 22.3212Z" fill="#DBDEE4"/>
<path d="M19.7606 21.6363L18.5788 22.3212L17.3849 21.6303L18.5667 20.9454L19.7606 21.6363Z" fill="white"/>
<path d="M18.5788 22.3576C18.5727 22.3576 18.5667 22.3576 18.5606 22.3515L17.3667 21.6606C17.3545 21.6545 17.3485 21.6424 17.3485 21.6303C17.3485 21.6182 17.3545 21.6061 17.3667 21.6L18.5485 20.9091C18.5606 20.903 18.5727 20.903 18.5848 20.9091L19.7788 21.6C19.7909 21.6061 19.797 21.6182 19.797 21.6303C19.797 21.6424 19.7909 21.6545 19.7788 21.6606L18.597 22.3515C18.5909 22.3576 18.5848 22.3576 18.5788 22.3576ZM17.4576 21.6303L18.5727 22.2727L19.6818 21.6303L18.5667 20.9879L17.4576 21.6303Z" fill="#DBDEE4"/>
<path d="M16.197 22.3212L15.0151 23.0121L13.8212 22.3212L15.0091 21.6364L16.197 22.3212Z" fill="white"/>
<path d="M15.0151 23.0485C15.0091 23.0485 15.003 23.0485 14.9969 23.0424L13.803 22.3515C13.7909 22.3455 13.7848 22.3333 13.7848 22.3212C13.7848 22.3091 13.7909 22.297 13.803 22.2909L14.9909 21.6C15.003 21.5939 15.0151 21.5939 15.0272 21.6L16.2212 22.2909C16.2333 22.297 16.2394 22.3091 16.2394 22.3212C16.2394 22.3333 16.2333 22.3455 16.2212 22.3515L15.0333 23.0424C15.0272 23.0485 15.0212 23.0485 15.0151 23.0485ZM13.9 22.3212L15.0151 22.9636L16.1242 22.3212L15.0091 21.6788L13.9 22.3212Z" fill="#DBDEE4"/>
<path d="M18.5788 22.3212L17.3909 23.0121L16.197 22.3212L17.3848 21.6303L18.5788 22.3212Z" fill="white"/>
<path d="M17.3909 23.0485C17.3848 23.0485 17.3788 23.0485 17.3727 23.0424L16.1788 22.3515C16.1666 22.3455 16.1606 22.3333 16.1606 22.3212C16.1606 22.3091 16.1666 22.297 16.1788 22.2909L17.3666 21.6C17.3788 21.5939 17.3909 21.5939 17.403 21.6L18.5969 22.2909C18.6091 22.297 18.6151 22.3091 18.6151 22.3212C18.6151 22.3333 18.6091 22.3455 18.5969 22.3515L17.4091 23.0424C17.403 23.0485 17.3969 23.0485 17.3909 23.0485ZM16.2757 22.3212L17.3909 22.9636L18.5 22.3212L17.3848 21.6788L16.2757 22.3212Z" fill="#DBDEE4"/>
<path d="M17.3848 21.6303L16.1969 22.3212L15.0091 21.6363L16.1909 20.9454L17.3848 21.6303Z" fill="white"/>
<path d="M16.1969 22.3576C16.1909 22.3576 16.1848 22.3576 16.1788 22.3515L14.9848 21.6606C14.9727 21.6545 14.9666 21.6424 14.9666 21.6303C14.9666 21.6182 14.9727 21.6061 14.9848 21.6L16.1727 20.9091C16.1848 20.903 16.1969 20.903 16.2091 20.9091L17.403 21.6C17.4151 21.6061 17.4212 21.6182 17.4212 21.6303C17.4212 21.6424 17.4151 21.6545 17.403 21.6606L16.2151 22.3515C16.2091 22.3576 16.203 22.3576 16.1969 22.3576ZM15.0818 21.6364L16.1969 22.2788L17.306 21.6364L16.1909 20.9939L15.0818 21.6364Z" fill="#DBDEE4"/>
<path d="M18.5667 20.9455L17.3849 21.6303L16.1909 20.9455L17.3788 20.2546L18.5667 20.9455Z" fill="white"/>
<path d="M17.3848 21.6728C17.3788 21.6728 17.3727 21.6728 17.3667 21.6667L16.1727 20.9758C16.1606 20.9697 16.1545 20.9576 16.1545 20.9455C16.1545 20.9334 16.1606 20.9212 16.1727 20.9152L17.3545 20.2243C17.3667 20.2182 17.3788 20.2182 17.3909 20.2243L18.5848 20.9152C18.597 20.9212 18.603 20.9334 18.603 20.9455C18.603 20.9576 18.597 20.9697 18.5848 20.9758L17.403 21.6667C17.397 21.6667 17.3909 21.6728 17.3848 21.6728ZM16.2697 20.9455L17.3848 21.5879L18.4939 20.9455L17.3788 20.3031L16.2697 20.9455Z" fill="#DBDEE4"/>
<path d="M20.9364 19.5697L19.7545 20.2545L18.5606 19.5697L19.7485 18.8788L20.9364 19.5697Z" fill="white"/>
<path d="M19.7545 20.297C19.7485 20.297 19.7424 20.297 19.7364 20.2909L18.5424 19.6C18.5303 19.5939 18.5242 19.5818 18.5242 19.5697C18.5242 19.5576 18.5303 19.5454 18.5424 19.5394L19.7303 18.8485C19.7424 18.8424 19.7545 18.8424 19.7667 18.8485L20.9606 19.5394C20.9727 19.5454 20.9788 19.5576 20.9788 19.5697C20.9788 19.5818 20.9727 19.5939 20.9606 19.6L19.7727 20.2909C19.7667 20.2909 19.7606 20.297 19.7545 20.297ZM18.6394 19.5697L19.7545 20.2121L20.8636 19.5697L19.7485 18.9273L18.6394 19.5697Z" fill="#DBDEE4"/>
<path d="M19.7545 20.2545L18.5666 20.9455L17.3788 20.2545L18.5606 19.5697L19.7545 20.2545Z" fill="white"/>
<path d="M18.5666 20.9818C18.5606 20.9818 18.5545 20.9818 18.5485 20.9758L17.3545 20.2849C17.3424 20.2788 17.3363 20.2667 17.3363 20.2546C17.3363 20.2424 17.3424 20.2303 17.3545 20.2243L18.5424 19.5334C18.5545 19.5273 18.5666 19.5273 18.5788 19.5334L19.7727 20.2243C19.7848 20.2303 19.7909 20.2424 19.7909 20.2546C19.7909 20.2667 19.7848 20.2788 19.7727 20.2849L18.5848 20.9758C18.5788 20.9818 18.5727 20.9818 18.5666 20.9818ZM17.4515 20.2546L18.5666 20.897L19.6757 20.2546L18.5606 19.6121L17.4515 20.2546Z" fill="#DBDEE4"/>
<path d="M23.3 16.8121L22.1182 17.503L20.9242 16.8121L22.106 16.1273L23.3 16.8121Z" fill="white"/>
<path d="M22.1182 17.5394C22.1121 17.5394 22.106 17.5394 22.1 17.5333L20.906 16.8424C20.8939 16.8364 20.8879 16.8242 20.8879 16.8121C20.8879 16.8 20.8939 16.7879 20.906 16.7818L22.0939 16.0909C22.106 16.0848 22.1182 16.0848 22.1303 16.0909L23.3242 16.7818C23.3363 16.7879 23.3424 16.8 23.3424 16.8121C23.3424 16.8242 23.3363 16.8364 23.3242 16.8424L22.1363 17.5333C22.1303 17.5394 22.1242 17.5394 22.1182 17.5394ZM20.997 16.8121L22.1121 17.4545L23.2212 16.8121L22.106 16.1697L20.997 16.8121Z" fill="#DBDEE4"/>
<path d="M20.9242 16.8121L19.7363 17.503L18.5424 16.8121L19.7303 16.1273L20.9242 16.8121Z" fill="white"/>
<path d="M19.7363 17.5394C19.7303 17.5394 19.7242 17.5394 19.7182 17.5333L18.5242 16.8424C18.5121 16.8364 18.506 16.8242 18.506 16.8121C18.506 16.8 18.5121 16.7879 18.5242 16.7818L19.7121 16.0909C19.7242 16.0848 19.7363 16.0848 19.7485 16.0909L20.9424 16.7818C20.9545 16.7879 20.9606 16.8 20.9606 16.8121C20.9606 16.8242 20.9545 16.8364 20.9424 16.8424L19.7545 17.5333C19.7485 17.5394 19.7424 17.5394 19.7363 17.5394ZM18.6212 16.8121L19.7363 17.4545L20.8454 16.8121L19.7303 16.1697L18.6212 16.8121Z" fill="#DBDEE4"/>
<path d="M22.1182 17.503L20.9303 18.194L19.7363 17.503L20.9242 16.8121L22.1182 17.503Z" fill="white"/>
<path d="M20.9303 18.2303C20.9242 18.2303 20.9182 18.2303 20.9121 18.2243L19.7182 17.5333C19.706 17.5273 19.7 17.5152 19.7 17.503C19.7 17.4909 19.706 17.4788 19.7182 17.4727L20.906 16.7818C20.9182 16.7758 20.9303 16.7758 20.9424 16.7818L22.1363 17.4727C22.1485 17.4788 22.1545 17.4909 22.1545 17.503C22.1545 17.5152 22.1485 17.5273 22.1363 17.5333L20.9485 18.2243C20.9424 18.2303 20.9363 18.2303 20.9303 18.2303ZM19.8151 17.503L20.9303 18.1455L22.0394 17.503L20.9242 16.8606L19.8151 17.503Z" fill="#DBDEE4"/>
<path d="M19.7485 18.8788L18.5606 19.5697L17.3667 18.8788L18.5545 18.1939L19.7485 18.8788Z" fill="white"/>
<path d="M18.5606 19.606C18.5545 19.606 18.5485 19.606 18.5424 19.6L17.3485 18.9091C17.3364 18.903 17.3303 18.8909 17.3303 18.8788C17.3303 18.8667 17.3364 18.8545 17.3485 18.8485L18.5364 18.1576C18.5485 18.1515 18.5606 18.1515 18.5727 18.1576L19.7667 18.8485C19.7788 18.8545 19.7848 18.8667 19.7848 18.8788C19.7848 18.8909 19.7788 18.903 19.7667 18.9091L18.5788 19.6C18.5727 19.606 18.5667 19.606 18.5606 19.606ZM17.4454 18.8788L18.5606 19.5212L19.6697 18.8788L18.5545 18.2363L17.4454 18.8788Z" fill="#DBDEE4"/>
<path d="M13.8212 22.3212L12.6394 23.0121L11.4455 22.3212L12.6273 21.6364L13.8212 22.3212Z" fill="white"/>
<path d="M12.6394 23.0485C12.6333 23.0485 12.6273 23.0485 12.6212 23.0424L11.4273 22.3515C11.4151 22.3455 11.4091 22.3333 11.4091 22.3212C11.4091 22.3091 11.4151 22.297 11.4273 22.2909L12.6091 21.6C12.6212 21.5939 12.6333 21.5939 12.6455 21.6L13.8394 22.2909C13.8515 22.297 13.8576 22.3091 13.8576 22.3212C13.8576 22.3333 13.8515 22.3455 13.8394 22.3515L12.6576 23.0424C12.6515 23.0485 12.6455 23.0485 12.6394 23.0485ZM11.5182 22.3212L12.6333 22.9636L13.7424 22.3212L12.6273 21.6788L11.5182 22.3212Z" fill="#DBDEE4"/>
<path d="M15.0091 21.6363L13.8212 22.3212L12.6273 21.6363L13.8151 20.9454L15.0091 21.6363Z" fill="white"/>
<path d="M13.8212 22.3576C13.8151 22.3576 13.8091 22.3576 13.803 22.3515L12.6091 21.6606C12.5969 21.6545 12.5909 21.6424 12.5909 21.6303C12.5909 21.6182 12.5969 21.6061 12.6091 21.6L13.7969 20.9091C13.8091 20.903 13.8212 20.903 13.8333 20.9091L15.0272 21.6C15.0394 21.6061 15.0454 21.6182 15.0454 21.6364C15.0454 21.6485 15.0394 21.6606 15.0272 21.6667L13.8394 22.3576C13.8333 22.3576 13.8272 22.3576 13.8212 22.3576ZM12.706 21.6364L13.8212 22.2788L14.9303 21.6364L13.8151 20.9939L12.706 21.6364Z" fill="#DBDEE4"/>
<path d="M17.3667 18.8788L16.1848 19.5697L14.9909 18.8788L16.1727 18.1939L17.3667 18.8788Z" fill="white"/>
<path d="M16.1848 19.606C16.1788 19.606 16.1727 19.606 16.1667 19.6L14.9727 18.9091C14.9606 18.903 14.9545 18.8909 14.9545 18.8788C14.9545 18.8667 14.9606 18.8545 14.9727 18.8485L16.1606 18.1576C16.1727 18.1515 16.1848 18.1515 16.197 18.1576L17.3909 18.8485C17.403 18.8545 17.4091 18.8667 17.4091 18.8788C17.4091 18.8909 17.403 18.903 17.3909 18.9091L16.203 19.6C16.197 19.606 16.1909 19.606 16.1848 19.606ZM15.0636 18.8788L16.1788 19.5212L17.2879 18.8788L16.1727 18.2363L15.0636 18.8788Z" fill="#DBDEE4"/>
<path d="M18.5606 19.5697L17.3788 20.2545L16.1848 19.5697L17.3667 18.8788L18.5606 19.5697Z" fill="white"/>
<path d="M17.3788 20.297C17.3727 20.297 17.3666 20.297 17.3606 20.2909L16.1667 19.6C16.1545 19.5939 16.1485 19.5818 16.1485 19.5697C16.1485 19.5576 16.1545 19.5454 16.1667 19.5394L17.3545 18.8485C17.3666 18.8424 17.3788 18.8424 17.3909 18.8485L18.5848 19.5394C18.597 19.5454 18.603 19.5576 18.603 19.5697C18.603 19.5818 18.597 19.5939 18.5848 19.6L17.397 20.2909C17.3909 20.2909 17.3848 20.297 17.3788 20.297ZM16.2576 19.5697L17.3727 20.2121L18.4818 19.5697L17.3666 18.9273L16.2576 19.5697Z" fill="#DBDEE4"/>
<path d="M16.1848 19.5697L14.997 20.2545L13.8091 19.5697L14.9909 18.8788L16.1848 19.5697Z" fill="white"/>
<path d="M14.997 20.297C14.9909 20.297 14.9848 20.297 14.9788 20.2909L13.7848 19.6C13.7727 19.5939 13.7667 19.5818 13.7667 19.5697C13.7667 19.5576 13.7727 19.5454 13.7848 19.5394L14.9667 18.8485C14.9788 18.8424 14.9909 18.8424 15.003 18.8485L16.197 19.5394C16.2091 19.5454 16.2151 19.5576 16.2151 19.5697C16.2151 19.5818 16.2091 19.5939 16.197 19.6L15.0151 20.2909C15.0151 20.2909 15.003 20.297 14.997 20.297ZM13.8818 19.5697L14.997 20.2121L16.1061 19.5697L14.9909 18.9273L13.8818 19.5697Z" fill="#DBDEE4"/>
<path d="M17.3788 20.2545L16.1909 20.9454L14.997 20.2545L16.1849 19.5696L17.3788 20.2545Z" fill="white"/>
<path d="M16.1909 20.9818C16.1848 20.9818 16.1788 20.9818 16.1727 20.9757L14.9788 20.2848C14.9667 20.2787 14.9606 20.2666 14.9606 20.2545C14.9606 20.2424 14.9667 20.2303 14.9788 20.2242L16.1606 19.5333C16.1727 19.5272 16.1848 19.5272 16.197 19.5333L17.3909 20.2242C17.403 20.2303 17.4091 20.2424 17.4091 20.2545C17.4091 20.2666 17.403 20.2787 17.3909 20.2848L16.2091 20.9757C16.203 20.9818 16.197 20.9818 16.1909 20.9818ZM15.0758 20.2545L16.1909 20.8969L17.3 20.2545L16.1848 19.6121L15.0758 20.2545Z" fill="#DBDEE4"/>
<path d="M14.997 20.2545L13.8152 20.9454L12.6212 20.2545L13.8091 19.5696L14.997 20.2545Z" fill="white"/>
<path d="M13.8151 20.9818C13.8091 20.9818 13.803 20.9818 13.797 20.9757L12.603 20.2848C12.5909 20.2787 12.5848 20.2666 12.5848 20.2545C12.5848 20.2424 12.5909 20.2303 12.603 20.2242L13.7909 19.5333C13.803 19.5272 13.8151 19.5272 13.8273 19.5333L15.0212 20.2242C15.0333 20.2303 15.0394 20.2424 15.0394 20.2545C15.0394 20.2666 15.0333 20.2787 15.0212 20.2848L13.8333 20.9757C13.8273 20.9818 13.8212 20.9818 13.8151 20.9818ZM12.6939 20.2545L13.8091 20.8969L14.9182 20.2545L13.803 19.6121L12.6939 20.2545Z" fill="#DBDEE4"/>
<path d="M16.1909 20.9454L15.0091 21.6363L13.8152 20.9454L14.997 20.2545L16.1909 20.9454Z" fill="white"/>
<path d="M15.0091 21.6727C15.003 21.6727 14.997 21.6727 14.9909 21.6666L13.797 20.9757C13.7848 20.9697 13.7788 20.9575 13.7788 20.9454C13.7788 20.9333 13.7848 20.9212 13.797 20.9151L14.9848 20.2242C14.997 20.2182 15.0091 20.2182 15.0212 20.2242L16.2151 20.9151C16.2273 20.9212 16.2333 20.9333 16.2333 20.9454C16.2333 20.9575 16.2273 20.9697 16.2151 20.9757L15.0273 21.6666C15.0212 21.6727 15.0151 21.6727 15.0091 21.6727ZM13.8879 20.9454L15.003 21.5878L16.1121 20.9454L14.997 20.303L13.8879 20.9454Z" fill="#DBDEE4"/>
<path d="M13.8091 19.5697L12.6212 20.2545L11.4273 19.5697L12.6152 18.8788L13.8091 19.5697Z" fill="white"/>
<path d="M12.6212 20.297C12.6151 20.297 12.6091 20.297 12.603 20.2909L11.4091 19.6C11.397 19.5939 11.3909 19.5818 11.3909 19.5697C11.3909 19.5576 11.397 19.5454 11.4091 19.5394L12.597 18.8485C12.6091 18.8424 12.6212 18.8424 12.6333 18.8485L13.8273 19.5394C13.8394 19.5454 13.8454 19.5576 13.8454 19.5697C13.8454 19.5818 13.8394 19.5939 13.8273 19.6L12.6394 20.2909C12.6333 20.2909 12.6273 20.297 12.6212 20.297ZM11.5061 19.5697L12.6212 20.2121L13.7303 19.5697L12.6151 18.9273L11.5061 19.5697Z" fill="#DBDEE4"/>
<path d="M14.9909 18.8788L13.8091 19.5697L12.6151 18.8788L13.797 18.1939L14.9909 18.8788Z" fill="white"/>
<path d="M13.8091 19.606C13.803 19.606 13.7969 19.606 13.7909 19.6L12.5969 18.9091C12.5848 18.903 12.5788 18.8909 12.5788 18.8788C12.5788 18.8667 12.5848 18.8545 12.5969 18.8485L13.7788 18.1576C13.7909 18.1515 13.803 18.1515 13.8151 18.1576L15.0091 18.8485C15.0212 18.8545 15.0273 18.8667 15.0273 18.8788C15.0273 18.8909 15.0212 18.903 15.0091 18.9091L13.8273 19.6C13.8212 19.606 13.8151 19.606 13.8091 19.606ZM12.6879 18.8788L13.803 19.5212L14.9121 18.8788L13.7969 18.2363L12.6879 18.8788Z" fill="#DBDEE4"/>
<path d="M13.797 18.1939L12.6151 18.8787L11.4212 18.1939L12.603 17.503L13.797 18.1939Z" fill="white"/>
<path d="M12.6151 18.9151C12.6091 18.9151 12.603 18.9151 12.5969 18.9091L11.403 18.2182C11.3909 18.2121 11.3848 18.2 11.3848 18.1879C11.3848 18.1757 11.3909 18.1636 11.403 18.1576L12.5848 17.4666C12.5969 17.4606 12.6091 17.4606 12.6212 17.4666L13.8151 18.1576C13.8273 18.1636 13.8333 18.1757 13.8333 18.1879C13.8333 18.2 13.8273 18.2121 13.8151 18.2182L12.6333 18.9091C12.6273 18.9151 12.6212 18.9151 12.6151 18.9151ZM11.5 18.1939L12.6151 18.8363L13.7242 18.1939L12.6091 17.5515L11.5 18.1939Z" fill="#DBDEE4"/>
<path d="M14.9848 17.503L13.797 18.194L12.603 17.503L13.7909 16.8121L14.9848 17.503Z" fill="white"/>
<path d="M13.797 18.2303C13.7909 18.2303 13.7848 18.2303 13.7788 18.2243L12.5848 17.5333C12.5727 17.5273 12.5667 17.5152 12.5667 17.503C12.5667 17.4909 12.5727 17.4788 12.5848 17.4727L13.7727 16.7818C13.7848 16.7758 13.797 16.7758 13.8091 16.7818L15.003 17.4727C15.0151 17.4788 15.0212 17.4909 15.0212 17.503C15.0212 17.5152 15.0151 17.5273 15.003 17.5333L13.8151 18.2243C13.8091 18.2303 13.803 18.2303 13.797 18.2303ZM12.6818 17.503L13.797 18.1455L14.906 17.503L13.7909 16.8606L12.6818 17.503Z" fill="#DBDEE4"/>
<path d="M13.7909 16.8121L12.603 17.503L11.4151 16.8121L12.5969 16.1273L13.7909 16.8121Z" fill="white"/>
<path d="M12.603 17.5394C12.597 17.5394 12.5909 17.5394 12.5848 17.5333L11.3909 16.8424C11.3788 16.8364 11.3727 16.8242 11.3727 16.8121C11.3727 16.8 11.3788 16.7879 11.3909 16.7818L12.5788 16.0909C12.5909 16.0848 12.603 16.0848 12.6151 16.0909L13.8091 16.7818C13.8212 16.7879 13.8273 16.8 13.8273 16.8121C13.8273 16.8242 13.8212 16.8364 13.8091 16.8424L12.6212 17.5333C12.6212 17.5394 12.6151 17.5394 12.603 17.5394ZM11.4879 16.8121L12.603 17.4545L13.7121 16.8121L12.597 16.1697L11.4879 16.8121Z" fill="#DBDEE4"/>
<path d="M22.1303 20.2545L20.9485 20.9455L19.7545 20.2545L20.9364 19.5697L22.1303 20.2545Z" fill="white"/>
<path d="M20.9485 20.9818C20.9424 20.9818 20.9364 20.9818 20.9303 20.9758L19.7364 20.2849C19.7242 20.2788 19.7182 20.2667 19.7182 20.2546C19.7182 20.2424 19.7242 20.2303 19.7364 20.2243L20.9242 19.5334C20.9364 19.5273 20.9485 19.5273 20.9606 19.5334L22.1545 20.2243C22.1667 20.2303 22.1727 20.2424 22.1727 20.2546C22.1727 20.2667 22.1667 20.2788 22.1545 20.2849L20.9667 20.9758C20.9606 20.9818 20.9545 20.9818 20.9485 20.9818ZM19.8273 20.2546L20.9424 20.897L22.0515 20.2546L20.9364 19.6121L19.8273 20.2546Z" fill="#DBDEE4"/>
<path d="M23.3242 20.9455L22.1363 21.6364L20.9485 20.9455L22.1303 20.2546L23.3242 20.9455Z" fill="white"/>
<path d="M22.1363 21.6728C22.1303 21.6728 22.1242 21.6728 22.1182 21.6667L20.9242 20.9758C20.9121 20.9697 20.906 20.9576 20.906 20.9455C20.906 20.9334 20.9121 20.9212 20.9242 20.9152L22.1121 20.2243C22.1242 20.2182 22.1363 20.2182 22.1485 20.2243L23.3424 20.9152C23.3545 20.9212 23.3606 20.9334 23.3606 20.9455C23.3606 20.9576 23.3545 20.9697 23.3424 20.9758L22.1545 21.6667C22.1545 21.6728 22.1424 21.6728 22.1363 21.6728ZM21.0212 20.9455L22.1363 21.5879L23.2454 20.9455L22.1303 20.3031L21.0212 20.9455Z" fill="#DBDEE4"/>
<path d="M23.3303 22.3212L22.1424 23.0121L20.9545 22.3212L22.1363 21.6364L23.3303 22.3212Z" fill="white"/>
<path d="M22.1424 23.0485C22.1364 23.0485 22.1303 23.0485 22.1242 23.0424L20.9303 22.3515C20.9182 22.3455 20.9121 22.3333 20.9121 22.3212C20.9121 22.3091 20.9182 22.297 20.9303 22.2909L22.1182 21.6C22.1303 21.5939 22.1424 21.5939 22.1545 21.6L23.3485 22.2909C23.3606 22.297 23.3667 22.3091 23.3667 22.3212C23.3667 22.3333 23.3606 22.3455 23.3485 22.3515L22.1606 23.0424C22.1606 23.0485 22.1545 23.0485 22.1424 23.0485ZM21.0273 22.3212L22.1424 22.9636L23.2515 22.3212L22.1364 21.6788L21.0273 22.3212Z" fill="#DBDEE4"/>
<path d="M22.1363 21.6363L20.9545 22.3212L19.7606 21.6363L20.9485 20.9454L22.1363 21.6363Z" fill="white"/>
<path d="M20.9545 22.3576C20.9485 22.3576 20.9424 22.3576 20.9364 22.3515L19.7424 21.6606C19.7303 21.6545 19.7242 21.6424 19.7242 21.6303C19.7242 21.6182 19.7303 21.6061 19.7424 21.6L20.9303 20.9091C20.9424 20.903 20.9545 20.903 20.9667 20.9091L22.1606 21.6C22.1727 21.6061 22.1788 21.6182 22.1788 21.6303C22.1788 21.6424 22.1727 21.6545 22.1606 21.6606L20.9727 22.3515C20.9667 22.3576 20.9606 22.3576 20.9545 22.3576ZM19.8333 21.6364L20.9485 22.2788L22.0576 21.6364L20.9424 20.9939L19.8333 21.6364Z" fill="#DBDEE4"/>
<path d="M13.8151 20.9455L12.6273 21.6364L11.4333 20.9455L12.6212 20.2546L13.8151 20.9455Z" fill="white"/>
<path d="M12.6272 21.6728C12.6212 21.6728 12.6151 21.6728 12.6091 21.6667L11.4151 20.9758C11.403 20.9697 11.3969 20.9576 11.3969 20.9455C11.3969 20.9334 11.403 20.9212 11.4151 20.9152L12.603 20.2243C12.6151 20.2182 12.6272 20.2182 12.6394 20.2243L13.8333 20.9152C13.8454 20.9212 13.8515 20.9334 13.8515 20.9455C13.8515 20.9576 13.8454 20.9697 13.8333 20.9758L12.6454 21.6667C12.6394 21.6728 12.6333 21.6728 12.6272 21.6728ZM11.5121 20.9455L12.6272 21.5879L13.7363 20.9455L12.6212 20.3031L11.5121 20.9455Z" fill="#DBDEE4"/>
<path d="M19.7364 17.503L18.5545 18.194L17.3606 17.503L18.5424 16.8121L19.7364 17.503Z" fill="white"/>
<path d="M18.5545 18.2303C18.5485 18.2303 18.5424 18.2303 18.5363 18.2243L17.3424 17.5333C17.3303 17.5273 17.3242 17.5152 17.3242 17.503C17.3242 17.4909 17.3303 17.4788 17.3424 17.4727L18.5242 16.7818C18.5363 16.7758 18.5485 16.7758 18.5606 16.7818L19.7545 17.4727C19.7666 17.4788 19.7727 17.4909 19.7727 17.503C19.7727 17.5152 19.7666 17.5273 19.7545 17.5333L18.5727 18.2243C18.5666 18.2243 18.5606 18.2303 18.5545 18.2303ZM17.4333 17.503L18.5485 18.1455L19.6576 17.503L18.5424 16.8606L17.4333 17.503Z" fill="#DBDEE4"/>
<path d="M18.5545 18.1939L17.3667 18.8787L16.1727 18.1939L17.3606 17.503L18.5545 18.1939Z" fill="white"/>
<path d="M17.3667 18.9151C17.3606 18.9151 17.3545 18.9151 17.3485 18.9091L16.1545 18.2182C16.1424 18.2121 16.1364 18.2 16.1364 18.1879C16.1364 18.1757 16.1424 18.1636 16.1545 18.1576L17.3424 17.4666C17.3545 17.4606 17.3667 17.4606 17.3788 17.4666L18.5727 18.1576C18.5848 18.1636 18.5909 18.1757 18.5909 18.1879C18.5909 18.2 18.5848 18.2121 18.5727 18.2182L17.3848 18.9091C17.3788 18.9151 17.3727 18.9151 17.3667 18.9151ZM16.2515 18.1879L17.3667 18.8303L18.4757 18.1879L17.3606 17.5454L16.2515 18.1879Z" fill="#DBDEE4"/>
<path d="M16.1667 16.8121L14.9848 17.503L13.7909 16.8121L14.9788 16.1273L16.1667 16.8121Z" fill="white"/>
<path d="M14.9848 17.5394C14.9788 17.5394 14.9727 17.5394 14.9666 17.5333L13.7727 16.8485C13.7606 16.8424 13.7545 16.8303 13.7545 16.8182C13.7545 16.806 13.7606 16.7939 13.7727 16.7879L14.9606 16.097C14.9727 16.0909 14.9848 16.0909 14.9969 16.097L16.1909 16.7879C16.203 16.7939 16.2091 16.806 16.2091 16.8182C16.2091 16.8303 16.203 16.8424 16.1909 16.8485L15.003 17.5394C14.9969 17.5394 14.9909 17.5394 14.9848 17.5394ZM13.8636 16.8121L14.9788 17.4545L16.0878 16.8121L14.9727 16.1697L13.8636 16.8121Z" fill="#DBDEE4"/>
<path d="M23.306 18.1939L22.1242 18.8787L20.9303 18.1939L22.1182 17.503L23.306 18.1939Z" fill="white"/>
<path d="M22.1242 18.9151C22.1182 18.9151 22.1121 18.9151 22.106 18.9091L20.9121 18.2182C20.9 18.2121 20.8939 18.2 20.8939 18.1879C20.8939 18.1757 20.9 18.1636 20.9121 18.1576L22.1 17.4666C22.1121 17.4606 22.1242 17.4606 22.1363 17.4666L23.3303 18.1576C23.3424 18.1636 23.3485 18.1757 23.3485 18.1879C23.3485 18.2 23.3424 18.2121 23.3303 18.2182L22.1424 18.9091C22.1363 18.9151 22.1303 18.9151 22.1242 18.9151ZM21.003 18.1939L22.1182 18.8363L23.2273 18.1939L22.1121 17.5515L21.003 18.1939Z" fill="#DBDEE4"/>
<path d="M22.1242 18.8788L20.9363 19.5697L19.7485 18.8788L20.9303 18.1939L22.1242 18.8788Z" fill="white"/>
<path d="M20.9363 19.606C20.9303 19.606 20.9242 19.606 20.9182 19.6L19.7242 18.9091C19.7121 18.903 19.706 18.8909 19.706 18.8788C19.706 18.8667 19.7121 18.8545 19.7242 18.8485L20.906 18.1576C20.9182 18.1515 20.9303 18.1515 20.9424 18.1576L22.1363 18.8485C22.1485 18.8545 22.1545 18.8667 22.1545 18.8788C22.1545 18.8909 22.1485 18.903 22.1363 18.9091L20.9545 19.6C20.9485 19.606 20.9424 19.606 20.9363 19.606ZM19.8212 18.8788L20.9363 19.5212L22.0454 18.8788L20.9303 18.2363L19.8212 18.8788Z" fill="#DBDEE4"/>
<path d="M23.3121 19.5697L22.1303 20.2545L20.9363 19.5697L22.1242 18.8788L23.3121 19.5697Z" fill="white"/>
<path d="M22.1303 20.297C22.1242 20.297 22.1182 20.297 22.1121 20.2909L20.9182 19.6C20.906 19.5939 20.9 19.5818 20.9 19.5697C20.9 19.5576 20.906 19.5454 20.9182 19.5394L22.1 18.8485C22.1121 18.8424 22.1242 18.8424 22.1363 18.8485L23.3303 19.5394C23.3424 19.5454 23.3485 19.5576 23.3485 19.5697C23.3485 19.5818 23.3424 19.5939 23.3303 19.6L22.1485 20.2909C22.1424 20.2909 22.1363 20.297 22.1303 20.297ZM21.0151 19.5697L22.1303 20.2121L23.2394 19.5697L22.1242 18.9273L21.0151 19.5697Z" fill="#DBDEE4"/>
<path d="M20.9303 18.1939L19.7485 18.8787L18.5545 18.1939L19.7363 17.503L20.9303 18.1939Z" fill="white"/>
<path d="M19.7485 18.9151C19.7424 18.9151 19.7363 18.9151 19.7303 18.9091L18.5363 18.2182C18.5242 18.2121 18.5182 18.2 18.5182 18.1879C18.5182 18.1757 18.5242 18.1636 18.5363 18.1576L19.7182 17.4666C19.7303 17.4606 19.7424 17.4606 19.7545 17.4666L20.9485 18.1576C20.9606 18.1636 20.9666 18.1757 20.9666 18.1879C20.9666 18.2 20.9606 18.2121 20.9485 18.2182L19.7666 18.9091C19.7606 18.9151 19.7545 18.9151 19.7485 18.9151ZM18.6272 18.1879L19.7424 18.8303L20.8515 18.1879L19.7363 17.5454L18.6272 18.1879Z" fill="#DBDEE4"/>
<path d="M17.3848 17.2606L12.6758 14.5576V18.9213L17.3848 21.6243" fill="#F0F2F5"/>
<path d="M17.3848 21.6667C17.3788 21.6667 17.3727 21.6667 17.3666 21.6606L12.6576 18.9576C12.6454 18.9515 12.6394 18.9394 12.6394 18.9273V14.5637C12.6394 14.5515 12.6454 14.5394 12.6576 14.5334C12.6697 14.5273 12.6818 14.5273 12.6939 14.5334L17.403 17.2364C17.403 17.2364 17.4091 17.2364 17.4091 17.2424C17.4091 17.2485 17.4091 17.2424 17.4151 17.2485C17.4212 17.2546 17.4212 17.2606 17.4273 17.2727V21.6364C17.4273 21.6485 17.4212 21.6546 17.4151 21.6606C17.4091 21.6606 17.3969 21.6667 17.3848 21.6667ZM12.7121 18.9031L17.3485 21.5637V17.2849L12.7121 14.6243V18.9031Z" fill="#373B42"/>
<path d="M17.3848 17.2606L12.6757 14.5576L17.3848 17.2606Z" fill="white"/>
<path d="M17.3848 17.297C17.3788 17.297 17.3727 17.297 17.3666 17.2909L12.6515 14.5879C12.6333 14.5757 12.6272 14.5515 12.6394 14.5333C12.6515 14.5151 12.6757 14.5091 12.6939 14.5212L17.4091 17.2242C17.4272 17.2364 17.4333 17.2606 17.4212 17.2788C17.4151 17.2909 17.403 17.297 17.3848 17.297Z" fill="#373B42"/>
<path d="M17.3848 17.2606L19.7969 13.8425L22.2091 14.497V18.8607L17.3848 21.6243" fill="white"/>
<path d="M17.3848 21.6667C17.3727 21.6667 17.3666 21.6606 17.3606 21.6546C17.3545 21.6485 17.3606 21.6546 17.3545 21.6485C17.3485 21.6425 17.3424 21.6303 17.3424 21.6243V17.2606C17.3424 17.2546 17.3424 17.2425 17.3485 17.2364L19.7606 13.8182C19.7666 13.8061 19.7848 13.8 19.803 13.8061L22.2151 14.4606C22.2333 14.4667 22.2454 14.4788 22.2454 14.497V18.8606C22.2454 18.8728 22.2394 18.8849 22.2273 18.8909L17.4091 21.6546C17.403 21.6606 17.397 21.6667 17.3848 21.6667ZM17.4273 17.2728V21.5576L22.1727 18.8364V14.5212L19.8151 13.8788L17.4273 17.2728Z" fill="#373B42"/>
<path d="M15.1727 11.0182L12.6757 14.5576L17.3848 17.2606L19.7969 13.8424L15.1727 11.0182Z" fill="#DBDEE4"/>
<path d="M17.3848 17.297C17.3788 17.297 17.3727 17.297 17.3666 17.2909L12.6515 14.5879C12.6394 14.5818 12.6333 14.5758 12.6333 14.5637C12.6333 14.5515 12.6333 14.5394 12.6394 14.5333L15.1363 10.994C15.1485 10.9758 15.1727 10.9758 15.1848 10.9818L19.8151 13.8061C19.8212 13.8121 19.8333 13.8182 19.8333 13.8303C19.8333 13.8424 19.8333 13.8485 19.8272 13.8606L17.4151 17.2788C17.4091 17.297 17.3969 17.297 17.3848 17.297ZM12.7303 14.5455L17.3788 17.2121L19.7485 13.8546L15.1848 11.0727L12.7303 14.5455Z" fill="#373B42"/>
<path d="M22.2091 14.497L17.5788 11.6727L15.1727 11.0182L19.7969 13.8424L22.2091 14.497Z" fill="#DBDEE4"/>
<path d="M22.2091 14.5333C22.203 14.5333 22.203 14.5333 22.1969 14.5333L19.7848 13.8788C19.7788 13.8788 19.7788 13.8788 19.7727 13.8727L15.1424 11.0485C15.1242 11.0364 15.1181 11.0182 15.1303 11C15.1363 10.9818 15.1545 10.9758 15.1727 10.9758L17.5848 11.6303C17.5909 11.6303 17.5909 11.6303 17.5969 11.6364L22.2272 14.4606C22.2454 14.4727 22.2515 14.4909 22.2394 14.5091C22.2394 14.5273 22.2212 14.5333 22.2091 14.5333ZM19.8151 13.8061L21.9666 14.3879L17.5727 11.703L15.4212 11.1212L19.8151 13.8061Z" fill="#373B42"/>
<path d="M20.8575 16.5757L20.8636 19.6303L19.1666 20.6121L19.1606 17.5515L20.8575 16.5757Z" fill="#DBDEE4"/>
<path d="M19.1666 20.6485C19.1606 20.6485 19.1545 20.6485 19.1484 20.6424C19.1363 20.6363 19.1303 20.6242 19.1303 20.6121L19.1242 17.5576C19.1242 17.5454 19.1303 17.5333 19.1424 17.5273L20.8394 16.5454C20.8515 16.5394 20.8636 16.5394 20.8757 16.5454C20.8878 16.5515 20.8939 16.5636 20.8939 16.5757L20.9 19.6303C20.9 19.6424 20.8939 19.6545 20.8818 19.6606L19.1848 20.6424C19.1788 20.6485 19.1727 20.6485 19.1666 20.6485ZM19.1969 17.5757L19.203 20.5454L20.8272 19.6121L20.8212 16.6424L19.1969 17.5757Z" fill="#373B42"/>
<path d="M19.9727 13.2727C20.0272 13.2424 20.0757 13.2303 20.1182 13.2485L22.6575 14.1939C22.7545 14.2303 22.7666 14.3879 22.6878 14.5454C22.6454 14.6364 22.5788 14.703 22.5121 14.7454C22.4636 14.7757 22.4091 14.7879 22.3666 14.7697L19.9788 13.8788L17.603 17.5212C17.5606 17.5879 17.506 17.6364 17.4575 17.6667C17.3909 17.703 17.3242 17.7091 17.2818 17.6727C17.203 17.606 17.2151 17.4303 17.3121 17.2848L19.8333 13.4182C19.8697 13.3515 19.9182 13.303 19.9727 13.2727Z" fill="#1FB6FF"/>
<path d="M17.3485 17.7394C17.3121 17.7394 17.2757 17.7273 17.2515 17.703C17.1545 17.6243 17.1666 17.4303 17.2757 17.2606L19.7969 13.394C19.8394 13.3273 19.9 13.2727 19.9545 13.2364C20.0151 13.2 20.0818 13.1879 20.1303 13.2121L22.6697 14.1576C22.7121 14.1758 22.7424 14.2061 22.7606 14.2546C22.7909 14.3394 22.7788 14.4546 22.7181 14.5697C22.6697 14.6606 22.603 14.7394 22.5242 14.7818C22.4636 14.8182 22.3969 14.8303 22.3485 14.8061L19.9848 13.9273L17.6212 17.5455C17.5788 17.6121 17.5242 17.6667 17.4636 17.703C17.4272 17.7273 17.3848 17.7394 17.3485 17.7394ZM20.0757 13.2788C20.0515 13.2788 20.0212 13.2849 19.9909 13.303C19.9424 13.3333 19.8939 13.3818 19.8575 13.4364L17.3363 17.303C17.2394 17.4485 17.2394 17.594 17.3 17.6424C17.3424 17.6788 17.4091 17.6485 17.4333 17.6303C17.4818 17.6 17.5303 17.5576 17.5666 17.497L19.9424 13.8546C19.9545 13.8424 19.9727 13.8364 19.9848 13.8424L22.3727 14.7333C22.403 14.7455 22.4454 14.7394 22.4878 14.7091C22.5485 14.6727 22.6091 14.6061 22.6515 14.5273C22.7 14.4364 22.7121 14.3394 22.6878 14.2788C22.6757 14.2546 22.6636 14.2364 22.6394 14.2303L20.1 13.2849C20.0939 13.2788 20.0878 13.2788 20.0757 13.2788Z" fill="#373B42"/>
<path d="M14.7848 10.2667C14.7303 10.297 14.6818 10.3455 14.6394 10.4121L12.1182 14.2788C12.0212 14.4303 12.0091 14.6 12.0878 14.6667C12.0939 14.6728 12.1 14.6728 12.1 14.6788L17.2818 17.6849C17.2757 17.6849 17.2697 17.6788 17.2697 17.6728C17.1909 17.6061 17.203 17.4303 17.3 17.2849L19.8212 13.4182C19.8636 13.3515 19.9182 13.3031 19.9666 13.2728C19.9969 13.2546 20.0272 13.2485 20.0515 13.2425L14.8697 10.2364C14.8454 10.2364 14.8151 10.2485 14.7848 10.2667Z" fill="#DBDEE4"/>
<path d="M17.2879 17.7212C17.2818 17.7212 17.2757 17.7212 17.2697 17.7152C17.2697 17.7152 17.2697 17.7152 17.2636 17.7152L12.0818 14.7091C12.0757 14.703 12.0697 14.703 12.0636 14.697C11.9666 14.6182 11.9788 14.4243 12.0879 14.2606L14.6091 10.394C14.6515 10.3273 14.7121 10.2727 14.7666 10.2364C14.803 10.2182 14.8333 10.2061 14.8697 10.2C14.8757 10.2 14.8879 10.2 14.8939 10.2061L20.0757 13.2121C20.0879 13.2182 20.1 13.2364 20.0939 13.2546C20.0879 13.2727 20.0757 13.2849 20.0636 13.2849C20.0394 13.2849 20.0151 13.297 19.9909 13.3091C19.9424 13.3333 19.8939 13.3818 19.8576 13.4364L17.3363 17.303C17.2394 17.4485 17.2394 17.594 17.3 17.6424H17.306L17.3121 17.6485C17.3303 17.6606 17.3363 17.6849 17.3242 17.703C17.3121 17.7152 17.3 17.7212 17.2879 17.7212ZM14.8091 10.297C14.7606 10.3273 14.7121 10.3697 14.6757 10.4303L12.1545 14.297C12.0576 14.4424 12.0576 14.5879 12.1182 14.6364C12.1242 14.6364 12.1242 14.6424 12.1303 14.6424L17.1909 17.5818C17.1788 17.4909 17.2091 17.3697 17.2757 17.2667L19.7969 13.4C19.8394 13.3333 19.9 13.2788 19.9545 13.2424C19.9606 13.2424 19.9606 13.2364 19.9666 13.2364L14.8697 10.2788C14.8454 10.2788 14.8273 10.2849 14.8091 10.297Z" fill="#373B42"/>
<path d="M20.1182 13.2485L22.6576 14.194L17.4697 11.1879L14.9303 10.2424C14.9121 10.2364 14.8939 10.2364 14.8697 10.2364L20.0515 13.2425C20.0818 13.2425 20.1 13.2425 20.1182 13.2485Z" fill="#BEC4CD"/>
<path d="M22.6576 14.2303C22.6515 14.2303 22.6515 14.2303 22.6454 14.2303L20.106 13.2849C20.0939 13.2788 20.0818 13.2788 20.0636 13.2788C20.0576 13.2788 20.0454 13.2788 20.0394 13.2728L14.8576 10.2667C14.8454 10.2606 14.8333 10.2425 14.8394 10.2243C14.8454 10.2061 14.8576 10.194 14.8697 10.194C14.9 10.194 14.9242 10.194 14.9485 10.2L17.4879 11.1455L22.6757 14.1576C22.6939 14.1697 22.7 14.1879 22.6939 14.2061C22.6818 14.2243 22.6697 14.2303 22.6576 14.2303ZM20.1303 13.2122L22.2515 14L17.4515 11.2182L15.197 10.3818L20.0636 13.2061C20.0939 13.2061 20.1121 13.2061 20.1303 13.2122Z" fill="#373B42"/>
<path d="M14.8091 17.4485V19.1091L13.2697 18.2182V16.5576L14.8091 17.4485Z" fill="#1FB6FF"/>
<path d="M14.8091 19.1515C14.803 19.1515 14.7969 19.1515 14.7909 19.1455L13.2515 18.2546C13.2394 18.2485 13.2333 18.2364 13.2333 18.2243V16.5637C13.2333 16.5515 13.2394 16.5394 13.2515 16.5334C13.2636 16.5273 13.2757 16.5273 13.2879 16.5334L14.8272 17.4243C14.8394 17.4303 14.8454 17.4424 14.8454 17.4546V19.1152C14.8454 19.1273 14.8394 19.1394 14.8272 19.1455C14.8212 19.1455 14.8151 19.1515 14.8091 19.1515ZM13.306 18.194L14.7727 19.0424V17.4667L13.306 16.6182V18.194Z" fill="#373B42"/>
<path d="M14.0394 18.7031C14.0212 18.7031 14.003 18.6849 14.003 18.6667V17.0061C14.003 16.9879 14.0212 16.9697 14.0394 16.9697C14.0575 16.9697 14.0757 16.9879 14.0757 17.0061V18.6667C14.0818 18.6849 14.0636 18.7031 14.0394 18.7031Z" fill="#373B42"/>
<path d="M16.8273 18.5516V20.2182L15.2818 19.3213V17.6606L16.8273 18.5516Z" fill="#1FB6FF"/>
<path d="M16.8273 20.2546C16.8212 20.2546 16.8151 20.2546 16.8091 20.2485L15.2697 19.3576C15.2576 19.3515 15.2515 19.3394 15.2515 19.3273V17.6667C15.2515 17.6546 15.2576 17.6424 15.2697 17.6364C15.2818 17.6303 15.2939 17.6303 15.306 17.6364L16.8454 18.5273C16.8576 18.5334 16.8636 18.5455 16.8636 18.5576V20.2182C16.8636 20.2303 16.8576 20.2424 16.8454 20.2485C16.8394 20.2546 16.8333 20.2546 16.8273 20.2546ZM15.3242 19.303L16.7909 20.1515V18.5758L15.3242 17.7273V19.303Z" fill="#373B42"/>
<path d="M16.0515 19.8061C16.0333 19.8061 16.0151 19.7879 16.0151 19.7697V18.1091C16.0151 18.0909 16.0333 18.0728 16.0515 18.0728C16.0697 18.0728 16.0879 18.0909 16.0879 18.1091V19.7697C16.0939 19.7879 16.0757 19.8061 16.0515 19.8061Z" fill="#373B42"/>
<path d="M20.8636 19.6303L19.1606 18.7939L19.1666 20.6121L20.8636 19.6303Z" fill="#373B42"/>
<path d="M19.1666 20.6485C19.1606 20.6485 19.1545 20.6485 19.1485 20.6424C19.1363 20.6364 19.1303 20.6242 19.1303 20.6121L19.1242 18.7939C19.1242 18.7818 19.1303 18.7697 19.1424 18.7636C19.1545 18.7576 19.1666 18.7576 19.1788 18.7636L20.8818 19.6C20.8939 19.6061 20.9 19.6182 20.9 19.6303C20.9 19.6424 20.8939 19.6545 20.8818 19.6667L19.1848 20.6485C19.1788 20.6485 19.1727 20.6485 19.1666 20.6485ZM19.203 18.8545L19.2091 20.5455L20.7909 19.6364L19.203 18.8545Z" fill="#373B42"/>
<path d="M19.8879 15.9576C20.0879 15.8425 20.2454 15.9394 20.2515 16.1637C20.2515 16.394 20.0939 16.6728 19.8939 16.7879C19.6879 16.9031 19.5303 16.8122 19.5303 16.5819C19.5182 16.3576 19.6818 16.0788 19.8879 15.9576Z" fill="#373B42"/>
<g opacity="0.1">
<path d="M39.3666 31.7757C39.3666 32.3515 38.9606 33.0606 38.4576 33.3515L28.0636 39.3575L18.8879 34.0242L29.2818 28.0242C29.7848 27.7333 30.1909 27.0303 30.1909 26.4485C30.1909 26.1636 30.0879 25.9575 29.9242 25.8666L39.1 31.2C39.2636 31.2848 39.3606 31.4909 39.3666 31.7757Z" fill="#373B42"/>
</g>
<path d="M39.3667 30.3636C39.3667 30.9394 38.9606 31.6485 38.4576 31.9394L28.0576 37.9394L18.8818 32.6061L29.2757 26.6061C29.7788 26.3152 30.1848 25.6121 30.1848 25.0303C30.1848 24.7455 30.0818 24.5394 29.9182 24.4485L39.0939 29.7818C39.2636 29.8727 39.3606 30.0788 39.3667 30.3636Z" fill="white"/>
<path d="M28.0576 37.9757C28.0515 37.9757 28.0454 37.9757 28.0394 37.9697L18.8636 32.6364C18.8515 32.6303 18.8454 32.6182 18.8454 32.606C18.8454 32.5939 18.8515 32.5818 18.8636 32.5757L29.2576 26.5757C29.7485 26.2909 30.1485 25.6 30.1485 25.0364C30.1485 24.7757 30.0576 24.5757 29.9 24.4848C29.8818 24.4727 29.8757 24.4485 29.8879 24.4303C29.9 24.4121 29.9242 24.4061 29.9424 24.4182L39.1182 29.7515C39.3 29.8545 39.403 30.0788 39.403 30.3697C39.403 30.9576 38.9909 31.6788 38.4757 31.9757L28.0757 37.9757C28.0697 37.9757 28.0636 37.9757 28.0576 37.9757ZM18.9606 32.606L28.0576 37.897L38.4333 31.903C38.9242 31.6182 39.3242 30.9273 39.3242 30.3636C39.3242 30.097 39.2333 29.903 39.0757 29.8121L30.1303 24.6121C30.1909 24.7212 30.2273 24.8667 30.2273 25.0303C30.2273 25.6182 29.8151 26.3394 29.3 26.6364L18.9606 32.606Z" fill="#373B42"/>
<path d="M39.4454 29.1818C39.1909 29.0364 38.8394 29.0545 38.4515 29.2788C37.6757 29.7273 37.0515 30.8121 37.0576 31.697L27.8818 26.3636C27.8818 25.4788 28.506 24.3939 29.2757 23.9455C29.6636 23.7212 30.0151 23.697 30.2697 23.8485L39.4454 29.1818Z" fill="#DBDEE4"/>
<path d="M37.0515 31.7333C37.0454 31.7333 37.0394 31.7333 37.0333 31.7273L27.8576 26.3939C27.8454 26.3879 27.8394 26.3758 27.8394 26.3636C27.8394 25.4606 28.4697 24.3636 29.2515 23.9151C29.6394 23.6909 30.0091 23.6545 30.2879 23.8182L39.4636 29.1515C39.4818 29.1636 39.4879 29.1879 39.4757 29.2061C39.4636 29.2242 39.4394 29.2303 39.4212 29.2182C39.1667 29.0727 38.8273 29.103 38.4636 29.3151C37.7 29.7576 37.0818 30.8242 37.0879 31.703C37.0879 31.7151 37.0818 31.7273 37.0697 31.7333C37.0636 31.7333 37.0576 31.7333 37.0515 31.7333ZM27.9121 26.3455L37.0151 31.6364C37.0394 30.7515 37.6636 29.6909 38.4273 29.2485C38.6818 29.103 38.9242 29.0364 39.1424 29.0545L30.2454 23.8848C29.9909 23.7394 29.6515 23.7697 29.2879 23.9818C28.5364 24.4182 27.9242 25.4727 27.9121 26.3455Z" fill="#373B42"/>
<path d="M28.0576 38.503L18.8818 33.1697V32.6061L28.0576 37.9394V38.503Z" fill="#F0F2F5"/>
<path d="M28.0576 38.5394C28.0515 38.5394 28.0454 38.5394 28.0394 38.5334L18.8636 33.2C18.8515 33.194 18.8454 33.1818 18.8454 33.1697V32.6061C18.8454 32.594 18.8515 32.5818 18.8636 32.5758C18.8757 32.5697 18.8879 32.5697 18.9 32.5758L28.0757 37.9091C28.0879 37.9152 28.0939 37.9273 28.0939 37.9394V38.503C28.0939 38.5152 28.0879 38.5273 28.0757 38.5334C28.0757 38.5394 28.0697 38.5394 28.0576 38.5394ZM18.9242 33.1455L28.0273 38.4364V37.9637L18.9242 32.6727V33.1455Z" fill="#373B42"/>
<path d="M38.4454 29.2788C39.2151 28.8303 39.8454 29.194 39.8515 30.0788C39.8515 30.9637 39.2273 32.0485 38.4576 32.497L28.0636 38.497V37.9334L38.4576 31.9334C38.9606 31.6424 39.3667 30.9394 39.3667 30.3576C39.3667 29.7818 38.9545 29.5455 38.4515 29.8364C37.9485 30.1273 37.5424 30.8303 37.5424 31.4121L37.0515 31.697C37.0515 30.8121 37.6758 29.7273 38.4454 29.2788Z" fill="#373B42"/>
<path d="M28.0576 38.5394C28.0515 38.5394 28.0455 38.5394 28.0394 38.5333C28.0273 38.5273 28.0212 38.5152 28.0212 38.503V37.9394C28.0212 37.9273 28.0273 37.9152 28.0394 37.9091L38.4333 31.9091C38.9242 31.6242 39.3242 30.9333 39.3242 30.3697C39.3242 30.103 39.2333 29.9091 39.0758 29.8182C38.9121 29.7273 38.7 29.7455 38.4636 29.8849C37.9727 30.1697 37.5727 30.8606 37.5727 31.4242C37.5727 31.4364 37.5667 31.4485 37.5545 31.4545L37.0636 31.7394C37.0515 31.7455 37.0394 31.7455 37.0273 31.7394C37.0152 31.7333 37.0091 31.7212 37.0091 31.7091C37.0091 30.8121 37.6394 29.7091 38.4212 29.2606C38.8091 29.0364 39.1727 29 39.4515 29.1636C39.7303 29.3212 39.8818 29.6545 39.8818 30.097C39.8818 30.9939 39.2515 32.097 38.4636 32.5455L28.0697 38.5455C28.0758 38.5394 28.0697 38.5394 28.0576 38.5394ZM28.0939 37.9636V38.4364L38.4333 32.4667C39.197 32.0242 39.8152 30.9576 39.8091 30.0788C39.8091 29.6667 39.6697 29.3576 39.4151 29.2121C39.1606 29.0667 38.8212 29.103 38.4576 29.3091C37.7121 29.7394 37.1061 30.7636 37.0818 31.6303L37.4939 31.3939C37.5 30.8061 37.9121 30.103 38.4212 29.8121C38.6758 29.6667 38.9182 29.6424 39.1061 29.7455C39.2879 29.8485 39.3909 30.0727 39.3909 30.3636C39.3909 30.9515 38.9788 31.6727 38.4636 31.9697L28.0939 37.9636Z" fill="#373B42"/>
<path d="M28.5545 28.2061L20.9485 32.5939L28.0818 36.7394L35.6879 32.3515L28.5545 28.2061Z" fill="#1FB6FF"/>
<path d="M28.0818 36.7818C28.0757 36.7818 28.0697 36.7818 28.0636 36.7757L20.9303 32.6303C20.9182 32.6242 20.9121 32.6121 20.9121 32.6C20.9121 32.5879 20.9182 32.5757 20.9303 32.5697L28.5303 28.1818C28.5424 28.1757 28.5545 28.1757 28.5667 28.1818L35.7 32.3272C35.7121 32.3333 35.7182 32.3454 35.7182 32.3575C35.7182 32.3697 35.7121 32.3818 35.7 32.3879L28.1 36.7757C28.1 36.7757 28.0879 36.7818 28.0818 36.7818ZM21.0273 32.5939L28.0879 36.6969L35.6151 32.3515L28.5545 28.2485L21.0273 32.5939Z" fill="#373B42"/>
<path d="M26.5242 29.394L29.2454 30.9758L28.7485 31.2667" fill="#1FB6FF"/>
<path d="M28.7485 31.3031C28.7364 31.3031 28.7242 31.297 28.7182 31.2849C28.7061 31.2667 28.7121 31.2425 28.7303 31.2303L29.1727 30.9758L26.5061 29.4303C26.4879 29.4182 26.4818 29.394 26.4939 29.3758C26.5061 29.3576 26.5303 29.3515 26.5485 29.3637L29.2697 30.9455C29.2818 30.9515 29.2879 30.9637 29.2879 30.9758C29.2879 30.9879 29.2818 31 29.2697 31.0061L28.7727 31.2909C28.7606 31.297 28.7545 31.3031 28.7485 31.3031Z" fill="#373B42"/>
<path d="M30.0515 35.5819L28.3606 34.6L28.8576 34.3152" fill="#1FB6FF"/>
<path d="M30.0515 35.6242C30.0454 35.6242 30.0394 35.6242 30.0333 35.6182L28.3424 34.6364C28.3303 34.6303 28.3242 34.6182 28.3242 34.6061C28.3242 34.5939 28.3303 34.5818 28.3424 34.5758L28.8394 34.2909C28.8576 34.2788 28.8818 34.2849 28.8939 34.303C28.9061 34.3212 28.9 34.3455 28.8818 34.3576L28.4394 34.6121L30.0757 35.5636C30.0939 35.5758 30.1 35.6 30.0879 35.6182C30.0757 35.6182 30.0636 35.6242 30.0515 35.6242Z" fill="#373B42"/>
<path d="M25.4697 35.2182L28.1909 33.6364L27.6939 33.3516" fill="#1FB6FF"/>
<path d="M25.4697 35.2546C25.4576 35.2546 25.4454 35.2485 25.4394 35.2364C25.4273 35.2182 25.4333 35.194 25.4515 35.1819L28.1182 33.6364L27.6757 33.3819C27.6576 33.3698 27.6515 33.3455 27.6636 33.3273C27.6757 33.3091 27.7 33.3031 27.7182 33.3152L28.2151 33.6001C28.2273 33.6061 28.2333 33.6182 28.2333 33.6304C28.2333 33.6425 28.2273 33.6546 28.2151 33.6607L25.4939 35.2425C25.4879 35.2546 25.4757 35.2546 25.4697 35.2546Z" fill="#373B42"/>
<path d="M24.4091 30.6061L27.1303 32.1818L24.4091 30.6061Z" fill="#1FB6FF"/>
<path d="M27.1303 32.2243C27.1242 32.2243 27.1182 32.2243 27.1121 32.2182L24.3909 30.6364C24.3727 30.6243 24.3667 30.6 24.3788 30.5818C24.3909 30.5637 24.4151 30.5576 24.4333 30.5697L27.1545 32.1515C27.1727 32.1637 27.1788 32.1879 27.1667 32.2061C27.1545 32.2182 27.1424 32.2243 27.1303 32.2243Z" fill="#373B42"/>
<path d="M31.9848 32.091L31.6697 32.2667L30.2454 31.4425L32.1606 30.3273" fill="#1FB6FF"/>
<path d="M31.6697 32.3031C31.6636 32.3031 31.6576 32.3031 31.6515 32.297L30.2273 31.4728C30.2151 31.4667 30.2091 31.4546 30.2091 31.4425C30.2091 31.4304 30.2151 31.4182 30.2273 31.4122L32.1424 30.297C32.1606 30.2849 32.1848 30.291 32.197 30.3091C32.2091 30.3273 32.203 30.3516 32.1848 30.3637L30.3303 31.4425L31.6818 32.2243L31.9788 32.0607C31.997 32.0485 32.0212 32.0546 32.0273 32.0788C32.0394 32.097 32.0333 32.1213 32.0091 32.1273L31.6939 32.297C31.6818 32.3031 31.6757 32.3031 31.6697 32.3031Z" fill="#373B42"/>
<path d="M23.1424 33.8485L25.2757 32.6061L25.8757 32.9576" fill="#1FB6FF"/>
<path d="M23.1424 33.8849C23.1303 33.8849 23.1182 33.8788 23.1121 33.8667C23.1 33.8485 23.1061 33.8243 23.1242 33.8121L25.2576 32.5758C25.2697 32.5697 25.2818 32.5697 25.2939 32.5758L25.8939 32.9212C25.9121 32.9333 25.9182 32.9576 25.906 32.9758C25.8939 32.994 25.8697 33 25.8515 32.9879L25.2697 32.6485L23.1667 33.8788C23.1606 33.8788 23.1485 33.8849 23.1424 33.8849Z" fill="#373B42"/>
<path d="M31.6091 34.7334C31.603 34.7334 31.5969 34.7334 31.5909 34.7273L30.3848 34.0243L29.803 34.3637C29.7848 34.3758 29.7606 34.3697 29.7485 34.3516C29.7363 34.3334 29.7424 34.3091 29.7606 34.297L30.3606 33.9516C30.3727 33.9455 30.3848 33.9455 30.397 33.9516L31.6273 34.6667C31.6454 34.6788 31.6515 34.7031 31.6394 34.7213C31.6333 34.7213 31.6212 34.7334 31.6091 34.7334Z" fill="#373B42"/>
<path d="M29.7848 34.3637C29.7727 34.3637 29.7606 34.3576 29.7545 34.3455C29.7424 34.3273 29.7485 34.3031 29.7667 34.2909L30.4879 33.8728C30.5061 33.8606 30.5303 33.8667 30.5424 33.8849C30.5545 33.9031 30.5485 33.9273 30.5303 33.9394L29.8091 34.3576C29.797 34.3637 29.7909 34.3637 29.7848 34.3637Z" fill="#373B42"/>
<path d="M33.1242 33.8303L31.3909 32.8303L30.7909 33.1758" fill="#1FB6FF"/>
<path d="M33.1242 33.8727C33.1182 33.8727 33.1121 33.8727 33.106 33.8667L31.397 32.8727L30.8151 33.2121C30.797 33.2243 30.7727 33.2182 30.7606 33.2C30.7485 33.1818 30.7545 33.1576 30.7727 33.1455L31.3727 32.8C31.3848 32.794 31.397 32.794 31.4091 32.8L33.1364 33.8061C33.1545 33.8182 33.1606 33.8424 33.1485 33.8606C33.1485 33.8667 33.1364 33.8727 33.1242 33.8727Z" fill="#373B42"/>
<g opacity="0.1">
<path d="M39.5848 18.3152C39.9424 18.5212 39.9424 18.8546 39.5909 19.0606L37.7606 20.1273C37.4091 20.3333 36.8273 20.3333 36.4757 20.1273L31.6151 17.3212C31.2576 17.1152 31.2576 16.7818 31.6091 16.5758L33.4394 15.5091C33.797 15.303 34.3727 15.303 34.7303 15.5091L39.5848 18.3152Z" fill="black"/>
</g>
<path d="M39.803 16.9515L39.797 18.0424C39.797 18.1758 39.7061 18.3091 39.5303 18.4121L37.6939 19.4788C37.6091 19.5273 37.5121 19.5636 37.403 19.5939C37.203 19.6424 36.9788 19.6485 36.7727 19.6061C36.6394 19.5818 36.5121 19.5394 36.4091 19.4788L31.5485 16.6727C31.3667 16.5697 31.2757 16.4303 31.2818 16.297L31.2879 15.2061C31.2879 15.3394 31.3788 15.4788 31.5545 15.5818L36.4151 18.3879C36.5182 18.4485 36.6454 18.4909 36.7727 18.5151C36.9788 18.5576 37.203 18.5515 37.403 18.503C37.5121 18.4788 37.6091 18.4424 37.7 18.3879L39.5303 17.3212C39.7121 17.2242 39.803 17.0909 39.803 16.9515Z" fill="#BEC4CD"/>
<path d="M37.4091 18.5031V19.594C37.2091 19.6424 36.9848 19.6485 36.7788 19.6061V18.5152C36.9848 18.5576 37.2091 18.5515 37.4091 18.5031Z" fill="#DBDEE4"/>
<path d="M37.0576 19.6728C36.8151 19.6728 36.5788 19.6182 36.397 19.5152L31.5364 16.7091C31.3485 16.6 31.2454 16.4546 31.2515 16.297L31.2576 15.2061C31.2576 15.1879 31.2757 15.1697 31.2939 15.1697C31.3121 15.1697 31.3303 15.1879 31.3303 15.2061C31.3303 15.3334 31.4212 15.4546 31.5788 15.5516L36.4394 18.3576C36.7848 18.5576 37.3485 18.5576 37.6879 18.3576L39.5182 17.291C39.6757 17.2 39.7606 17.0788 39.7667 16.9576C39.7667 16.9394 39.7848 16.9213 39.803 16.9213C39.8212 16.9213 39.8394 16.9394 39.8394 16.9576L39.8333 18.0485C39.8333 18.2 39.7303 18.3455 39.5485 18.4546L37.7121 19.5213C37.5364 19.6182 37.3 19.6728 37.0576 19.6728ZM31.3242 15.4303L31.3182 16.297C31.3182 16.4243 31.403 16.5455 31.5667 16.6425L36.4273 19.4485C36.7727 19.6485 37.3303 19.6485 37.6757 19.4485L39.5121 18.3819C39.6697 18.291 39.7606 18.1697 39.7606 18.0425L39.7667 17.1758C39.7182 17.2425 39.6515 17.3031 39.5606 17.3576L37.7303 18.4243C37.3667 18.6364 36.7727 18.6364 36.403 18.4243L31.5424 15.6182C31.4454 15.5637 31.3727 15.497 31.3242 15.4303Z" fill="#373B42"/>
<path d="M39.5363 16.5758C39.8939 16.7818 39.8939 17.1152 39.5424 17.3212L37.7121 18.3879C37.3606 18.594 36.7788 18.594 36.4272 18.3879L31.5666 15.5818C31.2091 15.3758 31.2091 15.0424 31.5606 14.8364L33.3909 13.7697C33.7485 13.5637 34.3242 13.5637 34.6818 13.7697L39.5363 16.5758Z" fill="white"/>
<path d="M37.0638 18.5818C36.8214 18.5818 36.585 18.5273 36.4032 18.4243L31.5426 15.6182C31.3547 15.5091 31.2517 15.3637 31.2517 15.2121C31.2517 15.0606 31.3547 14.9152 31.5365 14.8061L33.3668 13.7394C33.7304 13.5273 34.3244 13.5273 34.6941 13.7394L39.5547 16.5455C39.7426 16.6546 39.8395 16.794 39.8395 16.9515C39.8395 17.1091 39.7365 17.2485 39.5547 17.3576L37.7244 18.4243C37.5426 18.5273 37.3062 18.5818 37.0638 18.5818ZM34.0274 13.6546C33.8032 13.6546 33.5729 13.703 33.4032 13.8061L31.5729 14.8727C31.4153 14.9637 31.3244 15.0849 31.3304 15.2121C31.3304 15.3394 31.4214 15.4606 31.5789 15.5515L36.4395 18.3576C36.785 18.5576 37.3486 18.5576 37.688 18.3576L39.5183 17.2909C39.6759 17.2 39.7668 17.0788 39.7668 16.9515C39.7668 16.8243 39.6759 16.703 39.5183 16.6121L34.6577 13.8061C34.482 13.703 34.2577 13.6546 34.0274 13.6546Z" fill="#373B42"/>
<path d="M38.0515 3.38792V16.3213C38.0455 16.5273 37.9788 16.6728 37.8576 16.7394L36.997 17.2485C37.1182 17.1758 37.1909 17.0364 37.1848 16.8303V3.89701C37.1848 3.67277 37.1 3.43034 36.9727 3.21822C36.8576 3.03034 36.7 2.86671 36.5303 2.76974L33.8758 1.24246C33.6939 1.13943 33.5303 1.13337 33.4091 1.20004L34.2697 0.690949C34.3909 0.624282 34.5545 0.630343 34.7364 0.733373L37.3909 2.25459C37.5606 2.35155 37.7182 2.52125 37.8333 2.70913C37.9727 2.92731 38.0515 3.16974 38.0515 3.38792Z" fill="#1FB6FF"/>
<path d="M36.997 17.2909C36.9848 17.2909 36.9727 17.2849 36.9667 17.2728C36.9545 17.2546 36.9606 17.2303 36.9788 17.2182C37.0879 17.1515 37.1485 17.0121 37.1485 16.8303V3.89699C37.1485 3.69093 37.0758 3.46063 36.9424 3.23639C36.8273 3.04851 36.6758 2.89093 36.5121 2.80002L33.8636 1.27275C33.7 1.18184 33.5485 1.16366 33.4394 1.23033C33.4212 1.24245 33.397 1.23639 33.3848 1.21821C33.3727 1.20002 33.3788 1.17578 33.397 1.16366L34.2576 0.65457C34.397 0.575782 34.5727 0.593963 34.7606 0.696994L37.4152 2.21821C37.5848 2.31518 37.7485 2.48487 37.8697 2.68487C38.0091 2.90911 38.0879 3.16366 38.0879 3.37578V16.3091C38.0818 16.5273 38.0091 16.6849 37.8758 16.7637L37.0152 17.2728C37.0091 17.2849 37.003 17.2909 36.997 17.2909ZM33.6273 1.11518C33.7121 1.12124 33.8091 1.15154 33.9 1.20608L36.5545 2.73336C36.7242 2.83033 36.8879 2.99396 37.0091 3.20002C37.1545 3.43033 37.2273 3.67881 37.2273 3.89699V16.8303C37.2273 16.9334 37.2091 17.0303 37.1727 17.1031L37.8394 16.7091C37.9485 16.6485 38.0091 16.5091 38.0091 16.3212V3.3879C38.0091 3.1879 37.9364 2.95154 37.803 2.73336C37.6818 2.53942 37.5303 2.38184 37.3727 2.29093L34.7182 0.769721C34.5545 0.678812 34.403 0.66063 34.2879 0.727297L33.6273 1.11518Z" fill="#373B42"/>
<path d="M37.1909 3.89093V16.8243C37.1909 17.2364 36.8939 17.4061 36.5364 17.2L33.8818 15.6788C33.5182 15.4728 33.2273 14.9697 33.2273 14.5515V1.6182C33.2273 1.20608 33.5182 1.03639 33.8818 1.24245L36.5364 2.76366C36.8939 2.96972 37.1909 3.47881 37.1909 3.89093Z" fill="white"/>
<path d="M36.8273 17.3333C36.7303 17.3333 36.6273 17.303 36.5182 17.2424L33.8636 15.7212C33.4939 15.5091 33.1909 14.9879 33.1909 14.5576V1.62425C33.1909 1.41213 33.2636 1.24849 33.397 1.16971C33.5303 1.09092 33.7121 1.1091 33.9 1.21213L36.5545 2.73334C36.9242 2.94546 37.2273 3.46668 37.2273 3.89698V16.8303C37.2273 17.0424 37.1545 17.2061 37.0151 17.2849C36.9606 17.3152 36.8939 17.3333 36.8273 17.3333ZM33.5909 1.19395C33.5364 1.19395 33.4818 1.20607 33.4394 1.23031C33.3303 1.29698 33.2697 1.43031 33.2697 1.61819V14.5515C33.2697 14.9576 33.5545 15.4485 33.9061 15.6485L36.5606 17.1697C36.7242 17.2606 36.8758 17.2788 36.9909 17.2121C37.1 17.1455 37.1606 17.0121 37.1606 16.8243V3.89092C37.1606 3.49092 36.8758 2.99395 36.5242 2.79395L33.8697 1.27274C33.7667 1.21819 33.6758 1.19395 33.5909 1.19395Z" fill="#373B42"/>
<path d="M33.9909 2.18182L33.9848 14.8364L33.9909 2.18182Z" fill="white"/>
<path d="M33.9848 14.8728C33.9667 14.8728 33.9485 14.8546 33.9485 14.8364V2.18791C33.9485 2.16973 33.9667 2.15155 33.9848 2.15155C34.003 2.15155 34.0212 2.16973 34.0212 2.18791V14.8364C34.0273 14.8546 34.0091 14.8728 33.9848 14.8728Z" fill="#373B42"/>
<path d="M36.603 3.67275L35.9424 3.297L36.603 3.67275Z" fill="white"/>
<path d="M36.603 3.70912C36.597 3.70912 36.5909 3.70912 36.5848 3.70306L35.9242 3.32731C35.9061 3.31518 35.9 3.29094 35.9121 3.27276C35.9242 3.25458 35.9485 3.24852 35.9667 3.26064L36.6212 3.6364C36.6394 3.64852 36.6454 3.67276 36.6333 3.69094C36.6273 3.70306 36.6151 3.70912 36.603 3.70912Z" fill="#373B42"/>
<path d="M36.603 4.30308L35.1545 3.47278L36.603 4.30308Z" fill="white"/>
<path d="M36.603 4.33945C36.597 4.33945 36.5909 4.33945 36.5848 4.33339L35.1364 3.50309C35.1182 3.49097 35.1121 3.46672 35.1242 3.44854C35.1364 3.43036 35.1606 3.4243 35.1788 3.43642L36.6273 4.26672C36.6455 4.27885 36.6515 4.30309 36.6394 4.32127C36.6273 4.33339 36.6151 4.33945 36.603 4.33945Z" fill="#373B42"/>
<path d="M36.603 4.93338L35.9424 4.55762L36.603 4.93338Z" fill="white"/>
<path d="M36.603 4.96974C36.597 4.96974 36.5909 4.96974 36.5848 4.96368L35.9242 4.58793C35.9061 4.57581 35.9 4.55156 35.9121 4.53338C35.9242 4.5152 35.9485 4.50914 35.9667 4.52126L36.6273 4.89702C36.6454 4.90914 36.6515 4.93338 36.6394 4.95156C36.6273 4.96368 36.6151 4.96974 36.603 4.96974Z" fill="#373B42"/>
<path d="M36.603 5.5637L35.1545 4.7334L36.603 5.5637Z" fill="white"/>
<path d="M36.603 5.60611C36.597 5.60611 36.5909 5.60611 36.5848 5.60005L35.1364 4.76975C35.1182 4.75763 35.1121 4.73339 35.1242 4.7152C35.1364 4.69702 35.1606 4.69096 35.1788 4.70308L36.6273 5.53339C36.6455 5.54551 36.6515 5.56975 36.6394 5.58793C36.6273 5.59399 36.6151 5.60611 36.603 5.60611Z" fill="#373B42"/>
<path d="M36.603 6.20006L35.9424 5.81824L36.603 6.20006Z" fill="white"/>
<path d="M36.603 6.23641C36.597 6.23641 36.5909 6.23641 36.5848 6.23035L35.9242 5.85459C35.9061 5.84247 35.9 5.81823 35.9121 5.80004C35.9242 5.78186 35.9485 5.7758 35.9667 5.78792L36.6273 6.16368C36.6454 6.1758 36.6515 6.20004 36.6394 6.21823C36.6273 6.23035 36.6151 6.23641 36.603 6.23641Z" fill="#373B42"/>
<path d="M36.603 6.8303L35.1545 6L36.603 6.8303Z" fill="white"/>
<path d="M36.603 6.86667C36.597 6.86667 36.5909 6.86667 36.5848 6.86061L35.1364 6.03031C35.1182 6.01819 35.1121 5.99395 35.1242 5.97576C35.1364 5.95758 35.1606 5.95152 35.1788 5.96364L36.6273 6.79395C36.6455 6.80607 36.6515 6.83031 36.6394 6.84849C36.6273 6.86061 36.6151 6.86667 36.603 6.86667Z" fill="#373B42"/>
<path d="M36.603 7.46066L35.9424 7.0849L36.603 7.46066Z" fill="white"/>
<path d="M36.603 7.49703C36.597 7.49703 36.5909 7.49703 36.5848 7.49097L35.9242 7.11521C35.9061 7.10309 35.9 7.07885 35.9121 7.06066C35.9242 7.04248 35.9485 7.03642 35.9667 7.04854L36.6273 7.4243C36.6454 7.43642 36.6515 7.46066 36.6394 7.47885C36.6273 7.49097 36.6151 7.49703 36.603 7.49703Z" fill="#373B42"/>
<path d="M36.603 8.09092L35.1545 7.26062L36.603 8.09092Z" fill="white"/>
<path d="M36.603 8.12729C36.597 8.12729 36.5909 8.12729 36.5848 8.12123L35.1364 7.29093C35.1182 7.27881 35.1121 7.25457 35.1242 7.23638C35.1364 7.2182 35.1606 7.21214 35.1788 7.22426L36.6273 8.05457C36.6455 8.06669 36.6515 8.09093 36.6394 8.10911C36.6273 8.12123 36.6151 8.12729 36.603 8.12729Z" fill="#373B42"/>
<path d="M36.603 8.72122L35.9424 8.34546L36.603 8.72122Z" fill="white"/>
<path d="M36.603 8.75759C36.597 8.75759 36.5909 8.75759 36.5848 8.75153L35.9242 8.37577C35.9061 8.36365 35.9 8.3394 35.9121 8.32122C35.9242 8.30304 35.9485 8.29698 35.9667 8.3091L36.6273 8.68486C36.6454 8.69698 36.6515 8.72122 36.6394 8.7394C36.6273 8.75153 36.6151 8.75759 36.603 8.75759Z" fill="#373B42"/>
<path d="M36.603 9.35154L35.1545 8.52124L36.603 9.35154Z" fill="white"/>
<path d="M36.603 9.39396C36.597 9.39396 36.5909 9.39396 36.5848 9.38789L35.1364 8.55759C35.1182 8.54547 35.1121 8.52123 35.1242 8.50305C35.1364 8.48486 35.1606 8.4788 35.1788 8.49093L36.6273 9.32123C36.6455 9.33335 36.6515 9.35759 36.6394 9.37577C36.6273 9.38183 36.6151 9.39396 36.603 9.39396Z" fill="#373B42"/>
<path d="M36.603 9.98184L35.9424 9.60608L36.603 9.98184Z" fill="white"/>
<path d="M36.603 10.0242C36.597 10.0242 36.5909 10.0242 36.5848 10.0182L35.9242 9.64243C35.9061 9.63031 35.9 9.60607 35.9121 9.58789C35.9242 9.5697 35.9485 9.56364 35.9667 9.57576L36.6273 9.95152C36.6454 9.96364 36.6515 9.98789 36.6394 10.0061C36.6273 10.0182 36.6151 10.0242 36.603 10.0242Z" fill="#373B42"/>
<path d="M36.603 10.6182L35.1545 9.7879L36.603 10.6182Z" fill="white"/>
<path d="M36.603 10.6546C36.597 10.6546 36.5909 10.6546 36.5848 10.6485L35.1364 9.81821C35.1182 9.80609 35.1121 9.78185 35.1242 9.76367C35.1364 9.74549 35.1606 9.73942 35.1788 9.75155L36.6273 10.5818C36.6455 10.594 36.6515 10.6182 36.6394 10.6364C36.6273 10.6485 36.6151 10.6546 36.603 10.6546Z" fill="#373B42"/>
<path d="M36.603 11.2485L35.9424 10.8667L36.603 11.2485Z" fill="white"/>
<path d="M36.603 11.2849C36.597 11.2849 36.5909 11.2849 36.5848 11.2788L35.9242 10.9031C35.9061 10.8909 35.9 10.8667 35.9121 10.8485C35.9242 10.8303 35.9485 10.8243 35.9667 10.8364L36.6273 11.2121C36.6454 11.2243 36.6515 11.2485 36.6394 11.2667C36.6273 11.2788 36.6151 11.2849 36.603 11.2849Z" fill="#373B42"/>
<path d="M36.603 11.8788L35.1545 11.0485L36.603 11.8788Z" fill="white"/>
<path d="M36.603 11.9152C36.597 11.9152 36.5909 11.9152 36.5848 11.9091L35.1364 11.0788C35.1182 11.0667 35.1121 11.0425 35.1242 11.0243C35.1364 11.0061 35.1606 11 35.1788 11.0122L36.6273 11.8425C36.6455 11.8546 36.6515 11.8788 36.6394 11.897C36.6273 11.9091 36.6151 11.9152 36.603 11.9152Z" fill="#373B42"/>
<path d="M36.603 12.5091L35.9424 12.1334L36.603 12.5091Z" fill="white"/>
<path d="M36.603 12.5455C36.597 12.5455 36.5909 12.5455 36.5848 12.5394L35.9242 12.1637C35.9061 12.1516 35.9 12.1273 35.9121 12.1091C35.9242 12.0909 35.9485 12.0849 35.9667 12.097L36.6273 12.4728C36.6454 12.4849 36.6515 12.5091 36.6394 12.5273C36.6273 12.5394 36.6151 12.5455 36.603 12.5455Z" fill="#373B42"/>
<path d="M36.603 13.1394L35.1545 12.3091L36.603 13.1394Z" fill="white"/>
<path d="M36.603 13.1758C36.597 13.1758 36.5909 13.1758 36.5848 13.1698L35.1364 12.3395C35.1182 12.3273 35.1121 12.3031 35.1242 12.2849C35.1364 12.2667 35.1606 12.2607 35.1788 12.2728L36.6273 13.1031C36.6455 13.1152 36.6515 13.1395 36.6394 13.1576C36.6273 13.1698 36.6151 13.1758 36.603 13.1758Z" fill="#373B42"/>
<path d="M36.603 13.7697L35.9424 13.394L36.603 13.7697Z" fill="white"/>
<path d="M36.603 13.8122C36.597 13.8122 36.5909 13.8122 36.5848 13.8061L35.9242 13.4303C35.9061 13.4182 35.9 13.394 35.9121 13.3758C35.9242 13.3576 35.9485 13.3515 35.9667 13.3637L36.6273 13.7394C36.6454 13.7515 36.6515 13.7758 36.6394 13.794C36.6273 13.8 36.6151 13.8122 36.603 13.8122Z" fill="#373B42"/>
<path d="M36.603 14.4L35.1545 13.5758L36.603 14.4Z" fill="white"/>
<path d="M36.603 14.4425C36.597 14.4425 36.5909 14.4425 36.5848 14.4364L35.1364 13.6061C35.1182 13.594 35.1121 13.5698 35.1242 13.5516C35.1364 13.5334 35.1606 13.5273 35.1788 13.5394L36.6273 14.3698C36.6455 14.3819 36.6515 14.4061 36.6394 14.4243C36.6273 14.4364 36.6151 14.4425 36.603 14.4425Z" fill="#373B42"/>
<path d="M36.603 15.0364L35.9424 14.6546L36.603 15.0364Z" fill="white"/>
<path d="M36.603 15.0728C36.597 15.0728 36.5909 15.0728 36.5848 15.0667L35.9242 14.691C35.9061 14.6788 35.9 14.6546 35.9121 14.6364C35.9242 14.6182 35.9485 14.6122 35.9667 14.6243L36.6273 15C36.6454 15.0122 36.6515 15.0364 36.6394 15.0546C36.6273 15.0667 36.6151 15.0728 36.603 15.0728Z" fill="#373B42"/>
<path d="M36.603 15.6667L35.1545 14.8364L36.603 15.6667Z" fill="white"/>
<path d="M36.603 15.703C36.597 15.703 36.5909 15.703 36.5848 15.697L35.1364 14.8667C35.1182 14.8546 35.1121 14.8303 35.1242 14.8121C35.1364 14.7939 35.1606 14.7879 35.1788 14.8L36.6273 15.6303C36.6455 15.6424 36.6515 15.6667 36.6394 15.6849C36.6273 15.697 36.6151 15.703 36.603 15.703Z" fill="#373B42"/>
<path d="M36.603 16.297L35.9424 15.9213L36.603 16.297Z" fill="white"/>
<path d="M36.603 16.3334C36.597 16.3334 36.5909 16.3334 36.5848 16.3273L35.9242 15.9516C35.9061 15.9395 35.9 15.9152 35.9121 15.897C35.9242 15.8788 35.9485 15.8728 35.9667 15.8849L36.6273 16.2607C36.6454 16.2728 36.6515 16.297 36.6394 16.3152C36.6273 16.3273 36.6151 16.3334 36.603 16.3334Z" fill="#373B42"/>
<path d="M1.30606 37.2303C1.09393 37.3515 1.08787 37.5576 1.30606 37.6788L4.02727 39.2606C4.23939 39.3818 4.58484 39.3818 4.80303 39.2606L7.54242 37.6788C7.75454 37.5576 7.7606 37.3515 7.54242 37.2303L4.82121 35.6485C4.60909 35.5273 4.26363 35.5273 4.04545 35.6485L1.30606 37.2303Z" fill="white"/>
<path d="M4.41514 39.3879C4.26969 39.3879 4.12423 39.3576 4.00908 39.2909L1.28787 37.7091C1.17272 37.6424 1.10605 37.5515 1.10605 37.4545C1.10605 37.3576 1.17272 37.2666 1.28787 37.2L4.02726 35.6182C4.2515 35.4909 4.61514 35.4909 4.83938 35.6182L7.56059 37.2C7.67575 37.2666 7.73635 37.3576 7.73635 37.4545C7.73635 37.5515 7.66969 37.6424 7.55453 37.7091L4.81514 39.2909C4.70605 39.3576 4.56059 39.3879 4.41514 39.3879ZM1.32423 37.2666C1.23332 37.3212 1.18484 37.3879 1.17878 37.4606C1.17878 37.5333 1.22726 37.6 1.31817 37.6485L4.03938 39.2303C4.23938 39.3454 4.57272 39.3454 4.77272 39.2303L7.51211 37.6485C7.60302 37.5939 7.6515 37.5272 7.65756 37.4545C7.65756 37.3818 7.60908 37.3151 7.51817 37.2666L4.80302 35.6848C4.60302 35.5697 4.26969 35.5697 4.06968 35.6848L1.32423 37.2666Z" fill="#DBDEE4"/>
<path d="M5.51816 36.8182C6.13029 37.1697 6.13029 37.7394 5.52423 38.0909C4.91816 38.4424 3.93635 38.4424 3.32423 38.0909C2.71816 37.7394 2.7121 37.1697 3.31816 36.8182C3.92423 36.4667 4.9121 36.4667 5.51816 36.8182Z" fill="white"/>
<path d="M4.42727 38.394C4.02121 38.394 3.61515 38.303 3.30606 38.1273C2.99697 37.9515 2.82727 37.7091 2.82727 37.4546C2.82727 37.2 2.99697 36.9637 3.3 36.7879C3.91818 36.4303 4.91818 36.4303 5.53636 36.7879C5.84545 36.9637 6.01515 37.2061 6.01515 37.4606C6.01515 37.7152 5.84545 37.9515 5.54242 38.1273C5.23939 38.303 4.83333 38.394 4.42727 38.394ZM4.42121 36.594C4.02727 36.594 3.63939 36.6788 3.34242 36.8546C3.06363 37.0182 2.90606 37.2303 2.90606 37.4546C2.90606 37.6849 3.06363 37.897 3.34848 38.0606C3.94848 38.4061 4.91818 38.4061 5.51212 38.0606C5.79091 37.897 5.94848 37.6849 5.94848 37.4546C5.94848 37.2243 5.79091 37.0121 5.50606 36.8485C5.20303 36.6788 4.80909 36.594 4.42121 36.594Z" fill="#373B42"/>
<path d="M3.41516 34.2364L3.42728 37.3516C3.42728 37.497 3.52425 37.6485 3.71819 37.7576C4.10607 37.9819 4.74243 37.9819 5.13637 37.7576C5.33637 37.6425 5.43334 37.497 5.43334 37.3455L5.42122 34.2303C5.42122 34.3819 5.32425 34.5273 5.12425 34.6425C4.73031 34.8667 4.10001 34.8667 3.70607 34.6425C3.51213 34.5334 3.41516 34.3819 3.41516 34.2364Z" fill="white"/>
<path d="M3.70607 34.6424C3.90001 34.7576 4.15456 34.8121 4.4091 34.8121V37.9273C4.16062 37.9273 3.90607 37.8667 3.71819 37.7576C3.52425 37.6424 3.42728 37.497 3.42728 37.3515L3.41516 34.2364C3.41516 34.3818 3.51213 34.5334 3.70607 34.6424Z" fill="#DBDEE4"/>
<path d="M4.42727 37.9637C4.16666 37.9637 3.9 37.9031 3.7 37.7879C3.5 37.6728 3.39091 37.5152 3.39091 37.3455L3.37878 34.2304C3.37878 34.2122 3.39697 34.194 3.41515 34.194C3.43333 34.194 3.45151 34.2122 3.45151 34.2304C3.45151 34.3697 3.54848 34.5031 3.72424 34.6061C4.10606 34.8243 4.72424 34.8243 5.10606 34.6061C5.28181 34.5031 5.38485 34.3697 5.38485 34.2243C5.38485 34.2061 5.40303 34.1879 5.42121 34.1879C5.43939 34.1879 5.45757 34.2061 5.45757 34.2243L5.46969 37.3394C5.46969 37.5091 5.3606 37.6667 5.15454 37.7879C4.95454 37.9091 4.68788 37.9637 4.42727 37.9637ZM3.45151 34.4728L3.46363 37.3516C3.46363 37.491 3.5606 37.6243 3.73636 37.7273C4.11818 37.9455 4.73636 37.9455 5.11818 37.7273C5.29394 37.6243 5.39697 37.491 5.39697 37.3455L5.38485 34.4667C5.3303 34.5455 5.25151 34.6182 5.14242 34.6788C4.74242 34.9091 4.08788 34.9091 3.68788 34.6788C3.58484 34.6182 3.50606 34.5455 3.45151 34.4728Z" fill="#373B42"/>
<path d="M3.71211 33.8243C3.31817 34.0485 3.31817 34.4182 3.70605 34.6485C4.09393 34.8727 4.73029 34.8727 5.12423 34.6485C5.51817 34.4243 5.51817 34.0546 5.13029 33.8303C4.73635 33.594 4.10605 33.594 3.71211 33.8243Z" fill="white"/>
<path d="M4.41515 34.8485C4.15454 34.8485 3.88788 34.7879 3.68788 34.6727C3.48788 34.5576 3.37878 34.4 3.37878 34.2303C3.37878 34.0606 3.48788 33.9031 3.69394 33.7879C4.09394 33.5576 4.74848 33.5576 5.14848 33.7879C5.34848 33.9031 5.45757 34.0606 5.45757 34.2303C5.45757 34.4 5.34848 34.5576 5.14242 34.6727C4.94242 34.794 4.67575 34.8485 4.41515 34.8485ZM3.7303 33.8546C3.55454 33.9576 3.45151 34.0909 3.45151 34.2364C3.45151 34.3758 3.54848 34.5091 3.72424 34.6121C4.10606 34.8303 4.72424 34.8303 5.10606 34.6121C5.28181 34.5091 5.38485 34.3758 5.38485 34.2364C5.38485 34.097 5.28788 33.9637 5.11212 33.8606C4.7303 33.6364 4.11212 33.6364 3.7303 33.8546Z" fill="#373B42"/>
<path d="M3.75452 32.0788L3.76058 34.1394C3.76058 34.2364 3.82724 34.3333 3.95452 34.4121C4.21512 34.5636 4.6333 34.5636 4.89997 34.4121C5.0333 34.3394 5.09391 34.2364 5.09391 34.1394L5.08785 32.0788C5.08785 32.1758 5.02118 32.2788 4.89391 32.3515C4.6333 32.503 4.20906 32.503 3.94846 32.3515C3.81512 32.2788 3.75452 32.1818 3.75452 32.0788Z" fill="white"/>
<path d="M4.40906 34.5273C4.24543 34.5273 4.08179 34.4909 3.95452 34.4121C3.82724 34.3394 3.76058 34.2364 3.76058 34.1394L3.75452 32.0788C3.75452 32.1758 3.82118 32.2727 3.94846 32.3515C4.07573 32.4243 4.24543 32.4606 4.40906 32.4667V34.5273Z" fill="#DBDEE4"/>
<path d="M4.42726 34.5636C4.2515 34.5636 4.06969 34.5273 3.93635 34.4485C3.79696 34.3697 3.72423 34.2606 3.72423 34.1455L3.71817 32.0848C3.71817 32.0667 3.73635 32.0485 3.75453 32.0485C3.77272 32.0485 3.7909 32.0667 3.7909 32.0848C3.7909 32.1758 3.8515 32.2606 3.96665 32.3212C4.21514 32.4667 4.6212 32.4667 4.86969 32.3212C4.98484 32.2545 5.04544 32.1697 5.04544 32.0788C5.04544 32.0606 5.06362 32.0424 5.08181 32.0424C5.09999 32.0424 5.11817 32.0606 5.11817 32.0788L5.12423 34.1394C5.12423 34.2545 5.04544 34.3636 4.90605 34.4485C4.77878 34.5273 4.60302 34.5636 4.42726 34.5636ZM3.7909 32.2727L3.79696 34.1394C3.79696 34.2303 3.85756 34.3151 3.97272 34.3758C4.2212 34.5212 4.62726 34.5212 4.87575 34.3758C4.9909 34.3091 5.0515 34.2242 5.0515 34.1333L5.04544 32.2667C5.00908 32.3091 4.96059 32.3455 4.90605 32.3818C4.63332 32.5394 4.19696 32.5394 3.92423 32.3818C3.86969 32.3515 3.82726 32.3151 3.7909 32.2727Z" fill="#373B42"/>
<path d="M3.94848 31.8061C3.68787 31.9576 3.68787 32.2 3.94848 32.3515C4.20908 32.5031 4.62726 32.5031 4.89393 32.3515C5.15454 32.2 5.15454 31.9576 4.89393 31.8061C4.63332 31.6546 4.20908 31.6546 3.94848 31.8061Z" fill="#1FB6FF"/>
<path d="M4.41513 32.503C4.23937 32.503 4.05755 32.4667 3.92422 32.3879C3.78482 32.3091 3.7121 32.2 3.7121 32.0849C3.7121 31.9697 3.79088 31.8606 3.93028 31.7758C4.20301 31.6182 4.63937 31.6182 4.9121 31.7758C5.05149 31.8546 5.12422 31.9637 5.12422 32.0788C5.12422 32.194 5.04543 32.303 4.90604 32.3879C4.7727 32.4667 4.59695 32.503 4.41513 32.503ZM3.96664 31.8364C3.85149 31.903 3.79088 31.9879 3.79088 32.0788C3.79088 32.1697 3.85149 32.2546 3.96664 32.3212C4.21513 32.4667 4.62119 32.4667 4.86967 32.3212C4.98482 32.2546 5.04543 32.1697 5.04543 32.0788C5.04543 31.9879 4.98482 31.903 4.86967 31.8424C4.62725 31.697 4.22119 31.697 3.96664 31.8364Z" fill="#373B42"/>
<path d="M5.04544 30.4909V32.0727C5.03938 32.1636 4.97877 32.2545 4.86362 32.3212C4.61514 32.4606 4.2212 32.4606 3.97271 32.3212C3.85756 32.2545 3.79695 32.1636 3.79089 32.0727V30.4909H5.04544Z" fill="url(#paint0_linear_338_1234)"/>
<path d="M11.4151 37.6001C11.1424 37.4425 11.1424 37.1879 11.4091 37.0304C11.6818 36.8728 12.1242 36.8728 12.397 37.0304C12.6697 37.1879 12.6697 37.4425 12.403 37.6001C12.1364 37.7576 11.6879 37.7576 11.4151 37.6001Z" fill="white"/>
<path d="M11.906 37.7576C11.7182 37.7576 11.5364 37.7152 11.3909 37.6364C11.2454 37.5516 11.1667 37.4364 11.1667 37.3152C11.1667 37.194 11.2454 37.0788 11.3909 37C11.6697 36.8364 12.1303 36.8364 12.4151 37C12.5606 37.0849 12.6394 37.194 12.6394 37.3213C12.6394 37.4425 12.5606 37.5576 12.4151 37.6364C12.2757 37.7152 12.0939 37.7576 11.906 37.7576ZM11.4333 37.5697C11.6939 37.7213 12.1242 37.7213 12.3848 37.5697C12.5061 37.5031 12.5667 37.4122 12.5667 37.3152C12.5667 37.2182 12.5 37.1334 12.3788 37.0607C12.1182 36.9091 11.6879 36.9091 11.4273 37.0607C11.3061 37.1273 11.2454 37.2182 11.2454 37.3152C11.2454 37.4061 11.3121 37.497 11.4333 37.5697Z" fill="#DBDEE4"/>
<path d="M11.9 37.1334C12.0091 37.1334 12.1121 37.1576 12.1848 37.2C12.2455 37.2364 12.2758 37.2728 12.2758 37.3152C12.2758 37.3515 12.2455 37.394 12.1848 37.4303C12.1121 37.4728 12.0091 37.497 11.9061 37.497C11.797 37.497 11.6939 37.4728 11.6212 37.4303C11.5606 37.394 11.5303 37.3515 11.5303 37.3152C11.5303 37.2788 11.5606 37.2364 11.6212 37.2C11.6939 37.1576 11.797 37.1334 11.9 37.1334Z" fill="#1FB6FF"/>
<path d="M9.85151 35.9758C9.96666 35.9758 10.0757 36 10.1545 36.0485C10.2151 36.0849 10.2515 36.1273 10.2515 36.1697C10.2515 36.2121 10.2151 36.2546 10.1545 36.2909C10.0757 36.3394 9.96666 36.3636 9.85151 36.3636C9.73636 36.3636 9.62727 36.3394 9.54848 36.2909C9.48787 36.2546 9.45151 36.2121 9.45151 36.1697C9.45151 36.1273 9.48787 36.0849 9.54848 36.0485C9.62727 36.0061 9.73636 35.9758 9.85151 35.9758Z" fill="#373B42"/>
<defs>
<linearGradient id="paint0_linear_338_1234" x1="4.41938" y1="32.503" x2="4.41938" y2="30.5788" gradientUnits="userSpaceOnUse">
<stop stop-color="#1FB6FF" stop-opacity="0.9"/>
<stop offset="1" stop-color="white" stop-opacity="0"/>
</linearGradient>
</defs>
</svg>
