<svg width="30" height="30" viewBox="0 0 30 30" fill="none" xmlns="http://www.w3.org/2000/svg">
<path d="M29.9941 4.66396V24.6148C29.9941 25.353 29.3966 25.9507 28.6585 25.9507H1.33568C0.597539 25.9448 0 25.353 0 24.6148V4.66396L14.9971 2.33197L29.9941 4.66396Z" fill="url(#paint0_linear_338_1091)"/>
<path d="M0 18.4156V24.6148C0 25.353 0.597539 25.9507 1.33568 25.9507H28.6643C29.4025 25.9507 30 25.353 30 24.6148V18.4156H0Z" fill="url(#paint1_linear_338_1091)"/>
<path d="M0 4.66396V10.7342H29.9941V4.66396L14.9971 2.33197L0 4.66396Z" fill="url(#paint2_linear_338_1091)"/>
<path d="M29.9941 4.66396V24.6148C29.9941 25.353 29.3966 25.9507 28.6585 25.9507H13.7668V2.52533L14.9971 2.33197L29.9941 4.66396Z" fill="url(#paint3_linear_338_1091)"/>
<path d="M28.6585 0H1.33568C0.597539 0 0 0.597646 0 1.33591V4.66398H29.9941V1.33591C29.9941 0.597646 29.3966 0 28.6585 0Z" fill="url(#paint4_linear_338_1091)"/>
<path d="M0 1.54102H29.9941V4.65815H0V1.54102Z" fill="url(#paint5_linear_338_1091)"/>
<path d="M29.9941 1.33591V4.66398H13.7668V0H28.6643C29.3966 0 29.9941 0.597646 29.9941 1.33591Z" fill="url(#paint6_linear_338_1091)"/>
<path d="M2.50163 3.44527C2.49577 3.44527 2.48991 3.44527 2.48405 3.44527C1.87469 3.44527 1.37665 2.95309 1.37665 2.34373C1.37665 2.33787 1.37665 2.33201 1.37665 2.32615C1.37665 1.71679 1.87469 1.22461 2.48405 1.21875H2.50163C3.11099 1.21875 3.60317 1.71679 3.60903 2.32615V2.34373C3.60317 2.95309 3.11099 3.44527 2.50163 3.44527Z" fill="url(#paint7_radial_338_1091)"/>
<g opacity="0.35">
<path d="M2.50163 3.44527C2.49577 3.44527 2.48991 3.44527 2.48405 3.44527C1.87469 3.44527 1.37665 2.95309 1.37665 2.34373C1.37665 2.33787 1.37665 2.33201 1.37665 2.32615C1.37665 1.71679 1.87469 1.22461 2.48405 1.21875H2.50163C3.11099 1.21875 3.60317 1.71679 3.60903 2.32615V2.34373C3.60317 2.95309 3.11099 3.44527 2.50163 3.44527Z" fill="url(#paint8_radial_338_1091)"/>
</g>
<path d="M5.39567 3.44527C5.38981 3.44527 5.38395 3.44527 5.37809 3.44527C4.76873 3.44527 4.27655 2.94723 4.27069 2.33787C4.27069 2.33201 4.27069 2.32615 4.27069 2.32029C4.27069 1.71093 4.76873 1.21875 5.37809 1.21289H5.39567C6.00503 1.21289 6.49721 1.71093 6.50307 2.32029V2.33787C6.49721 2.95309 6.00503 3.44527 5.39567 3.44527Z" fill="url(#paint9_radial_338_1091)"/>
<g opacity="0.35">
<path d="M5.39567 3.44527C5.38981 3.44527 5.38395 3.44527 5.37809 3.44527C4.76873 3.44527 4.27655 2.94723 4.27069 2.33787C4.27069 2.33201 4.27069 2.32615 4.27069 2.32029C4.27069 1.71093 4.76873 1.21875 5.37809 1.21289H5.39567C6.00503 1.21289 6.49721 1.71093 6.50307 2.32029V2.33787C6.49721 2.95309 6.00503 3.44527 5.39567 3.44527Z" fill="url(#paint10_radial_338_1091)"/>
</g>
<path d="M8.28959 3.44527C8.28373 3.44527 8.27787 3.44527 8.27201 3.44527C7.66265 3.44527 7.17047 2.94723 7.16461 2.33787C7.16461 2.33201 7.16461 2.32615 7.16461 2.32029C7.16461 1.71093 7.66265 1.21875 8.27201 1.21289H8.28959C8.89896 1.21289 9.39113 1.71093 9.39699 2.32029V2.33787C9.39699 2.95309 8.89896 3.44527 8.28959 3.44527Z" fill="url(#paint11_radial_338_1091)"/>
<g opacity="0.35">
<path d="M8.28959 3.44527C8.28373 3.44527 8.27787 3.44527 8.27201 3.44527C7.66265 3.44527 7.17047 2.94723 7.16461 2.33787C7.16461 2.33201 7.16461 2.32615 7.16461 2.32029C7.16461 1.71093 7.66265 1.21875 8.27201 1.21289H8.28959C8.89896 1.21289 9.39113 1.71093 9.39699 2.32029V2.33787C9.39699 2.95309 8.89896 3.44527 8.28959 3.44527Z" fill="url(#paint12_radial_338_1091)"/>
</g>
<path d="M23.5149 25.9507L20.3281 22.7632L17.147 25.9507H23.5149Z" fill="url(#paint13_linear_338_1091)"/>
<path d="M27.9437 19.2243L14.997 17.1091L2.05035 19.2243V20.9586C2.05035 21.8785 2.79435 22.6285 3.71995 22.6285H26.28C27.1997 22.6285 27.9496 21.8844 27.9496 20.9586L27.9437 19.2243Z" fill="#F1F2FF"/>
<path d="M27.9437 19.2243L14.997 17.1091L2.05035 19.2243V20.9586C2.05035 21.8785 2.79435 22.6285 3.71995 22.6285H26.28C27.1997 22.6285 27.9496 21.8844 27.9496 20.9586L27.9437 19.2243Z" fill="url(#paint14_linear_338_1091)"/>
<path d="M9.31456 18.0349L2.05035 19.2243V20.9586C2.05035 21.8785 2.79435 22.6285 3.71995 22.6285H9.31456V18.0349Z" fill="url(#paint15_linear_338_1091)"/>
<path d="M3.71995 7.24213H26.28C27.1997 7.24213 27.9496 7.99211 27.9496 8.91202V19.2302H2.05035V8.90616C2.05035 7.98625 2.80021 7.24213 3.71995 7.24213Z" fill="url(#paint16_linear_338_1091)"/>
<path d="M2.05029 14.4549H27.9437V19.2243H2.05029V14.4549Z" fill="url(#paint17_linear_338_1091)"/>
<path d="M26.2741 7.24213H18.2014V19.2243H27.9437V8.90616C27.9437 7.98625 27.1997 7.24213 26.2741 7.24213Z" fill="url(#paint18_linear_338_1091)"/>
<path d="M19.795 22.4293L14.4991 21.3454C13.8664 21.2165 13.304 21.7731 13.4329 22.4118L14.5167 27.7085C14.6632 28.4117 15.5302 28.6753 16.0398 28.1656L17.065 27.1402L19.0803 29.812C19.2502 30.0405 19.5841 30.064 19.7891 29.8589L21.9508 27.6968C22.15 27.4976 22.1265 27.1636 21.9039 26.9879L19.2326 24.9723L20.2578 23.9469C20.7616 23.443 20.5038 22.5758 19.795 22.4293Z" fill="url(#paint19_linear_338_1091)"/>
<path d="M19.789 29.8647L21.9507 27.7026C22.1499 27.5034 22.1265 27.1695 21.9038 26.9937L19.2325 24.9781L17.0708 27.1402L19.086 29.812C19.2559 30.0405 19.5898 30.0639 19.789 29.8647Z" fill="url(#paint20_linear_338_1091)"/>
<path d="M19.2325 24.9781L20.2577 23.9528C20.7674 23.443 20.5037 22.5758 19.8007 22.4294L15.8875 21.6266L19.2325 24.9781Z" fill="url(#paint21_linear_338_1091)"/>
<path d="M14.5227 27.7085C14.6692 28.4116 15.5363 28.6753 16.0461 28.1655L17.0715 27.1401L13.7258 23.7945L14.5227 27.7085Z" fill="url(#paint22_linear_338_1091)"/>
<path d="M26.6257 20.9703C26.6257 21.0875 26.5788 21.193 26.5027 21.275C26.4265 21.3512 26.3152 21.3981 26.1981 21.3981H11.8395V20.5426H26.1981C26.4324 20.5368 26.6257 20.7301 26.6257 20.9703Z" fill="url(#paint23_linear_338_1091)"/>
<path d="M11.8395 20.5368H17.8677V21.3923H11.8395V20.5368Z" fill="url(#paint24_linear_338_1091)"/>
<path d="M11.8336 20.5368H3.79612C3.56179 20.5368 3.36847 20.7302 3.36847 20.9645C3.36847 21.1989 3.56179 21.3923 3.79612 21.3923H11.8336V20.5368Z" fill="url(#paint25_linear_338_1091)"/>
<path d="M11.8455 22.0836C11.8396 22.0836 11.8338 22.0836 11.8279 22.0836C11.2186 22.0836 10.7264 21.5856 10.7205 20.9762C10.7205 20.9704 10.7205 20.9645 10.7205 20.9587C10.7205 20.3493 11.2186 19.8571 11.8279 19.8513H11.8455C12.4549 19.8513 12.947 20.3493 12.9529 20.9587V20.9762C12.9529 21.5856 12.4549 22.0836 11.8455 22.0836Z" fill="url(#paint26_radial_338_1091)"/>
<g opacity="0.35">
<path d="M11.8455 22.0836C11.8396 22.0836 11.8338 22.0836 11.8279 22.0836C11.2186 22.0836 10.7264 21.5856 10.7205 20.9762C10.7205 20.9704 10.7205 20.9645 10.7205 20.9587C10.7205 20.3493 11.2186 19.8571 11.8279 19.8513H11.8455C12.4549 19.8513 12.947 20.3493 12.9529 20.9587V20.9762C12.9529 21.5856 12.4549 22.0836 11.8455 22.0836Z" fill="url(#paint27_radial_338_1091)"/>
</g>
<path d="M10.3748 12.2342H15.4363C15.9343 12.2342 16.3385 12.6385 16.3385 13.1365V16.8454C16.3385 17.3435 15.9343 17.7478 15.4363 17.7478H10.3748C9.87687 17.7478 9.47266 17.3435 9.47266 16.8454V13.1365C9.47266 12.6385 9.87687 12.2342 10.3748 12.2342Z" fill="url(#paint28_linear_338_1091)"/>
<path d="M16.9887 14.5662L19.7362 12.7557C20.076 12.533 20.5271 12.7732 20.5271 13.1775V16.7985C20.5271 17.2028 20.076 17.4431 19.7362 17.2204L16.9887 15.4158C16.6841 15.2165 16.6841 14.7654 16.9887 14.5662Z" fill="url(#paint29_linear_338_1091)"/>
<path d="M10.8848 11.8298C11.6647 11.8298 12.2969 11.1976 12.2969 10.4178C12.2969 9.63789 11.6647 9.00568 10.8848 9.00568C10.1049 9.00568 9.47272 9.63789 9.47272 10.4178C9.47272 11.1976 10.1049 11.8298 10.8848 11.8298Z" fill="url(#paint30_linear_338_1091)"/>
<path d="M14.0482 11.8298C14.8281 11.8298 15.4603 11.1976 15.4603 10.4178C15.4603 9.63789 14.8281 9.00568 14.0482 9.00568C13.2683 9.00568 12.6361 9.63789 12.6361 10.4178C12.6361 11.1976 13.2683 11.8298 14.0482 11.8298Z" fill="url(#paint31_linear_338_1091)"/>
<defs>
<linearGradient id="paint0_linear_338_1091" x1="12.4379" y1="4.56306" x2="17.7852" y2="25.7813" gradientUnits="userSpaceOnUse">
<stop stop-color="#F3FAFF"/>
<stop offset="1" stop-color="#D5DAF3"/>
</linearGradient>
<linearGradient id="paint1_linear_338_1091" x1="14.9971" y1="22.3435" x2="14.9971" y2="26.1175" gradientUnits="userSpaceOnUse">
<stop stop-color="#DBD5EF" stop-opacity="0"/>
<stop offset="0.2667" stop-color="#D8D2EC" stop-opacity="0.023"/>
<stop offset="0.4431" stop-color="#D1C9E2" stop-opacity="0.098"/>
<stop offset="0.5933" stop-color="#C4B9D1" stop-opacity="0.225"/>
<stop offset="0.7288" stop-color="#B2A4BA" stop-opacity="0.405"/>
<stop offset="0.8545" stop-color="#9A889C" stop-opacity="0.638"/>
<stop offset="0.9713" stop-color="#7E6678" stop-opacity="0.92"/>
<stop offset="1" stop-color="#765D6E"/>
</linearGradient>
<linearGradient id="paint2_linear_338_1091" x1="14.9971" y1="7.47371" x2="14.9971" y2="4.13012" gradientUnits="userSpaceOnUse">
<stop stop-color="#DBD5EF" stop-opacity="0"/>
<stop offset="0.2667" stop-color="#D8D2EC" stop-opacity="0.023"/>
<stop offset="0.4431" stop-color="#D1C9E2" stop-opacity="0.098"/>
<stop offset="0.5933" stop-color="#C4B9D1" stop-opacity="0.225"/>
<stop offset="0.7288" stop-color="#B2A4BA" stop-opacity="0.405"/>
<stop offset="0.8545" stop-color="#9A889C" stop-opacity="0.638"/>
<stop offset="0.9713" stop-color="#7E6678" stop-opacity="0.92"/>
<stop offset="1" stop-color="#765D6E"/>
</linearGradient>
<linearGradient id="paint3_linear_338_1091" x1="26.0993" y1="14.1396" x2="30.283" y2="14.1396" gradientUnits="userSpaceOnUse">
<stop stop-color="#DBD5EF" stop-opacity="0"/>
<stop offset="0.2667" stop-color="#D8D2EC" stop-opacity="0.023"/>
<stop offset="0.4431" stop-color="#D1C9E2" stop-opacity="0.098"/>
<stop offset="0.5933" stop-color="#C4B9D1" stop-opacity="0.225"/>
<stop offset="0.7288" stop-color="#B2A4BA" stop-opacity="0.405"/>
<stop offset="0.8545" stop-color="#9A889C" stop-opacity="0.638"/>
<stop offset="0.9713" stop-color="#7E6678" stop-opacity="0.92"/>
<stop offset="1" stop-color="#765D6E"/>
</linearGradient>
<linearGradient id="paint4_linear_338_1091" x1="14.389" y1="-1.12141" x2="15.4752" y2="6.14638" gradientUnits="userSpaceOnUse">
<stop stop-color="#C8EFFE"/>
<stop offset="0.1027" stop-color="#C0EDFD"/>
<stop offset="0.258" stop-color="#ABEAFD"/>
<stop offset="0.4465" stop-color="#89E5FD"/>
<stop offset="0.6612" stop-color="#5ADDFC"/>
<stop offset="0.8947" stop-color="#1ED4FB"/>
<stop offset="1" stop-color="#01D0FB"/>
</linearGradient>
<linearGradient id="paint5_linear_338_1091" x1="14.9971" y1="2.87921" x2="14.9971" y2="4.96763" gradientUnits="userSpaceOnUse">
<stop stop-color="#0290CF" stop-opacity="0"/>
<stop offset="0.2191" stop-color="#0290CF" stop-opacity="0.013"/>
<stop offset="0.3639" stop-color="#0290CF" stop-opacity="0.056"/>
<stop offset="0.4873" stop-color="#0290CF" stop-opacity="0.128"/>
<stop offset="0.5987" stop-color="#0290CF" stop-opacity="0.231"/>
<stop offset="0.7019" stop-color="#0290CF" stop-opacity="0.364"/>
<stop offset="0.7993" stop-color="#0290CF" stop-opacity="0.528"/>
<stop offset="0.892" stop-color="#0290CF" stop-opacity="0.722"/>
<stop offset="0.9788" stop-color="#0290CF" stop-opacity="0.941"/>
<stop offset="1" stop-color="#0290CF"/>
</linearGradient>
<linearGradient id="paint6_linear_338_1091" x1="27.018" y1="2.3314" x2="30.0261" y2="2.3314" gradientUnits="userSpaceOnUse">
<stop stop-color="#0290CF" stop-opacity="0"/>
<stop offset="0.2191" stop-color="#0290CF" stop-opacity="0.013"/>
<stop offset="0.3639" stop-color="#0290CF" stop-opacity="0.056"/>
<stop offset="0.4873" stop-color="#0290CF" stop-opacity="0.128"/>
<stop offset="0.5987" stop-color="#0290CF" stop-opacity="0.231"/>
<stop offset="0.7019" stop-color="#0290CF" stop-opacity="0.364"/>
<stop offset="0.7993" stop-color="#0290CF" stop-opacity="0.528"/>
<stop offset="0.892" stop-color="#0290CF" stop-opacity="0.722"/>
<stop offset="0.9788" stop-color="#0290CF" stop-opacity="0.941"/>
<stop offset="1" stop-color="#0290CF"/>
</linearGradient>
<radialGradient id="paint7_radial_338_1091" cx="0" cy="0" r="1" gradientUnits="userSpaceOnUse" gradientTransform="translate(2.30892 2.04731) scale(1.19072)">
<stop stop-color="#FD4755"/>
<stop offset="1" stop-color="#A72B2B"/>
</radialGradient>
<radialGradient id="paint8_radial_338_1091" cx="0" cy="0" r="1" gradientUnits="userSpaceOnUse" gradientTransform="translate(2.10583 2.05159) scale(1.61358)">
<stop stop-color="#C41926" stop-opacity="0"/>
<stop offset="0.1558" stop-color="#C01926" stop-opacity="0.036"/>
<stop offset="0.3086" stop-color="#B71C26" stop-opacity="0.144"/>
<stop offset="0.4604" stop-color="#A72126" stop-opacity="0.325"/>
<stop offset="0.6115" stop-color="#912826" stop-opacity="0.579"/>
<stop offset="0.7608" stop-color="#753026" stop-opacity="0.903"/>
<stop offset="0.8" stop-color="#6D3326"/>
<stop offset="0.8401" stop-color="#703226" stop-opacity="0.966"/>
<stop offset="0.8781" stop-color="#792F26" stop-opacity="0.861"/>
<stop offset="0.9152" stop-color="#882A26" stop-opacity="0.685"/>
<stop offset="0.9518" stop-color="#9D2426" stop-opacity="0.439"/>
<stop offset="0.9877" stop-color="#B91C26" stop-opacity="0.124"/>
<stop offset="1" stop-color="#C41926" stop-opacity="0"/>
</radialGradient>
<radialGradient id="paint9_radial_338_1091" cx="0" cy="0" r="1" gradientUnits="userSpaceOnUse" gradientTransform="translate(5.20431 2.04731) scale(1.19072)">
<stop stop-color="#FEF0AE"/>
<stop offset="1" stop-color="#FAC600"/>
</radialGradient>
<radialGradient id="paint10_radial_338_1091" cx="0" cy="0" r="1" gradientUnits="userSpaceOnUse" gradientTransform="translate(5.00122 2.05159) scale(1.61358)">
<stop stop-color="#FE9738" stop-opacity="0"/>
<stop offset="0.766" stop-color="#FE9738"/>
<stop offset="0.7973" stop-color="#FE9738" stop-opacity="0.985"/>
<stop offset="0.827" stop-color="#FE9738" stop-opacity="0.94"/>
<stop offset="0.856" stop-color="#FE9738" stop-opacity="0.865"/>
<stop offset="0.8846" stop-color="#FE9738" stop-opacity="0.759"/>
<stop offset="0.913" stop-color="#FE9738" stop-opacity="0.622"/>
<stop offset="0.9412" stop-color="#FE9738" stop-opacity="0.454"/>
<stop offset="0.9692" stop-color="#FE9738" stop-opacity="0.256"/>
<stop offset="0.9964" stop-color="#FE9738" stop-opacity="0.032"/>
<stop offset="1" stop-color="#FE9738" stop-opacity="0"/>
</radialGradient>
<radialGradient id="paint11_radial_338_1091" cx="0" cy="0" r="1" gradientUnits="userSpaceOnUse" gradientTransform="translate(8.09958 2.04731) scale(1.19072)">
<stop stop-color="#BBEC6C"/>
<stop offset="1" stop-color="#78A91F"/>
</radialGradient>
<radialGradient id="paint12_radial_338_1091" cx="0" cy="0" r="1" gradientUnits="userSpaceOnUse" gradientTransform="translate(7.89649 2.05159) scale(1.61358)">
<stop stop-color="#334C0F" stop-opacity="0"/>
<stop offset="0.2872" stop-color="#334C0F" stop-opacity="0.03"/>
<stop offset="0.4349" stop-color="#334C0F" stop-opacity="0.132"/>
<stop offset="0.5509" stop-color="#334C0F" stop-opacity="0.308"/>
<stop offset="0.6504" stop-color="#334C0F" stop-opacity="0.557"/>
<stop offset="0.7384" stop-color="#334C0F" stop-opacity="0.877"/>
<stop offset="0.766" stop-color="#334C0F"/>
<stop offset="0.8217" stop-color="#334C0F" stop-opacity="0.951"/>
<stop offset="0.8745" stop-color="#334C0F" stop-opacity="0.8"/>
<stop offset="0.9261" stop-color="#334C0F" stop-opacity="0.548"/>
<stop offset="0.9767" stop-color="#334C0F" stop-opacity="0.198"/>
<stop offset="1" stop-color="#334C0F" stop-opacity="0"/>
</radialGradient>
<linearGradient id="paint13_linear_338_1091" x1="24.6867" y1="26.1975" x2="19.3828" y2="24.5551" gradientUnits="userSpaceOnUse">
<stop stop-color="#DBD5EF" stop-opacity="0"/>
<stop offset="0.2667" stop-color="#D8D2EC" stop-opacity="0.023"/>
<stop offset="0.4431" stop-color="#D1C9E2" stop-opacity="0.098"/>
<stop offset="0.5933" stop-color="#C4B9D1" stop-opacity="0.225"/>
<stop offset="0.7288" stop-color="#B2A4BA" stop-opacity="0.405"/>
<stop offset="0.8545" stop-color="#9A889C" stop-opacity="0.638"/>
<stop offset="0.9713" stop-color="#7E6678" stop-opacity="0.92"/>
<stop offset="1" stop-color="#765D6E"/>
</linearGradient>
<linearGradient id="paint14_linear_338_1091" x1="14.997" y1="20.9907" x2="14.997" y2="18.9848" gradientUnits="userSpaceOnUse">
<stop stop-color="#DBD5EF" stop-opacity="0"/>
<stop offset="0.2667" stop-color="#D8D2EC" stop-opacity="0.023"/>
<stop offset="0.4431" stop-color="#D1C9E2" stop-opacity="0.098"/>
<stop offset="0.5933" stop-color="#C4B9D1" stop-opacity="0.225"/>
<stop offset="0.7288" stop-color="#B2A4BA" stop-opacity="0.405"/>
<stop offset="0.8545" stop-color="#9A889C" stop-opacity="0.638"/>
<stop offset="0.9713" stop-color="#7E6678" stop-opacity="0.92"/>
<stop offset="1" stop-color="#765D6E"/>
</linearGradient>
<linearGradient id="paint15_linear_338_1091" x1="4.99804" y1="20.3322" x2="1.59452" y2="20.3322" gradientUnits="userSpaceOnUse">
<stop stop-color="#DBD5EF" stop-opacity="0"/>
<stop offset="0.2667" stop-color="#D8D2EC" stop-opacity="0.023"/>
<stop offset="0.4431" stop-color="#D1C9E2" stop-opacity="0.098"/>
<stop offset="0.5933" stop-color="#C4B9D1" stop-opacity="0.225"/>
<stop offset="0.7288" stop-color="#B2A4BA" stop-opacity="0.405"/>
<stop offset="0.8545" stop-color="#9A889C" stop-opacity="0.638"/>
<stop offset="0.9713" stop-color="#7E6678" stop-opacity="0.92"/>
<stop offset="1" stop-color="#765D6E"/>
</linearGradient>
<linearGradient id="paint16_linear_338_1091" x1="14.125" y1="8.94829" x2="15.6862" y2="17.9791" gradientUnits="userSpaceOnUse">
<stop stop-color="#FD4755"/>
<stop offset="1" stop-color="#A72B2B"/>
</linearGradient>
<linearGradient id="paint17_linear_338_1091" x1="14.997" y1="16.4263" x2="14.997" y2="19.6843" gradientUnits="userSpaceOnUse">
<stop stop-color="#C41926" stop-opacity="0"/>
<stop offset="0.1624" stop-color="#BF1A26" stop-opacity="0.051"/>
<stop offset="0.3712" stop-color="#B21E26" stop-opacity="0.198"/>
<stop offset="0.6053" stop-color="#9D2426" stop-opacity="0.441"/>
<stop offset="0.8559" stop-color="#802D26" stop-opacity="0.776"/>
<stop offset="1" stop-color="#6D3326"/>
</linearGradient>
<linearGradient id="paint18_linear_338_1091" x1="24.5958" y1="13.2325" x2="28.8759" y2="13.2325" gradientUnits="userSpaceOnUse">
<stop stop-color="#C41926" stop-opacity="0"/>
<stop offset="0.1624" stop-color="#BF1A26" stop-opacity="0.051"/>
<stop offset="0.3712" stop-color="#B21E26" stop-opacity="0.198"/>
<stop offset="0.6053" stop-color="#9D2426" stop-opacity="0.441"/>
<stop offset="0.8559" stop-color="#802D26" stop-opacity="0.776"/>
<stop offset="1" stop-color="#6D3326"/>
</linearGradient>
<linearGradient id="paint19_linear_338_1091" x1="17.7545" y1="23.1784" x2="17.7545" y2="27.6859" gradientUnits="userSpaceOnUse">
<stop stop-color="#5A5A5A"/>
<stop offset="1" stop-color="#444444"/>
</linearGradient>
<linearGradient id="paint20_linear_338_1091" x1="19.985" y1="27.894" x2="20.767" y2="28.6759" gradientUnits="userSpaceOnUse">
<stop stop-color="#433F43" stop-opacity="0"/>
<stop offset="0.4114" stop-color="#373537" stop-opacity="0.269"/>
<stop offset="1" stop-color="#1A1A1A"/>
</linearGradient>
<linearGradient id="paint21_linear_338_1091" x1="18.9228" y1="23.0052" x2="20.0455" y2="24.1277" gradientUnits="userSpaceOnUse">
<stop stop-color="#433F43" stop-opacity="0"/>
<stop offset="0.4114" stop-color="#373537" stop-opacity="0.269"/>
<stop offset="1" stop-color="#1A1A1A"/>
</linearGradient>
<linearGradient id="paint22_linear_338_1091" x1="15.0973" y1="26.8316" x2="16.2201" y2="27.9543" gradientUnits="userSpaceOnUse">
<stop stop-color="#433F43" stop-opacity="0"/>
<stop offset="0.4114" stop-color="#373537" stop-opacity="0.269"/>
<stop offset="1" stop-color="#1A1A1A"/>
</linearGradient>
<linearGradient id="paint23_linear_338_1091" x1="19.2306" y1="12.033" x2="19.2306" y2="24.3265" gradientUnits="userSpaceOnUse">
<stop stop-color="#DBD5EF" stop-opacity="0"/>
<stop offset="0.2667" stop-color="#D8D2EC" stop-opacity="0.023"/>
<stop offset="0.4431" stop-color="#D1C9E2" stop-opacity="0.098"/>
<stop offset="0.5933" stop-color="#C4B9D1" stop-opacity="0.225"/>
<stop offset="0.7288" stop-color="#B2A4BA" stop-opacity="0.405"/>
<stop offset="0.8545" stop-color="#9A889C" stop-opacity="0.638"/>
<stop offset="0.9713" stop-color="#7E6678" stop-opacity="0.92"/>
<stop offset="1" stop-color="#765D6E"/>
</linearGradient>
<linearGradient id="paint24_linear_338_1091" x1="14.2553" y1="20.9678" x2="12.6674" y2="20.9678" gradientUnits="userSpaceOnUse">
<stop stop-color="#DBD5EF" stop-opacity="0"/>
<stop offset="0.2667" stop-color="#D8D2EC" stop-opacity="0.023"/>
<stop offset="0.4431" stop-color="#D1C9E2" stop-opacity="0.098"/>
<stop offset="0.5933" stop-color="#C4B9D1" stop-opacity="0.225"/>
<stop offset="0.7288" stop-color="#B2A4BA" stop-opacity="0.405"/>
<stop offset="0.8545" stop-color="#9A889C" stop-opacity="0.638"/>
<stop offset="0.9713" stop-color="#7E6678" stop-opacity="0.92"/>
<stop offset="1" stop-color="#765D6E"/>
</linearGradient>
<linearGradient id="paint25_linear_338_1091" x1="7.60309" y1="20.6357" x2="7.60309" y2="21.3979" gradientUnits="userSpaceOnUse">
<stop stop-color="#FEF0AE"/>
<stop offset="1" stop-color="#FAC600"/>
</linearGradient>
<radialGradient id="paint26_radial_338_1091" cx="0" cy="0" r="1" gradientUnits="userSpaceOnUse" gradientTransform="translate(11.6547 20.6837) scale(1.19072)">
<stop stop-color="#FEF0AE"/>
<stop offset="1" stop-color="#FAC600"/>
</radialGradient>
<radialGradient id="paint27_radial_338_1091" cx="0" cy="0" r="1" gradientUnits="userSpaceOnUse" gradientTransform="translate(11.4515 20.688) scale(1.61358)">
<stop stop-color="#FE9738" stop-opacity="0"/>
<stop offset="0.766" stop-color="#FE9738"/>
<stop offset="0.7973" stop-color="#FE9738" stop-opacity="0.985"/>
<stop offset="0.827" stop-color="#FE9738" stop-opacity="0.94"/>
<stop offset="0.856" stop-color="#FE9738" stop-opacity="0.865"/>
<stop offset="0.8846" stop-color="#FE9738" stop-opacity="0.759"/>
<stop offset="0.913" stop-color="#FE9738" stop-opacity="0.622"/>
<stop offset="0.9412" stop-color="#FE9738" stop-opacity="0.454"/>
<stop offset="0.9692" stop-color="#FE9738" stop-opacity="0.256"/>
<stop offset="0.9964" stop-color="#FE9738" stop-opacity="0.032"/>
<stop offset="1" stop-color="#FE9738" stop-opacity="0"/>
</radialGradient>
<linearGradient id="paint28_linear_338_1091" x1="16.4752" y1="22.4828" x2="10.9633" y2="10.9139" gradientUnits="userSpaceOnUse">
<stop stop-color="white" stop-opacity="0"/>
<stop offset="0.0924868" stop-color="white" stop-opacity="0.024"/>
<stop offset="0.2178" stop-color="white" stop-opacity="0.092"/>
<stop offset="0.3619" stop-color="white" stop-opacity="0.203"/>
<stop offset="0.52" stop-color="white" stop-opacity="0.359"/>
<stop offset="0.6897" stop-color="white" stop-opacity="0.559"/>
<stop offset="0.8661" stop-color="white" stop-opacity="0.798"/>
<stop offset="1" stop-color="white"/>
</linearGradient>
<linearGradient id="paint29_linear_338_1091" x1="21.602" y1="19.6304" x2="17.9666" y2="12.8298" gradientUnits="userSpaceOnUse">
<stop stop-color="white" stop-opacity="0"/>
<stop offset="0.0924868" stop-color="white" stop-opacity="0.024"/>
<stop offset="0.2178" stop-color="white" stop-opacity="0.092"/>
<stop offset="0.3619" stop-color="white" stop-opacity="0.203"/>
<stop offset="0.52" stop-color="white" stop-opacity="0.359"/>
<stop offset="0.6897" stop-color="white" stop-opacity="0.559"/>
<stop offset="0.8661" stop-color="white" stop-opacity="0.798"/>
<stop offset="1" stop-color="white"/>
</linearGradient>
<linearGradient id="paint30_linear_338_1091" x1="12.4133" y1="13.2768" x2="9.97919" y2="8.72273" gradientUnits="userSpaceOnUse">
<stop stop-color="white" stop-opacity="0"/>
<stop offset="0.0924868" stop-color="white" stop-opacity="0.024"/>
<stop offset="0.2178" stop-color="white" stop-opacity="0.092"/>
<stop offset="0.3619" stop-color="white" stop-opacity="0.203"/>
<stop offset="0.52" stop-color="white" stop-opacity="0.359"/>
<stop offset="0.6897" stop-color="white" stop-opacity="0.559"/>
<stop offset="0.8661" stop-color="white" stop-opacity="0.798"/>
<stop offset="1" stop-color="white"/>
</linearGradient>
<linearGradient id="paint31_linear_338_1091" x1="15.5763" y1="13.2768" x2="13.1422" y2="8.72273" gradientUnits="userSpaceOnUse">
<stop stop-color="white" stop-opacity="0"/>
<stop offset="0.0924868" stop-color="white" stop-opacity="0.024"/>
<stop offset="0.2178" stop-color="white" stop-opacity="0.092"/>
<stop offset="0.3619" stop-color="white" stop-opacity="0.203"/>
<stop offset="0.52" stop-color="white" stop-opacity="0.359"/>
<stop offset="0.6897" stop-color="white" stop-opacity="0.559"/>
<stop offset="0.8661" stop-color="white" stop-opacity="0.798"/>
<stop offset="1" stop-color="white"/>
</linearGradient>
</defs>
</svg>
