<svg width="31" height="30" viewBox="0 0 31 30" fill="none" xmlns="http://www.w3.org/2000/svg">
<g clip-path="url(#clip0_338_964)">
<path fill-rule="evenodd" clip-rule="evenodd" d="M29.3019 1.97455H1.69646C1.17462 1.97455 0.746826 2.42455 0.746826 2.97381V21.3163L16.2212 22.2916L30.2532 21.3163V2.97381C30.2532 2.42455 29.8255 1.97455 29.3019 1.97455Z" fill="#E3E2FF"/>
<path fill-rule="evenodd" clip-rule="evenodd" d="M19.6929 24.1431L15.4992 23.072L12.043 24.1431L9.55005 27.0981L15.696 28.3061L22.1858 27.0981L19.6929 24.1431Z" fill="#9FACBA"/>
<path fill-rule="evenodd" clip-rule="evenodd" d="M28.3677 2.97381V21.7339L30.2533 21.3164V2.97381C30.2533 2.42455 29.8255 1.97455 29.3019 1.97455H27.4164C28.3677 1.97373 28.3677 2.42455 28.3677 2.97381Z" fill="#DDDAEC"/>
<path fill-rule="evenodd" clip-rule="evenodd" d="M18.5804 25.553C18.6338 25.553 18.6844 25.5765 18.7188 25.6172L19.9683 27.098L20.6305 27.8218L22.1858 27.098L19.6929 24.143L15.7214 22.847L12.0429 24.143L10.8538 25.5529H18.5804V25.553Z" fill="#8696A5"/>
<path fill-rule="evenodd" clip-rule="evenodd" d="M19.0012 13.786L26.3744 18.3751H26.6929C26.793 18.3751 26.8741 18.294 26.8741 18.194V7.1451C26.8741 7.04508 26.793 6.96399 26.6929 6.96399H25.4693L19.0012 13.786Z" fill="#B1E4F9"/>
<path fill-rule="evenodd" clip-rule="evenodd" d="M25.4692 6.96399V17.4716L25.4709 18.0181L26.3743 18.3751H26.874V7.1451C26.874 7.04508 26.7929 6.96399 26.6929 6.96399H25.4692Z" fill="#75CEF8"/>
<path fill-rule="evenodd" clip-rule="evenodd" d="M8.20511 10.7677L6.10745 10.0833L4.23901 10.7677V14.5714L6.07147 15.598L8.20511 14.5714L8.88954 12.8483L8.20511 10.7677Z" fill="#EB5468"/>
<path fill-rule="evenodd" clip-rule="evenodd" d="M8.20515 10.7677L6.91333 10.3468V15.1925L8.20515 14.5714L8.91694 12.7765L8.20515 10.7677Z" fill="#E5384F"/>
<path fill-rule="evenodd" clip-rule="evenodd" d="M22.1858 27.098H9.54999H8.15892C7.36157 27.098 6.70972 27.7516 6.70972 28.549V29.3822C6.70972 29.721 6.98692 29.9999 7.32741 29.9999H24.4102C24.7507 29.9999 25.0279 29.721 25.0279 29.3822V28.549C25.0279 27.7516 24.3743 27.098 23.5769 27.098H22.1858Z" fill="#B6C4CF"/>
<path fill-rule="evenodd" clip-rule="evenodd" d="M22.1858 27.098H21.3696C22.1618 27.1032 22.8103 27.7551 22.8103 28.549V29.3822C22.8103 29.721 22.5314 29.9999 22.1926 29.9999H24.4101C24.7505 29.9999 25.0278 29.721 25.0278 29.3822V28.549C25.0278 27.7516 24.3741 27.098 23.5768 27.098H22.1858Z" fill="#9FACBA"/>
<path fill-rule="evenodd" clip-rule="evenodd" d="M30.2532 21.3163H0.746826V23.1438C0.746826 23.693 1.17456 24.143 1.69646 24.143H12.0429H19.6929H29.3019C29.8255 24.143 30.2532 23.693 30.2532 23.1438V21.3163Z" fill="#B6C4CF"/>
<path fill-rule="evenodd" clip-rule="evenodd" d="M30.2533 21.3163H28.3677V21.4481V23.1438C28.3677 23.693 27.94 24.143 27.4164 24.143H29.3019C29.8255 24.143 30.2533 23.693 30.2533 23.1438V21.3163Z" fill="#9FACBA"/>
<path fill-rule="evenodd" clip-rule="evenodd" d="M8.20517 10.7677L8.8896 9.15417L8.20517 6.96399H4.42013C4.32011 6.96399 4.23901 7.04508 4.23901 7.1451V10.7677H8.20517Z" fill="#7FDBAE"/>
<path fill-rule="evenodd" clip-rule="evenodd" d="M8.20511 14.5714H4.23901V18.194C4.23901 18.294 4.32011 18.3751 4.42013 18.3751H8.20511V14.5714Z" fill="#FEC165"/>
<path fill-rule="evenodd" clip-rule="evenodd" d="M6.91333 10.7677H8.20515L8.88958 9.15417L8.20515 6.96399H6.91333V10.7677Z" fill="#26BB9E"/>
<path fill-rule="evenodd" clip-rule="evenodd" d="M6.91333 14.5714H8.20515V18.3751H6.91333V14.5714Z" fill="#FDB441"/>
<path fill-rule="evenodd" clip-rule="evenodd" d="M8.20508 10.7677V14.5714C8.29402 14.4807 15.1381 15.6579 18.6713 13.9623C21.0702 12.8124 21.7768 9.73934 21.8179 6.96405H8.20508V10.7677Z" fill="#B1E4F9"/>
<path fill-rule="evenodd" clip-rule="evenodd" d="M21.7769 13.786L19.3764 11.4589C18.5842 10.9525 17.5131 11.0432 16.8236 11.7327L14.5821 13.969L10.1711 18.375H26.3744L21.7769 13.786Z" fill="#7FDBAE"/>
<path fill-rule="evenodd" clip-rule="evenodd" d="M14.5821 13.9691L12.3184 11.7088C11.9745 11.3666 11.4133 11.3666 11.071 11.7088L8.20508 14.5714V18.3751H10.171L14.5821 13.9691Z" fill="#7FDBAE"/>
<path fill-rule="evenodd" clip-rule="evenodd" d="M21.7769 13.786C21.4398 13.9212 21.0788 14.0084 20.699 14.0376C21.1763 15.0145 21.5613 16.0943 21.8266 17.2527C21.9121 17.6291 21.9839 18.0038 22.0404 18.3751H26.3744L25.4693 17.4717L21.7769 13.786Z" fill="#26BB9E"/>
<path fill-rule="evenodd" clip-rule="evenodd" d="M10.171 18.375L14.582 13.9691L12.8214 12.2119C12.5716 14.3678 11.0129 16.6452 8.58667 18.3751L10.171 18.375Z" fill="#26BB9E"/>
<path fill-rule="evenodd" clip-rule="evenodd" d="M28.4424 0H25.1925C25.1223 0 25.0583 0.0406641 25.0285 0.104238L24.0216 2.25346L22.2148 6.11701L23.5922 7.21207L25.2108 7.51834L25.4691 6.96398L27.6729 2.25346L28.6064 0.257813C28.6626 0.137754 28.5749 0 28.4424 0Z" fill="#EB5468"/>
<path fill-rule="evenodd" clip-rule="evenodd" d="M24.0371 7.29768L25.2109 7.5184L25.4692 6.96404L28.6063 0.257812C28.6625 0.137754 28.5748 0 28.4423 0H27.4505L24.4221 6.47467L24.0371 7.29768Z" fill="#E5384F"/>
<path fill-rule="evenodd" clip-rule="evenodd" d="M24.1707 9.73934L22.896 8.61686L21.1764 8.33795C20.0266 8.68699 19.628 9.79922 19.5116 10.7608C19.4808 11.0123 19.438 11.245 19.3764 11.4589C19.1864 12.1331 18.8248 12.6304 18.1516 13.0513C18.0374 13.1228 18.0385 13.2888 18.153 13.3598C19.458 14.1686 20.7347 14.2025 21.777 13.7859C23.4178 13.1307 24.482 11.3597 24.1707 9.73934Z" fill="#FEC165"/>
<path fill-rule="evenodd" clip-rule="evenodd" d="M25.2109 7.51839L22.2148 6.117L21.8179 6.96398L21.1763 8.338L24.1706 9.73933L25.2109 7.51839Z" fill="#375E7D"/>
<path fill-rule="evenodd" clip-rule="evenodd" d="M23.1234 9.24824C23.4331 10.8703 22.3706 12.6413 20.7297 13.2966C19.97 13.5995 19.0872 13.6644 18.1598 13.365C19.4619 14.1692 20.7349 14.2018 21.7769 13.786C23.4178 13.1307 24.482 11.3597 24.1706 9.73931L23.9328 8.95392L23.1234 9.24824Z" fill="#FDB441"/>
<path fill-rule="evenodd" clip-rule="evenodd" d="M23.1234 9.24829L24.1706 9.73937L25.2109 7.51843L24.162 7.02905L23.1234 9.24829Z" fill="#2B4D66"/>
<path d="M13.6308 5.31213H4.23907C3.98905 5.31213 3.78638 5.10945 3.78638 4.85943C3.78638 4.60941 3.98905 4.40674 4.23907 4.40674H13.6308C13.8808 4.40674 14.0835 4.60941 14.0835 4.85943C14.0835 5.10945 13.8808 5.31213 13.6308 5.31213Z" fill="#2B4D66"/>
</g>
<defs>
<clipPath id="clip0_338_964">
<rect width="30" height="30" fill="white" transform="translate(0.5)"/>
</clipPath>
</defs>
</svg>
