<svg width="19" height="19" viewBox="0 0 19 19" fill="none" xmlns="http://www.w3.org/2000/svg">
<g clip-path="url(#clip0_159_1101)">
<path d="M9.22279 0.555542C4.26583 0.555542 0.238281 4.58309 0.238281 9.54005C0.238281 13.2268 2.43794 16.3869 5.62898 17.781C5.598 17.1614 5.62898 16.3869 5.7839 15.7053C5.9698 14.9617 6.93019 10.8103 6.93019 10.8103C6.93019 10.8103 6.65136 10.2216 6.65136 9.38513C6.65136 8.05294 7.42589 7.06155 8.38628 7.06155C9.1918 7.06155 9.59456 7.68117 9.59456 8.42471C9.59456 9.23022 9.06787 10.4695 8.78904 11.6157C8.57218 12.5762 9.25374 13.3507 10.2142 13.3507C11.9181 13.3507 13.0644 11.151 13.0644 8.57958C13.0644 6.59678 11.7322 5.14069 9.31572 5.14069C6.58938 5.14069 4.88545 7.18544 4.88545 9.44704C4.88545 10.2216 5.1023 10.7792 5.47407 11.213C5.62898 11.3989 5.65997 11.4918 5.598 11.7086C5.56701 11.8636 5.44308 12.2663 5.41209 12.4212C5.35011 12.6381 5.16425 12.731 4.94739 12.6381C3.67717 12.1114 3.1195 10.7482 3.1195 9.19916C3.1195 6.65872 5.25718 3.5916 9.53258 3.5916C12.9715 3.5916 15.2331 6.0701 15.2331 8.73446C15.2331 12.2663 13.2813 14.8997 10.4001 14.8997C9.43964 14.8997 8.51024 14.373 8.20041 13.7844C8.20041 13.7844 7.67373 15.8601 7.5808 16.2629C7.3949 16.9445 7.02313 17.657 6.68235 18.1837C7.48786 18.4315 8.35533 18.5555 9.22279 18.5555C14.1797 18.5555 18.2073 14.5279 18.2073 9.57097C18.2073 4.61401 14.1798 0.555542 9.22279 0.555542Z" fill="#CB1F24"/>
</g>
<defs>
<clipPath id="clip0_159_1101">
<rect width="18" height="18" fill="white" transform="translate(0.222656 0.555542)"/>
</clipPath>
</defs>
</svg>
