<svg width="19" height="19" viewBox="0 0 19 19" fill="none" xmlns="http://www.w3.org/2000/svg">
<g clip-path="url(#clip0_159_1087)">
<path d="M15.7681 0.666626H2.6772C1.32159 0.666626 0.222656 1.76556 0.222656 3.12117V16.2121C0.222656 17.5677 1.32159 18.6666 2.6772 18.6666H15.7681C17.1237 18.6666 18.2227 17.5677 18.2227 16.2121V3.12117C18.2227 1.76556 17.1237 0.666626 15.7681 0.666626Z" fill="#0077B5"/>
<path d="M6.7049 5.57572C6.7049 5.87913 6.61493 6.17573 6.44636 6.42801C6.27779 6.68029 6.0382 6.87692 5.75788 6.99303C5.47756 7.10914 5.16911 7.13952 4.87152 7.08033C4.57394 7.02114 4.30059 6.87503 4.08604 6.66048C3.8715 6.44594 3.72539 6.17259 3.6662 5.875C3.607 5.57742 3.63738 5.26896 3.7535 4.98865C3.86961 4.70833 4.06624 4.46873 4.31852 4.30017C4.5708 4.1316 4.8674 4.04163 5.17081 4.04163C5.57768 4.04163 5.96788 4.20325 6.25558 4.49095C6.54327 4.77865 6.7049 5.16885 6.7049 5.57572Z" fill="white"/>
<path d="M6.35729 8.13302V14.9106C6.35756 14.9606 6.34794 15.0102 6.329 15.0565C6.31005 15.1027 6.28214 15.1448 6.24688 15.1803C6.21162 15.2157 6.1697 15.2438 6.12353 15.263C6.07736 15.2822 6.02786 15.2921 5.97786 15.2921H4.36092C4.31092 15.2922 4.26139 15.2825 4.21517 15.2634C4.16895 15.2444 4.12696 15.2163 4.0916 15.181C4.05625 15.1456 4.02823 15.1036 4.00916 15.0574C3.99008 15.0112 3.98034 14.9617 3.98047 14.9117V8.13302C3.98047 8.03212 4.02055 7.93534 4.0919 7.864C4.16325 7.79265 4.26002 7.75256 4.36092 7.75256H5.97786C6.07858 7.75283 6.17509 7.79304 6.24622 7.86436C6.31735 7.93568 6.35729 8.03229 6.35729 8.13302Z" fill="white"/>
<path d="M14.8107 11.6606V14.9416C14.8108 14.9875 14.8019 15.0331 14.7844 15.0756C14.7668 15.1181 14.7411 15.1567 14.7086 15.1892C14.6761 15.2217 14.6374 15.2474 14.595 15.265C14.5525 15.2825 14.5069 15.2915 14.4609 15.2913H12.7223C12.6763 15.2915 12.6308 15.2825 12.5883 15.265C12.5458 15.2474 12.5072 15.2217 12.4747 15.1892C12.4422 15.1567 12.4164 15.1181 12.3989 15.0756C12.3814 15.0331 12.3724 14.9875 12.3725 14.9416V11.7619C12.3725 11.2874 12.5116 9.68371 11.132 9.68371C10.0632 9.68371 9.84537 10.7811 9.80242 11.2741V14.9416C9.80243 15.0334 9.76628 15.1216 9.70179 15.1871C9.63729 15.2525 9.54963 15.29 9.45776 15.2913H7.77844C7.73255 15.2913 7.68712 15.2823 7.64474 15.2647C7.60236 15.2471 7.56387 15.2213 7.53147 15.1888C7.49908 15.1563 7.47341 15.1178 7.45594 15.0753C7.43848 15.0329 7.42955 14.9874 7.42969 14.9416V8.10258C7.42955 8.05669 7.43848 8.01123 7.45594 7.9688C7.47341 7.92637 7.49908 7.88781 7.53147 7.85531C7.56387 7.82282 7.60236 7.79704 7.64474 7.77945C7.68712 7.76186 7.73255 7.7528 7.77844 7.75281H9.45776C9.55052 7.75281 9.63949 7.78966 9.70508 7.85525C9.77068 7.92085 9.80753 8.00981 9.80753 8.10258V8.69371C10.2043 8.09849 10.7924 7.63928 12.0473 7.63928C14.8271 7.63928 14.8107 10.235 14.8107 11.6606Z" fill="white"/>
</g>
<defs>
<clipPath id="clip0_159_1087">
<rect width="18" height="18" fill="white" transform="translate(0.222656 0.666626)"/>
</clipPath>
</defs>
</svg>
