<svg width="24" height="24" viewBox="0 0 24 24" fill="none" xmlns="http://www.w3.org/2000/svg">
<g clip-path="url(#clip0_830_827)">
<path d="M15.9381 13.1226C15.3831 13.1028 14.9269 13.5469 14.9269 14.0975V13.0965C14.9269 12.5675 14.5156 12.117 13.9869 12.0982C13.4319 12.0784 12.9757 12.5225 12.9757 13.0731V12.1209C12.9757 11.5919 12.5644 11.1414 12.0357 11.1226C11.4806 11.1028 11.0245 11.5469 11.0245 12.0975V8.80385C11.0245 8.27482 10.6131 7.8243 10.0845 7.8055C9.52943 7.78577 9.07329 8.22986 9.07329 8.78046V14.6341C9.07329 14.0953 8.63651 13.6585 8.09768 13.6585C7.55885 13.6585 7.12207 14.0953 7.12207 14.6341V19.5122C7.12207 19.8288 7.22477 20.137 7.41476 20.3903L8.29282 21.561C8.4828 21.8143 8.58551 22.1224 8.58551 22.4391V23.5172C8.58551 23.7839 8.8017 24.0001 9.06841 24.0001H15.9075C16.1742 24.0001 16.3904 23.7839 16.3904 23.5172V22.4317C16.3904 22.1126 16.4295 21.7947 16.5069 21.4852L16.7617 20.4661C16.8391 20.1566 16.8782 19.8387 16.8782 19.5197V14.121C16.8782 13.5919 16.4668 13.1414 15.9381 13.1226Z" fill="#FED2A4"/>
<path d="M8.58008 22.3163C8.5835 22.357 8.58542 22.3979 8.58542 22.4391V23.5171C8.58542 23.7839 8.80161 24 9.06833 24H15.9074C16.1741 24 16.3903 23.7839 16.3903 23.5171V22.4316C16.3903 22.1126 16.4294 21.7947 16.5068 21.4852L16.7616 20.4661C16.839 20.1565 16.8781 19.8387 16.8781 19.5196V15.0244C16.8781 15.0244 15.278 21.5505 8.58008 22.3163Z" fill="#FFBD86"/>
<path d="M5.83049 6.24389H2.55988C1.73882 6.24389 1.07324 5.57831 1.07324 4.75725V1.48664C1.07324 0.665578 1.73887 0 2.55988 0H5.83049C6.65156 0 7.31713 0.665578 7.31713 1.48664V4.75725C7.31718 5.57831 6.65156 6.24389 5.83049 6.24389Z" fill="#A2F5C3"/>
<path d="M5.83026 0H4.56201C5.38307 0 6.04865 0.665578 6.04865 1.48664V4.75725C6.04865 5.57831 5.38307 6.24389 4.56201 6.24389H5.83031C6.65137 6.24389 7.31695 5.57831 7.31695 4.75725V1.48664C7.31695 0.665578 6.65132 0 5.83026 0Z" fill="#88F2A9"/>
<path d="M13.6352 6.24389H10.3646C9.54351 6.24389 8.87793 5.57831 8.87793 4.75725V1.48664C8.87788 0.665578 9.54351 0 10.3645 0H13.6351C14.4562 0 15.1218 0.665578 15.1218 1.48664V4.75725C15.1218 5.57831 14.4562 6.24389 13.6352 6.24389Z" fill="#4172CA"/>
<path d="M13.635 0H12.3667C13.1878 0 13.8533 0.665578 13.8533 1.48664V4.75725C13.8533 5.57831 13.1878 6.24389 12.3667 6.24389H13.635C14.4561 6.24389 15.1216 5.57831 15.1216 4.75725V1.48664C15.1216 0.665578 14.456 0 13.635 0Z" fill="#3A67C1"/>
<path d="M21.4404 6.24389H18.1697C17.3487 6.24389 16.6831 5.57831 16.6831 4.75725V1.48664C16.6831 0.665578 17.3487 0 18.1697 0H21.4403C22.2614 0 22.9269 0.665578 22.9269 1.48664V4.75725C22.927 5.57831 22.2614 6.24389 21.4404 6.24389Z" fill="#4172CA"/>
<path d="M21.4402 0H20.1719C20.9929 0 21.6585 0.665578 21.6585 1.48664V4.75725C21.6585 5.57831 20.9929 6.24389 20.1719 6.24389H21.4402C22.2612 6.24389 22.9268 5.57831 22.9268 4.75725V1.48664C22.9268 0.665578 22.2612 0 21.4402 0Z" fill="#3A67C1"/>
<path d="M8.69887 17.6463L8.96714 17.3781C9.03506 17.3101 9.07321 17.218 9.07321 17.1219V14.634C9.07317 14.1823 8.76567 13.8034 8.34886 13.6924V16.9719L8.18667 17.1341C8.0452 17.2756 8.0452 17.5049 8.18667 17.6464C8.32814 17.7877 8.55745 17.7877 8.69887 17.6463Z" fill="#EA9B58"/>
<path d="M14.5648 16.4597C14.7649 16.4597 14.927 16.2976 14.927 16.0976V13.0962C14.9269 12.642 14.6231 12.2466 14.2026 12.1318V16.0976C14.2027 16.2976 14.3648 16.4597 14.5648 16.4597Z" fill="#EA9B58"/>
<path d="M10.6625 16.4597C10.8625 16.4597 11.0247 16.2976 11.0247 16.0976V12.0974V12.0976V8.80391C11.0247 8.34959 10.7209 7.95397 10.3003 7.83917V16.0976C10.3003 16.2976 10.4625 16.4597 10.6625 16.4597Z" fill="#EA9B58"/>
<path d="M12.6137 16.4597C12.8137 16.4597 12.9758 16.2976 12.9758 16.0976V12.1208C12.9758 11.6666 12.672 11.271 12.2515 11.1562V16.0976C12.2515 16.2976 12.4136 16.4597 12.6137 16.4597Z" fill="#EA9B58"/>
<path d="M3.83756 4.18892C3.74761 4.18892 3.65761 4.1546 3.58898 4.08598L2.87348 3.37053C2.73618 3.23318 2.73618 3.01062 2.87348 2.87337C3.01078 2.73603 3.23339 2.73607 3.37064 2.87332L3.83751 3.3402L5.01979 2.15787C5.15709 2.02062 5.3797 2.02062 5.51695 2.15787C5.65425 2.29521 5.65425 2.51778 5.51695 2.65507L4.08614 4.08598C4.01751 4.1546 3.92751 4.18892 3.83756 4.18892Z" fill="#4172CA"/>
</g>
<defs>
<clipPath id="clip0_830_827">
<rect width="24" height="24" fill="white"/>
</clipPath>
</defs>
</svg>
