<svg width="40" height="40" viewBox="0 0 40 40" fill="none" xmlns="http://www.w3.org/2000/svg">
<path d="M6.29473 19.904C4.7147 17.1488 3.95178 14.8991 3.49176 12.6187C2.8114 9.24598 4.36838 5.95136 6.94766 3.84913C8.03778 2.96065 9.28741 3.26421 9.93203 4.42068L11.3873 7.03153C12.5408 9.10096 13.1176 10.1357 13.0032 11.2327C12.8888 12.3297 12.111 13.2231 10.5553 15.01L6.29473 19.904ZM6.29473 19.904C9.49288 25.4805 14.5118 30.5022 20.0947 33.704M20.0947 33.704C22.8499 35.284 25.0995 36.047 27.38 36.507C30.7527 37.1873 34.0474 35.6303 36.1495 33.051C37.038 31.961 36.7345 30.7113 35.578 30.0667L32.9672 28.6113C30.8977 27.4578 29.863 26.8812 28.766 26.9955C27.669 27.1098 26.7755 27.8877 24.9887 29.4433L20.0947 33.704Z" stroke="#09A8F7" stroke-width="3.5" stroke-linejoin="round"/>
</svg>
