<svg width="40" height="40" viewBox="0 0 40 40" fill="none" xmlns="http://www.w3.org/2000/svg">
<path d="M31.5193 30C33.0425 32.28 33.6868 33.6717 33.1455 34.8332C33.079 34.9757 33.0011 35.1132 32.9128 35.2445C31.9553 36.6667 29.4805 36.6667 24.531 36.6667H15.4717C10.5222 36.6667 8.04738 36.6667 7.08982 35.2445C7.00138 35.1132 6.92362 34.9757 6.85722 34.8332C6.31578 33.6717 6.96008 32.28 8.48322 30" stroke="#09A8F7" stroke-width="3.5" stroke-linecap="round" stroke-linejoin="round"/>
<path d="M25 15.8333C25 18.5948 22.7615 20.8333 20 20.8333C17.2385 20.8333 15 18.5948 15 15.8333C15 13.0719 17.2385 10.8333 20 10.8333C22.7615 10.8333 25 13.0719 25 15.8333Z" stroke="#09A8F7" stroke-width="3.5"/>
<path d="M20 3.33334C26.7647 3.33334 32.5 9.04673 32.5 15.9782C32.5 23.02 26.6713 27.9617 21.2875 31.322C20.8952 31.5478 20.4515 31.6667 20 31.6667C19.5485 31.6667 19.1048 31.5478 18.7125 31.322C13.3387 27.9288 7.5 23.0443 7.5 15.9782C7.5 9.04673 13.2353 3.33334 20 3.33334Z" stroke="#09A8F7" stroke-width="3.5"/>
</svg>
