<svg width="71" height="71" viewBox="0 0 71 71" fill="none" xmlns="http://www.w3.org/2000/svg">
<path d="M36.6344 62.5514C52.857 62.5514 66.008 54.958 66.008 45.591C66.008 36.224 52.857 28.6306 36.6344 28.6306C20.4118 28.6306 7.26074 36.224 7.26074 45.591C7.26074 54.958 20.4118 62.5514 36.6344 62.5514Z" fill="url(#paint0_linear_958_866)"/>
<path d="M4.99219 17.523C4.99219 12.558 7.0247 10.3426 8.72939 9.35829C12.6472 7.09618 17.4294 9.72759 17.9611 10.035L21.4432 12.0455C19.0304 13.2874 17.0795 14.8203 15.7507 16.5491L14.5879 15.8776C13.9524 15.5334 13.262 15.3019 12.5474 15.1936C12.4211 15.1798 12.2939 15.2105 12.1877 15.2803C12.0816 15.3502 12.0032 15.4549 11.9659 15.5764C11.8562 15.9247 11.7387 16.5297 11.7387 17.5231C11.7412 19.8994 12.4563 22.2203 13.7917 24.186V28.936C13.7928 30.6431 13.9848 32.3447 14.3641 34.0091C12.8992 33.0934 4.99219 27.6803 4.99219 17.523Z" fill="url(#paint1_linear_958_866)"/>
<path d="M36.6344 8.703C49.25 8.703 59.4769 14.608 59.4769 21.8923V28.9359C59.4769 34.9941 57.0703 40.8042 52.7865 45.088C48.5027 49.3717 42.6926 51.7784 36.6344 51.7784C30.5763 51.7784 24.7662 49.3717 20.4824 45.088C16.1986 40.8042 13.792 34.9941 13.792 28.9359V21.8923C13.792 14.608 24.0189 8.703 36.6344 8.703Z" fill="url(#paint2_linear_958_866)"/>
<path d="M36.6339 32.1647C48.3765 32.1647 56.56 26.7512 56.56 21.8924C56.56 17.0337 48.3765 11.6196 36.6339 11.6196C24.8912 11.6196 16.708 17.0337 16.708 21.8924C16.708 26.7512 24.8912 32.1647 36.6339 32.1647Z" fill="url(#paint3_linear_958_866)"/>
<path d="M49.0055 17.3439C49.0275 17.3566 49.0493 17.3695 49.0709 17.3826C50.5539 18.2804 50.4312 19.7452 48.8975 20.6078C43.9739 23.3776 38.6025 21.0639 34.6335 22.548C37.1826 20.2441 33.1708 17.1404 37.9364 14.2794C39.4206 13.3882 41.95 13.3129 43.5038 14.1685C43.5265 14.1809 43.5487 14.1935 43.5708 14.2063C44.925 14.9881 45.0832 16.1998 44.0447 17.0788C45.559 16.4743 47.6521 16.5625 49.0055 17.3439ZM48.2878 23.3435C42.5717 25.0116 36.7742 22.8485 30.1183 25.3869C30.0641 25.4076 30.0061 25.4165 29.9483 25.4131C29.8904 25.4097 29.8339 25.3941 29.7825 25.3672C29.7003 25.3198 29.6683 25.2433 29.7481 25.1732C34.1077 21.309 30.3553 17.9585 33.2155 14.6415C33.3824 14.4486 33.2878 14.2471 33.0666 14.1194C32.8009 13.9811 32.4928 13.948 32.2037 14.0267C27.7103 15.1904 18.548 18.6871 25.9278 26.7781C25.9669 26.8215 26.0807 26.9836 25.9552 27.2682C25.9112 27.3671 25.9653 27.4605 26.0732 27.5228C26.2087 27.5929 26.3634 27.6167 26.5138 27.5908C26.7937 27.5355 27.0821 27.5403 27.36 27.6051C41.3524 31.8533 47.3591 26.5347 49.3525 23.9276C49.4969 23.7392 49.4015 23.5504 49.1904 23.4285C48.912 23.284 48.5883 23.2535 48.2878 23.3435Z" fill="#FFEAE6"/>
<defs>
<linearGradient id="paint0_linear_958_866" x1="26.2487" y1="27.6026" x2="47.0199" y2="63.5794" gradientUnits="userSpaceOnUse">
<stop stop-color="#75260D"/>
<stop offset="1" stop-color="#440A00"/>
</linearGradient>
<linearGradient id="paint1_linear_958_866" x1="8.66949" y1="9.39291" x2="20.7522" y2="30.3209" gradientUnits="userSpaceOnUse">
<stop stop-color="#F25B27"/>
<stop offset="1" stop-color="#C93F14"/>
</linearGradient>
<linearGradient id="paint2_linear_958_866" x1="26.1721" y1="9.28113" x2="48.7217" y2="48.3379" gradientUnits="userSpaceOnUse">
<stop stop-color="#9B3E15"/>
<stop offset="1" stop-color="#7F1605"/>
</linearGradient>
<linearGradient id="paint3_linear_958_866" x1="21.1215" y1="12.9362" x2="52.1466" y2="30.8485" gradientUnits="userSpaceOnUse">
<stop stop-color="#FFB743"/>
<stop offset="1" stop-color="#EA7A00"/>
</linearGradient>
</defs>
</svg>
