<svg width="24" height="24" viewBox="0 0 24 24" fill="none" xmlns="http://www.w3.org/2000/svg">
<g clip-path="url(#clip0_106_3697)">
<path d="M21.124 18.842C20.8534 18.9983 20.5343 18.9923 20.2776 18.8551C20.2189 18.8237 20.1483 18.8312 20.0972 18.869V23.0434L20.95 23.7023C21.1406 23.8495 21.4171 23.7136 21.4171 23.4728V18.5643C21.3449 18.6751 21.2464 18.7713 21.124 18.842Z" fill="#60B9FE"/>
<path d="M18.5309 18.869C18.4797 18.8312 18.4091 18.8237 18.3504 18.8551C18.0938 18.9923 17.7747 18.9983 17.5041 18.842C17.3816 18.7713 17.2832 18.6752 17.2109 18.5643V23.4728C17.2109 23.7137 17.4875 23.8495 17.6781 23.7023L18.5309 23.0434V18.869Z" fill="#0094FD"/>
<path d="M20.1506 18.8428C20.1121 18.8541 20.0773 18.8786 20.0549 18.9148C19.9011 19.1622 19.6269 19.327 19.3141 19.327C19.0014 19.327 18.7271 19.1622 18.5733 18.9148C18.5509 18.8786 18.5161 18.8541 18.4775 18.8428V23.0845L19.1368 22.5751C19.2412 22.4945 19.3869 22.4945 19.4913 22.5751L20.1506 23.0845L20.1506 18.8428Z" fill="#1CA8FF"/>
<path d="M22.878 0.236725H1.12205C0.504938 0.236725 0 0.741662 0 1.35877V16.9011C0 17.5182 0.504938 18.0231 1.12205 18.0231H22.878C23.4951 18.0231 24 17.5182 24 16.9011V1.35877C24 0.741662 23.4951 0.236725 22.878 0.236725Z" fill="#FFC365"/>
<path d="M2.35139 16.9011V1.35877C2.35139 0.741662 2.85628 0.236725 3.47344 0.236725H1.12205C0.504938 0.236725 0 0.741662 0 1.35877V16.9011C0 17.5182 0.504938 18.0231 1.12205 18.0231H3.47344C2.85628 18.0232 2.35139 17.5182 2.35139 16.9011Z" fill="#FFA90F"/>
<path d="M22.2033 3.27705C21.5699 3.16652 21.0704 2.66707 20.9599 2.03369C20.9354 1.89325 20.8146 1.79022 20.6721 1.79022H3.32835C3.1858 1.79022 3.06501 1.89325 3.04054 2.03369C2.92996 2.66707 2.43051 3.16652 1.79718 3.27705C1.65679 3.30157 1.55371 3.42236 1.55371 3.56491V14.6951C1.55371 14.8376 1.65674 14.9584 1.79718 14.983C2.43051 15.0935 2.93001 15.593 3.04054 16.2263C3.06505 16.3668 3.18585 16.4698 3.32835 16.4698H16.0043L22.4467 13.9893V3.56486C22.4467 3.42236 22.3437 3.30152 22.2033 3.27705Z" fill="#DBEDFF"/>
<path d="M5.39193 16.2262C5.2814 15.5929 4.7819 15.0934 4.14857 14.9828C4.00818 14.9583 3.9051 14.8376 3.9051 14.695V3.56485C3.9051 3.4223 4.00813 3.3015 4.14857 3.27699C4.7819 3.16646 5.2814 2.667 5.39193 2.03363C5.41645 1.89319 5.53724 1.79016 5.67974 1.79016H3.32835C3.1858 1.79016 3.06501 1.89319 3.04054 2.03363C2.92996 2.66705 2.43051 3.16651 1.79718 3.27704C1.65679 3.30155 1.55371 3.42235 1.55371 3.5649V14.6951C1.55371 14.8376 1.65674 14.9584 1.79718 14.9829C2.43051 15.0935 2.93001 15.593 3.04054 16.2263C3.06505 16.3667 3.18585 16.4698 3.32835 16.4698H5.67974C5.5372 16.4697 5.4164 16.3666 5.39193 16.2262Z" fill="#B5DCFF"/>
<path d="M15.1455 4.12042H8.85436C8.55159 4.12042 8.30615 4.36586 8.30615 4.66863V5.12566C8.30615 5.42842 8.55159 5.67386 8.85436 5.67386H15.1455C15.4483 5.67386 15.6937 5.42842 15.6937 5.12566V4.66863C15.6938 4.36586 15.4483 4.12042 15.1455 4.12042Z" fill="#FF636E"/>
<path d="M10.985 5.12569V4.66866C10.985 4.36589 11.2304 4.12045 11.5332 4.12045H8.85436C8.55159 4.12045 8.30615 4.36589 8.30615 4.66866V5.12569C8.30615 5.42845 8.55159 5.67389 8.85436 5.67389H11.5332C11.2304 5.67389 10.985 5.42845 10.985 5.12569Z" fill="#FD2A39"/>
<path d="M13.847 7.93516H10.1532C9.95316 7.93516 9.79102 7.77302 9.79102 7.573C9.79102 7.37299 9.95316 7.21085 10.1532 7.21085H13.847C14.047 7.21085 14.2091 7.37299 14.2091 7.573C14.2091 7.77302 14.047 7.93516 13.847 7.93516Z" fill="#8BCAFF"/>
<path d="M17.9304 9.97074H6.06968C5.86966 9.97074 5.70752 9.8086 5.70752 9.60859C5.70752 9.40857 5.86966 9.24643 6.06968 9.24643H17.9304C18.1304 9.24643 18.2926 9.40857 18.2926 9.60859C18.2926 9.8086 18.1304 9.97074 17.9304 9.97074Z" fill="#8BCAFF"/>
<path d="M17.9304 11.5046H6.06968C5.86966 11.5046 5.70752 11.3425 5.70752 11.1425C5.70752 10.9424 5.86966 10.7803 6.06968 10.7803H17.9304C18.1304 10.7803 18.2926 10.9424 18.2926 11.1425C18.2926 11.3425 18.1304 11.5046 17.9304 11.5046Z" fill="#8BCAFF"/>
<path d="M14.9654 12.9755H9.03501C8.83499 12.9755 8.67285 12.8134 8.67285 12.6134C8.67285 12.4134 8.83499 12.2512 9.03501 12.2512H14.9654C15.1654 12.2512 15.3276 12.4134 15.3276 12.6134C15.3276 12.8134 15.1654 12.9755 14.9654 12.9755Z" fill="#8BCAFF"/>
<path d="M22.5221 16.5443C22.7696 16.3905 22.9343 16.1162 22.9343 15.8034C22.9343 15.4907 22.7696 15.2164 22.5221 15.0626C22.4473 15.0161 22.4209 14.9174 22.4624 14.8397C22.5996 14.583 22.6056 14.2639 22.4493 13.9933C22.2929 13.7224 22.0131 13.5679 21.7218 13.5588C21.6338 13.556 21.5615 13.4838 21.5588 13.3958C21.5496 13.1045 21.3952 12.8246 21.1242 12.6682C20.8536 12.512 20.5345 12.5179 20.2779 12.6551C20.2002 12.6967 20.1015 12.6703 20.0549 12.5954C19.9012 12.348 19.6269 12.1832 19.3141 12.1832C19.0013 12.1832 18.7271 12.348 18.5733 12.5954C18.5268 12.6703 18.428 12.6967 18.3503 12.6551C18.0937 12.5179 17.7746 12.512 17.504 12.6682C17.233 12.8246 17.0786 13.1045 17.0694 13.3957C17.0667 13.4837 16.9944 13.556 16.9064 13.5587C16.6152 13.5679 16.3353 13.7223 16.1789 13.9933C16.0226 14.2638 16.0286 14.583 16.1658 14.8396C16.2073 14.9173 16.1809 15.0161 16.1061 15.0626C15.8586 15.2163 15.6938 15.4906 15.6938 15.8034C15.6938 16.1162 15.8586 16.3904 16.1061 16.5442C16.1809 16.5907 16.2073 16.6895 16.1658 16.7672C16.0286 17.0238 16.0226 17.3429 16.1789 17.6135C16.3353 17.8845 16.6152 18.0389 16.9064 18.0481C16.9944 18.0508 17.0667 18.1231 17.0694 18.2111C17.0786 18.5023 17.233 18.7822 17.504 18.9386C17.7746 19.0949 18.0937 19.0889 18.3503 18.9517C18.428 18.9102 18.5267 18.9366 18.5733 19.0114C18.727 19.2589 19.0013 19.4237 19.3141 19.4237C19.6268 19.4237 19.9011 19.2589 20.0549 19.0114C20.1014 18.9366 20.2002 18.9102 20.2779 18.9517C20.5345 19.0889 20.8536 19.0949 21.1242 18.9386C21.3952 18.7822 21.5496 18.5023 21.5588 18.2111C21.5615 18.1231 21.6338 18.0508 21.7218 18.0481C22.013 18.0389 22.2929 17.8845 22.4493 17.6135C22.6056 17.343 22.5996 17.0238 22.4624 16.7672C22.4208 16.6895 22.4473 16.5908 22.5221 16.5443Z" fill="#FF636E"/>
<path d="M19.6809 18.9386C19.41 18.7822 19.2555 18.5023 19.2464 18.2111C19.2436 18.1231 19.1713 18.0508 19.0833 18.0481C18.7921 18.0389 18.5122 17.8845 18.3558 17.6135C18.1996 17.343 18.2055 17.0238 18.3427 16.7672C18.3842 16.6895 18.3578 16.5907 18.283 16.5442C18.0355 16.3905 17.8708 16.1162 17.8708 15.8034C17.8708 15.4907 18.0355 15.2164 18.283 15.0626C18.3578 15.0161 18.3842 14.9173 18.3427 14.8396C18.2055 14.583 18.1996 14.2639 18.3558 13.9933C18.5122 13.7223 18.7921 13.5679 19.0833 13.5587C19.1713 13.556 19.2436 13.4837 19.2464 13.3957C19.2555 13.1045 19.41 12.8246 19.6809 12.6682C19.7913 12.6045 19.9098 12.5682 20.0288 12.5563C19.8713 12.3309 19.61 12.1832 19.3141 12.1832C19.0013 12.1832 18.7271 12.348 18.5733 12.5954C18.5268 12.6703 18.428 12.6967 18.3503 12.6551C18.0937 12.5179 17.7746 12.512 17.504 12.6682C17.233 12.8246 17.0786 13.1045 17.0694 13.3957C17.0667 13.4837 16.9944 13.556 16.9064 13.5587C16.6152 13.5679 16.3353 13.7223 16.1789 13.9933C16.0226 14.2638 16.0286 14.583 16.1658 14.8396C16.2073 14.9173 16.1809 15.0161 16.1061 15.0626C15.8586 15.2163 15.6938 15.4906 15.6938 15.8034C15.6938 16.1162 15.8586 16.3904 16.1061 16.5442C16.1809 16.5907 16.2073 16.6895 16.1658 16.7672C16.0286 17.0238 16.0226 17.3429 16.1789 17.6135C16.3353 17.8845 16.6152 18.0389 16.9064 18.0481C16.9944 18.0508 17.0667 18.1231 17.0694 18.2111C17.0786 18.5023 17.233 18.7822 17.504 18.9386C17.7746 19.0948 18.0937 19.0889 18.3503 18.9517C18.428 18.9101 18.5267 18.9365 18.5733 19.0114C18.727 19.2588 19.0013 19.4236 19.3141 19.4236C19.61 19.4236 19.8713 19.276 20.0288 19.0505C19.9098 19.0387 19.7913 19.0023 19.6809 18.9386Z" fill="#FD2A39"/>
<path d="M19.3142 17.7539C20.3915 17.7539 21.2647 16.8807 21.2647 15.8034C21.2647 14.7262 20.3915 13.853 19.3142 13.853C18.237 13.853 17.3638 14.7262 17.3638 15.8034C17.3638 16.8807 18.237 17.7539 19.3142 17.7539Z" fill="#FD2A39"/>
<path d="M19.033 15.8034C19.033 15.025 19.4891 14.3533 20.1486 14.0404C19.8955 13.9203 19.6125 13.853 19.3138 13.853C18.2365 13.853 17.3633 14.7262 17.3633 15.8034C17.3633 16.8806 18.2366 17.7539 19.3138 17.7539C19.6125 17.7539 19.8955 17.6865 20.1486 17.5665C19.4892 17.2536 19.033 16.5819 19.033 15.8034Z" fill="#C32430"/>
</g>
<defs>
<clipPath id="clip0_106_3697">
<rect width="24" height="24" fill="white"/>
</clipPath>
</defs>
</svg>
