<svg width="24" height="24" viewBox="0 0 24 24" fill="none" xmlns="http://www.w3.org/2000/svg">
<g clip-path="url(#clip0_106_3766)">
<path d="M8.78888 0H0.482906C0.216188 0 0 0.216187 0 0.482906V19.7962C0 20.063 0.216188 20.2792 0.482906 20.2792H14.0475C14.3142 20.2792 14.5304 20.063 14.5304 19.7962V5.74144L8.78888 0Z" fill="#27D1B3"/>
<path d="M14.5305 5.74164V19.7964C14.5305 20.0629 14.3141 20.2793 14.0475 20.2793H12.3574C12.624 20.2793 12.8403 20.0629 12.8403 19.7964V4.05151L14.5305 5.74164Z" fill="#20B69F"/>
<path d="M8.07861 0H14.0472C14.3138 0 14.5301 0.216328 14.5301 0.482906V6.4515L8.07861 0Z" fill="#EFF5F6"/>
<path d="M24 18.3122V9.95251C24 9.68593 23.7837 9.4696 23.5171 9.4696H4.20361C3.93703 9.4696 3.7207 9.68593 3.7207 9.95251V23.5171C3.7207 23.7837 3.93703 24 4.20361 24H18.2995C20.2031 22.1074 22.1019 20.2102 24 18.3122Z" fill="#8AE7D0"/>
<path d="M24.0002 9.95251V18.312C23.4371 18.875 22.8736 19.4386 22.3101 20.0012V9.95251C22.3101 9.68593 22.0937 9.4696 21.8271 9.4696H23.5173C23.7839 9.4696 24.0002 9.68598 24.0002 9.95251Z" fill="#64E0C4"/>
<path d="M23.9998 17.5485V23.5171C23.9998 23.7837 23.7835 24 23.5169 24H17.5483L23.9998 17.5485Z" fill="#EFF5F6"/>
<path d="M17.8727 4.66758L17.8426 4.63322H18.7451C19.314 4.63322 19.7768 5.09601 19.7768 5.66494V6.50592L19.7425 6.47587C19.5918 6.34434 19.363 6.35972 19.2314 6.51037C19.0999 6.66098 19.1153 6.88978 19.2659 7.0214L19.9007 7.57598C19.969 7.63561 20.054 7.66537 20.139 7.66537C20.224 7.66537 20.309 7.63556 20.3773 7.57594L21.0121 7.02136C21.1627 6.88978 21.1781 6.66094 21.0465 6.51033C20.9149 6.35967 20.6861 6.3442 20.5355 6.47587L20.5012 6.50587V5.66489C20.5012 4.69659 19.7134 3.90886 18.7451 3.90886H17.8426L17.8726 3.8745C18.0042 3.72389 17.9888 3.49505 17.8382 3.36347C17.6876 3.23189 17.4588 3.24731 17.3271 3.39792L16.7725 4.03275C16.6533 4.1692 16.6533 4.37283 16.7725 4.50933L17.3271 5.14415C17.3988 5.22609 17.4991 5.26805 17.6 5.26805C17.6846 5.26805 17.7695 5.23861 17.8382 5.17861C17.9888 5.04703 18.0042 4.81823 17.8727 4.66758Z" fill="#7DA2B0"/>
<path d="M2.96392 4.66944L2.87875 4.74388V2.23878L2.96392 2.31322C3.03259 2.37322 3.11753 2.40266 3.20205 2.40266C3.30292 2.40266 3.40333 2.36071 3.47491 2.27877C3.60653 2.12811 3.59106 1.89932 3.44045 1.76774L2.75486 1.16872C2.61836 1.04947 2.41473 1.04947 2.27828 1.16872L1.59264 1.76774C1.44203 1.89932 1.42656 2.12811 1.55819 2.27877C1.68977 2.42943 1.91856 2.4448 2.06922 2.31322L2.15439 2.23883V4.74388L2.06922 4.66949C1.91856 4.53786 1.68972 4.55324 1.55819 4.70394C1.42656 4.8546 1.44203 5.08339 1.59264 5.21497L2.27828 5.81399C2.34653 5.87361 2.43156 5.90343 2.51655 5.90343C2.60153 5.90343 2.68661 5.87361 2.75481 5.81399L3.44045 5.21497C3.59106 5.08339 3.60653 4.8546 3.47491 4.70394C3.34333 4.55324 3.11458 4.53786 2.96392 4.66944Z" fill="#EFF5F6"/>
<path d="M22.4416 11.9066L21.8426 11.2209C21.7109 11.0703 21.4822 11.0548 21.3316 11.1865C21.1809 11.318 21.1655 11.5468 21.2971 11.6975L21.3715 11.7827H18.8665L18.9409 11.6975C19.0725 11.5468 19.0571 11.318 18.9065 11.1865C18.7559 11.0549 18.5271 11.0703 18.3954 11.2209L17.7964 11.9066C17.6772 12.0431 17.6772 12.2466 17.7964 12.3831L18.3954 13.0688C18.4671 13.1508 18.5674 13.1927 18.6684 13.1927C18.7529 13.1927 18.8379 13.1632 18.9065 13.1032C19.0571 12.9716 19.0725 12.7428 18.9409 12.5922L18.8665 12.507H21.3715L21.2971 12.5922C21.1655 12.7428 21.1809 12.9716 21.3316 13.1032C21.4003 13.1632 21.4852 13.1927 21.5697 13.1927C21.6706 13.1927 21.771 13.1507 21.8426 13.0688L22.4417 12.3831C22.5608 12.2466 22.5608 12.0431 22.4416 11.9066Z" fill="#EFF5F6"/>
<path d="M24.0002 17.5485V23.5171C24.0002 23.7837 23.7839 24 23.5173 24H21.8271C22.0937 24 22.3101 23.7837 22.3101 23.5171V19.2386L24.0002 17.5485Z" fill="#CBE5E7"/>
<path d="M14.5305 0.482906V6.4515L12.8404 4.76137V0.482906C12.8403 0.216328 12.624 0 12.3574 0H14.0475C14.3141 0 14.5305 0.216328 14.5305 0.482906Z" fill="#CBE5E7"/>
</g>
<defs>
<clipPath id="clip0_106_3766">
<rect width="24" height="24" fill="white"/>
</clipPath>
</defs>
</svg>
