<svg width="24" height="24" viewBox="0 0 24 24" fill="none" xmlns="http://www.w3.org/2000/svg">
<path d="M10.75 3.99997V7.99997C10.7503 8.36118 10.6793 8.7189 10.5412 9.05266C10.4031 9.38642 10.2006 9.68969 9.94516 9.9451C9.68975 10.2005 9.38649 10.4031 9.05272 10.5412C8.71896 10.6793 8.36124 10.7502 8.00003 10.75H4.00003C3.4268 10.7499 2.86795 10.5705 2.40173 10.2369C1.93551 9.90342 1.58527 9.43245 1.40003 8.88997C1.29931 8.60411 1.24857 8.30305 1.25003 7.99997V3.99997C1.24977 3.63876 1.32072 3.28104 1.45883 2.94728C1.59693 2.61351 1.79949 2.31025 2.0549 2.05484C2.31031 1.79943 2.61358 1.59687 2.94734 1.45877C3.2811 1.32066 3.63882 1.24971 4.00003 1.24997H8.00003C8.30311 1.24851 8.60417 1.29925 8.89003 1.39997C9.43251 1.58521 9.90348 1.93545 10.237 2.40167C10.5705 2.86789 10.7499 3.42673 10.75 3.99997Z" fill="#1494EB"/>
<path d="M22.75 6C22.7505 7.00737 22.4305 7.98876 21.8364 8.80229C21.2423 9.61581 20.4048 10.2193 19.4451 10.5255C18.4854 10.8316 17.4532 10.8246 16.4977 10.5055C15.5422 10.1863 14.713 9.57151 14.13 8.75C13.5554 7.94837 13.2475 6.98629 13.25 6C13.2511 4.74055 13.7519 3.53298 14.6424 2.64241C15.533 1.75184 16.7406 1.25106 18 1.25C19.2593 1.25159 20.4666 1.75254 21.357 2.643C22.2475 3.53345 22.7484 4.74071 22.75 6Z" fill="#FFCB03"/>
<path d="M8.89003 1.39997C8.59389 3.28001 7.70939 5.01777 6.36361 6.36355C5.01783 7.70933 3.28007 8.59383 1.40003 8.88997C1.29931 8.60411 1.24857 8.30305 1.25003 7.99997V3.99997C1.24977 3.63876 1.32072 3.28104 1.45883 2.94728C1.59693 2.61352 1.79949 2.31025 2.0549 2.05484C2.31031 1.79943 2.61358 1.59687 2.94734 1.45877C3.2811 1.32066 3.63882 1.24971 4.00003 1.24997H8.00003C8.30311 1.24851 8.60417 1.29925 8.89003 1.39997Z" fill="#46BCFC"/>
<path d="M20.75 2.13002C20.3549 3.73213 19.5294 5.19574 18.3625 6.36255C17.1957 7.52935 15.7321 8.35494 14.13 8.75002C13.5554 7.94839 13.2475 6.98631 13.25 6.00002C13.2511 4.74056 13.7519 3.533 14.6424 2.64243C15.533 1.75186 16.7406 1.25107 18 1.25001C18.9863 1.24754 19.9484 1.5554 20.75 2.13002Z" fill="#FFD869"/>
<path d="M22.75 16V20C22.7503 20.3612 22.6793 20.7189 22.5412 21.0527C22.4031 21.3865 22.2005 21.6897 21.9451 21.9451C21.6897 22.2006 21.3865 22.4031 21.0527 22.5412C20.7189 22.6793 20.3612 22.7503 20 22.75H16C15.6388 22.7503 15.2811 22.6793 14.9473 22.5412C14.6135 22.4031 14.3103 22.2006 14.0549 21.9451C13.7995 21.6897 13.5969 21.3865 13.4588 21.0527C13.3207 20.7189 13.2497 20.3612 13.25 20V16C13.2497 15.6388 13.3207 15.2811 13.4588 14.9473C13.5969 14.6136 13.7995 14.3103 14.0549 14.0549C14.3103 13.7995 14.6135 13.5969 14.9473 13.4588C15.2811 13.3207 15.6388 13.2498 16 13.25H20C20.233 13.2491 20.465 13.2794 20.69 13.34C21.2805 13.4908 21.8038 13.8343 22.177 14.3161C22.5501 14.798 22.7518 15.3906 22.75 16Z" fill="#1494EB"/>
<path d="M10.75 16V20C10.7503 20.3612 10.6793 20.7189 10.5412 21.0527C10.4031 21.3865 10.2005 21.6897 9.94513 21.9451C9.68972 22.2006 9.38646 22.4031 9.05269 22.5412C8.71893 22.6793 8.36121 22.7503 8 22.75H4C3.63879 22.7503 3.28107 22.6793 2.94731 22.5412C2.61355 22.4031 2.31028 22.2006 2.05487 21.9451C1.79946 21.6897 1.5969 21.3865 1.4588 21.0527C1.32069 20.7189 1.24974 20.3612 1.25 20V16C1.24974 15.6388 1.32069 15.2811 1.4588 14.9473C1.5969 14.6136 1.79946 14.3103 2.05487 14.0549C2.31028 13.7995 2.61355 13.5969 2.94731 13.4588C3.28107 13.3207 3.63879 13.2498 4 13.25H8C8.23299 13.2491 8.46505 13.2794 8.69 13.34C9.28051 13.4908 9.80381 13.8343 10.177 14.3161C10.5501 14.798 10.7518 15.3906 10.75 16Z" fill="#1494EB"/>
<path d="M8.69 13.34C8.23061 15.044 7.2804 16.5752 5.95757 17.7434C4.63475 18.9115 2.99768 19.665 1.25 19.91V16C1.24974 15.6388 1.32069 15.2811 1.4588 14.9473C1.5969 14.6136 1.79946 14.3103 2.05487 14.0549C2.31028 13.7995 2.61355 13.5969 2.94731 13.4588C3.28107 13.3207 3.63879 13.2498 4 13.25H8C8.23299 13.2491 8.46505 13.2794 8.69 13.34Z" fill="#46BCFC"/>
<path d="M20.69 13.34C20.2306 15.044 19.2804 16.5752 17.9576 17.7434C16.6347 18.9115 14.9977 19.665 13.25 19.91V16C13.2497 15.6388 13.3207 15.2811 13.4588 14.9473C13.5969 14.6136 13.7995 14.3103 14.0549 14.0549C14.3103 13.7995 14.6135 13.5969 14.9473 13.4588C15.2811 13.3207 15.6388 13.2498 16 13.25H20C20.233 13.2491 20.465 13.2794 20.69 13.34Z" fill="#46BCFC"/>
</svg>
