<svg width="20" height="20" viewBox="0 0 20 20" fill="none" xmlns="http://www.w3.org/2000/svg">
<mask id="mask0_77_7908" style="mask-type:luminance" maskUnits="userSpaceOnUse" x="0" y="0" width="20" height="20">
<path d="M19.3815 9.99755C19.3815 11.2291 19.1389 12.4486 18.6676 13.5864C18.1963 14.7241 17.5056 15.758 16.6347 16.6288C15.7639 17.4996 14.7301 18.1904 13.5923 18.6617C12.4545 19.133 11.235 19.3756 10.0035 19.3756C8.77195 19.3756 7.55247 19.133 6.41468 18.6617C5.27689 18.1904 4.24307 17.4996 3.37224 16.6288C2.50141 15.758 1.81063 14.7241 1.33934 13.5864C0.868056 12.4486 0.625488 11.2291 0.625488 9.99755C0.625488 8.76602 0.868056 7.54654 1.33934 6.40875C1.81063 5.27096 2.50141 4.23713 3.37224 3.36631C4.24307 2.49548 5.27689 1.8047 6.41468 1.33341C7.55247 0.862122 8.77195 0.619553 10.0035 0.619553C11.235 0.619553 12.4545 0.862122 13.5923 1.33341C14.7301 1.8047 15.7639 2.49548 16.6347 3.36631C17.5056 4.23713 18.1963 5.27096 18.6676 6.40875C19.1389 7.54654 19.3815 8.76602 19.3815 9.99755Z" fill="white"/>
</mask>
<g mask="url(#mask0_77_7908)">
<path d="M1.52083 0.228798C0.808151 0.228798 0.234863 0.803358 0.234863 1.51603V18.4803C0.234863 19.193 0.808151 19.7663 1.52083 19.7663H18.4851C19.1978 19.7663 19.7724 19.193 19.7724 18.4803V1.51603C19.7724 0.803358 19.1978 0.228798 18.4851 0.228798H1.52083Z" fill="#479951"/>
<path fill-rule="evenodd" clip-rule="evenodd" d="M8.18028 5.32429C8.16675 5.32389 8.14651 5.33144 8.11815 5.34827C8.05437 5.39102 7.92798 5.5227 7.92411 5.67421C7.92025 5.75968 7.90411 5.75934 7.96008 5.81374C8.00052 5.87203 8.0409 5.8663 8.1225 5.82355C8.16937 5.78902 8.1852 5.76699 8.20099 5.70909C8.22043 5.61198 8.0988 5.75504 8.08326 5.64696C8.05608 5.54661 8.13373 5.50534 8.20753 5.40823C8.20922 5.36249 8.21004 5.32517 8.18028 5.32429ZM9.36845 5.33083C9.34566 5.3339 9.31777 5.3631 9.27906 5.4333C9.25132 5.50681 9.13167 5.61808 9.21802 5.84753C9.28865 5.99301 9.31767 6.22946 9.2856 6.49285C9.23666 6.56771 9.2255 6.5935 9.16133 6.66836C9.07119 6.76529 8.97355 6.74051 8.89863 6.70433C8.82862 6.65714 8.77361 6.63292 8.74166 6.48304C8.74742 6.24413 8.76134 5.85309 8.71767 5.77011C8.6533 5.6416 8.54719 5.68769 8.50184 5.7265C8.28392 5.92575 8.17628 6.2622 8.11049 6.52989C8.05005 6.72498 7.98565 6.66856 7.94044 6.58984C7.83036 6.48668 7.82262 5.68 7.68972 5.81262C7.47686 6.42097 7.81187 7.08741 8.04399 7.02263C8.21145 7.09196 8.31771 6.7732 8.38627 6.42418C8.43318 6.32623 8.46902 6.31497 8.4931 6.36532C8.48691 6.82947 8.52638 6.933 8.64571 7.07385C8.9119 7.27922 9.13208 7.09987 9.14935 7.08258C9.16661 7.06531 9.35646 6.87546 9.35646 6.87546C9.40259 6.82694 9.46354 6.82399 9.52869 6.86674C9.59202 6.9243 9.58389 7.02344 9.71946 7.09239C9.83355 7.13803 10.0772 7.10349 10.1337 7.00518C10.2097 6.87485 10.2282 6.83006 10.2634 6.78062C10.3177 6.70837 10.4106 6.74036 10.4106 6.76318C10.4019 6.80348 10.3474 6.84323 10.3844 6.9158C10.449 6.96421 10.464 6.93309 10.5021 6.92234C10.6372 6.85778 10.7387 6.56479 10.7387 6.56479C10.7447 6.45551 10.6825 6.4638 10.6428 6.4863C10.5909 6.51798 10.5878 6.52875 10.5359 6.56043C10.4699 6.57024 10.342 6.6138 10.2787 6.51574C10.214 6.39785 10.2136 6.2335 10.1642 6.11459C10.1642 6.10594 10.0778 5.92762 10.1577 5.91619C10.198 5.92368 10.2846 5.94607 10.2983 5.87368C10.3406 5.80311 10.2071 5.60294 10.1162 5.50197C10.0374 5.41541 9.9285 5.40486 9.82302 5.49325C9.74915 5.56121 9.76011 5.63711 9.74562 5.70908C9.72681 5.79175 9.73041 5.89413 9.8143 6.00341C9.88803 6.14879 10.022 6.33532 9.97781 6.59857C9.97781 6.59857 9.89998 6.72386 9.76307 6.70758C9.706 6.69513 9.61302 6.67044 9.56358 6.30535C9.52617 6.029 9.57295 5.64181 9.45566 5.46053C9.42918 5.39212 9.40644 5.32571 9.36845 5.33083ZM8.99242 5.36013C8.95694 5.36323 8.91763 5.40455 8.88559 5.4844C8.85809 5.54512 8.82451 5.86267 8.82999 5.86267C8.80805 5.95717 8.92874 5.99722 8.98369 5.87575C9.06607 5.65305 9.06647 5.55817 9.07199 5.46371C9.05915 5.39176 9.0279 5.35703 8.99242 5.36013ZM10.3812 5.3852C10.3447 5.3885 10.3157 5.40984 10.3049 5.46369C10.2903 5.5903 10.2978 5.65914 10.319 5.76455C10.3353 5.83483 10.4376 5.95251 10.488 6.02072C10.7285 6.34406 10.96 6.66894 11.1835 7.00507C11.2186 7.25466 11.2444 7.4988 11.2609 7.74197C11.2971 8.27511 11.3081 8.93879 11.275 9.50026C11.3749 9.5042 11.535 9.33896 11.5912 9.09695C11.6277 8.76216 11.5782 8.07907 11.5748 7.8815C11.5725 7.79947 11.5674 7.70161 11.5617 7.59916C11.8217 8.024 12.0739 8.47409 12.3215 8.96831C12.4118 8.92541 12.3918 8.41723 12.339 8.34586C12.1408 7.91935 11.867 7.49835 11.7798 7.33643C11.7483 7.27795 11.6409 7.11476 11.5138 6.92656C11.4904 6.65801 11.4649 6.43056 11.4484 6.36188C11.4075 6.078 11.565 6.39389 11.5432 6.22889C11.4921 5.9454 11.3356 5.75274 11.1508 5.49308C11.0912 5.40862 11.0924 5.3914 11.0003 5.51379C10.9454 5.63856 10.9461 5.74236 10.9622 5.83972C10.938 5.80455 10.9081 5.76285 10.8652 5.71109C10.7056 5.57415 10.6957 5.56666 10.5632 5.45492C10.5215 5.42528 10.4419 5.37965 10.3812 5.38516L10.3812 5.3852ZM14.4973 5.42772C14.4796 5.42496 14.4602 5.43368 14.4384 5.46587C14.3968 5.50236 14.352 5.56845 14.3534 5.65336C14.3635 5.80297 14.3902 5.95615 14.4003 6.10576C14.4039 6.12578 14.4076 6.14569 14.4112 6.16571C14.3951 6.1452 14.3811 6.12919 14.373 6.12102C14.0814 5.81468 14.507 6.07095 14.3174 5.83433C14.1571 5.65829 14.1102 5.60227 13.973 5.4964C13.9042 5.45193 13.8626 5.36695 13.84 5.51166C13.831 5.6388 13.8216 5.78603 13.8302 5.89321C13.8297 5.95277 13.8914 6.06489 13.9446 6.13085C14.1392 6.36985 14.3379 6.62416 14.5376 6.88954C14.5797 7.43078 14.5909 7.92692 14.6336 8.46906C14.6275 8.70094 14.5562 9.0089 14.4886 9.03807C14.4886 9.03807 14.3853 9.09738 14.3163 9.03153C14.2662 9.01138 14.0656 8.69687 14.0656 8.69687C13.963 8.60275 13.8945 8.62964 13.8215 8.69687C13.62 8.89141 13.5289 9.25579 13.392 9.50681C13.3567 9.56282 13.2573 9.61049 13.1467 9.50245C12.866 9.11888 13.0301 8.5729 12.9952 8.71323C12.7451 8.99503 12.8559 9.46198 12.9123 9.56241C12.9948 9.72734 13.0615 9.83294 13.2219 9.91452C13.368 10.0221 13.4818 9.95494 13.5446 9.87963C13.6916 9.72725 13.6936 9.33756 13.7626 9.26047C13.811 9.11884 13.9324 9.1432 13.9915 9.20596C14.0489 9.28841 14.1166 9.34205 14.2008 9.38692C14.338 9.5079 14.5017 9.52988 14.663 9.41962C14.7733 9.35777 14.8448 9.2774 14.9094 9.11876C14.9786 8.93351 14.9444 7.96268 14.929 7.42259C15.0326 7.56851 15.1348 7.71759 15.2364 7.86843C15.281 8.34252 15.3012 8.80942 15.2865 9.25717C15.276 9.3462 15.5972 8.99138 15.595 8.8233C15.5936 8.67624 15.5953 8.54296 15.595 8.41887C15.7508 8.66761 15.9016 8.92048 16.0441 9.17649C16.1325 9.12969 16.1022 8.6296 16.0463 8.5606C15.8971 8.31019 15.706 8.03959 15.558 7.83023C15.5287 7.566 15.4889 7.25425 15.4708 7.15874C15.4425 7.00981 15.4143 6.78609 15.3716 6.60934C15.3599 6.54032 15.3245 6.31987 15.3356 6.29867C15.353 6.24934 15.4188 6.30024 15.4511 6.24307C15.4996 6.19023 15.2831 5.62921 15.1732 5.4691C15.1337 5.39734 15.0622 5.42217 14.9737 5.53886C14.8916 5.61565 14.9216 5.79083 14.953 5.95745C15.0343 6.38211 15.107 6.81459 15.1644 7.24595C15.0581 7.08778 14.9282 6.89639 14.8003 6.71182C14.7969 6.69403 14.784 6.62879 14.784 6.62789C14.784 6.62026 14.7664 6.28049 14.7513 6.1995C14.7487 6.16662 14.7408 6.15716 14.7753 6.16134C14.8118 6.19207 14.8168 6.19373 14.8396 6.20386C14.8765 6.21061 14.9087 6.14825 14.8865 6.09049C14.7724 5.88006 14.6583 5.66869 14.5442 5.45824C14.5304 5.44472 14.5151 5.43048 14.4973 5.42772ZM3.87451 5.43862C3.8113 5.43681 3.74155 5.476 3.76878 5.55199C3.75292 5.5934 3.89252 5.73341 3.91703 5.81033C3.939 5.86511 3.89523 6.0415 3.94101 6.05778C3.9831 6.07603 4.04105 5.93568 4.0631 5.80597C4.0753 5.73492 4.06607 5.49174 3.90068 5.44187C3.89221 5.43995 3.88354 5.43888 3.87451 5.43862ZM15.9756 5.44001C15.9612 5.44144 15.9437 5.46473 15.9168 5.52177C15.8521 5.62774 15.8298 5.81748 15.8557 5.98505C16.0115 7.0386 16.1272 8.05878 16.1511 8.99259C16.1377 9.08122 16.1338 9.12837 16.0923 9.24004C16.0003 9.35789 15.8989 9.50564 15.8034 9.57687C15.7079 9.64807 15.5047 9.71595 15.4382 9.76872C15.2274 9.89059 15.2263 10.0307 15.3968 10.0358C15.6905 10.0017 16.0381 9.97759 16.2776 9.61612C16.3416 9.51483 16.4171 9.24023 16.4204 9.07216C16.4428 8.08683 16.4078 7.12341 16.2601 6.41128C16.2507 6.34191 16.22 6.18247 16.2318 6.16166C16.2508 6.11289 16.3469 6.16654 16.3811 6.11042C16.4313 6.05916 16.1326 5.67662 16.0279 5.51306C16.007 5.47198 15.9942 5.43817 15.9756 5.44001ZM12.8951 5.45636C12.8829 5.45846 12.865 5.47692 12.8319 5.52068C12.7498 5.78898 12.721 6.00809 12.7523 6.17473C12.9631 7.27472 13.179 8.27686 13.1447 9.32396C13.2447 9.32463 13.3602 9.0953 13.4096 8.86833C13.4366 8.55565 13.3916 8.36535 13.3834 8.18156C13.3754 7.99778 13.1754 6.50671 13.1349 6.36766C13.086 6.10474 13.3293 6.33308 13.3028 6.18017C13.2187 5.98739 13.0088 5.70667 12.9431 5.5392C12.9184 5.49435 12.9153 5.45288 12.8951 5.45636ZM5.39428 5.47707C5.36837 5.48156 5.34338 5.50291 5.33432 5.53812C5.32863 5.56118 5.34431 5.59955 5.32342 5.61116C5.31143 5.62325 5.26593 5.61512 5.26782 5.5512C5.26782 5.53084 5.25288 5.5096 5.24384 5.4967C5.23477 5.49075 5.22865 5.48907 5.21223 5.48907C5.19222 5.48987 5.19268 5.49515 5.18171 5.51196C5.17682 5.52905 5.17055 5.54579 5.17055 5.56533C5.16805 5.58808 5.15894 5.59578 5.1422 5.59912C5.1235 5.59912 5.12793 5.60116 5.11277 5.59149C5.10377 5.58165 5.09315 5.57777 5.09315 5.56097C5.09315 5.54356 5.08858 5.51578 5.08334 5.50428C5.07539 5.49381 5.06284 5.48835 5.04846 5.48466C4.97009 5.48494 4.96438 5.575 4.96888 5.60893C4.96301 5.61533 4.96011 5.77494 5.06699 5.81931C5.21048 5.88773 5.47955 5.85881 5.46814 5.62746C5.46814 5.607 5.46364 5.53828 5.4616 5.51954C5.44696 5.48544 5.41992 5.47254 5.39401 5.47703L5.39428 5.47707ZM7.31938 5.47925C7.26979 5.48178 7.22601 5.496 7.18857 5.51523C7.09346 5.60629 7.07116 5.75228 7.14605 5.84334C7.21894 5.87776 7.29166 5.95112 7.24307 5.99159C7.03696 6.21174 6.50052 6.57961 6.47349 6.64672C6.47328 6.64727 6.47252 6.6484 6.4724 6.6489C6.47233 6.64938 6.47241 6.65064 6.4724 6.65108C6.47242 6.65129 6.47237 6.65197 6.4724 6.65217C6.47258 6.65272 6.47315 6.6539 6.47349 6.65435C6.47363 6.65449 6.47442 6.65531 6.47458 6.65544C6.47475 6.65554 6.47547 6.65533 6.47567 6.65544C6.47588 6.65554 6.47652 6.65645 6.47675 6.65652C6.477 6.65659 6.47757 6.65645 6.47784 6.65652C6.47791 6.65659 6.47884 6.65754 6.47893 6.65761C6.50619 6.6759 6.84185 6.67546 6.879 6.6587C6.87928 6.65856 6.87986 6.65776 6.88009 6.65761C6.88019 6.65754 6.88109 6.65768 6.88118 6.65761C6.88125 6.65754 6.88111 6.6566 6.88118 6.65652C6.99653 6.61402 7.54394 5.98831 7.54394 5.98831C7.51557 5.96402 7.48944 5.94611 7.4611 5.92182C7.43072 5.89552 7.43378 5.86967 7.4611 5.84334C7.59667 5.76444 7.55371 5.59085 7.4829 5.51195C7.4242 5.48563 7.36897 5.47673 7.31938 5.47925ZM12.3512 5.48144C12.3368 5.48287 12.3192 5.50506 12.2923 5.5621C12.2276 5.66807 12.1837 5.85261 12.1888 6.02538C12.3289 6.9956 12.3719 7.84464 12.4635 8.8149C12.4709 8.90874 12.4572 9.04506 12.3948 9.09941C12.1641 9.34032 11.8314 9.63744 11.4693 9.77418C11.4304 9.81792 11.5662 10.0044 11.7418 10.0042C12.0356 9.97008 12.2938 9.80521 12.5333 9.37086C12.5973 9.26957 12.7098 9.05275 12.7131 8.88467C12.7355 7.89934 12.6634 7.13325 12.5158 6.42108C12.5064 6.35172 12.5128 6.26967 12.5245 6.24885C12.5436 6.22614 12.6081 6.24937 12.6423 6.19326C12.6925 6.14199 12.5082 5.71693 12.4035 5.55337C12.3826 5.51229 12.3697 5.4796 12.3512 5.48144ZM4.55598 5.51109C4.51544 5.51583 4.47729 5.54884 4.45896 5.59284C4.45218 5.74846 4.45127 5.90399 4.46877 6.0474C4.53955 6.29893 4.56196 6.52016 4.59631 6.77777C4.60584 7.12279 4.39707 6.92702 4.40664 6.75597C4.45484 6.53379 4.44183 6.18403 4.39901 6.09536C4.36504 6.00673 4.32572 5.98484 4.24312 5.99943C4.17755 5.99543 4.00815 6.18 3.96079 6.48563C3.96079 6.48563 3.92134 6.64248 3.90411 6.78213C3.88094 6.93996 3.77638 7.05173 3.70353 6.76033C3.64056 6.54853 3.60186 6.02668 3.49642 6.1488C3.46622 6.55627 3.43035 7.27324 3.77657 7.34681C4.19533 7.38707 3.96401 6.6389 4.11558 6.50307C4.14424 6.43595 4.19734 6.43476 4.2017 6.51942V7.15495C4.19787 7.36154 4.33383 7.42294 4.43934 7.46562C4.54914 7.45714 4.62195 7.46015 4.66499 7.56699C4.68215 7.93333 4.70015 8.30057 4.71731 8.66688C4.71731 8.66688 4.97116 8.73982 4.98329 8.04879C4.99546 7.64304 4.90249 7.30255 4.95713 7.22361C4.95906 7.14605 5.05848 7.14221 5.12718 7.18001C5.23663 7.25722 5.28519 7.35224 5.45529 7.31409C5.71414 7.24278 5.87005 7.11714 5.87388 6.91838C5.85877 6.7295 5.83692 6.54043 5.75507 6.35154C5.7665 6.31719 5.70552 6.22783 5.71691 6.19348C5.76343 6.26633 5.8338 6.26028 5.8499 6.19348C5.80585 6.0483 5.73726 5.90921 5.62644 5.84901C5.53485 5.76832 5.40082 5.78539 5.35174 5.95366C5.32899 6.14757 5.42201 6.37738 5.56321 6.56519C5.5932 6.63857 5.63516 6.76061 5.61663 6.87041C5.54149 6.91327 5.46699 6.89544 5.40406 6.82899C5.40406 6.82899 5.19804 6.67475 5.19804 6.6404C5.25271 6.29036 5.20981 6.25028 5.1795 6.15313C5.15834 6.01903 5.09479 5.97656 5.04325 5.88497C4.9917 5.83033 4.92178 5.83033 4.88845 5.88497C4.79739 6.04283 4.84011 6.38177 4.9059 6.53358C4.95343 6.67319 5.02633 6.76031 4.99201 6.76031C4.96375 6.83921 4.9048 6.82085 4.86229 6.72979C4.80161 6.54158 4.78925 6.26107 4.78925 6.13462C4.77104 5.97785 4.75074 5.64295 4.64754 5.55798C4.62001 5.52048 4.58751 5.5074 4.55598 5.51109ZM6.02649 5.51327C6.00571 5.51589 5.98274 5.52772 5.95564 5.53398C5.86661 5.56232 5.78327 5.63928 5.80957 5.78906C5.9148 6.42852 5.98339 6.91657 6.08863 7.55607C6.1048 7.63096 6.04202 7.72967 5.96109 7.71958C5.82347 7.62648 5.78932 7.43792 5.5545 7.44597C5.3845 7.44801 5.19064 7.63299 5.16643 7.81115C5.13809 7.95274 5.128 8.10626 5.16643 8.22975C5.2859 8.37341 5.42901 8.35809 5.5545 8.32567C5.65769 8.2832 5.74259 8.1815 5.77905 8.20576C5.77916 8.20587 5.78005 8.20562 5.78014 8.20576C5.78025 8.2059 5.78004 8.2067 5.78014 8.20685C5.80264 8.24619 5.77802 8.5788 5.29395 8.83582C4.99647 8.96939 4.75969 9.00131 4.63226 8.75842C4.55333 8.60664 4.638 8.02854 4.44368 8.16214C3.86899 9.6435 5.79008 9.85028 6.00467 8.22318C6.01857 8.17728 6.06091 8.13123 6.09079 8.14252C6.1039 8.1481 6.11591 8.16591 6.12022 8.1992C6.07568 9.67247 4.63402 9.77345 4.38918 9.31C4.32849 9.20076 4.31023 8.95758 4.30415 8.81184C4.29305 8.72368 4.27093 8.67282 4.24529 8.65269C4.18687 8.6088 4.10838 8.72326 4.09159 8.92194C4.06729 9.08181 4.07414 9.1257 4.07414 9.27949C4.15104 10.4431 6.00622 9.94317 6.30771 8.9819C6.45696 8.48496 6.30467 8.11008 6.35459 8.06407C6.35502 8.06371 6.35631 8.0633 6.35677 8.06298C6.35724 8.0627 6.35844 8.06214 6.35895 8.06189C6.35947 8.06168 6.36058 8.06098 6.36113 8.06081C6.36283 8.06035 6.36568 8.05974 6.36767 8.05972C6.55183 8.25809 6.81026 8.08492 6.86691 8.01611C6.8912 7.98169 6.95197 7.95961 6.99444 8.00412C7.1381 8.10739 7.38991 8.05871 7.44248 7.87659C7.47285 7.6985 7.49853 7.51517 7.50461 7.32502C7.41103 7.35408 7.33552 7.37583 7.30512 7.40787C7.29788 7.41577 7.29253 7.42454 7.29095 7.43403C7.28283 7.48666 7.27509 7.53946 7.26697 7.59209C7.2661 7.59644 7.2647 7.60046 7.26261 7.60408C7.25862 7.61054 7.25203 7.6165 7.24517 7.62043C7.21208 7.63849 7.1544 7.62817 7.15142 7.5801C7.10691 7.37772 6.92372 7.3514 6.8124 7.66513C6.73752 7.72581 6.60096 7.73766 6.58676 7.6466C6.60497 7.43613 6.52017 7.40788 6.35021 7.50706C6.29557 7.09018 6.24137 6.69217 6.1867 6.27529C6.25755 6.27325 6.32251 6.32462 6.38727 6.24368C6.31719 6.02571 6.16888 5.5822 6.08532 5.54059C6.08467 5.54027 6.08379 5.53975 6.08314 5.5395C6.07935 5.53495 6.07486 5.53075 6.07115 5.52751C6.06961 5.5262 6.06723 5.52425 6.0657 5.52315C6.06417 5.52208 6.06178 5.52075 6.06025 5.51988C6.05689 5.51804 6.0527 5.51654 6.04935 5.51552C6.04173 5.51336 6.03433 5.51234 6.02646 5.51334L6.02649 5.51327ZM11.7591 5.51653C11.6856 5.51435 11.6042 5.56068 11.6359 5.65279C11.6175 5.70303 11.7939 5.87346 11.8223 5.96674C11.8735 6.11005 11.7832 6.24675 11.8365 6.26651C11.8855 6.28863 11.9537 6.11856 11.9793 5.96129C12.0089 5.83415 11.9182 5.5736 11.7896 5.51981C11.7798 5.51749 11.7696 5.51684 11.7591 5.51653ZM7.29308 5.67351C7.32656 5.67009 7.36701 5.70086 7.38682 5.74436C7.40796 5.79076 7.39736 5.8351 7.36284 5.84356C7.32833 5.85201 7.28369 5.82129 7.26255 5.77488C7.24142 5.72848 7.25202 5.68305 7.28654 5.67459C7.28869 5.67406 7.29084 5.67373 7.29308 5.67351ZM15.5777 5.88825C15.5107 5.8859 15.4376 5.93679 15.4665 6.0365C15.4497 6.09089 15.6096 6.27563 15.6355 6.37661C15.6588 6.44847 15.6 6.68007 15.6485 6.70145C15.6932 6.72539 15.756 6.54143 15.7794 6.37115C15.7923 6.27795 15.7232 5.95085 15.606 5.8926C15.597 5.89009 15.5873 5.88859 15.5777 5.88825ZM10.9973 6.00162C11.0034 6.02895 11.0095 6.05647 11.0136 6.08446C11.0273 6.14487 11.0392 6.20487 11.0518 6.26433C10.9988 6.19147 10.9551 6.1326 10.9362 6.11171C10.8165 5.96943 10.9389 6.01828 10.9973 6.00162ZM12.0525 6.5205C12.0266 6.52498 12.0016 6.54742 11.9925 6.58263C11.9868 6.60569 12.0036 6.64297 11.9827 6.65457C11.9707 6.66667 11.9241 6.65963 11.926 6.59571C11.926 6.57535 11.9111 6.55302 11.902 6.54011C11.893 6.53417 11.8868 6.53248 11.8704 6.53248C11.8504 6.53329 11.8509 6.53857 11.8399 6.55538C11.8352 6.5725 11.829 6.58938 11.829 6.60879C11.8265 6.63154 11.8185 6.63924 11.8017 6.64258C11.783 6.64258 11.7864 6.64462 11.7712 6.63495C11.7622 6.62511 11.7516 6.62123 11.7516 6.60443C11.7516 6.58702 11.747 6.55924 11.7418 6.54774C11.7338 6.53727 11.7213 6.5329 11.7069 6.52921C11.6285 6.52949 11.6239 6.61846 11.6284 6.65239C11.6225 6.65879 11.6185 6.81949 11.7254 6.86387C11.8689 6.93228 12.1391 6.90227 12.1277 6.67092C12.1277 6.65046 12.1221 6.58175 12.12 6.563C12.1054 6.5289 12.0784 6.51601 12.0525 6.5205ZM7.23447 6.56846C7.21678 6.56666 7.19359 6.57315 7.16689 6.58917C7.04 6.6578 6.99087 6.86139 7.06987 6.98052C7.14367 7.08544 7.26036 7.04701 7.2759 7.04701C7.40022 7.06255 7.47429 6.81374 7.47429 6.81374C7.47429 6.81374 7.47803 6.74377 7.3304 6.87587C7.26827 6.88751 7.25983 6.86507 7.24428 6.83008C7.23134 6.76536 7.23412 6.69973 7.2639 6.63496C7.27766 6.59613 7.26397 6.57146 7.23447 6.56846ZM14.0453 6.60007C13.9749 6.59665 13.8999 6.64226 13.8807 6.73851C13.881 6.7953 13.9063 6.8265 13.9014 6.87805C13.8941 6.90751 13.8637 6.92688 13.7913 6.89222C13.8026 6.88181 13.7444 6.79956 13.7444 6.79956C13.688 6.76518 13.6126 6.80143 13.5635 6.83335C13.5365 6.88244 13.5165 6.96657 13.5471 7.05246C13.6282 7.2022 13.9062 7.45772 14.0388 7.46017C14.0412 7.32515 14.0543 7.14561 14.0617 7.03394C14.0648 6.99178 14.0747 6.94532 14.1151 6.93474C14.1554 6.92419 14.2255 6.97535 14.2263 6.93147C14.2189 6.84557 14.2017 6.71882 14.1532 6.65895C14.1284 6.62212 14.0876 6.60213 14.0453 6.60007ZM8.40757 7.06991C8.4057 7.07059 8.40385 7.07219 8.40212 7.07317C8.40128 7.07369 8.39971 7.07474 8.39886 7.07535C8.38483 7.08589 8.36827 7.11019 8.33127 7.1364C8.26886 7.20739 8.25768 7.25682 8.26151 7.39911C8.26506 7.41416 8.37998 7.7337 8.47734 7.95831C8.54298 8.19177 8.60371 8.45908 8.5591 8.71156C8.40542 9.04533 8.09645 9.34468 7.79824 9.50731C7.6463 9.55597 7.51508 9.5394 7.47994 9.50622C7.47966 9.50594 7.4791 9.50539 7.47885 9.50513C7.39159 9.44646 7.38959 9.34203 7.39491 9.32418C7.39491 9.32407 7.39492 9.32321 7.39491 9.32309C7.39512 9.32288 7.3958 9.32219 7.396 9.322C7.64764 9.14673 7.93508 9.00487 8.16014 8.5317C8.22659 8.35087 8.24688 8.2423 8.18085 7.96269C8.15511 7.85851 8.12332 7.77277 8.05222 7.69889C8.0524 7.69869 8.05313 7.698 8.05331 7.69781C8.09615 7.67731 8.20729 7.75919 8.22445 7.70762C8.19815 7.57412 8.10773 7.39489 8.00535 7.30319C7.91569 7.22176 7.81816 7.21233 7.73609 7.28684C7.64366 7.33827 7.624 7.52302 7.66851 7.68471C7.71795 7.80643 7.85141 7.82779 7.94648 8.07278C7.94648 8.07302 7.94647 8.07379 7.94648 8.07387C7.94846 8.08923 7.97911 8.25673 7.93122 8.32458C7.89236 8.44577 7.39319 8.83942 7.35782 8.8631C7.35743 8.86349 7.35493 8.86491 7.35455 8.86528C7.35434 8.86549 7.35365 8.86619 7.35346 8.86637C7.35336 8.86644 7.35261 8.86722 7.35238 8.86746C7.35227 8.86756 7.35139 8.86843 7.35129 8.86855C7.35118 8.86855 7.35032 8.86855 7.3502 8.86855C7.35013 8.86854 7.34936 8.86854 7.34911 8.86855C7.3489 8.86837 7.34821 8.86766 7.34802 8.86746C7.34803 8.86735 7.34802 8.86647 7.34802 8.86637C7.34781 8.86599 7.34713 8.86458 7.34694 8.86419C7.34543 8.85436 7.34807 8.82934 7.34694 8.78898C7.34366 8.71522 7.37418 8.54836 7.37201 8.51972C7.37201 8.51962 7.372 8.51874 7.37201 8.51864C7.3718 8.51843 7.37112 8.51774 7.37092 8.51755C7.37092 8.51744 7.37091 8.51658 7.37092 8.51646C7.37067 8.51646 7.36986 8.51646 7.36983 8.51646C7.20483 8.62299 7.15033 8.94956 7.1202 9.04626C6.70248 9.33488 6.22812 9.54961 5.95492 9.842C5.81263 10.0642 6.93526 9.58684 7.06572 9.52914C7.06684 9.52998 7.06795 9.53134 7.06898 9.53241C7.09378 9.5597 7.0959 9.65486 7.17036 9.74062C7.28705 9.8987 7.53509 9.99604 7.77645 9.93574C8.18119 9.78945 8.41438 9.5136 8.65179 9.20757C8.68572 9.15821 8.7389 9.11931 8.78805 9.15743C8.95119 9.52265 9.42155 9.78252 10.0297 9.80931C10.1704 9.63819 10.1031 9.55405 10.046 9.51826C10.0284 9.50658 9.74358 9.39553 9.69936 9.28498C9.67152 9.18211 9.73922 9.09087 9.87487 9.02227C10.2653 8.97505 10.6491 8.9226 11.0205 8.80317C11.0243 8.67839 11.0978 8.49178 11.147 8.41074C11.1812 8.35451 11.2031 8.34894 11.2113 8.34098C11.2116 8.3407 11.2122 8.34017 11.2124 8.33989C11.2125 8.33975 11.2134 8.33895 11.2135 8.3388C11.2137 8.33862 11.2144 8.3379 11.2146 8.33771C11.2146 8.33734 11.2146 8.33592 11.2146 8.33553C11.2148 8.33306 11.2146 8.32881 11.2135 8.32463L11.1503 8.28757L9.9043 8.28212C9.8889 8.27619 9.87746 8.27024 9.8705 8.26467C9.86997 8.26423 9.8688 8.26293 9.86832 8.26249C9.86811 8.26229 9.86744 8.26162 9.86723 8.26141C9.86703 8.2612 9.86632 8.26053 9.86615 8.26032C9.86597 8.25994 9.86523 8.25852 9.86506 8.25814C9.86495 8.25803 9.86409 8.25716 9.86397 8.25705C9.86397 8.25694 9.86396 8.25608 9.86397 8.25596C9.86387 8.25586 9.86301 8.25499 9.86288 8.25487C9.86288 8.25477 9.86287 8.2539 9.86288 8.25378C9.86288 8.25368 9.86288 8.25281 9.86288 8.2527C9.86288 8.25259 9.86288 8.25172 9.86288 8.25161C9.86287 8.25143 9.86288 8.25068 9.86288 8.25052C9.86289 8.25045 9.86288 8.24966 9.86288 8.24943C9.86288 8.24933 9.86288 8.24846 9.86288 8.24834C9.86288 8.24824 9.86289 8.24737 9.86288 8.24725C9.86288 8.24715 9.86289 8.24628 9.86288 8.24617C9.86309 8.24596 9.86377 8.24527 9.86397 8.24508C9.86425 8.2445 9.86468 8.24347 9.86506 8.2429C9.87114 8.2347 9.88588 8.22697 9.9043 8.22001C10.2018 8.17947 10.7304 8.09282 10.7655 7.58448C10.76 7.31969 10.6522 7.14632 10.3273 7.09829C10.0886 7.11675 9.91829 7.34767 9.94574 7.60192C9.93431 7.67037 9.96891 7.80471 9.89887 7.81994C9.44093 7.86178 8.94109 8.14871 8.92432 8.35406C8.92421 8.35404 8.92332 8.35406 8.92323 8.35406C8.92305 8.35427 8.92233 8.35495 8.92214 8.35515C8.92179 8.35532 8.92054 8.35595 8.91996 8.35624C8.91958 8.35623 8.91816 8.35625 8.91778 8.35624C8.91704 8.35648 8.91526 8.35713 8.91451 8.35732C8.9143 8.35734 8.9137 8.35732 8.91342 8.35732C8.9128 8.35731 8.91165 8.35732 8.91124 8.35732C8.91103 8.35732 8.91043 8.35732 8.91015 8.35732C8.90969 8.35734 8.90835 8.35734 8.90797 8.35732C8.90679 8.35708 8.90464 8.35649 8.90361 8.35624C8.87383 8.34796 8.83546 8.29881 8.84148 8.22979C8.82404 7.87479 8.7085 7.47308 8.52754 7.16371C8.46296 7.09914 8.43482 7.07298 8.41635 7.06996C8.41575 7.06989 8.41475 7.06999 8.41417 7.06996C8.41341 7.06996 8.41188 7.06997 8.4109 7.06996C8.41073 7.06996 8.40998 7.06994 8.40981 7.06996C8.40971 7.06996 8.40882 7.06997 8.40872 7.06996C8.40858 7.06999 8.40777 7.06992 8.40764 7.06996L8.40757 7.06991ZM9.60014 7.2574C9.57424 7.26189 9.54924 7.28323 9.54018 7.31844C9.53449 7.34151 9.55126 7.37988 9.53037 7.39148C9.51838 7.40358 9.47179 7.39654 9.47369 7.33262C9.47369 7.31226 9.45874 7.28993 9.44971 7.27702C9.44064 7.27108 9.4356 7.26939 9.41919 7.26939C9.39918 7.2702 9.39854 7.27548 9.38757 7.29228C9.38293 7.3094 9.37667 7.32629 9.37667 7.34569C9.37417 7.36844 9.36616 7.37615 9.34942 7.37949C9.33071 7.37949 9.33514 7.38152 9.31999 7.37186C9.31099 7.36201 9.29928 7.35814 9.29928 7.34133C9.29928 7.32393 9.29579 7.29615 9.29056 7.28465C9.28261 7.27417 9.26896 7.26981 9.25458 7.26612C9.17621 7.2664 9.1716 7.35537 9.1761 7.3893C9.17023 7.3957 9.16623 7.5564 9.27311 7.60077C9.4166 7.66919 9.75854 7.62891 9.67535 7.40783C9.67534 7.38737 9.66975 7.31865 9.66772 7.29991C9.65307 7.2658 9.62604 7.25291 9.60014 7.2574ZM14.4129 7.4547C14.4093 7.45405 14.4051 7.45431 14.4009 7.45579C14.4009 7.45579 13.7361 7.92876 13.7196 7.94523C13.6537 8.00384 13.6867 8.20994 13.7196 8.18613C13.7672 8.20445 14.4366 7.75087 14.4238 7.69778C14.453 7.69949 14.467 7.46446 14.4129 7.4547ZM10.2284 7.52482C10.2555 7.52194 10.2911 7.53115 10.3254 7.55098C10.375 7.57968 10.4056 7.62304 10.4017 7.65454C10.4016 7.65539 10.4019 7.65697 10.4017 7.65781C10.4015 7.65864 10.3998 7.66027 10.3995 7.66107C10.3992 7.66188 10.3987 7.66356 10.3984 7.66434C10.3982 7.66486 10.3976 7.66602 10.3973 7.66652C10.3971 7.66703 10.3965 7.66821 10.3963 7.6687C10.3946 7.67137 10.3919 7.67416 10.3897 7.67633C10.3659 7.69862 10.3108 7.69544 10.2589 7.66543C10.2097 7.63699 10.1793 7.5933 10.1826 7.56187C10.1827 7.56102 10.1835 7.55945 10.1837 7.55861C10.1845 7.55471 10.1861 7.55115 10.188 7.5477C10.1888 7.54647 10.1894 7.54447 10.1902 7.54334C10.1904 7.54314 10.1911 7.54247 10.1913 7.54226C10.1928 7.54055 10.195 7.53826 10.1968 7.53681C10.2047 7.53059 10.2159 7.52614 10.2284 7.52482ZM4.40612 7.64473C4.06163 7.65102 3.55715 8.09628 3.54386 8.34346C3.90737 8.16889 4.26443 8.00087 4.63394 7.82022C4.57431 7.7312 4.63033 7.65098 4.40612 7.64473ZM5.52237 7.79952C5.55614 7.7999 5.59175 7.81657 5.61066 7.86383C5.62768 7.90719 5.61147 7.95252 5.59104 7.97502C5.59094 7.9752 5.59114 7.97594 5.59104 7.97611C5.59073 7.97661 5.59029 7.97782 5.58995 7.97829C5.57549 7.99692 5.52473 7.98919 5.48858 7.98919C5.44484 7.98726 5.42327 7.98008 5.39701 7.9445C5.38446 7.90495 5.42268 7.86608 5.43952 7.83658C5.4397 7.8363 5.44044 7.83576 5.44061 7.83549C5.44244 7.83274 5.44543 7.82945 5.44824 7.82677C5.46132 7.81479 5.48395 7.80359 5.5082 7.80061C5.51291 7.80003 5.51754 7.79946 5.52237 7.79952ZM14.2835 7.93661C14.2222 7.94416 14.164 8.00208 14.1908 8.09467C14.174 8.14906 14.2739 8.33925 14.2998 8.44022C14.3231 8.51208 14.2698 8.71535 14.3184 8.73672C14.363 8.76067 14.4806 8.61605 14.4764 8.43477C14.4894 8.34156 14.4432 7.99815 14.326 7.93986C14.3125 7.93609 14.2976 7.93486 14.2835 7.93661ZM6.84267 8.27235C6.78853 8.27613 6.74023 8.30507 6.76201 8.38136C6.75874 8.4367 6.91497 8.50399 6.92443 8.63208C6.94675 8.68489 6.89103 8.854 6.93751 8.86971C6.98019 8.88729 7.03942 8.75281 7.06178 8.62772C7.07415 8.55919 7.00817 8.3195 6.89608 8.27673C6.87888 8.27303 6.86072 8.27109 6.84267 8.27235ZM9.06972 8.57648C9.07382 8.57621 9.07745 8.57651 9.08171 8.57648C9.08242 8.57648 9.08317 8.57648 9.08389 8.57648C9.2227 8.61421 9.42732 8.61812 9.60496 8.63644C9.74965 8.64562 9.82113 8.75889 9.68563 8.80649C9.55195 8.85227 9.42352 8.88803 9.42292 9.08119C9.44049 9.17688 9.43677 9.22709 9.42183 9.25016C9.42066 9.25189 9.41877 9.25419 9.41747 9.25561C9.4173 9.25582 9.41657 9.25651 9.41638 9.2567C9.41617 9.25687 9.41549 9.25761 9.4153 9.25779C9.41509 9.25796 9.41441 9.25871 9.41421 9.25887L9.41312 9.25996C9.41274 9.26014 9.41133 9.26087 9.41094 9.26105C9.409 9.26226 9.40652 9.26354 9.4044 9.26432C9.40253 9.26495 9.39985 9.26508 9.39786 9.26541C9.36608 9.27007 9.31993 9.23976 9.28558 9.2218C9.20316 9.16263 8.97188 9.01929 8.93893 8.71165C8.93424 8.64222 8.98619 8.58237 9.06972 8.57648ZM3.63013 8.81303C3.62145 8.81331 3.6041 8.83921 3.58107 8.86863C3.37613 9.19512 3.3579 9.68247 3.47098 9.8279C3.53107 9.8966 3.63014 9.92681 3.70316 9.90529C3.83192 9.84946 3.88851 9.58867 3.85795 9.49326C3.81499 9.426 3.78094 9.41534 3.73805 9.47255C3.64744 9.6565 3.60973 9.53066 3.60179 9.42786C3.5879 9.2329 3.60678 9.05336 3.62795 8.91118C3.63922 8.83831 3.6388 8.8128 3.63013 8.81307L3.63013 8.81303ZM10.6122 9.24174C10.597 9.24092 10.5807 9.2433 10.5643 9.25155C10.561 9.25155 10.4176 9.34857 10.3713 9.41615C10.3431 9.4376 10.3463 9.45624 10.355 9.49355C10.3769 9.54407 10.4157 9.52822 10.4596 9.50445C10.5179 9.4965 10.5462 9.5347 10.5414 9.60474C10.5144 9.69207 10.5534 9.72461 10.5534 9.7301C10.5534 9.73558 10.6095 9.78379 10.6755 9.74536C10.8146 9.69223 10.9013 9.64057 11.0962 9.5982C11.1474 9.59718 11.1444 9.46029 11.0635 9.4554C10.958 9.4607 10.8606 9.4661 10.755 9.54914C10.6901 9.56416 10.6789 9.52463 10.6645 9.48919C10.648 9.40125 10.7017 9.33927 10.6907 9.27335C10.6936 9.27625 10.6579 9.24419 10.6122 9.24174ZM15.0828 9.40852C15.0569 9.40933 15.0296 9.41291 14.9901 9.41615C14.9474 9.42522 14.9325 9.44393 14.9247 9.49572C14.9278 9.57427 14.9758 9.57038 15.025 9.60146C15.0535 9.63771 15.072 9.67053 15.0228 9.73009C14.9762 9.77281 14.943 9.79638 14.8964 9.8391C14.8744 9.87665 14.8607 9.93432 14.928 9.95246C15.0523 9.98741 15.34 9.80049 15.34 9.79658C15.3866 9.76163 15.3712 9.69521 15.3673 9.69521C15.3401 9.66412 15.2788 9.68279 15.2375 9.67776C15.2179 9.67776 15.1535 9.66823 15.1841 9.61127C15.2097 9.57583 15.2191 9.55465 15.2365 9.51098C15.2559 9.46827 15.2388 9.43946 15.1689 9.41615C15.1333 9.40968 15.1087 9.40771 15.0828 9.40852ZM13.2152 13.1898C13.2149 13.1899 13.2143 13.1907 13.2141 13.1909C13.0073 13.2439 13.0137 13.4586 13.1465 13.5528C10.963 13.5528 7.61237 13.5157 6.89379 13.5157C6.49176 13.5157 5.21988 13.4678 5.19542 13.4678C5.46819 13.8667 5.86332 13.948 6.38035 13.9561C7.35015 13.9561 11.8437 13.9441 13.1225 13.9441C13.0315 14.1055 13.1307 14.3653 13.202 14.4129C13.2035 14.4138 13.206 14.4154 13.2075 14.4161C13.2101 14.4175 13.2136 14.4188 13.2162 14.4194C13.217 14.4196 13.2186 14.4193 13.2195 14.4194C13.3041 14.4394 13.3414 14.3781 13.3699 14.3333C13.5072 14.3454 14.2802 14.3566 14.351 14.3322C14.3512 14.3321 14.3518 14.3312 14.3521 14.3311C14.3999 14.4015 14.4474 14.4681 14.5385 14.4565C14.6978 14.4223 14.8234 14.405 14.8273 14.0815C14.8273 14.0815 14.811 13.5303 14.4491 13.5648C14.3634 13.5777 14.1231 13.6019 14.1231 13.6019C13.8451 13.5688 13.6411 13.5654 13.3285 13.5539C13.3573 13.5173 13.4083 13.3689 13.3459 13.3152C13.3297 13.3017 13.3054 13.2941 13.2718 13.2966C13.2715 13.2967 13.2709 13.2966 13.2707 13.2966C13.2702 13.2966 13.269 13.2967 13.2685 13.2966C13.2683 13.2966 13.2677 13.2956 13.2674 13.2956C13.2665 13.2952 13.265 13.295 13.2642 13.2945C13.2625 13.2933 13.2603 13.2909 13.2587 13.289C13.2583 13.2885 13.2569 13.2874 13.2565 13.2868C13.2407 13.2638 13.2321 13.2074 13.2216 13.1931C13.2215 13.193 13.2207 13.1921 13.2206 13.192C13.2204 13.1919 13.2196 13.191 13.2195 13.1909C13.2191 13.1907 13.2177 13.19 13.2173 13.1898C13.2172 13.1898 13.2163 13.1898 13.2162 13.1898C13.2161 13.1899 13.2152 13.1898 13.2151 13.1898L13.2152 13.1898ZM13.3634 13.9779C13.3638 13.9778 13.3641 13.9781 13.3645 13.9779C13.683 13.9935 13.9823 13.9809 14.3009 13.9965C14.3514 14.0394 14.3261 14.1377 14.2933 14.1556C14.2918 14.1563 14.2893 14.1574 14.2878 14.1578C14.2866 14.1581 14.2846 14.1578 14.2834 14.1578C14.2822 14.1578 14.2803 14.1581 14.2791 14.1578C14.1755 14.1552 14.1156 14.1528 14.012 14.1502C14.0118 14.145 14.0113 14.1394 14.0098 14.1349C13.9853 14.0621 13.8075 14.067 13.7657 14.124C13.7651 14.1248 13.764 14.1264 13.7635 14.1273C13.7628 14.1284 13.7619 14.1305 13.7613 14.1316C13.7606 14.1331 13.7596 14.1355 13.7591 14.1371C13.7585 14.1392 13.7583 14.1424 13.758 14.1447C13.7578 14.1473 13.7567 14.1507 13.7569 14.1534C13.6171 14.1702 13.4913 14.1488 13.3514 14.1436C13.3104 14.0925 13.3152 14.0001 13.3634 13.9779Z" fill="white"/>
</g>
</svg>
