<svg width="20" height="20" viewBox="0 0 20 20" fill="none" xmlns="http://www.w3.org/2000/svg">
<g clip-path="url(#clip0_77_7903)">
<path d="M10 20C15.5228 20 20 15.5228 20 10C20 4.47715 15.5228 0 10 0C4.47715 0 0 4.47715 0 10C0 15.5228 4.47715 20 10 20Z" fill="#F0F0F0"/>
<path d="M19.9998 10C19.9998 5.70035 17.286 2.03492 13.478 0.621992V19.378C17.286 17.9651 19.9998 14.2996 19.9998 10Z" fill="#D80027"/>
<path d="M0 10C0 14.2996 2.71379 17.9651 6.52176 19.378V0.621992C2.71379 2.03492 0 5.70035 0 10Z" fill="#09A8F7"/>
</g>
<defs>
<clipPath id="clip0_77_7903">
<rect width="20" height="20" fill="white"/>
</clipPath>
</defs>
</svg>
