<svg width="16" height="16" viewBox="0 0 16 16" fill="none" xmlns="http://www.w3.org/2000/svg">
<path d="M9.38239 2.5903C9.87919 2.05206 10.1276 1.78294 10.3915 1.62596C11.0284 1.24718 11.8127 1.2354 12.4602 1.59488C12.7285 1.74387 12.9845 2.00542 13.4966 2.52851C14.0087 3.0516 14.2647 3.31315 14.4105 3.58729C14.7625 4.24875 14.7509 5.04986 14.3801 5.70047C14.2265 5.97011 13.963 6.22386 13.4361 6.73134L7.16699 12.7695C6.16851 13.7313 5.66925 14.2121 5.04529 14.4558C4.42133 14.6995 3.73539 14.6816 2.36349 14.6457L2.17684 14.6409C1.75919 14.6299 1.55037 14.6245 1.42898 14.4867C1.30759 14.3489 1.32416 14.1362 1.35731 13.7108L1.37531 13.4798C1.46859 12.2823 1.51523 11.6837 1.74906 11.1455C1.98288 10.6073 2.38621 10.1703 3.19287 9.29633L9.38239 2.5903Z" stroke="#09A8F7" stroke-width="1.5" stroke-linejoin="round"/>
<path d="M8.66675 2.66666L13.3334 7.33333" stroke="#09A8F7" stroke-width="1.5" stroke-linejoin="round"/>
<path d="M9.33325 14.6667H14.6666" stroke="#09A8F7" stroke-width="1.5" stroke-linecap="round" stroke-linejoin="round"/>
</svg>
