<svg width="60" height="60" viewBox="0 0 60 60" fill="none" xmlns="http://www.w3.org/2000/svg">
<rect width="60" height="60" rx="8.57143" fill="#FFF4EC"/>
<path d="M41.1784 36.0442C40.358 31.1082 37.804 27.4327 35.5837 25.2737C34.9376 24.6455 34.6146 24.3314 33.901 24.0407C33.1874 23.75 32.574 23.75 31.3472 23.75H28.6527C27.426 23.75 26.8126 23.75 26.099 24.0407C25.3854 24.3314 25.0624 24.6455 24.4163 25.2737C22.196 27.4327 19.642 31.1082 18.8216 36.0442C18.2112 39.7167 21.5991 42.5 25.3854 42.5H34.6146C38.4009 42.5 41.7889 39.7167 41.1784 36.0442Z" stroke="#B74C12" stroke-width="1.5" stroke-linecap="round" stroke-linejoin="round"/>
<path d="M24.0708 20.5536C23.8129 20.1782 23.4391 19.6687 24.2112 19.5526C25.0049 19.4331 25.829 19.9764 26.6357 19.9653C27.3655 19.9552 27.7372 19.6315 28.1361 19.1693C28.5561 18.6827 29.2065 17.5 30 17.5C30.7935 17.5 31.4439 18.6827 31.8639 19.1693C32.2628 19.6315 32.6345 19.9552 33.3642 19.9653C34.171 19.9764 34.9951 19.4331 35.7888 19.5526C36.5609 19.6687 36.1871 20.1782 35.9293 20.5536L34.7631 22.2508C34.2644 22.9768 34.015 23.3398 33.493 23.5449C32.9711 23.75 32.2966 23.75 30.9477 23.75H29.0523C27.7034 23.75 27.0289 23.75 26.5069 23.5449C25.985 23.3398 25.7356 22.9768 25.2368 22.2508L24.0708 20.5536Z" stroke="#B74C12" stroke-width="1.5" stroke-linejoin="round"/>
<path d="M32.0339 31.1483C31.7636 30.1506 30.3881 29.2504 28.737 29.9239C27.0859 30.5973 26.8236 32.7641 29.3211 32.9944C30.4499 33.0984 31.1859 32.8736 31.8596 33.5095C32.5335 34.1453 32.6586 35.9135 30.9361 36.39C29.2136 36.8665 27.508 36.122 27.3223 35.0646M29.8026 28.7409V29.6914M29.8026 36.5366V37.4909" stroke="#B74C12" stroke-width="1.5" stroke-linecap="round" stroke-linejoin="round"/>
</svg>
