<svg width="60" height="60" viewBox="0 0 60 60" fill="none" xmlns="http://www.w3.org/2000/svg">
<rect width="60" height="60" rx="8.57143" fill="#ECFFF6"/>
<path d="M39.6816 31.25C40.6703 29.8327 41.25 28.109 41.25 26.25C41.25 21.4175 37.3325 17.5 32.5 17.5C27.6675 17.5 23.75 21.4175 23.75 26.25C23.75 27.592 24.0521 28.8634 24.592 30" stroke="#12B76A" stroke-width="1.5" stroke-linecap="round" stroke-linejoin="round"/>
<path d="M30.5469 29.5834V22.9167M32.5 22.9167V21.25M32.5 31.25V29.5834M30.5469 26.25H34.4531M34.4531 26.25C35.1004 26.25 35.625 26.8096 35.625 27.5V28.3334C35.625 29.0238 35.1004 29.5834 34.4531 29.5834H29.375M34.4531 26.25C35.1004 26.25 35.625 25.6904 35.625 25V24.1667C35.625 23.4763 35.1004 22.9167 34.4531 22.9167H29.375" stroke="#12B76A" stroke-width="1.5" stroke-linecap="round" stroke-linejoin="round"/>
<path d="M18.75 32.5H21.7435C22.1112 32.5 22.4738 32.5829 22.8027 32.742L25.3552 33.977C25.6841 34.1361 26.0467 34.2189 26.4144 34.2189H27.7176C28.9781 34.2189 30 35.2078 30 36.4275C30 36.4768 29.9662 36.5201 29.9172 36.5336L26.7411 37.4119C26.1713 37.5694 25.5612 37.5145 25.0312 37.258L22.3026 35.9379M30 35.625L35.741 33.8611C36.7588 33.544 37.8589 33.92 38.4964 34.8029C38.9574 35.4411 38.7696 36.3552 38.0981 36.7427L28.7036 42.1631C28.1061 42.5079 27.4012 42.592 26.7439 42.397L18.75 40.0249" stroke="#12B76A" stroke-width="1.5" stroke-linecap="round" stroke-linejoin="round"/>
<path d="M39.6816 31.25C40.6703 29.8327 41.25 28.109 41.25 26.25C41.25 21.4175 37.3325 17.5 32.5 17.5C27.6675 17.5 23.75 21.4175 23.75 26.25C23.75 27.592 24.0521 28.8634 24.592 30" stroke="#16B068" stroke-width="1.875" stroke-linecap="round" stroke-linejoin="round"/>
<path d="M30.5469 29.5834V22.9167M32.5 22.9167V21.25M32.5 31.25V29.5834M30.5469 26.25H34.4531M34.4531 26.25C35.1004 26.25 35.625 26.8096 35.625 27.5V28.3334C35.625 29.0238 35.1004 29.5834 34.4531 29.5834H29.375M34.4531 26.25C35.1004 26.25 35.625 25.6904 35.625 25V24.1667C35.625 23.4763 35.1004 22.9167 34.4531 22.9167H29.375" stroke="#16B068" stroke-width="1.875" stroke-linecap="round" stroke-linejoin="round"/>
<path d="M18.75 32.5H21.7435C22.1112 32.5 22.4738 32.5829 22.8027 32.742L25.3552 33.977C25.6841 34.1361 26.0467 34.2189 26.4144 34.2189H27.7176C28.9781 34.2189 30 35.2078 30 36.4275C30 36.4768 29.9662 36.5201 29.9172 36.5336L26.7411 37.4119C26.1713 37.5694 25.5612 37.5145 25.0312 37.258L22.3026 35.9379M30 35.625L35.741 33.8611C36.7588 33.544 37.8589 33.92 38.4964 34.8029C38.9574 35.4411 38.7696 36.3552 38.0981 36.7427L28.7036 42.1631C28.1061 42.5079 27.4012 42.592 26.7439 42.397L18.75 40.0249" stroke="#16B068" stroke-width="1.875" stroke-linecap="round" stroke-linejoin="round"/>
</svg>
