<svg width="60" height="60" viewBox="0 0 60 60" fill="none" xmlns="http://www.w3.org/2000/svg">
<rect width="60" height="60" rx="8.57143" fill="#F5ECFF"/>
<path d="M25 35L35 25M27.5 26.25C27.5 26.9404 26.9404 27.5 26.25 27.5C25.5596 27.5 25 26.9404 25 26.25C25 25.5596 25.5596 25 26.25 25C26.9404 25 27.5 25.5596 27.5 26.25ZM35 33.5355C35 34.2259 34.4404 34.7855 33.75 34.7855C33.0596 34.7855 32.5 34.2259 32.5 33.5355C32.5 32.8451 33.0596 32.2855 33.75 32.2855C34.4404 32.2855 35 32.8451 35 33.5355Z" stroke="#8E12B7" stroke-width="1.875" stroke-linecap="round"/>
<path d="M30 42.5C36.9036 42.5 42.5 36.9036 42.5 30C42.5 23.0964 36.9036 17.5 30 17.5C23.0964 17.5 17.5 23.0964 17.5 30C17.5 36.9036 23.0964 42.5 30 42.5Z" stroke="#8E12B7" stroke-width="1.875"/>
<path d="M25 35L35 25M27.5 26.25C27.5 26.9404 26.9404 27.5 26.25 27.5C25.5596 27.5 25 26.9404 25 26.25C25 25.5596 25.5596 25 26.25 25C26.9404 25 27.5 25.5596 27.5 26.25ZM35 33.5355C35 34.2259 34.4404 34.7855 33.75 34.7855C33.0596 34.7855 32.5 34.2259 32.5 33.5355C32.5 32.8451 33.0596 32.2855 33.75 32.2855C34.4404 32.2855 35 32.8451 35 33.5355Z" stroke="#A912B7" stroke-width="1.875" stroke-linecap="round"/>
<path d="M30 42.5C36.9036 42.5 42.5 36.9036 42.5 30C42.5 23.0964 36.9036 17.5 30 17.5C23.0964 17.5 17.5 23.0964 17.5 30C17.5 36.9036 23.0964 42.5 30 42.5Z" stroke="#A912B7" stroke-width="1.875"/>
</svg>
