<svg width="60" height="60" viewBox="0 0 60 60" fill="none" xmlns="http://www.w3.org/2000/svg">
<rect width="60" height="60" rx="8.57143" fill="#F5ECFF"/>
<path d="M33.75 33.75C33.75 34.7855 34.5895 35.625 35.625 35.625C36.6605 35.625 37.5 34.7855 37.5 33.75C37.5 32.7145 36.6605 31.875 35.625 31.875C34.5895 31.875 33.75 32.7145 33.75 33.75Z" stroke="#8E12B7" stroke-width="1.5"/>
<path d="M33.7548 24.7532C26.9702 24.2831 21.3809 23.2764 18.75 22.4997V33.8265C18.75 36.3195 18.75 37.566 19.5245 38.5826C20.299 39.5992 21.3615 39.8864 23.4867 40.4606C26.9203 41.3884 30.5294 41.9409 33.7633 42.2569C37.1149 42.5844 38.7906 42.7481 40.0204 41.6244C41.25 40.5006 41.25 38.6955 41.25 35.085V32.568C41.25 29.0619 41.25 27.3088 40.2411 26.2208C39.2324 25.1328 37.4065 25.0062 33.7548 24.7532Z" stroke="#8E12B7" stroke-width="1.5" stroke-linecap="round" stroke-linejoin="round"/>
<path d="M37.0322 25C37.5044 23.2209 37.9316 19.9853 36.6587 18.3787C35.852 17.3603 34.6529 17.4582 33.4773 17.5616C27.2974 18.1051 22.9318 19.2091 20.4913 19.9592C19.4419 20.2818 18.75 21.3065 18.75 22.4506" stroke="#8E12B7" stroke-width="1.5" stroke-linejoin="round"/>
<path d="M33.75 33.75C33.75 34.7855 34.5895 35.625 35.625 35.625C36.6605 35.625 37.5 34.7855 37.5 33.75C37.5 32.7145 36.6605 31.875 35.625 31.875C34.5895 31.875 33.75 32.7145 33.75 33.75Z" stroke="#A912B7" stroke-width="1.875"/>
<path d="M33.7548 24.7532C26.9702 24.2831 21.3809 23.2764 18.75 22.4997V33.8265C18.75 36.3195 18.75 37.566 19.5245 38.5826C20.299 39.5992 21.3615 39.8864 23.4867 40.4606C26.9203 41.3884 30.5294 41.9409 33.7633 42.2569C37.1149 42.5844 38.7906 42.7481 40.0204 41.6244C41.25 40.5006 41.25 38.6955 41.25 35.085V32.568C41.25 29.0619 41.25 27.3088 40.2411 26.2208C39.2324 25.1328 37.4065 25.0062 33.7548 24.7532Z" stroke="#A912B7" stroke-width="1.875" stroke-linecap="round" stroke-linejoin="round"/>
<path d="M37.0322 25C37.5044 23.2209 37.9316 19.9853 36.6587 18.3787C35.852 17.3603 34.6529 17.4582 33.4773 17.5616C27.2974 18.1051 22.9318 19.2091 20.4913 19.9592C19.4419 20.2818 18.75 21.3065 18.75 22.4506" stroke="#A912B7" stroke-width="1.875" stroke-linejoin="round"/>
</svg>
