<svg width="60" height="60" viewBox="0 0 60 60" fill="none" xmlns="http://www.w3.org/2000/svg">
<rect width="60" height="60" rx="8.57143" fill="#FFF4EC"/>
<path d="M42.5 30C42.5 36.9035 36.9035 42.5 30 42.5C23.0964 42.5 17.5 36.9035 17.5 30C17.5 23.0964 23.0964 17.5 30 17.5C36.9035 17.5 42.5 23.0964 42.5 30Z" stroke="#B74C12" stroke-width="1.875"/>
<path d="M33.3868 27.5764C33.2629 26.623 32.1683 25.0828 30.2 25.0827C27.913 25.0827 26.9507 26.3493 26.7555 26.9826C26.4508 27.8297 26.5118 29.5714 29.1924 29.7612C32.5433 29.9987 33.8856 30.3942 33.7149 32.445C33.544 34.4956 31.6761 34.9387 30.2 34.8911C28.7238 34.8437 26.3086 34.1656 26.2148 32.3416M29.9658 23.7476V25.0873M29.9658 34.8789V36.2475" stroke="#B74C12" stroke-width="1.875" stroke-linecap="round"/>
</svg>
