<svg width="60" height="60" viewBox="0 0 60 60" fill="none" xmlns="http://www.w3.org/2000/svg">
<rect width="60" height="60" rx="8.57143" fill="#ECFFF6"/>
<path d="M42.4555 20.6327C42.4555 20.6327 42.6756 18.4018 42.1369 17.8631M42.1369 17.8631C41.595 17.3212 39.3676 17.5464 39.3676 17.5464M42.1369 17.8631L38.75 21.25" stroke="#12B76A" stroke-width="1.875" stroke-linecap="round" stroke-linejoin="round"/>
<path d="M42.4555 39.3672C42.4555 39.3672 42.6756 41.5981 42.1369 42.1369M42.1369 42.1369C41.595 42.6787 39.3676 42.4536 39.3676 42.4536M42.1369 42.1369L38.75 38.75" stroke="#12B76A" stroke-width="1.875" stroke-linecap="round" stroke-linejoin="round"/>
<path d="M17.8631 17.8631L21.25 21.25M17.8631 17.8631C18.405 17.3212 20.6324 17.5464 20.6324 17.5464M17.8631 17.8631C17.3244 18.4018 17.5445 20.6327 17.5445 20.6327" stroke="#12B76A" stroke-width="1.875" stroke-linecap="round" stroke-linejoin="round"/>
<path d="M17.8631 42.1369L21.25 38.75M17.8631 42.1369C18.405 42.6787 20.6324 42.4536 20.6324 42.4536M17.8631 42.1369C17.3244 41.5982 17.5445 39.3674 17.5445 39.3674" stroke="#12B76A" stroke-width="1.875" stroke-linecap="round" stroke-linejoin="round"/>
<path d="M38.75 30C38.75 34.8325 34.8325 38.75 30 38.75C25.1675 38.75 21.25 34.8325 21.25 30C21.25 25.1675 25.1675 21.25 30 21.25C34.8325 21.25 38.75 25.1675 38.75 30Z" stroke="#12B76A" stroke-width="1.875"/>
<path d="M29.8925 26.6266C28.5117 26.6266 27.5 27.4293 27.5 28.3609C27.5 29.2924 28.1524 29.8749 30 29.8749C32.0353 29.8749 32.5 30.8029 32.5 31.7344C32.5 32.666 31.6104 33.4018 29.8925 33.4018M29.8925 26.6266C30.981 26.6266 31.5564 27.0077 32.0107 27.5206M29.8925 26.6266V25.5713M29.8925 33.4018C28.804 33.4018 28.3808 33.1868 27.7813 32.6443M29.8925 33.4018V34.386" stroke="#12B76A" stroke-width="1.875" stroke-linecap="round"/>
<path d="M42.4555 20.6327C42.4555 20.6327 42.6756 18.4018 42.1369 17.8631M42.1369 17.8631C41.595 17.3212 39.3676 17.5464 39.3676 17.5464M42.1369 17.8631L38.75 21.25" stroke="#16B068" stroke-width="1.875" stroke-linecap="round" stroke-linejoin="round"/>
<path d="M42.4555 39.3672C42.4555 39.3672 42.6756 41.5981 42.1369 42.1369M42.1369 42.1369C41.595 42.6787 39.3676 42.4536 39.3676 42.4536M42.1369 42.1369L38.75 38.75" stroke="#16B068" stroke-width="1.875" stroke-linecap="round" stroke-linejoin="round"/>
<path d="M17.8631 17.8631L21.25 21.25M17.8631 17.8631C18.405 17.3212 20.6324 17.5464 20.6324 17.5464M17.8631 17.8631C17.3244 18.4018 17.5445 20.6327 17.5445 20.6327" stroke="#16B068" stroke-width="1.875" stroke-linecap="round" stroke-linejoin="round"/>
<path d="M17.8631 42.1369L21.25 38.75M17.8631 42.1369C18.405 42.6787 20.6324 42.4536 20.6324 42.4536M17.8631 42.1369C17.3244 41.5982 17.5445 39.3674 17.5445 39.3674" stroke="#16B068" stroke-width="1.875" stroke-linecap="round" stroke-linejoin="round"/>
<path d="M38.75 30C38.75 34.8325 34.8325 38.75 30 38.75C25.1675 38.75 21.25 34.8325 21.25 30C21.25 25.1675 25.1675 21.25 30 21.25C34.8325 21.25 38.75 25.1675 38.75 30Z" stroke="#16B068" stroke-width="1.875"/>
<path d="M29.8925 26.6266C28.5117 26.6266 27.5 27.4293 27.5 28.3609C27.5 29.2924 28.1524 29.8749 30 29.8749C32.0353 29.8749 32.5 30.8029 32.5 31.7344C32.5 32.666 31.6104 33.4018 29.8925 33.4018M29.8925 26.6266C30.981 26.6266 31.5564 27.0077 32.0107 27.5206M29.8925 26.6266V25.5713M29.8925 33.4018C28.804 33.4018 28.3808 33.1868 27.7813 32.6443M29.8925 33.4018V34.386" stroke="#16B068" stroke-width="1.875" stroke-linecap="round"/>
</svg>
