<svg width="60" height="60" viewBox="0 0 60 60" fill="none" xmlns="http://www.w3.org/2000/svg">
<rect width="60" height="60" rx="8.57143" fill="#E5F7FF"/>
<path d="M37.8125 26.25C40.3846 26.342 42.5686 28.2711 42.4984 30.8554C42.482 31.4566 42.2491 32.1998 41.7832 33.686C40.6622 37.263 38.7782 40.368 34.5577 41.113C33.7819 41.25 32.9089 41.25 31.1629 41.25H28.8371C27.0911 41.25 26.2181 41.25 25.4423 41.113C21.2217 40.368 19.3377 37.263 18.2167 33.686C17.7509 32.1998 17.518 31.4566 17.5016 30.8554C17.4314 28.2711 19.6154 26.342 22.1875 26.25" stroke="#09A8F7" stroke-width="1.5" stroke-linecap="round"/>
<path d="M30 32.5V18.75M30 32.5C29.1247 32.5 27.4894 30.0071 26.875 29.375M30 32.5C30.8753 32.5 32.5106 30.0071 33.125 29.375" stroke="#09A8F7" stroke-width="1.5" stroke-linecap="round" stroke-linejoin="round"/>
</svg>
