<svg width="30" height="30" viewBox="0 0 30 30" fill="none" xmlns="http://www.w3.org/2000/svg">
<g clip-path="url(#clip0_170_2306)">
<path d="M22.7948 5.43833C22.1344 4.80957 21.1768 4.6051 20.3172 4.90928C20.0741 4.99052 19.897 5.20126 19.859 5.4547L19.6681 6.76648C19.3786 8.74782 17.6833 10.2193 15.6809 10.2273H12.9537C12.6408 10.2273 12.3681 10.4404 12.2924 10.744L10.247 18.9255C10.1559 19.2909 10.3782 19.6609 10.7435 19.7521C10.7974 19.7655 10.8527 19.7723 10.9083 19.7723H14.3172C14.6302 19.7723 14.9029 19.5592 14.9786 19.2556L16.2127 14.318H18.8717C20.9128 14.3248 22.6934 12.9336 23.1806 10.9513L23.6837 8.93459C24.038 7.69406 23.6984 6.35901 22.7948 5.43833Z" fill="#03A9F4"/>
<path d="M0.681622 27.9541C0.305081 27.954 -0.000127796 27.6487 4.01433e-08 27.2721C4.01433e-08 27.2166 0.00683927 27.1612 0.0202621 27.1073L0.702076 24.3938V24.3652L1.38389 21.653C1.45963 21.3494 1.73231 21.1363 2.04525 21.1362H3.77973C4.72111 21.136 5.48436 21.899 5.48461 22.8404C5.48461 22.9798 5.46755 23.1187 5.4338 23.2539L5.26333 23.9357C5.07369 24.6947 4.39168 25.2272 3.60932 25.2271H1.89658L1.34432 27.4374C1.26845 27.7414 0.995012 27.9546 0.681622 27.9541ZM2.23745 23.8633H3.6092C3.7656 23.8628 3.90162 23.756 3.9392 23.6042L4.10967 22.9224C4.1564 22.7408 4.04697 22.5557 3.86538 22.5091C3.83738 22.5018 3.80862 22.4983 3.77966 22.4984H2.57833L2.23745 23.8633Z" fill="#283593"/>
<path d="M7.97255 27.954H7.0017C5.95792 27.9542 5.11158 27.1083 5.11133 26.0645C5.11126 25.9099 5.13025 25.7558 5.1677 25.6059L5.2577 25.2432C5.45949 24.4291 6.19167 23.8586 7.03034 23.8618H8.00119C9.04497 23.8636 9.88965 24.7112 9.88786 25.755C9.8876 25.9089 9.86856 26.0621 9.83116 26.2113L9.74117 26.574C9.53919 27.3861 8.80931 27.9555 7.97255 27.954ZM6.4917 25.9372C6.42165 26.2194 6.59359 26.5048 6.87572 26.5749C6.91695 26.5851 6.9592 26.5903 7.0017 26.5904H7.97255C8.18278 26.591 8.36623 26.4481 8.4171 26.2441L8.5071 25.8813C8.57715 25.5992 8.40522 25.3137 8.12308 25.2437C8.08185 25.2334 8.0396 25.2283 7.9971 25.2281H7.02625C6.81602 25.2276 6.63258 25.3705 6.5817 25.5745L6.4917 25.9372Z" fill="#283593"/>
<path d="M8.86326 27.9542C8.48672 27.9541 8.18158 27.6488 8.18164 27.2722C8.18164 27.2167 8.18848 27.1613 8.2019 27.1074L8.88372 24.3802C8.97486 24.0146 9.34508 23.7921 9.71075 23.8832C10.0764 23.9744 10.2989 24.3446 10.2078 24.7102L9.52596 27.4374C9.45009 27.7416 9.17665 27.9548 8.86326 27.9542Z" fill="#283593"/>
<path d="M17.0449 27.9541C16.6684 27.954 16.3632 27.6486 16.3633 27.2721C16.3633 27.2166 16.3701 27.1612 16.3835 27.1073L17.0654 24.3938V24.3652L17.7472 21.653C17.8229 21.3494 18.0956 21.1363 18.4085 21.1362H20.143C21.0844 21.136 21.8476 21.899 21.8479 22.8403C21.8479 22.9798 21.8308 23.1186 21.7971 23.2539L21.6266 23.9357C21.437 24.6947 20.755 25.2272 19.9726 25.227H18.2599L17.7077 27.4374C17.6317 27.7415 17.3583 27.9547 17.0449 27.9541ZM18.6007 23.8634H19.9739C20.1303 23.8629 20.2663 23.7561 20.3039 23.6043L20.4744 22.9225C20.521 22.7409 20.4117 22.5558 20.2301 22.5091C20.2021 22.5019 20.1732 22.4983 20.1444 22.4985H18.9417L18.6007 23.8634Z" fill="#03A9F4"/>
<path d="M24.3358 27.954H23.365C22.3212 27.9542 21.4749 27.1083 21.4746 26.0645C21.4745 25.9099 21.4935 25.7558 21.531 25.6059L21.621 25.2432C21.8228 24.4291 22.555 23.8586 23.3936 23.8618H24.3645C25.4083 23.8616 26.2546 24.7075 26.2548 25.7513C26.2549 25.9059 26.2359 26.06 26.1985 26.2099L26.1085 26.5727C25.9067 27.3867 25.1745 27.9572 24.3358 27.954ZM22.855 25.9372C22.7849 26.2194 22.9569 26.5048 23.239 26.5749C23.2802 26.5851 23.3225 26.5903 23.365 26.5904H24.3358C24.5461 26.591 24.7295 26.4481 24.7804 26.2441L24.8704 25.8813C24.9404 25.5992 24.7685 25.3137 24.4864 25.2437C24.4451 25.2334 24.4029 25.2283 24.3604 25.2281H23.3895C23.1793 25.2276 22.9959 25.3705 22.945 25.5745L22.855 25.9372Z" fill="#03A9F4"/>
<path d="M25.2265 27.9542C24.85 27.9541 24.5449 27.6488 24.5449 27.2722C24.5449 27.2167 24.5518 27.1613 24.5652 27.1074L25.247 24.3802C25.3381 24.0146 25.7084 23.7921 26.074 23.8832C26.4396 23.9744 26.6622 24.3446 26.5711 24.7102L25.8892 27.4374C25.8134 27.7416 25.5399 27.9548 25.2265 27.9542Z" fill="#03A9F4"/>
<path d="M12.9538 27.2721C12.7257 27.272 12.5128 27.1579 12.3865 26.9681L11.0229 24.9227C10.8139 24.6094 10.8985 24.186 11.2118 23.977C11.5251 23.768 11.9485 23.8526 12.1575 24.1659L13.521 26.2113C13.7304 26.5243 13.6464 26.9477 13.3334 27.1571C13.2211 27.2322 13.0889 27.2722 12.9538 27.2721Z" fill="#283593"/>
<path d="M11.5898 29.3177C11.2132 29.3176 10.9081 29.0122 10.9082 28.6357C10.9083 28.4763 10.9641 28.322 11.0661 28.1995L14.4751 24.1088C14.7164 23.8196 15.1465 23.7808 15.4357 24.0222C15.7249 24.2635 15.7637 24.6936 15.5223 24.9828L12.1134 29.0736C11.9837 29.2286 11.7919 29.318 11.5898 29.3177Z" fill="#283593"/>
<path d="M27.9531 27.9538C27.5766 27.9537 27.2714 27.6483 27.2715 27.2718C27.2715 27.2163 27.2783 27.1609 27.2917 27.107L28.6553 21.6527C28.7465 21.2871 29.1167 21.0645 29.4823 21.1557C29.848 21.2468 30.0705 21.617 29.9794 21.9827L28.6158 27.437C28.54 27.7412 28.2666 27.9544 27.9531 27.9538Z" fill="#03A9F4"/>
<path d="M20.5443 1.8621C19.8892 1.11176 18.9415 0.68166 17.9454 0.682619H10.2274C9.89769 0.682619 9.61524 0.918604 9.55656 1.24305L6.82937 16.2424C6.76232 16.613 7.00841 16.9677 7.37894 17.0347C7.41895 17.0419 7.4596 17.0456 7.50025 17.0456H11.591C11.9039 17.0455 12.1766 16.8324 12.2524 16.5288L13.4878 11.5913H15.6818C18.3636 11.5807 20.634 9.60903 21.0202 6.95509L21.3611 4.6247C21.5016 3.62905 21.2037 2.62132 20.5443 1.8621Z" fill="#283593"/>
</g>
<defs>
<clipPath id="clip0_170_2306">
<rect width="30" height="30" fill="white"/>
</clipPath>
</defs>
</svg>
