<svg width="20" height="20" viewBox="0 0 20 20" fill="none" xmlns="http://www.w3.org/2000/svg">
<path d="M17.9537 9.20417C18.207 9.55942 18.3337 9.73708 18.3337 10C18.3337 10.2629 18.207 10.4406 17.9537 10.7958C16.8152 12.3922 13.908 15.8333 10.0003 15.8333C6.09264 15.8333 3.18541 12.3922 2.04703 10.7958C1.79367 10.4406 1.66699 10.2629 1.66699 10C1.66699 9.73708 1.79367 9.55942 2.04703 9.20417C3.18541 7.60787 6.09264 4.16667 10.0003 4.16667C13.908 4.16667 16.8152 7.60787 17.9537 9.20417Z" stroke="#1F2224" stroke-width="1.5"/>
<path d="M12.5 10C12.5 8.61925 11.3807 7.5 10 7.5C8.61925 7.5 7.5 8.61925 7.5 10C7.5 11.3807 8.61925 12.5 10 12.5C11.3807 12.5 12.5 11.3807 12.5 10Z" stroke="#1F2224" stroke-width="1.5"/>
</svg>
