<svg width="20" height="20" viewBox="0 0 20 20" fill="none" xmlns="http://www.w3.org/2000/svg">
<path d="M4.43509 8.06903C6.44649 4.50991 7.45218 2.73034 8.83225 2.27226C9.59141 2.02025 10.4092 2.02025 11.1684 2.27226C12.5485 2.73034 13.5542 4.50991 15.5656 8.06903C17.577 11.6281 18.5827 13.4077 18.281 14.8577C18.115 15.6554 17.7061 16.3789 17.1128 16.9247C16.0345 17.9166 14.0232 17.9166 10.0003 17.9166C5.97754 17.9166 3.96614 17.9166 2.8878 16.9247C2.29456 16.3789 1.88565 15.6554 1.71968 14.8577C1.41799 13.4077 2.42369 11.6281 4.43509 8.06903Z" stroke="#FF2121" stroke-width="1.5"/>
<path d="M9.99316 13.3334H10.0022" stroke="#FF2121" stroke-width="2" stroke-linecap="round" stroke-linejoin="round"/>
<path d="M10 10.8334V7.5" stroke="#FF2121" stroke-width="1.5" stroke-linecap="round" stroke-linejoin="round"/>
</svg>
