<svg width="20" height="20" viewBox="0 0 20 20" fill="none" xmlns="http://www.w3.org/2000/svg">
<path fill-rule="evenodd" clip-rule="evenodd" d="M3.50527 2.32715L13.3327 12.1546L13.545 12.3668L15.4775 14.2994V14.2993L16.683 15.5048L17.672 16.4938L16.4934 17.6723L9.15621 10.3351L9.15625 16.7454L4.83086 13.4071H1.66602V6.74047H4.82602L5.23762 6.41652L2.32676 3.50566L3.50527 2.32715ZM15.7792 3.42148C18.4253 6.37613 19.0019 10.5066 17.5089 13.9737L16.2218 12.6866C17.1542 9.91301 16.5733 6.75016 14.479 4.4616L15.7792 3.42148ZM12.4829 6.05855C13.6011 7.30559 14.1062 8.90113 13.9981 10.4629L12.0748 8.53965C11.8864 8.03519 11.6003 7.5584 11.2164 7.13793L11.1812 7.09992L12.4829 6.05855ZM9.15625 3.33309L9.15621 5.62113L7.87574 4.34066L9.15625 3.33309Z" fill="white"/>
</svg>
