<svg width="20" height="20" viewBox="0 0 20 20" fill="none" xmlns="http://www.w3.org/2000/svg">
<path d="M11.667 12.3447V7.65555C11.667 5.03455 11.667 3.72405 10.8959 3.39791C10.1248 3.07177 9.21725 3.99844 7.40226 5.85176C6.46232 6.81154 5.92604 7.02407 4.5887 7.02407C3.41914 7.02407 2.83436 7.02407 2.41429 7.31068C1.54229 7.90562 1.67409 9.0685 1.67409 10.0002C1.67409 10.9318 1.54229 12.0947 2.41429 12.6897C2.83436 12.9762 3.41914 12.9762 4.5887 12.9762C5.92604 12.9762 6.46232 13.1888 7.40226 14.1486C9.21725 16.0019 10.1248 16.9286 10.8959 16.6024C11.667 16.2762 11.667 14.9657 11.667 12.3447Z" fill="#F1F2FF" stroke="#F1F2FF" stroke-width="1.5" stroke-linecap="round" stroke-linejoin="round"/>
<path d="M14.167 7.5C14.6882 8.18307 15.0003 9.05283 15.0003 10C15.0003 10.9472 14.6882 11.8169 14.167 12.5" stroke="#F1F2FF" stroke-width="1.5" stroke-linecap="round" stroke-linejoin="round"/>
<path d="M16.667 5.8335C17.7093 6.97194 18.3337 8.42158 18.3337 10.0002C18.3337 11.5787 17.7093 13.0284 16.667 14.1668" stroke="#F1F2FF" stroke-width="1.5" stroke-linecap="round" stroke-linejoin="round"/>
</svg>
