<svg width="24" height="24" viewBox="0 0 24 24" fill="none" xmlns="http://www.w3.org/2000/svg">
<path d="M8.99961 2.1001C8.5026 2.1001 8.09961 2.50309 8.09961 3.0001V8.1001H2.99961C2.5026 8.1001 2.09961 8.50309 2.09961 9.0001C2.09961 9.49711 2.5026 9.9001 2.99961 9.9001H8.99961C9.49662 9.9001 9.89961 9.49711 9.89961 9.0001V3.0001C9.89961 2.50309 9.49662 2.1001 8.99961 2.1001Z" fill="white"/>
<path d="M14.9996 9.9001H20.9996C21.4966 9.9001 21.8996 9.49711 21.8996 9.0001C21.8996 8.50309 21.4966 8.1001 20.9996 8.1001H15.8996V3.0001C15.8996 2.50309 15.4966 2.1001 14.9996 2.1001C14.5026 2.1001 14.0996 2.50309 14.0996 3.0001V9.0001C14.0996 9.49711 14.5026 9.9001 14.9996 9.9001Z" fill="white"/>
<path d="M8.99961 14.1001H2.99961C2.5026 14.1001 2.09961 14.5031 2.09961 15.0001C2.09961 15.4971 2.5026 15.9001 2.99961 15.9001H8.09961V21.0001C8.09961 21.4971 8.5026 21.9001 8.99961 21.9001C9.49662 21.9001 9.89961 21.4971 9.89961 21.0001V15.0001C9.89961 14.5031 9.49662 14.1001 8.99961 14.1001Z" fill="white"/>
<path d="M20.9996 14.1001H14.9996C14.5026 14.1001 14.0996 14.5031 14.0996 15.0001V21.0001C14.0996 21.4971 14.5026 21.9001 14.9996 21.9001C15.4966 21.9001 15.8996 21.4971 15.8996 21.0001V15.9001H20.9996C21.4966 15.9001 21.8996 15.4971 21.8996 15.0001C21.8996 14.5031 21.4966 14.1001 20.9996 14.1001Z" fill="white"/>
</svg>
