<svg width="77" height="19" viewBox="0 0 77 19" fill="none" xmlns="http://www.w3.org/2000/svg">
<path d="M16.9747 2.5957L14.8905 15.5472H18.2218L20.3047 2.5957H16.9747ZM27.0232 7.87143C25.8591 7.29735 25.1454 6.90989 25.1454 6.32274C25.1596 5.78888 25.7489 5.24195 27.0648 5.24195C28.1471 5.2148 28.9426 5.4688 29.5461 5.72151L29.8484 5.85625L30.3013 3.14647C29.6433 2.89248 28.6 2.61262 27.3113 2.61262C24.0215 2.61262 21.705 4.32064 21.6906 6.76349C21.6635 8.56617 23.3491 9.56651 24.6106 10.1666C25.8993 10.7822 26.338 11.1813 26.338 11.7282C26.3238 12.568 25.296 12.9554 24.3369 12.9554C23.0081 12.9554 22.2943 12.7559 21.2107 12.2879L20.772 12.0884L20.3062 14.9045C21.0887 15.2519 22.5279 15.5576 24.0217 15.5732C27.5178 15.5732 29.7928 13.8911 29.8214 11.2876C29.8328 9.85945 28.9439 8.76559 27.0232 7.87143ZM38.8418 2.63578H36.2644C35.4702 2.63578 34.8667 2.86391 34.5228 3.67777L29.5744 15.5472H33.0706L34.0335 12.9774H37.945L38.4446 15.5576H41.5281L38.8418 2.63578ZM35.0031 10.3841C35.0705 10.3906 36.345 6.18913 36.345 6.18913L37.3598 10.3841C37.3598 10.3841 35.6611 10.3841 35.0031 10.3841ZM12.1068 2.5957L8.84296 11.3951L8.48741 9.65975C7.88391 7.65751 5.99186 5.48173 3.88032 4.40094L6.86906 15.5343H10.3938L15.6316 2.59712H12.1068V2.5957Z" fill="#2394BC"/>
<path d="M7.38944 4.26606C7.13509 3.27851 6.32392 2.61247 5.22225 2.59826H0.0532331L0 2.8379C4.0322 3.83056 7.41663 6.88502 8.51459 9.75811L7.38944 4.26606Z" fill="#EFC75E"/>
<g clip-path="url(#clip0_170_2378)">
<path fill-rule="evenodd" clip-rule="evenodd" d="M52.3868 0.645508H74.7952C75.949 0.645508 76.893 1.58947 76.893 2.74331V15.4255C76.893 16.5793 75.949 17.5233 74.7952 17.5233H52.3868C51.2331 17.5233 50.2891 16.5793 50.2891 15.4255V2.74331C50.2891 1.58947 51.2331 0.645508 52.3868 0.645508Z" fill="#011D38"/>
<path fill-rule="evenodd" clip-rule="evenodd" d="M52.3872 1.06104C51.4628 1.06104 50.7051 1.81881 50.7051 2.74317V15.4253C50.7051 16.3497 51.4628 17.1075 52.3872 17.1075H74.7955C75.7199 17.1075 76.4777 16.3497 76.4777 15.4253V2.74317C76.4777 1.81876 75.7199 1.06104 74.7955 1.06104H52.3872Z" fill="#013668"/>
<path d="M67.7776 15.3072C71.2156 15.3072 74.0026 12.5203 74.0026 9.08233C74.0026 5.64441 71.2156 2.85742 67.7776 2.85742C64.3397 2.85742 61.5527 5.64441 61.5527 9.08233C61.5527 12.5203 64.3397 15.3072 67.7776 15.3072Z" fill="#FAC23C"/>
<path fill-rule="evenodd" clip-rule="evenodd" d="M63.5902 4.47314C63.7055 4.5779 63.8169 4.68696 63.9241 4.79999H63.2559C63.3631 4.68696 63.4749 4.5779 63.5902 4.47314Z" fill="#FAC23C"/>
<path d="M59.4066 15.3072C62.8445 15.3072 65.6315 12.5203 65.6315 9.08233C65.6315 5.64441 62.8445 2.85742 59.4066 2.85742C55.9686 2.85742 53.1816 5.64441 53.1816 9.08233C53.1816 12.5203 55.9686 15.3072 59.4066 15.3072Z" fill="#DD2C00"/>
<path fill-rule="evenodd" clip-rule="evenodd" d="M64.24 5.15723C64.3263 5.26334 64.4092 5.37233 64.4885 5.48407H62.6953C62.7746 5.37233 62.8576 5.26334 62.9439 5.15723H64.24Z" fill="#FAC23C"/>
<path fill-rule="evenodd" clip-rule="evenodd" d="M64.7221 5.84131C64.7875 5.9482 64.8497 6.05715 64.9086 6.16815H62.2715C62.3304 6.05715 62.3927 5.9482 62.458 5.84131H64.7221Z" fill="#FAC23C"/>
<path fill-rule="evenodd" clip-rule="evenodd" d="M65.083 6.52539C65.1314 6.63275 65.1768 6.74174 65.2193 6.85223H61.959C62.0014 6.74174 62.0468 6.63275 62.0953 6.52539H65.083Z" fill="#FAC23C"/>
<path fill-rule="evenodd" clip-rule="evenodd" d="M65.3454 7.20947C65.3794 7.31718 65.4104 7.42617 65.4386 7.53631H61.7422C61.7704 7.42617 61.8014 7.31718 61.8354 7.20947H65.3454Z" fill="#FAC23C"/>
<path fill-rule="evenodd" clip-rule="evenodd" d="M65.5185 7.89355C65.5394 8.00155 65.5576 8.1105 65.5728 8.2204H61.6074C61.6227 8.1105 61.6408 8.00155 61.6617 7.89355H65.5185Z" fill="#FAC23C"/>
<path fill-rule="evenodd" clip-rule="evenodd" d="M65.6124 8.57764C65.6211 8.68583 65.627 8.79481 65.6301 8.90448H61.5508C61.5539 8.79481 61.5598 8.68583 61.5685 8.57764H65.6124Z" fill="#FAC23C"/>
<path fill-rule="evenodd" clip-rule="evenodd" d="M65.6302 9.26172C65.6272 9.37139 65.6213 9.48038 65.6126 9.58856H61.5684C61.5597 9.48038 61.5539 9.37139 61.5508 9.26172H65.6302Z" fill="#FAC23C"/>
<path fill-rule="evenodd" clip-rule="evenodd" d="M65.5735 9.9458C65.5583 10.0557 65.5402 10.1647 65.5193 10.2726H61.6616C61.6407 10.1647 61.6226 10.0557 61.6074 9.9458H65.5735Z" fill="#FAC23C"/>
<path fill-rule="evenodd" clip-rule="evenodd" d="M65.4398 10.6299C65.4117 10.74 65.3807 10.849 65.3467 10.9567H61.8352C61.8013 10.849 61.7703 10.74 61.7422 10.6299H65.4398Z" fill="#FAC23C"/>
<path fill-rule="evenodd" clip-rule="evenodd" d="M65.2211 11.314C65.1787 11.4245 65.1333 11.5334 65.0849 11.6408H62.0951C62.0467 11.5334 62.0014 11.4245 61.959 11.314H65.2211Z" fill="#FAC23C"/>
<path fill-rule="evenodd" clip-rule="evenodd" d="M64.9112 11.998C64.8523 12.109 64.7901 12.218 64.7249 12.3249H62.4578C62.3925 12.218 62.3304 12.109 62.2715 11.998H64.9112Z" fill="#FAC23C"/>
<path fill-rule="evenodd" clip-rule="evenodd" d="M64.4899 12.6821C64.4107 12.7938 64.3279 12.9029 64.2416 13.009H62.9416C62.8554 12.9029 62.7726 12.7938 62.6934 12.6821H64.4899Z" fill="#FAC23C"/>
<path fill-rule="evenodd" clip-rule="evenodd" d="M72.784 10.1419V8.02734H72.1904V8.75783C72.1328 8.69627 72.0668 8.65051 71.992 8.61948C71.9177 8.58897 71.835 8.57373 71.7435 8.57373C71.5559 8.57373 71.4019 8.64116 71.2803 8.77603C71.1587 8.91091 71.0977 9.10531 71.0977 9.35978C71.0977 9.58671 71.1528 9.78013 71.2626 9.93914C71.3728 10.0981 71.5323 10.1774 71.7405 10.1774C71.8444 10.1774 71.9389 10.1552 72.0231 10.1109C72.0865 10.077 72.1569 10.0115 72.2337 9.915V10.1419L72.784 10.1419ZM72.1185 9.09989C72.1692 9.15897 72.1948 9.24904 72.1948 9.36964C72.1948 9.50304 72.1697 9.59902 72.12 9.65808C72.0698 9.71665 72.0078 9.74619 71.933 9.74619C71.8631 9.74619 71.804 9.71714 71.7567 9.65857C71.709 9.59998 71.6854 9.50844 71.6854 9.38293C71.6854 9.24855 71.7085 9.15304 71.7543 9.09645C71.8006 9.03936 71.8577 9.0108 71.9256 9.0108C72.0034 9.0108 72.0678 9.04032 72.1185 9.09989Z" fill="#FFFFFE"/>
<path fill-rule="evenodd" clip-rule="evenodd" d="M70.3433 8.85872V8.60868H69.793V10.1414H70.3836V9.62657C70.3836 9.38095 70.4141 9.2131 70.4747 9.12354C70.517 9.06002 70.5771 9.02802 70.6539 9.02802C70.6942 9.02802 70.7494 9.0423 70.8187 9.07133L71.0009 8.65446C70.898 8.60031 70.803 8.57324 70.7158 8.57324C70.6332 8.57324 70.5638 8.59339 70.5072 8.63427C70.4511 8.6751 70.3964 8.74991 70.3433 8.85872Z" fill="#FFFFFE"/>
<path fill-rule="evenodd" clip-rule="evenodd" d="M69.4354 9.13828C69.4354 9.06593 69.4211 8.99013 69.3921 8.9109C69.3635 8.83161 69.3242 8.77012 69.2739 8.72679C69.2031 8.66427 69.114 8.62295 69.0076 8.60325C68.9008 8.58355 68.7601 8.57373 68.5844 8.57373C68.4746 8.57373 68.3727 8.58208 68.2787 8.59832C68.1847 8.61456 68.1108 8.63768 68.0572 8.66773C67.9819 8.70908 67.9247 8.75782 67.8849 8.81441C67.845 8.87052 67.8145 8.94779 67.7933 9.04625L68.3545 9.10531C68.3776 9.03835 68.4076 8.99308 68.445 8.96847C68.4933 8.93748 68.5651 8.92222 68.6611 8.92222C68.7359 8.92222 68.7881 8.93648 68.8177 8.96552C68.8477 8.99455 68.8625 9.04475 68.8625 9.11713C68.7896 9.14616 68.7202 9.1693 68.6547 9.18701C68.5893 9.20524 68.4465 9.23623 68.2265 9.28054C68.0429 9.31695 67.9169 9.37309 67.8485 9.44839C67.7801 9.52369 67.7461 9.61968 67.7461 9.73634C67.7461 9.86038 67.7933 9.96524 67.8883 10.0499C67.9828 10.1351 68.1217 10.1774 68.3043 10.1774C68.4416 10.1774 68.5622 10.1562 68.6661 10.1139C68.7424 10.0824 68.8187 10.0297 68.8954 9.95587C68.9023 9.99969 68.9092 10.0317 68.9156 10.0523C68.9225 10.073 68.9368 10.1026 68.9589 10.1419H69.5088C69.4782 10.0784 69.458 10.0263 69.4492 9.98541C69.4398 9.94456 69.4354 9.88793 69.4354 9.8156L69.4354 9.13828ZM68.6094 9.48974C68.6975 9.46709 68.7817 9.4415 68.8625 9.41247V9.50696C68.8625 9.58081 68.8506 9.64085 68.827 9.68711C68.8034 9.7334 68.7635 9.77227 68.7074 9.80426C68.6508 9.83626 68.5898 9.85252 68.5243 9.85252C68.4618 9.85252 68.4145 9.83773 68.382 9.80821C68.35 9.77867 68.3338 9.74029 68.3338 9.69353C68.3338 9.65267 68.35 9.61622 68.383 9.58423C68.4145 9.55323 68.4903 9.52173 68.6094 9.48974Z" fill="#FFFFFE"/>
<path fill-rule="evenodd" clip-rule="evenodd" d="M67.5183 8.6498C67.4444 8.42633 67.3307 8.26093 67.1786 8.15313C67.0261 8.04536 66.8164 7.9917 66.5501 7.9917C66.2095 7.9917 65.9461 8.0857 65.7596 8.27323C65.5735 8.46127 65.4805 8.73001 65.4805 9.0795C65.4805 9.34135 65.5336 9.55695 65.6394 9.7248C65.7453 9.89265 65.8708 10.0103 66.0165 10.0773C66.1627 10.1437 66.3502 10.1772 66.5806 10.1772C66.7701 10.1772 66.9261 10.1496 67.0487 10.0949C67.1717 10.0403 67.2741 9.95909 67.3568 9.8513C67.44 9.744 67.5005 9.60962 67.5389 9.44916L66.966 9.27638C66.9369 9.40978 66.8907 9.51168 66.8267 9.58156C66.7627 9.65195 66.6682 9.68689 66.5432 9.68689C66.4142 9.68689 66.3143 9.64358 66.2429 9.55695C66.1715 9.46982 66.1361 9.30985 66.1361 9.07555C66.1361 8.88702 66.1661 8.74822 66.2257 8.66013C66.3044 8.54152 66.4181 8.48195 66.5668 8.48195C66.6323 8.48195 66.6913 8.49523 66.7445 8.52229C66.7972 8.54888 66.8419 8.58728 66.8789 8.63697C66.901 8.66653 66.9222 8.71328 66.9424 8.77727L67.5183 8.6498Z" fill="#FFFFFE"/>
<path fill-rule="evenodd" clip-rule="evenodd" d="M65.2406 9.07182L65.4227 8.65495C65.3199 8.6008 65.2249 8.57373 65.1378 8.57373C65.0551 8.57373 64.9856 8.59388 64.9291 8.63475C64.8729 8.67559 64.8183 8.7504 64.7652 8.85921V8.60916H64.2148V10.1419H64.8055V9.62706C64.8055 9.38144 64.836 9.21359 64.8966 9.12402C64.9389 9.06051 64.999 9.02851 65.0757 9.02851C65.1161 9.02851 65.1712 9.04279 65.2406 9.07182Z" fill="#FFFFFE"/>
<path fill-rule="evenodd" clip-rule="evenodd" d="M63.939 9.45528C63.939 9.25298 63.906 9.08857 63.8396 8.96258C63.7731 8.83605 63.6762 8.74009 63.5492 8.67362C63.4222 8.6072 63.2494 8.57373 63.0299 8.57373C62.7596 8.57373 62.5475 8.64803 62.3944 8.7962C62.2408 8.94437 62.1641 9.13879 62.1641 9.37851C62.1641 9.54685 62.2025 9.69353 62.2787 9.81854C62.3555 9.94306 62.452 10.0341 62.5682 10.0913C62.6848 10.1488 62.8443 10.1774 63.0476 10.1774C63.2814 10.1774 63.461 10.1439 63.5861 10.077C63.7111 10.0105 63.8179 9.89976 63.9065 9.74618L63.3277 9.69302C63.2912 9.7388 63.2568 9.77079 63.2248 9.789C63.1731 9.81756 63.118 9.83182 63.0599 9.83182C62.9683 9.83182 62.894 9.79886 62.8374 9.73242C62.7966 9.68614 62.7715 9.61573 62.7606 9.52173H63.939L63.939 9.45528ZM63.2504 8.99604C63.3001 9.04526 63.3311 9.12697 63.3424 9.24116H62.7621C62.772 9.1491 62.7946 9.0802 62.83 9.03393C62.8862 8.95961 62.961 8.92221 63.0545 8.92221C63.1357 8.92221 63.2007 8.9468 63.2504 8.99604Z" fill="#FFFFFE"/>
<path fill-rule="evenodd" clip-rule="evenodd" d="M61.9592 9.04031V8.60916H61.6373V8.02734L61.0496 8.3281V8.60916H60.834V9.04031H61.0496V9.57934C61.0496 9.75013 61.0663 9.87416 61.0993 9.95047C61.1328 10.0268 61.184 10.0838 61.2529 10.1212C61.3223 10.1587 61.4301 10.1774 61.5763 10.1774C61.7023 10.1774 61.8376 10.1616 61.9828 10.1296L61.9395 9.72354C61.8613 9.74864 61.8007 9.76095 61.7574 9.76095C61.7092 9.76095 61.6752 9.74471 61.656 9.71223C61.6437 9.69105 61.6373 9.64772 61.6373 9.58277V9.04031H61.9592Z" fill="#FFFFFE"/>
<path fill-rule="evenodd" clip-rule="evenodd" d="M56.7759 10.1419V8.02734H55.9179L55.5886 9.314L55.2603 8.02734H54.3984V10.1419H54.933V8.52991L55.3444 10.1419H55.8288L56.2413 8.52991V10.1419H56.7759Z" fill="#FFFFFE"/>
<path fill-rule="evenodd" clip-rule="evenodd" d="M57.1312 9.04625L57.6924 9.1053C57.7155 9.03835 57.7455 8.99308 57.7829 8.96847C57.8312 8.93747 57.903 8.92221 57.999 8.92221C58.0739 8.92221 58.126 8.93647 58.1556 8.96552C58.1856 8.99455 58.2004 9.04475 58.2004 9.11713C58.1275 9.14616 58.0581 9.16929 57.9926 9.18701C57.9272 9.20524 57.7844 9.23623 57.5644 9.28054C57.3808 9.31695 57.2548 9.37309 57.1864 9.44839C57.118 9.52369 57.084 9.61968 57.084 9.73634C57.084 9.86037 57.1312 9.96524 57.2262 10.0499C57.3208 10.135 57.4596 10.1774 57.6422 10.1774C57.7795 10.1774 57.9001 10.1562 58.004 10.1139C58.0803 10.0824 58.1565 10.0297 58.2333 9.95587C58.2402 9.99969 58.2471 10.0317 58.2535 10.0523C58.2604 10.073 58.2747 10.1026 58.2968 10.1419H58.8466C58.8161 10.0784 58.7959 10.0263 58.7871 9.98541C58.7777 9.94455 58.7733 9.88793 58.7733 9.81559V9.13828C58.7733 9.06593 58.759 8.99013 58.73 8.9109C58.7014 8.83161 58.6621 8.77012 58.6118 8.72679C58.541 8.66427 58.4519 8.62295 58.3455 8.60325C58.2387 8.58355 58.098 8.57373 57.9223 8.57373C57.8125 8.57373 57.7106 8.58208 57.6166 8.59832C57.5225 8.61456 57.4487 8.63768 57.3951 8.66773C57.3198 8.70908 57.2627 8.75782 57.2228 8.81441C57.1829 8.87052 57.1524 8.94779 57.1312 9.04625ZM57.9473 9.48973C58.0355 9.46709 58.1196 9.4415 58.2004 9.41247V9.50696C58.2004 9.58081 58.1885 9.64085 58.1649 9.6871C58.1413 9.7334 58.1014 9.77226 58.0453 9.80426C57.9887 9.83625 57.9277 9.85252 57.8622 9.85252C57.7997 9.85252 57.7524 9.83773 57.7199 9.80821C57.688 9.77867 57.6717 9.74029 57.6717 9.69352C57.6717 9.65267 57.688 9.61622 57.7209 9.58422C57.7524 9.55323 57.8282 9.52173 57.9473 9.48973Z" fill="#FFFFFE"/>
<path fill-rule="evenodd" clip-rule="evenodd" d="M59.1721 8.79178C59.1135 8.86461 59.0845 8.95174 59.0845 9.05265C59.0845 9.14518 59.1116 9.22737 59.1657 9.29975C59.2203 9.3716 59.2868 9.42329 59.366 9.4533C59.4458 9.48384 59.5871 9.5168 59.7908 9.55225C59.9272 9.57637 60.0114 9.59656 60.0429 9.6128C60.0872 9.63592 60.1093 9.66892 60.1093 9.71124C60.1093 9.74864 60.0926 9.78012 60.0586 9.80475C60.0153 9.83871 59.9543 9.85545 59.8755 9.85545C59.8032 9.85545 59.7456 9.8407 59.7022 9.81116C59.6589 9.78164 59.6255 9.73242 59.6013 9.66348L59.0195 9.71665C59.053 9.86383 59.1293 9.97753 59.2479 10.0573C59.3665 10.1375 59.5659 10.1774 59.8454 10.1774C60.0433 10.1774 60.1999 10.1528 60.3146 10.1031C60.4292 10.0533 60.5134 9.98686 60.5666 9.90319C60.6202 9.81954 60.6468 9.7334 60.6468 9.6448C60.6468 9.55716 60.6217 9.47693 60.571 9.40359C60.5208 9.33025 60.4479 9.27412 60.353 9.23476C60.2575 9.19538 60.1128 9.16437 59.9173 9.14223C59.7889 9.12697 59.7052 9.10973 59.6673 9.09005C59.6294 9.07086 59.6102 9.04279 59.6102 9.0049C59.6102 8.97144 59.6254 8.94288 59.6555 8.91923C59.6855 8.89562 59.7337 8.88382 59.7997 8.88382C59.8651 8.88382 59.9208 8.89904 59.9665 8.92958C60 8.9527 60.0241 8.98864 60.0384 9.03739L60.5936 8.98422C60.5553 8.88382 60.507 8.80455 60.4489 8.74549C60.3909 8.6869 60.3185 8.64361 60.2314 8.61553C60.1447 8.5875 60.0099 8.57373 59.8277 8.57373C59.655 8.57373 59.5171 8.59192 59.4143 8.62786C59.3114 8.66378 59.2307 8.71842 59.1721 8.79178Z" fill="#FFFFFE"/>
</g>
<defs>
<clipPath id="clip0_170_2378">
<rect width="26.8202" height="18.1685" fill="white" transform="translate(50.1797)"/>
</clipPath>
</defs>
</svg>
