<svg width="185" height="40" viewBox="0 0 185 40" fill="none" xmlns="http://www.w3.org/2000/svg">
<path d="M28.0127 31.6795L4.09271 15.1795C1.66871 13.5075 2.49271 10.0261 5.51538 9.20746L30.938 2.30746C31.4766 2.11314 32.0536 2.05006 32.6215 2.12346C33.1892 2.19686 33.7314 2.40462 34.2028 2.7295C34.6742 3.05438 35.0614 3.48701 35.332 3.99147C35.6027 4.49594 35.7492 5.0577 35.7594 5.63013L34.2527 29.0288C34.074 31.8062 30.4367 33.3515 28.0127 31.6795Z" fill="#71779B"/>
<path d="M20.427 35.757L6.33499 8.19843C6.01286 7.56798 5.87111 6.86079 5.92537 6.15489C5.97962 5.44898 6.22778 4.77177 6.64246 4.19794C7.05715 3.62411 7.62226 3.17595 8.27547 2.90289C8.92869 2.62982 9.64462 2.54246 10.3443 2.65045L36.4604 6.6811C37.0616 6.77391 37.6322 7.00811 38.1254 7.36445C38.6185 7.72079 39.02 8.18909 39.2969 8.73083C39.5737 9.27258 39.7181 9.8723 39.718 10.4807C39.7178 11.0891 39.5733 11.6888 39.2964 12.2304L27.2657 35.7584C26.9426 36.387 26.4525 36.9145 25.8492 37.2826C25.2458 37.6509 24.5528 37.8456 23.846 37.8454C23.1392 37.8453 22.4461 37.6504 21.8429 37.282C21.2397 36.9134 20.7498 36.3858 20.427 35.757Z" fill="#71779B"/>
<path d="M35.6941 6.55621L22.6754 4.54688L6.69141 8.88687L13.0714 21.3682L28.0114 31.6775C28.341 31.9025 28.7035 32.0747 29.0861 32.1882L34.7607 21.0909L35.6941 6.55621Z" fill="#71779B"/>
<path d="M101.637 9.77869C101.637 9.29479 101.78 8.82176 102.049 8.4194C102.318 8.01705 102.7 7.70345 103.147 7.51827C103.594 7.33309 104.086 7.28464 104.561 7.37904C105.035 7.47345 105.471 7.70648 105.813 8.04864C106.156 8.39081 106.389 8.82677 106.483 9.30137C106.577 9.77599 106.529 10.2679 106.344 10.715C106.159 11.1621 105.845 11.5442 105.443 11.813C105.04 12.0819 104.567 12.2254 104.083 12.2254C103.436 12.2188 102.818 11.9589 102.361 11.5015C101.903 11.044 101.643 10.4255 101.637 9.77869ZM102.045 13.4213H106.123V27.0133H102.045V13.4213Z" fill="#71779B"/>
<path d="M123.737 20.2149C123.785 21.1133 123.654 22.0122 123.353 22.86C123.051 23.7076 122.586 24.4874 121.982 25.1545C121.378 25.8214 120.649 26.3625 119.835 26.7466C119.021 27.1306 118.14 27.3501 117.241 27.3922C116.485 27.4333 115.73 27.3058 115.029 27.019C114.329 26.7321 113.701 26.293 113.191 25.7336V32.4482H109.113V13.4189H113.191V14.6962C113.701 14.1369 114.329 13.6981 115.029 13.4114C115.73 13.1248 116.486 12.9975 117.241 13.0389C118.14 13.0808 119.021 13.3001 119.835 13.684C120.648 14.068 121.378 14.6089 121.982 15.2758C122.586 15.9428 123.051 16.7224 123.353 17.5701C123.654 18.4177 123.785 19.3165 123.737 20.2149ZM119.66 20.2149C119.644 19.5785 119.441 18.961 119.075 18.4396C118.71 17.9182 118.199 17.5161 117.607 17.2837C117.014 17.0512 116.366 16.9988 115.744 17.1328C115.122 17.2668 114.552 17.5813 114.108 18.037C113.664 18.4928 113.364 19.0696 113.245 19.695C113.127 20.3205 113.196 20.967 113.443 21.5536C113.691 22.1401 114.105 22.6406 114.636 22.9926C115.166 23.3446 115.789 23.5322 116.425 23.5322C116.862 23.552 117.299 23.4789 117.706 23.3181C118.113 23.1572 118.481 22.912 118.786 22.5988C119.092 22.2854 119.328 21.9112 119.478 21.5002C119.629 21.0894 119.691 20.6513 119.66 20.2149Z" fill="#71779B"/>
<path d="M136.319 22.9328C136.319 26.0595 133.6 27.3915 130.664 27.3915C129.478 27.4988 128.287 27.2478 127.245 26.6708C126.204 26.094 125.359 25.2178 124.82 24.1555L128.354 22.1448C128.497 22.6359 128.805 23.0627 129.226 23.3539C129.646 23.6451 130.154 23.7831 130.664 23.7448C131.643 23.7448 132.131 23.4448 132.131 22.9022C132.131 21.4062 125.444 22.1955 125.444 17.4915C125.444 14.5288 127.944 13.0342 130.778 13.0342C131.84 13.0008 132.893 13.253 133.824 13.7644C134.758 14.2759 135.535 15.0279 136.078 15.9422L132.599 17.8182C132.447 17.4614 132.193 17.1572 131.869 16.9439C131.545 16.7304 131.166 16.6172 130.778 16.6182C130.071 16.6182 129.636 16.8848 129.636 17.3795C129.632 18.9395 136.319 17.9062 136.319 22.9328Z" fill="#71779B"/>
<path d="M151.224 13.4219V27.0139H147.146V25.7339C146.676 26.2977 146.077 26.742 145.401 27.0304C144.726 27.3187 143.992 27.4428 143.258 27.3925C140.513 27.3925 138.176 25.4352 138.176 21.7645V13.4219H142.253V21.1699C142.218 21.4939 142.256 21.8215 142.361 22.1297C142.466 22.438 142.637 22.7197 142.862 22.9552C143.088 23.1907 143.361 23.3741 143.664 23.4929C143.968 23.6119 144.293 23.6631 144.618 23.6432C146.113 23.6432 147.152 22.7739 147.152 20.8432V13.4219H151.224Z" fill="#71779B"/>
<path d="M174.595 18.6637V27.0104H170.518V19.0184C170.518 17.6597 169.864 16.7891 168.56 16.7891C167.2 16.7891 166.44 17.7411 166.44 19.3451V27.0104H162.362V19.0184C162.362 17.6597 161.71 16.7891 160.404 16.7891C159.046 16.7891 158.284 17.7411 158.284 19.3451V27.0104H154.207V13.4184H158.291V14.6637C158.714 14.1092 159.268 13.6695 159.904 13.3845C160.54 13.0997 161.239 12.9789 161.934 13.0331C162.631 12.999 163.327 13.1462 163.951 13.4605C164.575 13.7748 165.107 14.2453 165.495 14.8264C165.947 14.2185 166.546 13.7351 167.235 13.4215C167.924 13.1078 168.683 12.9742 169.438 13.0331C172.558 13.0384 174.595 15.2664 174.595 18.6637Z" fill="#71779B"/>
<path d="M178.05 13.3346C179.722 13.3346 181.077 11.9795 181.077 10.3079C181.077 8.63634 179.722 7.28125 178.05 7.28125C176.378 7.28125 175.023 8.63634 175.023 10.3079C175.023 11.9795 176.378 13.3346 178.05 13.3346Z" fill="#71779B"/>
<path d="M45.9688 7.16797H50.0474V27.012H45.9688V7.16797ZM52.3568 20.216C52.3524 18.791 52.7707 17.3967 53.5591 16.2098C54.3475 15.0227 55.4705 14.0963 56.7857 13.5479C58.101 12.9995 59.5493 12.8536 60.9475 13.1289C62.3457 13.4042 63.6307 14.088 64.6399 15.0942C65.6491 16.1002 66.3371 17.383 66.6167 18.7803C66.8963 20.1776 66.7551 21.6264 66.2109 22.9434C65.6666 24.2603 64.7438 25.3862 63.5593 26.1783C62.3747 26.9704 60.9818 27.3934 59.5567 27.3934C58.6103 27.4034 57.6714 27.2248 56.7947 26.868C55.9182 26.5112 55.1214 25.9832 54.4512 25.3151C53.7808 24.6468 53.2503 23.8518 52.8907 22.9763C52.5311 22.1008 52.3497 21.1624 52.3568 20.216ZM62.6874 20.216C62.6714 19.6012 62.4746 19.005 62.1214 18.5016C61.7683 17.9983 61.2746 17.6102 60.7021 17.3859C60.1294 17.1618 59.5035 17.1112 58.9025 17.241C58.3014 17.3706 57.7519 17.6747 57.3227 18.115C56.8935 18.5554 56.6038 19.1124 56.4895 19.7166C56.3754 20.3208 56.4418 20.9452 56.6807 21.5119C56.9195 22.0784 57.3202 22.562 57.8325 22.9022C58.3447 23.2423 58.9459 23.4238 59.5607 23.424C59.9818 23.436 60.4009 23.3606 60.7913 23.2026C61.1818 23.0447 61.5353 22.8075 61.8295 22.506C62.1238 22.2047 62.3525 21.8456 62.501 21.4515C62.6495 21.0572 62.7149 20.6366 62.6927 20.216H62.6874ZM83.0194 13.416V26.3294C83.0194 30.896 79.4581 32.8254 75.8434 32.8254C74.5711 32.9214 73.2969 32.6652 72.1603 32.085C71.0239 31.5048 70.0691 30.6228 69.4007 29.536L72.8794 27.524C73.1602 28.0912 73.6075 28.5592 74.1615 28.8655C74.7155 29.1716 75.3497 29.3014 75.9794 29.2374C76.3814 29.2922 76.7905 29.2562 77.1766 29.1318C77.5627 29.0074 77.9159 28.798 78.2103 28.5188C78.5046 28.2398 78.7325 27.8982 78.8771 27.5191C79.0218 27.1402 79.0795 26.7335 79.0461 26.3294V25.0787C78.5685 25.6627 77.9606 26.1267 77.2714 26.4335C76.5821 26.7403 75.8305 26.8814 75.0767 26.8454C73.2827 26.7895 71.5807 26.0376 70.3314 24.7488C69.0821 23.46 68.3834 21.7356 68.3834 19.9407C68.3834 18.1456 69.0821 16.4212 70.3314 15.1324C71.5807 13.8436 73.2827 13.0917 75.0767 13.036C75.8305 12.9999 76.5821 13.1409 77.2714 13.4478C77.9606 13.7546 78.5685 14.2186 79.0461 14.8027V13.416H83.0194ZM79.0514 19.94C79.0784 19.2835 78.9082 18.634 78.563 18.075C78.2178 17.5159 77.7133 17.0728 77.1142 16.8028C76.5153 16.5328 75.8491 16.4482 75.2017 16.5598C74.5542 16.6714 73.9549 16.974 73.4807 17.429C73.0066 17.8839 72.6794 18.4702 72.5413 19.1124C72.403 19.7548 72.4601 20.4238 72.7051 21.0335C72.9501 21.6431 73.3719 22.1655 73.9162 22.5335C74.4605 22.9015 75.1025 23.0983 75.7594 23.0987C76.1878 23.1287 76.6178 23.0688 77.0217 22.9228C77.4255 22.7768 77.7943 22.5479 78.1045 22.2507C78.4145 21.9536 78.659 21.5948 78.8221 21.1976C78.9851 20.8003 79.0633 20.3732 79.0514 19.944V19.94ZM85.3287 20.2067C85.3243 18.7816 85.7427 17.3874 86.5311 16.2004C87.3195 15.0134 88.4425 14.087 89.7577 13.5386C91.073 12.9901 92.5213 12.8443 93.9195 13.1196C95.3177 13.3948 96.6026 14.0787 97.6119 15.0848C98.6211 16.0908 99.3091 17.3736 99.5887 18.771C99.8683 20.1683 99.7271 21.6171 99.1829 22.934C98.6386 24.251 97.7158 25.3768 96.5313 26.169C95.3467 26.9611 93.9538 27.384 92.5287 27.384C91.5831 27.394 90.645 27.2158 89.769 26.8595C88.893 26.5034 88.0966 25.9762 87.4265 25.309C86.7562 24.6418 86.2257 23.8479 85.8655 22.9734C85.5053 22.099 85.3229 21.1616 85.3287 20.216V20.2067ZM95.6594 20.2067C95.6437 19.5916 95.4469 18.9948 95.0938 18.491C94.7406 17.9872 94.2466 17.5988 93.6738 17.3743C93.1009 17.1498 92.4746 17.0992 91.8731 17.229C91.2717 17.3586 90.7218 17.6628 90.2925 18.1034C89.863 18.544 89.573 19.1015 89.4589 19.706C89.3446 20.3106 89.4113 20.9355 89.6503 21.5023C89.8895 22.0692 90.2905 22.553 90.8032 22.8932C91.3159 23.2334 91.9175 23.4147 92.5327 23.4147C92.9526 23.4258 93.3701 23.3502 93.7593 23.1924C94.1485 23.0347 94.5009 22.7982 94.7945 22.4979C95.0879 22.1976 95.3163 21.8399 95.4651 21.4472C95.6141 21.0546 95.6802 20.6354 95.6594 20.216V20.2067Z" fill="#71779B"/>
</svg>
