<svg width="131" height="30" viewBox="0 0 131 30" fill="none" xmlns="http://www.w3.org/2000/svg">
<g clip-path="url(#clip0_159_4217)">
<path fill-rule="evenodd" clip-rule="evenodd" d="M11.957 20.8666C10.9846 20.8666 10.0519 20.4803 9.36431 19.7926C8.67667 19.105 8.29037 18.1724 8.29037 17.1999V0.333252H0.957031V17.1999C0.957031 23.2749 5.8821 28.1999 11.957 28.1999H20.0237V20.8666H11.957ZM33.957 7.66658C33.0903 7.66658 32.2321 7.8373 31.4313 8.16898C30.6306 8.50066 29.903 8.98681 29.2901 9.59968C28.6773 10.2125 28.1911 10.9401 27.8594 11.7409C27.5277 12.5416 27.357 13.3999 27.357 14.2666C27.357 15.1333 27.5277 15.9915 27.8594 16.7923C28.1911 17.593 28.6773 18.3206 29.2901 18.9335C29.903 19.5464 30.6306 20.0325 31.4313 20.3642C32.2321 20.6959 33.0903 20.8666 33.957 20.8666C35.7075 20.8666 37.3862 20.1712 38.6239 18.9335C39.8617 17.6957 40.557 16.017 40.557 14.2666C40.557 12.5162 39.8617 10.8374 38.6239 9.59968C37.3862 8.36194 35.7075 7.66658 33.957 7.66658ZM20.0237 14.2666C20.0237 6.57172 26.2622 0.333252 33.957 0.333252C41.6519 0.333252 47.8904 6.57172 47.8904 14.2666C47.8904 21.9615 41.6519 28.1999 33.957 28.1999C26.2622 28.1999 20.0237 21.9615 20.0237 14.2666ZM113.157 7.66658C111.407 7.66658 109.728 8.36194 108.49 9.59968C107.252 10.8374 106.557 12.5162 106.557 14.2666C106.557 16.017 107.252 17.6957 108.49 18.9335C109.728 20.1712 111.407 20.8666 113.157 20.8666C114.907 20.8666 116.586 20.1712 117.824 18.9335C119.062 17.6957 119.757 16.017 119.757 14.2666C119.757 12.5162 119.062 10.8374 117.824 9.59968C116.586 8.36194 114.907 7.66658 113.157 7.66658ZM99.2237 14.2666C99.2237 6.57172 105.462 0.333252 113.157 0.333252C120.852 0.333252 127.09 6.57172 127.09 14.2666C127.09 21.9615 120.852 28.1999 113.157 28.1999C105.462 28.1999 99.2237 21.9615 99.2237 14.2666ZM63.2904 0.333252C55.5955 0.333252 49.357 6.57172 49.357 14.2666C49.357 21.9615 55.5955 28.1999 63.2904 28.1999H83.8237C85.2676 28.1999 86.6602 27.9799 87.97 27.5722L91.8904 29.6666L96.1202 21.7437C97.1947 19.7267 97.7568 17.4766 97.757 15.1913V14.2666C97.757 6.57172 91.5186 0.333252 83.8237 0.333252H63.2904ZM90.4237 14.2666C90.4237 12.5162 89.7283 10.8374 88.4906 9.59968C87.2529 8.36194 85.5741 7.66658 83.8237 7.66658H63.2904C62.4236 7.66658 61.5654 7.8373 60.7647 8.16898C59.9639 8.50066 59.2363 8.98681 58.6235 9.59968C58.0106 10.2125 57.5244 10.9401 57.1928 11.7409C56.8611 12.5416 56.6904 13.3999 56.6904 14.2666C56.6904 15.1333 56.8611 15.9915 57.1928 16.7923C57.5244 17.593 58.0106 18.3206 58.6235 18.9335C59.2363 19.5464 59.9639 20.0325 60.7647 20.3642C61.5654 20.6959 62.4236 20.8666 63.2904 20.8666H83.8237C85.5653 20.8666 87.2363 20.1783 88.4726 18.9517C89.7088 17.725 90.4102 16.0594 90.4237 14.3179V14.2666Z" fill="#71779B"/>
<path d="M130.026 2.16659C130.026 2.65282 129.833 3.11913 129.489 3.46295C129.145 3.80676 128.679 3.99992 128.193 3.99992C127.706 3.99992 127.24 3.80676 126.896 3.46295C126.553 3.11913 126.359 2.65282 126.359 2.16659C126.359 1.68035 126.553 1.21404 126.896 0.870223C127.24 0.526406 127.706 0.333252 128.193 0.333252C128.679 0.333252 129.145 0.526406 129.489 0.870223C129.833 1.21404 130.026 1.68035 130.026 2.16659Z" fill="#71779B"/>
</g>
<defs>
<clipPath id="clip0_159_4217">
<rect width="129.067" height="29.3333" fill="white" transform="translate(0.957031 0.333252)"/>
</clipPath>
</defs>
</svg>
