<svg width="69" height="54" viewBox="0 0 69 54" fill="none" xmlns="http://www.w3.org/2000/svg">
<g clip-path="url(#clip0_2014_815)">
<path d="M60.9775 48.9163C61.9355 48.9163 62.4543 49.6281 62.4543 50.5086V52.1794H61.8124V50.6123C61.8124 50.0363 61.5282 49.5311 60.9319 49.5311C60.3559 49.5311 60.065 50.016 60.065 50.5997V52.1794H59.424V50.5988C59.424 50.0169 59.1331 49.5311 58.5425 49.5311C57.9472 49.5311 57.6815 50.0354 57.6815 50.6123V52.1794H57.0415V50.5154C57.0415 49.6281 57.5457 48.9154 58.4979 48.9154C59.1321 48.9154 59.5918 49.2392 59.7537 49.7319C59.9282 49.2392 60.3753 48.9163 60.9775 48.9163ZM54.7859 51.6354C55.3745 51.6354 55.6984 51.1234 55.6984 50.5348V49.0065H56.3394V50.6123C56.3394 51.5316 55.7828 52.2569 54.7859 52.2569C53.8017 52.2569 53.2441 51.5248 53.2441 50.6055V49.0065H53.8851V50.5415C53.8851 51.1234 54.2032 51.6354 54.7859 51.6354ZM51.4366 52.2502C50.847 52.2502 50.3942 52.0174 50.1469 51.5452L50.6395 51.2737C50.8015 51.5898 51.0604 51.7071 51.4104 51.7071C51.7731 51.7071 52.0514 51.5578 52.0514 51.2795C52.0514 50.6123 50.2322 51.1175 50.2322 49.9064C50.2322 49.3498 50.7239 48.9415 51.4172 48.9415C52.0058 48.9415 52.4073 49.2131 52.608 49.5825L52.1164 49.8618C51.9806 49.5825 51.7217 49.4855 51.4298 49.4855C51.1321 49.4855 50.8732 49.6407 50.8732 49.8928C50.8732 50.5415 52.6924 50.0683 52.6924 51.2659C52.6924 51.8681 52.1105 52.2502 51.4366 52.2502ZM47.0352 53.6359H46.3932V50.5862C46.3932 49.6407 47.1253 48.928 48.0834 48.928C48.3033 48.9246 48.5216 48.965 48.7257 49.0469C48.9298 49.1287 49.1156 49.2503 49.2722 49.4046C49.4289 49.5589 49.5533 49.7429 49.6382 49.9457C49.7231 50.1486 49.7668 50.3663 49.7668 50.5862C49.7668 51.5452 49.0744 52.2569 48.1086 52.2569C47.6819 52.2569 47.2941 52.0688 47.0342 51.7847V53.6368L47.0352 53.6359ZM48.0834 51.6548C48.673 51.6548 49.1258 51.1699 49.1258 50.5929C49.1258 50.0102 48.673 49.5379 48.0834 49.5379C47.488 49.5379 47.0352 50.0102 47.0352 50.5929C47.0352 51.1689 47.488 51.6548 48.0834 51.6548ZM44.9028 49.0065H45.5428V52.1794H44.9028V49.0065ZM53.5496 46.111C48.6516 46.111 44.9154 42.3437 44.9154 37.759C44.9154 33.2072 48.6516 29.439 53.5496 29.439C58.4465 29.439 62.1838 33.2072 62.1838 37.759C62.1838 42.3437 58.4475 46.111 53.5496 46.111ZM53.5496 40.8048C55.3387 40.8048 56.5324 39.423 56.5324 37.791C56.5324 36.127 55.3396 34.7452 53.5496 34.7452C51.7595 34.7452 50.5668 36.127 50.5668 37.79C50.5668 39.423 51.7595 40.8048 53.5496 40.8048ZM34.2439 53.3323C30.3505 53.3323 27.5239 51.6063 26.08 48.5285L30.7588 46.0169C31.2611 47.0836 32.2036 48.1832 34.1498 48.1832C36.1901 48.1832 37.5408 46.8955 37.6979 44.6351C36.9435 45.2945 35.7508 45.7968 33.9617 45.7968C29.5971 45.7968 26.08 42.4378 26.08 37.728C26.08 33.1752 29.8172 29.471 34.7151 29.471C39.7382 29.471 43.3493 32.9561 43.3493 37.759V43.9757C43.3493 49.6271 39.424 53.3323 34.2439 53.3323ZM34.6201 40.4906C36.3161 40.4906 37.6029 39.3289 37.6029 37.6019C37.6029 35.9069 36.3161 34.7762 34.6201 34.7762C32.9561 34.7762 31.6383 35.9069 31.6383 37.6019C31.6383 39.3289 32.9571 40.4906 34.6201 40.4906ZM16.4936 46.111C11.5956 46.111 7.85939 42.3437 7.85939 37.759C7.85939 33.2072 11.5956 29.439 16.4936 29.439C21.3905 29.439 25.1278 33.2072 25.1278 37.759C25.1278 42.3437 21.3915 46.111 16.4936 46.111ZM16.4936 40.8048C18.2827 40.8048 19.4764 39.423 19.4764 37.791C19.4764 36.127 18.2836 34.7452 16.4936 34.7452C14.7035 34.7452 13.5108 36.127 13.5108 37.79C13.5108 39.423 14.7035 40.8048 16.4936 40.8048ZM0 22.72H5.65139V45.6397H0V22.72ZM68.5905 31.3648C68.5905 31.8792 68.3862 32.3725 68.0225 32.7362C67.6588 33.0999 67.1655 33.3042 66.6512 33.3042C66.1368 33.3042 65.6435 33.0999 65.2798 32.7362C64.9161 32.3725 64.7118 31.8792 64.7118 31.3648C64.7118 30.8505 64.9161 30.3572 65.2798 29.9935C65.6435 29.6298 66.1368 29.4254 66.6512 29.4254C67.1655 29.4254 67.6588 29.6298 68.0225 29.9935C68.3862 30.3572 68.5905 30.8505 68.5905 31.3648Z" fill="#71779B"/>
<path fill-rule="evenodd" clip-rule="evenodd" d="M53.1313 9.70685C58.7035 15.279 62.0237 22.7112 62.4559 30.5796C60.8095 28.6527 58.573 27.3234 56.0937 26.7978C54.9639 21.5762 52.2637 16.8253 48.3558 13.1827C44.4478 9.54009 39.519 7.18016 34.231 6.41969C28.9431 5.65921 23.549 6.53459 18.7729 8.92832C13.9969 11.3221 10.0674 15.1196 7.5119 19.8111H1.05469C3.1041 14.9915 6.3051 10.7486 10.3768 7.45474C14.4485 4.16085 19.2664 1.91666 24.4077 0.919104C29.549 -0.0784483 34.8566 0.20113 39.8647 1.73331C44.8727 3.26548 49.4282 6.00342 53.1313 9.70685Z" fill="#71779B"/>
<path fill-rule="evenodd" clip-rule="evenodd" d="M49.0138 13.8222C52.57 17.3783 55.0269 21.8833 56.0906 26.7987C55.2741 26.6241 54.4227 26.531 53.5481 26.531C52.365 26.531 51.2266 26.6998 50.157 27.0149C48.9645 22.6039 46.323 18.7222 42.6574 15.9941C38.9918 13.266 34.5151 11.85 29.9474 11.9741C25.3797 12.0981 20.9865 13.7548 17.4743 16.6778C13.9621 19.6008 11.5351 23.6201 10.5837 28.0893C9.85646 28.5078 9.17747 29.0051 8.55896 29.572V19.812H7.50781C9.45504 16.237 12.2091 13.1653 15.5512 10.8409C18.8933 8.51649 22.7314 7.00348 26.7606 6.42201C30.7898 5.84055 34.8991 6.20666 38.7621 7.49127C42.625 8.77588 46.1352 10.9436 49.0138 13.8222Z" fill="#71779B"/>
<path d="M44.9022 30.2852C44.4563 27.1479 42.9982 24.2421 40.7494 22.0096C38.5007 19.7771 35.5845 18.3399 32.4441 17.9167C29.3037 17.4935 26.1111 18.1074 23.3516 19.665C20.5921 21.2226 18.4167 23.6387 17.1562 26.546C20.6084 26.7322 23.6241 28.3623 25.6004 30.8233C27.7066 28.2149 30.9948 26.5606 34.7146 26.5606C38.7 26.5606 42.125 28.308 44.1856 31.155C44.4096 30.8534 44.6491 30.5635 44.9022 30.2852Z" fill="#71779B"/>
<path fill-rule="evenodd" clip-rule="evenodd" d="M50.1583 27.0152C48.1399 27.6047 46.322 28.7367 44.9025 30.2879C44.4563 27.151 42.9981 24.2456 40.7494 22.0134C38.5008 19.7812 35.5848 18.3443 32.4447 17.9211C29.3047 17.498 26.1123 18.1117 23.353 19.6689C20.5937 21.2262 18.4183 23.6419 17.1576 26.5488C16.9367 26.537 16.7155 26.5312 16.4943 26.5313C14.3251 26.5313 12.3081 27.0995 10.5859 28.0896C11.5381 23.621 13.9655 19.6025 17.4776 16.6801C20.9897 13.7578 25.3825 12.1015 29.9497 11.9775C34.517 11.8535 38.9932 13.269 42.6587 15.9965C46.3242 18.7239 48.966 22.6048 50.1593 27.0152H50.1583Z" fill="#71779B"/>
</g>
<defs>
<clipPath id="clip0_2014_815">
<rect width="68.8485" height="53.3333" fill="white" transform="translate(0 0.333252)"/>
</clipPath>
</defs>
</svg>
