<svg width="113" height="43" viewBox="0 0 113 43" fill="none" xmlns="http://www.w3.org/2000/svg">
<g clip-path="url(#clip0_2014_802)">
<path d="M51.3672 37.5841H54.2839V26.5822H51.3672V37.5841ZM51.3672 24.8664H54.2839V22.25H51.3672V24.8664Z" fill="#71779B"/>
<path d="M56.1641 41.1903H59.0808V36.3435H59.1237C59.7456 37.2871 60.7536 37.9091 62.2977 37.9091C65.1286 37.9091 67.0588 35.6572 67.0588 32.0971C67.0588 28.6656 65.193 26.2852 62.2763 26.2852C60.775 26.2852 59.7456 26.9929 59.0379 27.9579H58.9736V26.5854H56.1641V41.1903ZM61.6758 35.4856C59.9387 35.4856 59.0164 34.1774 59.0164 32.1829C59.0164 30.2099 59.7456 28.6442 61.5685 28.6442C63.37 28.6442 64.0992 30.1025 64.0992 32.1829C64.0992 34.2632 63.1556 35.4856 61.6758 35.4856Z" fill="#71779B"/>
<path d="M72.8777 37.9091C75.6227 37.9091 77.51 36.5793 77.51 34.3704C77.51 31.7968 75.4727 31.2822 73.6283 30.8961C72.0626 30.5744 70.6043 30.4886 70.6043 29.545C70.6043 28.7515 71.3549 28.3225 72.4916 28.3225C73.7355 28.3225 74.4861 28.7515 74.6147 29.931H77.2527C77.0382 27.7221 75.4298 26.2852 72.5345 26.2852C70.0253 26.2852 68.0522 27.4218 68.0522 29.8023C68.0522 32.2043 69.9824 32.7405 71.9554 33.1265C73.4567 33.4267 74.8507 33.534 74.8507 34.5849C74.8507 35.3569 74.1215 35.8502 72.8347 35.8502C71.5265 35.8502 70.6257 35.2926 70.4328 34.0272H67.7305C67.9021 36.3649 69.6821 37.9091 72.8777 37.9091Z" fill="#71779B"/>
<path d="M88.5821 37.5839V26.582H85.6654V32.9301C85.6654 34.3884 84.8291 35.4179 83.4565 35.4179C82.2126 35.4179 81.6335 34.7101 81.6335 33.4233V26.582H78.7383V33.9166C78.7383 36.3186 80.1109 37.8842 82.5558 37.8842C84.0999 37.8842 84.9577 37.3051 85.7084 36.2971H85.7727V37.5839H88.5821Z" fill="#71779B"/>
<path d="M90.4727 37.5873H93.3895V31.1963C93.3895 29.738 94.1829 28.7944 95.3625 28.7944C96.4348 28.7944 97.0568 29.4377 97.0568 30.6816V37.5873H99.9735V31.1963C99.9735 29.738 100.724 28.7944 101.946 28.7944C103.019 28.7944 103.641 29.4377 103.641 30.6816V37.5873H106.557V30.1884C106.557 27.7864 105.249 26.2852 102.933 26.2852C101.539 26.2852 100.381 27.0143 99.6303 28.2153H99.5874C99.0512 27.0572 97.936 26.2852 96.542 26.2852C95.0193 26.2852 93.947 27.0572 93.3465 28.0652H93.2822V26.5854H90.4727V37.5873Z" fill="#71779B"/>
<path d="M51.4102 18.7403H54.3268V3.40625H51.4102V18.7403Z" fill="#71779B"/>
<path d="M61.4586 19.0614C64.8686 19.0614 67.2062 16.5307 67.2062 13.2494C67.2062 9.96816 64.8686 7.4375 61.4586 7.4375C58.0486 7.4375 55.7109 9.96816 55.7109 13.2494C55.7109 16.5307 58.0486 19.0614 61.4586 19.0614ZM61.4586 16.831C59.6571 16.831 58.6706 15.3941 58.6706 13.2494C58.6706 11.1048 59.6571 9.64647 61.4586 9.64647C63.2386 9.64647 64.2466 11.1048 64.2466 13.2494C64.2466 15.3941 63.2386 16.831 61.4586 16.831Z" fill="#71779B"/>
<path d="M73.4104 22.4928C75.0404 22.4928 76.4558 22.1068 77.378 21.2489C78.1929 20.4983 78.6862 19.4474 78.6862 17.9033V7.73775H75.8767V8.89585H75.8338C75.169 7.97365 74.161 7.4375 72.7884 7.4375C70.0005 7.4375 68.0273 9.53924 68.0273 12.8205C68.0273 16.1447 70.4294 18.0748 72.8743 18.0748C74.2683 18.0748 75.1047 17.5173 75.7481 16.7881H75.8124V17.9891C75.8124 19.4903 75.0189 20.2838 73.3675 20.2838C72.0164 20.2838 71.3945 19.7477 71.1585 19.0614H68.2633C68.5636 21.206 70.4079 22.4928 73.4104 22.4928ZM73.3675 15.7372C71.8663 15.7372 70.8797 14.6435 70.8797 12.7776C70.8797 10.9333 71.8663 9.77514 73.3461 9.77514C75.1047 9.77514 75.9625 11.1477 75.9625 12.7562C75.9625 14.3861 75.2119 15.7372 73.3675 15.7372Z" fill="#71779B"/>
<path d="M85.775 19.0614C89.1849 19.0614 91.5226 16.5307 91.5226 13.2494C91.5226 9.96816 89.1849 7.4375 85.775 7.4375C82.3651 7.4375 80.0273 9.96816 80.0273 13.2494C80.0273 16.5307 82.3651 19.0614 85.775 19.0614ZM85.775 16.831C83.9735 16.831 82.9869 15.3941 82.9869 13.2494C82.9869 11.1048 83.9735 9.64647 85.775 9.64647C87.555 9.64647 88.563 11.1048 88.563 13.2494C88.563 15.3941 87.555 16.831 85.775 16.831Z" fill="#71779B"/>
<path d="M94.082 14.5405H106.692V12.0312H94.082V14.5405Z" fill="#71779B"/>
<path d="M107.617 24.714C107.617 24.2204 108.017 23.8203 108.511 23.8203H110.298C110.792 23.8203 111.192 24.2204 111.192 24.714C111.192 25.2074 110.792 25.6075 110.298 25.6075H108.511C108.017 25.6075 107.617 25.2074 107.617 24.714Z" fill="#71779B"/>
<path fill-rule="evenodd" clip-rule="evenodd" d="M21.9154 0C33.6974 0 43.2487 9.55125 43.2487 21.3333C43.2487 33.1154 33.6974 42.6667 21.9154 42.6667C10.1333 42.6667 0.582031 33.1154 0.582031 21.3333C0.582031 9.55125 10.1333 0 21.9154 0ZM21.1443 1.59636C18.7106 1.93887 16.3931 3.89449 14.5942 7.16523C14.0724 8.11395 13.6015 9.16209 13.1912 10.2938C15.6373 9.67911 18.3243 9.31671 21.1443 9.26066V1.59636ZM11.3882 10.8062C11.8984 9.20489 12.5226 7.73163 13.2429 6.42203C14.1347 4.80063 15.193 3.40048 16.3854 2.32509C9.90128 4.20825 4.79027 9.31924 2.90712 15.8034C3.98251 14.611 5.38267 13.5526 7.00406 12.6609C8.31366 11.9406 9.78691 11.3164 11.3882 10.8062ZM10.8758 12.6092C10.2611 15.0553 9.89875 17.7423 9.8427 20.5622H2.17839C2.5209 18.1284 4.47652 15.811 7.74726 14.0122C8.69599 13.4903 9.74413 13.0195 10.8758 12.6092ZM11.3852 20.5622C11.4489 17.4848 11.8919 14.5956 12.6249 12.0429C15.1777 11.3099 18.0669 10.8668 21.1443 10.8031V14.1342C19.9962 17.0733 17.6547 19.4146 14.7155 20.5622H11.3852ZM9.8427 22.1044H2.17839C2.5209 24.5382 4.47652 26.8556 7.74726 28.6545C8.69599 29.1763 9.74413 29.6471 10.8758 30.0575C10.2611 27.6114 9.89875 24.9244 9.8427 22.1044ZM12.6249 30.6238C11.8919 28.071 11.4489 25.1819 11.3852 22.1044H14.7155C17.6547 23.2521 19.9963 25.5934 21.1443 28.5325V31.8636C18.0669 31.7999 15.1777 31.3568 12.6249 30.6238ZM11.3882 31.8605C9.78691 31.3503 8.31366 30.7261 7.00406 30.0058C5.38267 29.114 3.98251 28.0557 2.90712 26.8633C4.79027 33.3474 9.90128 38.4585 16.3854 40.3415C15.193 39.2661 14.1347 37.866 13.2429 36.2446C12.5226 34.935 11.8984 33.4618 11.3882 31.8605ZM21.1443 41.0703C18.7106 40.7278 16.3931 38.7722 14.5942 35.5014C14.0724 34.5527 13.6015 33.5045 13.1912 32.3729C15.6373 32.9875 18.3243 33.35 21.1443 33.406V41.0703ZM27.4453 40.3415C28.6377 39.2661 29.6961 37.866 30.5879 36.2446C31.3081 34.935 31.9323 33.4618 32.4425 31.8605C34.0438 31.3503 35.5171 30.7261 36.8267 30.0058C38.4481 29.114 39.8483 28.0557 40.9236 26.8633C39.0405 33.3474 33.9294 38.4585 27.4453 40.3415ZM30.6395 32.3729C30.2292 33.5045 29.7583 34.5527 29.2365 35.5014C27.4377 38.7722 25.1203 40.7278 22.6865 41.0703V33.406C25.5064 33.35 28.1934 32.9875 30.6395 32.3729ZM32.9549 30.0575C34.0866 29.6471 35.1348 29.1763 36.0835 28.6545C39.3542 26.8556 41.3098 24.5382 41.6523 22.1044H33.988C33.932 24.9244 33.5695 27.6114 32.9549 30.0575ZM32.4456 22.1044C32.3819 25.1819 31.9388 28.071 31.2058 30.6238C28.6531 31.3568 25.7639 31.7999 22.6865 31.8636V28.5349C23.8341 25.5948 26.1762 23.2524 29.1162 22.1044H32.4456ZM33.988 20.5622H41.6523C41.3098 18.1284 39.3542 15.811 36.0835 14.0122C35.1348 13.4903 34.0866 13.0195 32.9549 12.6092C33.5695 15.0553 33.932 17.7423 33.988 20.5622ZM31.2058 12.0429C31.9388 14.5956 32.3819 17.4848 32.4456 20.5622H29.1162C26.1762 19.4143 23.8341 17.0719 22.6865 14.1317V10.8031C25.7639 10.8668 28.6531 11.3099 31.2058 12.0429ZM32.4425 10.8062C34.0438 11.3164 35.5171 11.9406 36.8267 12.6609C38.4481 13.5526 39.8483 14.611 40.9236 15.8034C39.0405 9.31924 33.9294 4.20825 27.4453 2.32509C28.6377 3.40048 29.6961 4.80063 30.5879 6.42203C31.3081 7.73163 31.9323 9.20489 32.4425 10.8062ZM22.6865 1.59636C25.1203 1.93887 27.4377 3.89449 29.2365 7.16523C29.7583 8.11396 30.2292 9.16209 30.6395 10.2938C28.1934 9.67911 25.5064 9.31671 22.6865 9.26066V1.59636Z" fill="#71779B"/>
</g>
<defs>
<clipPath id="clip0_2014_802">
<rect width="112" height="42.6667" fill="white" transform="translate(0.0234375)"/>
</clipPath>
</defs>
</svg>
