<svg width="177" height="32" viewBox="0 0 177 32" fill="none" xmlns="http://www.w3.org/2000/svg">
<g clip-path="url(#clip0_159_4213)">
<path d="M16.9574 32C25.7942 32 32.9574 24.8368 32.9574 16V4.8C32.9574 3.52696 32.4517 2.30606 31.5515 1.40589C30.6513 0.505713 29.4304 0 28.1574 0L17.7574 0V7.0192C17.7574 8.6208 17.855 10.28 18.695 11.6432C19.2963 12.6202 20.1008 13.4564 21.0538 14.095C22.0067 14.7337 23.0859 15.1599 24.2182 15.3448L24.5246 15.3944C24.6509 15.4376 24.7605 15.5192 24.8382 15.6278C24.9158 15.7364 24.9576 15.8665 24.9576 16C24.9576 16.1335 24.9158 16.2636 24.8382 16.3722C24.7605 16.4808 24.6509 16.5624 24.5246 16.6056L24.2182 16.6552C22.5639 16.9254 21.0363 17.7085 19.8511 18.8937C18.6658 20.0789 17.8828 21.6065 17.6126 23.2608L17.563 23.5672C17.5198 23.6935 17.4382 23.8032 17.3296 23.8808C17.221 23.9585 17.0909 24.0002 16.9574 24.0002C16.8239 24.0002 16.6937 23.9585 16.5851 23.8808C16.4765 23.8032 16.3949 23.6935 16.3518 23.5672L16.3022 23.2608C16.1173 22.1286 15.691 21.0494 15.0523 20.0964C14.4137 19.1435 13.5775 18.339 12.6006 17.7376C11.2374 16.8976 9.57816 16.8 7.97656 16.8H0.976562C1.39496 25.2648 8.38936 32 16.9574 32Z" fill="#71779B"/>
<path d="M0.957031 15.2H7.97623C9.57783 15.2 11.237 15.1024 12.6002 14.2624C13.6658 13.6058 14.5629 12.7088 15.2194 11.6432C16.0594 10.28 16.157 8.6208 16.157 7.0192V0H5.75703C4.48399 0 3.26309 0.505713 2.36292 1.40589C1.46274 2.30606 0.957031 3.52696 0.957031 4.8L0.957031 15.2ZM38.121 1.6C38.121 2.02435 37.9525 2.43131 37.6524 2.73137C37.3523 3.03143 36.9454 3.2 36.521 3.2C36.0967 3.2 35.6897 3.03143 35.3897 2.73137C35.0896 2.43131 34.921 2.02435 34.921 1.6C34.921 1.17565 35.0896 0.768687 35.3897 0.468629C35.6897 0.168571 36.0967 0 36.521 0C36.9454 0 37.3523 0.168571 37.6524 0.468629C37.9525 0.768687 38.121 1.17565 38.121 1.6ZM170.326 9.6832C174.799 9.6832 176.957 12.8072 176.957 16.4256V23.2216H172.276V17.232C172.276 15.592 171.678 14.2384 169.962 14.2384C168.246 14.2384 167.674 15.592 167.674 17.232V23.2208H162.993V17.232C162.993 15.592 162.421 14.2384 160.704 14.2384C158.988 14.2384 158.39 15.592 158.39 17.232V23.2208H153.71V16.4248C153.71 12.8064 155.867 9.6824 160.34 9.6824C162.785 9.6824 164.553 10.6456 165.359 12.2336C166.217 10.6456 168.09 9.6816 170.326 9.6816V9.6832ZM145.299 19.056C146.807 19.056 147.457 17.676 147.457 16.0352V10.2032H152.137V16.608C152.137 20.4352 149.901 23.612 145.299 23.612C140.695 23.612 138.459 20.436 138.459 16.608V10.2032H143.14V16.0352C143.14 17.6752 143.79 19.056 145.299 19.056ZM131.577 23.6376C128.639 23.6376 126.74 22.6224 125.622 20.644L129.003 18.7432C129.471 19.576 130.172 19.9928 131.343 19.9928C132.305 19.9928 132.747 19.6544 132.747 19.2376C132.747 17.6496 125.882 19.264 125.882 14.2136C125.882 11.7656 127.962 9.7872 131.499 9.7872C134.593 9.7872 136.283 11.2968 137.038 12.7552L133.657 14.6816C133.371 13.9008 132.487 13.432 131.603 13.432C130.927 13.432 130.563 13.7184 130.563 14.1088C130.563 15.7232 137.427 14.2392 137.427 19.1336C137.427 21.8672 134.749 23.6376 131.577 23.6376ZM115.223 29.2096H110.543V16.6864C110.543 12.7024 113.533 9.8128 117.694 9.8128C121.751 9.8128 124.845 12.9112 124.845 16.6864C124.845 20.852 122.088 23.612 117.954 23.612C116.991 23.612 116.03 23.3256 115.223 22.8824V29.2096ZM117.694 19.212C119.176 19.212 120.164 18.0664 120.164 16.712C120.164 15.3328 119.176 14.2128 117.694 14.2128C116.211 14.2128 115.223 15.3328 115.223 16.7128C115.223 18.0664 116.211 19.212 117.694 19.212ZM105.854 8.824C104.319 8.824 103.046 7.548 103.046 6.012C103.046 4.476 104.319 3.2 105.854 3.2C107.388 3.2 108.663 4.476 108.663 6.012C108.663 7.548 107.388 8.824 105.854 8.824ZM103.514 10.2032H108.195V23.2216H103.514V10.2032ZM94.533 23.612C90.4762 23.612 87.3818 20.488 87.3818 16.6864C87.3818 12.9112 90.4762 9.7872 94.533 9.7872C98.5898 9.7872 101.684 12.9112 101.684 16.6864C101.684 20.488 98.5898 23.612 94.533 23.612ZM94.533 19.212C96.0154 19.212 97.0034 18.0664 97.0034 16.712C97.0034 15.3328 96.0154 14.1872 94.533 14.1872C93.0506 14.1872 92.0626 15.3328 92.0626 16.712C92.0626 18.0664 93.0506 19.212 94.533 19.212ZM78.5434 29.6C75.3194 29.6 72.9786 28.168 71.7826 25.616L75.657 23.5336C76.073 24.4192 76.853 25.3304 78.465 25.3304C80.1562 25.3304 81.2738 24.2624 81.4042 22.388C80.7802 22.9352 79.7914 23.3512 78.3098 23.3512C74.6946 23.3512 71.7818 20.5656 71.7818 16.66C71.7818 12.8856 74.877 9.8128 78.9338 9.8128C83.0946 9.8128 86.085 12.7032 86.085 16.6864V21.8416C86.085 26.528 82.8338 29.6 78.5434 29.6ZM78.8554 18.952C80.2594 18.952 81.3258 17.988 81.3258 16.556C81.3258 15.1504 80.2602 14.2128 78.8554 14.2128C77.477 14.2128 76.385 15.1504 76.385 16.5568C76.385 17.9888 77.477 18.9512 78.8554 18.9512V18.952ZM63.8426 23.612C59.7858 23.612 56.6906 20.488 56.6906 16.6864C56.6906 12.9112 59.7858 9.7872 63.8426 9.7872C67.8986 9.7872 70.9938 12.9112 70.9938 16.6864C70.9938 20.488 67.8994 23.612 63.8426 23.612ZM63.8426 19.212C65.325 19.212 66.313 18.0664 66.313 16.712C66.313 15.3328 65.325 14.1872 63.8426 14.1872C62.3602 14.1872 61.3722 15.3328 61.3722 16.712C61.3722 18.0664 62.3602 19.212 63.8426 19.212ZM48.1674 5.648V18.7952H55.917V23.2216H47.517C44.553 23.2216 43.357 21.6592 43.357 19.1856V5.648H48.1674Z" fill="#71779B"/>
</g>
<defs>
<clipPath id="clip0_159_4213">
<rect width="176" height="32" fill="white" transform="translate(0.957031)"/>
</clipPath>
</defs>
</svg>
