<svg width="40" height="40" viewBox="0 0 40 40" fill="none" xmlns="http://www.w3.org/2000/svg">
<path d="M31.0255 33.3334H31.8425C33.7589 33.3334 35.2832 32.4602 36.6519 31.2394C40.1287 28.1377 31.9555 25 29.1654 25M25.832 8.44799C26.2105 8.37292 26.6035 8.33337 27.0067 8.33337C30.0399 8.33337 32.4987 10.572 32.4987 13.3334C32.4987 16.0948 30.0399 18.3334 27.0067 18.3334C26.6035 18.3334 26.2105 18.2939 25.832 18.2187" stroke="#09A8F7" stroke-width="3.5" stroke-linecap="round"/>
<path d="M7.46885 26.852C5.5039 27.905 0.351898 30.0552 3.4898 32.7457C5.02265 34.06 6.72985 35 8.8762 35H21.1238C23.2702 35 24.9773 34.06 26.5102 32.7457C29.6482 30.0552 24.4962 27.905 22.5312 26.852C17.9233 24.3827 12.0767 24.3827 7.46885 26.852Z" stroke="#09A8F7" stroke-width="3.5"/>
<path d="M21.6654 12.5C21.6654 16.1819 18.6805 19.1667 14.9987 19.1667C11.3168 19.1667 8.33203 16.1819 8.33203 12.5C8.33203 8.81814 11.3168 5.83337 14.9987 5.83337C18.6805 5.83337 21.6654 8.81814 21.6654 12.5Z" stroke="#09A8F7" stroke-width="3.5"/>
</svg>
