<svg width="40" height="40" viewBox="0 0 40 40" fill="none" xmlns="http://www.w3.org/2000/svg">
<path d="M30.4154 15C33.8449 15.1227 36.7569 17.6949 36.6632 21.1406C36.6414 21.9422 36.3309 22.933 35.7097 24.9147C34.215 29.684 31.703 33.8241 26.0757 34.8174C25.0412 35.0001 23.8772 35.0001 21.5492 35.0001H18.4482C16.1202 35.0001 14.9562 35.0001 13.9218 34.8174C8.29435 33.8241 5.78233 29.684 4.28763 24.9147C3.66656 22.933 3.35601 21.9422 3.33423 21.1406C3.24056 17.6949 6.15253 15.1227 9.58205 15" stroke="#09A8F7" stroke-width="3.5" stroke-linecap="round"/>
<path d="M19.9987 23.3333V5M19.9987 23.3333C18.8317 23.3333 16.6512 20.0095 15.832 19.1667M19.9987 23.3333C21.1657 23.3333 23.3462 20.0095 24.1654 19.1667" stroke="#09A8F7" stroke-width="3.5" stroke-linecap="round" stroke-linejoin="round"/>
</svg>
