<svg width="41" height="40" viewBox="0 0 41 40" fill="none" xmlns="http://www.w3.org/2000/svg">
<path d="M33.4153 18.3334V16.6667C33.4153 10.3813 33.4153 7.23862 31.4626 5.28599C29.51 3.33337 26.3673 3.33337 20.082 3.33337H18.4155C12.1301 3.33337 8.9874 3.33337 7.03478 5.28597C5.08217 7.23857 5.08213 10.3812 5.08208 16.6666L5.08203 23.3334C5.08197 29.6187 5.08195 32.7614 7.0345 34.714C8.98712 36.6665 12.1299 36.6667 18.4153 36.6667" stroke="#09A8F7" stroke-width="3.5" stroke-linecap="round" stroke-linejoin="round"/>
<path d="M12.582 11.6666H25.9153M12.582 20H25.9153" stroke="#09A8F7" stroke-width="3.5" stroke-linecap="round"/>
<path d="M22.582 34.7114V36.6667H24.5377C25.22 36.6667 25.5612 36.6667 25.8679 36.5397C26.1747 36.4125 26.4159 36.1714 26.8984 35.689L34.9377 27.649C35.3927 27.194 35.6202 26.9665 35.7419 26.7212C35.9734 26.2542 35.9734 25.706 35.7419 25.239C35.6202 24.9935 35.3927 24.766 34.9377 24.311C34.4825 23.856 34.255 23.6285 34.0095 23.5069C33.5425 23.2755 32.9942 23.2755 32.5272 23.5069C32.2819 23.6285 32.0542 23.856 31.5992 24.311L23.5599 32.351C23.0774 32.8334 22.8362 33.0745 22.7092 33.3812C22.582 33.688 22.582 34.029 22.582 34.7114Z" stroke="#09A8F7" stroke-width="3.5" stroke-linejoin="round"/>
</svg>
