<svg width="149" height="30" viewBox="0 0 149 30" fill="none" xmlns="http://www.w3.org/2000/svg">
<path d="M13.4 4.64999V0.399994H0V29.6H13.4V25.35C10.655 25.35 8.0224 24.2595 6.08144 22.3185C4.14044 20.3775 3.05 17.745 3.05 15C3.05 12.255 4.14044 9.6224 6.08144 7.68144C8.0224 5.74044 10.655 4.64999 13.4 4.64999Z" fill="#09A8F7"/>
<path d="M13.4004 4.64999V25.35C16.1454 25.35 18.778 24.2595 20.719 22.3185C22.66 20.3775 23.7504 17.745 23.7504 15C23.7504 12.255 22.66 9.6224 20.719 7.68144C18.778 5.74044 16.1454 4.64999 13.4004 4.64999Z" fill="#09A8F7"/>
<path d="M24.7773 25.5498V23.0068L34.9492 8.73335H24.75V5.17867H40.3359V7.73531L30.1641 21.9951H40.3633V25.5498H24.7773Z" fill="#1F2224"/>
<path d="M57.7817 25.5498L57.1097 19.7258L57.8657 17.5978L57.1097 15.4978L57.7817 9.61776H62.6257L61.7017 17.5978L62.6257 25.5498H57.7817ZM59.0137 17.5978C58.715 19.2778 58.1644 20.7524 57.3617 22.0218C56.5777 23.2724 55.579 24.2431 54.3657 24.9338C53.171 25.6244 51.827 25.9698 50.3337 25.9698C48.7844 25.9698 47.4124 25.6244 46.2177 24.9338C45.023 24.2244 44.0897 23.2444 43.4177 21.9938C42.7644 20.7244 42.4377 19.2591 42.4377 17.5978C42.4377 15.9178 42.7644 14.4524 43.4177 13.2018C44.0897 11.9324 45.023 10.9524 46.2177 10.2618C47.4124 9.55242 48.7844 9.19776 50.3337 9.19776C51.827 9.19776 53.171 9.54309 54.3657 10.2338C55.579 10.9244 56.587 11.9044 57.3897 13.1738C58.1924 14.4244 58.7337 15.8991 59.0137 17.5978ZM47.1697 17.5978C47.1697 18.5311 47.3564 19.3524 47.7297 20.0618C48.1217 20.7711 48.6537 21.3311 49.3257 21.7418C49.9977 22.1338 50.7724 22.3298 51.6497 22.3298C52.527 22.3298 53.3484 22.1338 54.1137 21.7418C54.8977 21.3311 55.5884 20.7711 56.1857 20.0618C56.783 19.3524 57.2497 18.5311 57.5857 17.5978C57.2497 16.6644 56.783 15.8431 56.1857 15.1338C55.5884 14.4058 54.8977 13.8458 54.1137 13.4538C53.3484 13.0431 52.527 12.8378 51.6497 12.8378C50.7724 12.8378 49.9977 13.0431 49.3257 13.4538C48.6537 13.8458 48.1217 14.4058 47.7297 15.1338C47.3564 15.8431 47.1697 16.6644 47.1697 17.5978Z" fill="#1F2224"/>
<path d="M65.2324 25.5498V10.2646H69.457V25.5498H65.2324ZM67.3379 8.30952C66.709 8.30952 66.1712 8.09989 65.7246 7.68062C65.278 7.26135 65.0547 6.75549 65.0547 6.16304C65.0547 5.57059 65.278 5.06929 65.7246 4.65913C66.1712 4.23986 66.709 4.03023 67.3379 4.03023C67.9759 4.03023 68.5182 4.23986 68.9648 4.65913C69.4115 5.06929 69.6348 5.57059 69.6348 6.16304C69.6348 6.75549 69.4115 7.26135 68.9648 7.68062C68.5182 8.09989 67.9759 8.30952 67.3379 8.30952Z" fill="#1F2224"/>
<path d="M84.6465 14.6259L80.7773 14.8584C80.6771 14.3753 80.4082 13.9606 79.9707 13.6142C79.5332 13.2587 78.9453 13.081 78.207 13.081C77.5508 13.081 76.9993 13.2177 76.5527 13.4912C76.1152 13.7646 75.8965 14.1292 75.8965 14.5849C75.8965 14.9495 76.0378 15.264 76.3203 15.5283C76.612 15.7835 77.1087 15.984 77.8105 16.1298L80.5859 16.6767C82.0716 16.9775 83.179 17.4651 83.9082 18.1396C84.6374 18.8141 85.002 19.7028 85.002 20.8056C85.002 21.8173 84.7103 22.7015 84.127 23.458C83.5436 24.2054 82.7415 24.7932 81.7207 25.2216C80.6999 25.6409 79.5286 25.8505 78.207 25.8505C76.1836 25.8505 74.5703 25.4267 73.3672 24.5791C72.1732 23.7314 71.4759 22.583 71.2754 21.1337L75.418 20.915C75.5547 21.5348 75.8646 22.0042 76.3477 22.3232C76.8307 22.6422 77.4505 22.8017 78.207 22.8017C78.9453 22.8017 79.5423 22.6559 79.998 22.3642C80.4629 22.0725 80.6953 21.7034 80.6953 21.2568C80.6953 20.5003 80.0391 19.9899 78.7266 19.7255L76.0879 19.1787C74.6022 18.8779 73.4948 18.3629 72.7656 17.6337C72.0365 16.9046 71.6719 15.9703 71.6719 14.831C71.6719 13.8466 71.9408 12.999 72.4785 12.288C73.0163 11.5771 73.7682 11.0302 74.7344 10.6474C75.7096 10.2646 76.849 10.0732 78.1523 10.0732C80.0846 10.0732 81.6022 10.4834 82.7051 11.3037C83.8171 12.1149 84.4642 13.2223 84.6465 14.6259Z" fill="#1F2224"/>
<path d="M94.8867 10.2646V13.4638H85.6855V10.2646H94.8867ZM87.7773 6.62788H92.002V20.8466C92.002 21.357 92.1159 21.7353 92.3438 21.9814C92.5716 22.2184 92.9362 22.3369 93.4375 22.3369C93.6016 22.3369 93.7839 22.3232 93.9844 22.2959C94.1849 22.2685 94.3581 22.2366 94.5039 22.2001L95.1738 25.372C94.709 25.5087 94.2578 25.609 93.8203 25.6728C93.3919 25.7366 92.9681 25.7685 92.5488 25.7685C91.0267 25.7685 89.8509 25.3903 89.0215 24.6337C88.1921 23.8681 87.7773 22.7926 87.7773 21.4072V6.62788Z" fill="#1F2224"/>
<path d="M106.38 25.9698C104.402 25.9698 102.666 25.6244 101.172 24.9338C99.6789 24.2244 98.5123 23.2444 97.6723 21.9938C96.8323 20.7244 96.4123 19.2591 96.4123 17.5978C96.4123 15.9178 96.8323 14.4524 97.6723 13.2018C98.5123 11.9324 99.6789 10.9524 101.172 10.2618C102.666 9.55242 104.402 9.19776 106.38 9.19776C108.359 9.19776 110.095 9.55242 111.588 10.2618C113.082 10.9524 114.239 11.9324 115.06 13.2018C115.9 14.4524 116.32 15.9178 116.32 17.5978C116.32 19.2591 115.9 20.7244 115.06 21.9938C114.239 23.2444 113.082 24.2244 111.588 24.9338C110.095 25.6244 108.359 25.9698 106.38 25.9698ZM106.38 22.4138C107.463 22.4138 108.387 22.2178 109.152 21.8258C109.936 21.4338 110.534 20.8831 110.944 20.1738C111.374 19.4458 111.588 18.5871 111.588 17.5978C111.588 16.5898 111.374 15.7311 110.944 15.0218C110.534 14.2938 109.936 13.7338 109.152 13.3418C108.387 12.9498 107.463 12.7538 106.38 12.7538C105.316 12.7538 104.392 12.9498 103.608 13.3418C102.824 13.7338 102.218 14.2938 101.788 15.0218C101.378 15.7311 101.172 16.5898 101.172 17.5978C101.172 18.5871 101.378 19.4458 101.788 20.1738C102.218 20.8831 102.824 21.4338 103.608 21.8258C104.392 22.2178 105.316 22.4138 106.38 22.4138Z" fill="#1F2224"/>
<path d="M125.402 25.8505C123.844 25.8505 122.504 25.5179 121.383 24.8525C120.262 24.178 119.4 23.2529 118.799 22.0771C118.197 20.8922 117.896 19.525 117.896 17.9755C117.896 16.4078 118.197 15.0315 118.799 13.8466C119.41 12.6617 120.275 11.7366 121.396 11.0712C122.518 10.4059 123.853 10.0732 125.402 10.0732C126.733 10.0732 127.895 10.3147 128.889 10.7978C129.891 11.2809 130.684 11.9599 131.268 12.8349C131.851 13.7099 132.17 14.7399 132.225 15.9248H128.232C128.16 15.4143 128.005 14.9677 127.768 14.5849C127.531 14.2021 127.216 13.9059 126.824 13.6962C126.432 13.4866 125.977 13.3818 125.457 13.3818C124.801 13.3818 124.227 13.5595 123.734 13.915C123.251 14.2613 122.873 14.7763 122.6 15.4599C122.335 16.1344 122.203 16.9547 122.203 17.9209C122.203 18.887 122.335 19.7164 122.6 20.4091C122.873 21.1018 123.251 21.6305 123.734 21.9951C124.227 22.3597 124.801 22.5419 125.457 22.5419C126.186 22.5419 126.801 22.3141 127.303 21.8584C127.804 21.3935 128.114 20.7555 128.232 19.9443H132.225C132.161 21.111 131.846 22.1409 131.281 23.0341C130.716 23.9182 129.937 24.611 128.943 25.1123C127.95 25.6044 126.77 25.8505 125.402 25.8505Z" fill="#1F2224"/>
<path d="M137.885 21.1474L137.898 16.0751H138.514L143.395 10.2646H148.262L141.699 17.9619H140.674L137.885 21.1474ZM134.057 25.5498V5.17867H138.281V25.5498H134.057ZM143.586 25.5498L139.102 18.9052L141.918 15.8974L148.549 25.5498H143.586Z" fill="#1F2224"/>
</svg>
