<svg width="99" height="45" viewBox="0 0 99 45" fill="none" xmlns="http://www.w3.org/2000/svg">
<g clip-path="url(#clip0_381_2477)">
<path fill-rule="evenodd" clip-rule="evenodd" d="M99.0028 23.2902C99.0028 16.1976 95.5928 10.6011 89.0753 10.6011C82.5303 10.6011 78.5703 16.1976 78.5703 23.2349C78.5703 31.5743 83.2454 35.7855 89.9553 35.7855C93.2277 35.7855 95.7028 35.0375 97.5727 33.9846V28.4434C95.7026 29.3854 93.5578 29.9673 90.8352 29.9673C88.1677 29.9673 85.8026 29.0252 85.5002 25.7559H98.9477C98.9478 25.3958 99.0028 23.955 99.0028 23.2902ZM85.4179 20.6581C85.4179 17.5273 87.3154 16.2251 89.0479 16.2251C90.7254 16.2251 92.5129 17.5273 92.5129 20.6581H85.4179Z" fill="#635BFF"/>
<path fill-rule="evenodd" clip-rule="evenodd" d="M67.9538 10.6011C65.2589 10.6011 63.5262 11.8754 62.5637 12.7622L62.2062 11.0444H56.1562V43.3493L63.0313 41.8809L63.0587 34.0403C64.0487 34.7607 65.5062 35.7857 67.9262 35.7857C72.8487 35.7857 77.3312 31.796 77.3312 23.0134C77.3039 14.9786 72.7663 10.6011 67.9538 10.6011ZM66.3037 29.6903C64.6811 29.6903 63.7188 29.1084 63.0587 28.388L63.0313 18.1092C63.7463 17.3056 64.7362 16.7516 66.3037 16.7516C68.8063 16.7516 70.5387 19.5775 70.5387 23.207C70.5389 26.9197 68.8338 29.6903 66.3037 29.6903Z" fill="#635BFF"/>
<path fill-rule="evenodd" clip-rule="evenodd" d="M46.6953 8.96619L53.5978 7.47015V1.84595L46.6953 3.31433V8.96619Z" fill="#635BFF"/>
<path d="M53.5978 11.0718H46.6953V35.3141H53.5978V11.0718Z" fill="#635BFF"/>
<path fill-rule="evenodd" clip-rule="evenodd" d="M39.298 13.1219L38.8579 11.0717H32.918V35.314H39.793V18.8846C41.4154 16.7512 44.1654 17.1392 45.0179 17.4439V11.0717C44.138 10.7394 40.9204 10.1298 39.298 13.1219Z" fill="#635BFF"/>
<path fill-rule="evenodd" clip-rule="evenodd" d="M25.5461 5.05981L18.8361 6.50054L18.8086 28.6927C18.8086 32.7931 21.861 35.8131 25.9311 35.8131C28.1862 35.8131 29.836 35.3974 30.7436 34.8987V29.2745C29.8637 29.6347 25.5187 30.9091 25.5187 26.8088V16.9732H30.7436V11.072H25.5187L25.5461 5.05981Z" fill="#635BFF"/>
<path fill-rule="evenodd" clip-rule="evenodd" d="M6.95757 18.1089C6.95757 17.0284 7.83752 16.6129 9.295 16.6129C11.3849 16.6129 14.025 17.2501 16.1151 18.3861V11.8752C13.8326 10.961 11.5775 10.6008 9.295 10.6008C3.71255 10.6008 0 13.5376 0 18.4414C0 26.0882 10.4501 24.8692 10.4501 28.1661C10.4501 29.4407 9.35011 29.8562 7.81006 29.8562C5.52754 29.8562 2.61257 28.9141 0.302596 27.6398V34.2337C2.86006 35.3419 5.44517 35.8129 7.81006 35.8129C13.53 35.8129 17.4626 32.9591 17.4626 28C17.4351 19.7437 6.95757 21.212 6.95757 18.1089Z" fill="#635BFF"/>
</g>
<defs>
<clipPath id="clip0_381_2477">
<rect width="99" height="45" fill="white"/>
</clipPath>
</defs>
</svg>
