<svg width="31" height="30" viewBox="0 0 31 30" fill="none" xmlns="http://www.w3.org/2000/svg">
<path d="M29.5625 17.1094C29.5625 17.2148 29.5602 17.3203 29.5508 17.4234C29.4172 19.4648 27.9688 21.1758 26.007 21.6586C25.8711 22.6078 25.3977 23.4609 24.7016 24.075C24.343 24.3938 23.9281 24.6492 23.4688 24.8227V24.8438C23.4688 26.2594 22.4187 27.4336 21.057 27.6281C20.8297 28.118 20.4898 28.5352 20.0703 28.8563C19.5898 29.2219 19.0086 29.4586 18.3875 29.5148C18.2867 29.5266 18.1836 29.5312 18.0781 29.5312C17.0328 29.5312 16.1023 29.0367 15.5 28.2727C13.9906 26.5711 12.8703 24.8695 12.0664 23.1938C11.4875 21.9984 11.0727 20.8172 10.7891 19.6594C8.37734 9.82969 15.5 1.72734 15.5 1.72734C16.1023 0.963281 17.0328 0.46875 18.0781 0.46875C19.0273 0.46875 19.8805 0.864844 20.4758 1.50469C20.7992 1.84688 21.0453 2.25703 21.1953 2.71406C21.5516 2.625 21.9195 2.57812 22.2969 2.57812C24.7531 2.57812 26.75 4.575 26.75 7.03125C26.75 7.21641 26.7383 7.40156 26.7172 7.58203C28.2828 8.21953 29.3281 9.74063 29.3281 11.4844C29.3281 12.4266 29.0117 13.3359 28.4422 14.0695C29.1617 14.9109 29.5625 15.9867 29.5625 17.1094Z" fill="url(#paint0_linear_338_1797)"/>
<path d="M29.5508 17.4234C29.4172 19.4648 27.9688 21.1758 26.007 21.6586C25.8711 22.6078 25.3977 23.4609 24.7016 24.075C24.343 24.3937 23.9281 24.6492 23.4687 24.8226V24.8437C23.4687 26.2594 22.4187 27.4336 21.057 27.6281C20.8297 28.1179 20.4898 28.5351 20.0703 28.8562C19.5898 29.2219 19.0086 29.4586 18.3875 29.5148L12.0664 23.1937L9.65937 20.789L10.7891 19.6594L21.2937 9.16638L29.5508 17.4234Z" fill="url(#paint1_linear_338_1797)"/>
<path d="M15.5 1.72734V28.2727C15.4391 28.35 15.3758 28.4227 15.3078 28.493C15.275 28.5305 15.2398 28.5633 15.2047 28.5984C15.1719 28.6312 15.1344 28.6641 15.0992 28.6969C15.0617 28.7297 15.0242 28.7602 14.9867 28.7906C14.8766 28.882 14.757 28.9641 14.6352 29.0391C14.6328 29.0414 14.6305 29.0414 14.6281 29.0437C14.1289 29.3531 13.5453 29.5312 12.9219 29.5312C11.6328 29.5312 10.4727 28.7695 9.94297 27.6281C8.58125 27.4336 7.53125 26.2594 7.53125 24.8438V24.8227C6.17891 24.3117 5.19922 23.0953 4.99297 21.6586C2.93047 21.15 1.4375 19.2867 1.4375 17.1094C1.4375 15.9867 1.83828 14.9109 2.55781 14.0695C1.98828 13.3359 1.67188 12.4266 1.67188 11.4844C1.67188 9.74063 2.71719 8.21953 4.28281 7.58203C4.26172 7.40156 4.25 7.21641 4.25 7.03125C4.25 4.79063 5.90937 2.93438 8.06562 2.625C8.27422 2.59453 8.4875 2.57812 8.70312 2.57812C9.08047 2.57812 9.44844 2.625 9.80469 2.71406C10.2359 1.40156 11.4664 0.46875 12.9219 0.46875C13.9672 0.46875 14.8977 0.963281 15.5 1.72734Z" fill="url(#paint2_linear_338_1797)"/>
<path d="M15.5 14.9554V26.6273L9.65937 20.789L15.5 14.9554Z" fill="url(#paint3_linear_338_1797)"/>
<path d="M21.1953 2.71407C20.4875 3.05861 19.9461 3.65626 19.6719 4.3922C19.5664 4.67579 19.2969 4.85157 19.0109 4.85157C18.9313 4.85157 18.8469 4.83751 18.7672 4.80704C18.4039 4.67111 18.2187 4.26564 18.3523 3.90236C18.7391 2.85939 19.4938 2.01329 20.4758 1.5047C20.7992 1.84689 21.0453 2.25704 21.1953 2.71407Z" fill="url(#paint4_linear_338_1797)"/>
<path d="M24.7016 24.075C24.343 24.3938 23.9281 24.6492 23.4687 24.8227C23.4172 24.593 23.3047 24.3773 23.1453 24.1992C22.8875 23.9086 22.9109 23.4656 23.2016 23.2055C23.4898 22.9477 23.9352 22.9711 24.193 23.2594C24.4086 23.5008 24.582 23.7773 24.7016 24.075Z" fill="#FCAA1A"/>
<path d="M21.057 27.6281C20.8297 28.1179 20.4898 28.5351 20.0703 28.8562C19.8687 28.7812 19.6766 28.6828 19.4937 28.5609C19.1703 28.3453 19.0859 27.907 19.3016 27.5836C19.5172 27.2625 19.9531 27.1758 20.2766 27.3914C20.5062 27.5461 20.7781 27.6281 21.057 27.6281Z" fill="#FCAA1A"/>
<path d="M9.80469 2.71407C10.5125 3.05861 11.0539 3.65626 11.3281 4.3922C11.4336 4.67579 11.7031 4.85157 11.9891 4.85157C12.0687 4.85157 12.1531 4.83751 12.2328 4.80704C12.5961 4.67111 12.7812 4.26564 12.6477 3.90236C12.2609 2.85939 11.5062 2.01329 10.5242 1.5047C10.2008 1.84689 9.95469 2.25704 9.80469 2.71407Z" fill="url(#paint5_linear_338_1797)"/>
<path d="M6.29844 24.075C6.65703 24.3938 7.07187 24.6492 7.53125 24.8227C7.58281 24.593 7.69531 24.3773 7.85469 24.1992C8.1125 23.9086 8.08906 23.4656 7.79844 23.2055C7.51016 22.9477 7.06484 22.9711 6.80703 23.2594C6.59141 23.5008 6.41797 23.7773 6.29844 24.075Z" fill="#10A0F9"/>
<path d="M9.94297 27.6281C10.1703 28.1179 10.5102 28.5351 10.9297 28.8562C11.1313 28.7812 11.3234 28.6828 11.5063 28.5609C11.8297 28.3453 11.9141 27.907 11.6984 27.5836C11.4828 27.2625 11.0469 27.1758 10.7234 27.3914C10.4938 27.5461 10.2219 27.6281 9.94297 27.6281Z" fill="#10A0F9"/>
<path d="M21.7555 20.1633C21.5422 20.6555 21.1555 21.0422 20.6633 21.2555C19.0227 21.9703 17.2602 22.3266 15.5 22.3266C13.7375 22.3266 11.9773 21.9703 10.3367 21.2555C9.84453 21.0422 9.45781 20.6555 9.24453 20.1633C7.81719 16.882 7.81719 13.118 9.24453 9.83671C9.45781 9.34452 9.84453 8.9578 10.3367 8.74452C13.618 7.31718 17.382 7.31718 20.6633 8.74452C21.1555 8.9578 21.5422 9.34452 21.7555 9.83671C23.1828 13.118 23.1828 16.882 21.7555 20.1633Z" fill="url(#paint6_linear_338_1797)"/>
<path d="M14.5201 12.1816C14.4191 11.9037 14.1552 11.7188 13.8594 11.7188C13.5636 11.7188 13.2997 11.9037 13.1987 12.1816L11.3237 17.3379C11.191 17.7028 11.3792 18.1062 11.7441 18.2391C12.1084 18.3715 12.5124 18.1835 12.6453 17.8186L12.8178 17.3438H14.9009L15.0737 17.8184C15.1775 18.1041 15.4473 18.2815 15.7344 18.2815C15.8141 18.2815 15.8954 18.2677 15.9746 18.2388C16.3395 18.1062 16.5277 17.7026 16.3951 17.3377L14.5201 12.1816ZM13.3292 15.9375L13.8594 14.4792L14.3895 15.9375H13.3292Z" fill="white"/>
<path d="M18.5469 11.7188C18.1585 11.7188 17.8438 12.0335 17.8438 12.4219V17.5781C17.8438 17.9665 18.1585 18.2812 18.5469 18.2812C18.9352 18.2812 19.25 17.9665 19.25 17.5781V12.4219C19.25 12.0335 18.9352 11.7188 18.5469 11.7188Z" fill="white"/>
<defs>
<linearGradient id="paint0_linear_338_1797" x1="19.9266" y1="0.46875" x2="19.9266" y2="29.5313" gradientUnits="userSpaceOnUse">
<stop stop-color="#FEF156"/>
<stop offset="0.4469" stop-color="#FFC242"/>
<stop offset="1" stop-color="#FC753F"/>
</linearGradient>
<linearGradient id="paint1_linear_338_1797" x1="33.0261" y1="32.5272" x2="18.6376" y2="18.1387" gradientUnits="userSpaceOnUse">
<stop offset="0.6875" stop-color="#F99E0D" stop-opacity="0"/>
<stop offset="0.7327" stop-color="#F49020" stop-opacity="0.078"/>
<stop offset="0.8234" stop-color="#E86D50" stop-opacity="0.233"/>
<stop offset="0.8622" stop-color="#E25D66" stop-opacity="0.3"/>
</linearGradient>
<linearGradient id="paint2_linear_338_1797" x1="8.46875" y1="0.46875" x2="8.46875" y2="29.5312" gradientUnits="userSpaceOnUse">
<stop stop-color="#A4EEFF"/>
<stop offset="0.7319" stop-color="#02C0FC"/>
<stop offset="1" stop-color="#27A6FF"/>
</linearGradient>
<linearGradient id="paint3_linear_338_1797" x1="22.9098" y1="28.2023" x2="12.0245" y2="17.317" gradientUnits="userSpaceOnUse">
<stop offset="0.2613" stop-color="#A4EEFF" stop-opacity="0"/>
<stop offset="0.2961" stop-color="#66CAFF" stop-opacity="0.508"/>
<stop offset="0.3297" stop-color="#27A6FF"/>
</linearGradient>
<linearGradient id="paint4_linear_338_1797" x1="19.7523" y1="1.5047" x2="19.7523" y2="4.85157" gradientUnits="userSpaceOnUse">
<stop stop-color="#FEF156"/>
<stop offset="0.4469" stop-color="#FFC242"/>
<stop offset="1" stop-color="#FC753F"/>
</linearGradient>
<linearGradient id="paint5_linear_338_1797" x1="11.248" y1="1.5047" x2="11.248" y2="4.85157" gradientUnits="userSpaceOnUse">
<stop stop-color="#A4EEFF"/>
<stop offset="0.7319" stop-color="#02C0FC"/>
<stop offset="1" stop-color="#27A6FF"/>
</linearGradient>
<linearGradient id="paint6_linear_338_1797" x1="8.17414" y1="15.0002" x2="22.8261" y2="15.0002" gradientUnits="userSpaceOnUse">
<stop offset="1.1188e-07" stop-color="#A47AF4"/>
<stop offset="0.4469" stop-color="#8954DD"/>
<stop offset="1" stop-color="#6936BA"/>
</linearGradient>
</defs>
</svg>
