<svg width="31" height="30" viewBox="0 0 31 30" fill="none" xmlns="http://www.w3.org/2000/svg">
<g clip-path="url(#clip0_338_1163)">
<path d="M3.51791 4.70341L3.89168 4.7826L3.45943 4.90522C3.23176 4.96981 3.05794 5.15412 3.00686 5.38519L2.9267 5.74757L2.84655 5.38519C2.79547 5.15412 2.62164 4.96981 2.39397 4.90522L1.96173 4.7826L2.3355 4.70341C2.57751 4.65214 2.76864 4.4666 2.82718 4.22626L2.9267 3.81763L3.02623 4.22626C3.08477 4.46667 3.2759 4.65214 3.51791 4.70341Z" fill="#AD9CDB"/>
<path d="M28.6645 2.51109L29.0383 2.59028L28.606 2.71289C28.3783 2.77748 28.2045 2.96179 28.1534 3.19287L28.0733 3.55525L27.9931 3.19287C27.942 2.96179 27.7682 2.77748 27.5406 2.71289L27.1083 2.59028L27.4821 2.51109C27.7241 2.45981 27.9152 2.27428 27.9738 2.03394L28.0733 1.62531L28.1728 2.03394C28.2313 2.27435 28.4225 2.45981 28.6645 2.51109Z" fill="#AD9CDB"/>
<path d="M29.9746 17.5316C30.2648 17.5316 30.5 17.2964 30.5 17.0062C30.5 16.7161 30.2648 16.4808 29.9746 16.4808C29.6844 16.4808 29.4492 16.7161 29.4492 17.0062C29.4492 17.2964 29.6844 17.5316 29.9746 17.5316Z" fill="#FF8A80"/>
<path d="M1.0254 22.6782C1.31556 22.6782 1.55079 22.4429 1.55079 22.1528C1.55079 21.8626 1.31556 21.6274 1.0254 21.6274C0.735228 21.6274 0.5 21.8626 0.5 22.1528C0.5 22.4429 0.735228 22.6782 1.0254 22.6782Z" fill="#FF8A80"/>
<path d="M3.1062 25.7453V10.8516C3.1062 10.141 3.68223 9.56494 4.39283 9.56494H26.6072C27.3178 9.56494 27.8938 10.141 27.8938 10.8516V25.7453H3.1062Z" fill="#C7CFE1"/>
<path d="M1.89279 25.7077V27.2307C1.89279 28.4402 2.87012 29.4207 4.07576 29.4207H26.9243C28.1299 29.4207 29.1072 28.4402 29.1072 27.2307V25.7077H1.89279Z" fill="#9595FC"/>
<path d="M5.36239 28.134C4.15675 28.134 3.17942 27.1536 3.17942 25.9441V25.7077H1.89279V27.2307C1.89279 28.4402 2.87018 29.4207 4.07576 29.4207H26.9243C27.8607 29.4207 28.6591 28.829 28.9691 27.9981C28.7329 28.0859 28.4776 28.134 28.2109 28.134H5.36239Z" fill="#7676FF"/>
<path d="M16.4865 27.6067H14.5135C14.3359 27.6067 14.1918 27.4627 14.1918 27.285C14.1918 27.1074 14.3359 26.9634 14.5135 26.9634H16.4865C16.6642 26.9634 16.8082 27.1074 16.8082 27.285C16.8082 27.4627 16.6642 27.6067 16.4865 27.6067Z" fill="white"/>
<path d="M24.3621 0.579285H6.63795C6.14054 0.579285 5.7373 0.982515 5.7373 1.47993V22.1947C5.7373 22.6921 6.14054 23.0953 6.63795 23.0953H24.3621C24.8595 23.0953 25.2627 22.6921 25.2627 22.1947V1.47993C25.2627 0.982515 24.8595 0.579285 24.3621 0.579285Z" fill="white"/>
<path d="M7.02394 8.29907V0.579285H6.63795C6.14054 0.579285 5.7373 0.982515 5.7373 1.47993V22.1947C5.7373 22.6921 6.14054 23.0953 6.63795 23.0953H24.3621C24.8595 23.0953 25.2627 22.6921 25.2627 22.1947V21.8087H20.5336C13.0724 21.8087 7.02394 15.7602 7.02394 8.29907Z" fill="#DFE7F4"/>
<path d="M10.0318 6.8299H20.9682V10.0465H10.0318V6.8299Z" fill="#58ED9B"/>
<path d="M11.3185 6.8299H10.0318V10.0465H20.9682V8.75984H12.5502C11.8699 8.75984 11.3185 8.20839 11.3185 7.52809V6.8299Z" fill="#24D1AF"/>
<path d="M8.10187 17.5089H11.3184V20.7255H8.10187V17.5089Z" fill="#FF6699"/>
<path d="M9.00251 17.5089H8.10187V20.7255H11.3184V19.8248C10.0394 19.8248 9.00251 18.788 9.00251 17.5089Z" fill="#F92174"/>
<path d="M13.8917 17.5089H17.1083V20.7255H13.8917V17.5089Z" fill="#FF6699"/>
<path d="M14.7924 17.5089H13.8917V20.7255H17.1083V19.8248C15.8293 19.8248 14.7924 18.788 14.7924 17.5089Z" fill="#F92174"/>
<path d="M19.6815 17.5089H22.8981V20.7255H19.6815V17.5089Z" fill="#FF6699"/>
<path d="M20.5822 17.5089H19.6815V20.7255H22.8981V19.8248C21.6191 19.8248 20.5822 18.788 20.5822 17.5089Z" fill="#F92174"/>
<path d="M20.9682 12.8127H10.0318C9.85418 12.8127 9.71014 12.6687 9.71014 12.4911C9.71014 12.3135 9.85418 12.1694 10.0318 12.1694H20.9682C21.1459 12.1694 21.2898 12.3135 21.2898 12.4911C21.2898 12.6687 21.1459 12.8127 20.9682 12.8127Z" fill="#C7CFE1"/>
<path d="M20.9682 15.386H10.0318C9.85418 15.386 9.71014 15.242 9.71014 15.0643C9.71014 14.8867 9.85418 14.7427 10.0318 14.7427H20.9682C21.1459 14.7427 21.2898 14.8867 21.2898 15.0643C21.2898 15.242 21.1459 15.386 20.9682 15.386Z" fill="#C7CFE1"/>
<path d="M25.2627 1.47993C25.2627 0.982515 24.8595 0.579285 24.3621 0.579285H6.63795C6.14054 0.579285 5.7373 0.982515 5.7373 1.47993V4.52024H25.2627V1.47993Z" fill="#334973"/>
<path d="M6.63795 0.579285C6.14054 0.579285 5.7373 0.982515 5.7373 1.47993V4.52024H7.02394V0.579285H6.63795Z" fill="#1F3259"/>
<path d="M8.31861 3.14984C8.669 3.14984 8.95305 2.86666 8.95305 2.51733C8.95305 2.16801 8.669 1.88483 8.31861 1.88483C7.96822 1.88483 7.68417 2.16801 7.68417 2.51733C7.68417 2.86666 7.96822 3.14984 8.31861 3.14984Z" fill="white"/>
<path d="M10.9973 3.14984C11.3477 3.14984 11.6318 2.86666 11.6318 2.51733C11.6318 2.16801 11.3477 1.88483 10.9973 1.88483C10.6469 1.88483 10.3629 2.16801 10.3629 2.51733C10.3629 2.86666 10.6469 3.14984 10.9973 3.14984Z" fill="white"/>
</g>
<defs>
<clipPath id="clip0_338_1163">
<rect width="30" height="30" fill="white" transform="translate(0.5)"/>
</clipPath>
</defs>
</svg>
