<svg width="31" height="30" viewBox="0 0 31 30" fill="none" xmlns="http://www.w3.org/2000/svg">
<g clip-path="url(#clip0_338_932)">
<path d="M24.23 0H6.77C3.30706 0 0.5 2.80706 0.5 6.27V23.73C0.5 27.1929 3.30706 30 6.77 30H24.23C27.6929 30 30.5 27.1929 30.5 23.73V6.27C30.5 2.80706 27.6929 0 24.23 0Z" fill="url(#paint0_linear_338_932)"/>
<path d="M0.5 20.3529V23.73C0.5 27.1929 3.30706 30 6.77 30H24.23C27.6929 30 30.5 27.1929 30.5 23.73V20.3529H0.5Z" fill="url(#paint1_linear_338_932)"/>
<path d="M23.066 2H7.934C4.93277 2 2.5 4.43277 2.5 7.434V20.6929L2.61765 22.566C2.61765 25.5672 4.93277 27.8824 7.934 27.8824H23.066C26.0672 27.8824 28.3824 25.5672 28.3824 22.566L28.5 16.4582V7.434C28.5 4.43277 26.0672 2 23.066 2Z" fill="url(#paint2_linear_338_932)"/>
<path d="M23.066 28C25.3536 28 27.3106 26.5866 28.1121 24.5855L10.75 7.22333C10.5183 6.83962 10.0974 6.58303 9.61652 6.58303C9.45846 6.58303 9.30705 6.61103 9.16658 6.66197C9.16511 6.6608 9.16364 6.65962 9.16217 6.6585C9.03123 6.49021 8.87988 6.33874 8.71152 6.20786C8.24399 5.60686 7.51417 5.22003 6.69376 5.22003C5.28246 5.22003 4.13841 6.36409 4.13841 7.77539C4.13841 7.99292 4.1657 8.20415 4.21688 8.4058C3.47429 8.64321 2.93652 9.33886 2.93652 10.1602C2.93652 10.7839 3.24682 11.3347 3.72111 11.6679L20.0532 28H23.066Z" fill="url(#paint3_linear_338_932)"/>
<path d="M19.3929 5.51199C19.8776 5.71082 20.4316 5.47917 20.6305 4.99452L20.9999 4.09428C21.1987 3.60964 20.967 3.05558 20.4824 2.85675C19.9977 2.65793 19.4437 2.88958 19.2448 3.37423L18.8755 4.27446C18.6766 4.75905 18.9083 5.31317 19.3929 5.51199Z" fill="url(#paint4_linear_338_932)"/>
<path d="M11.6072 24.488C11.1225 24.2892 10.5685 24.5209 10.3697 25.0055L10.0003 25.9057C9.80148 26.3903 10.0332 26.9444 10.5178 27.1433C11.0024 27.3421 11.5565 27.1104 11.7553 26.6258L12.1247 25.7256C12.3235 25.2409 12.0918 24.6869 11.6072 24.488Z" fill="url(#paint5_linear_338_932)"/>
<path d="M27.1259 18.7447L26.2257 18.3754C25.741 18.1765 25.187 18.4082 24.9881 18.8928C24.7893 19.3775 25.0209 19.9315 25.5056 20.1304L26.4058 20.4998C26.8905 20.6986 27.4445 20.467 27.6433 19.9823C27.8422 19.4976 27.6106 18.9435 27.1259 18.7447Z" fill="url(#paint6_linear_338_932)"/>
<path d="M3.87428 11.2554L4.77452 11.6247C5.25917 11.8235 5.81323 11.5918 6.01205 11.1073C6.21087 10.6226 5.97923 10.0685 5.49458 9.86966L4.59434 9.50031C4.1097 9.30149 3.55564 9.53313 3.35681 10.0178C3.15799 10.5024 3.38958 11.0565 3.87428 11.2554Z" fill="url(#paint7_linear_338_932)"/>
<path d="M24.9617 11.0436C25.1639 11.5269 25.7195 11.7548 26.2027 11.5528L27.1004 11.1773C27.5837 10.9753 27.8117 10.4196 27.6096 9.93635C27.4075 9.45305 26.8519 9.22511 26.3686 9.42717L25.4709 9.80258C24.9876 10.0047 24.7596 10.5603 24.9617 11.0436Z" fill="url(#paint8_linear_338_932)"/>
<path d="M4.79743 18.4473L3.89973 18.8227C3.41643 19.0248 3.18849 19.5804 3.39055 20.0637C3.59261 20.547 4.14826 20.7749 4.63155 20.5728L5.52932 20.1975C6.01261 19.9954 6.24055 19.4398 6.03849 18.9565C5.83632 18.4731 5.28067 18.2452 4.79743 18.4473Z" fill="url(#paint9_linear_338_932)"/>
<path d="M20.6975 24.9708C20.4955 24.4875 19.9398 24.2596 19.4565 24.4617C18.9732 24.6637 18.7452 25.2194 18.9473 25.7027L19.3227 26.6004C19.5248 27.0837 20.0805 27.3117 20.5637 27.1096C21.047 26.9075 21.275 26.3519 21.0729 25.8686L20.6975 24.9708Z" fill="url(#paint10_linear_338_932)"/>
<path d="M11.5436 5.53834C12.0269 5.33622 12.2549 4.78063 12.0528 4.29734L11.6773 3.39963C11.4753 2.91634 10.9196 2.68834 10.4363 2.89045C9.95305 3.09251 9.72511 3.64816 9.92717 4.13145L10.3026 5.02922C10.5047 5.51245 11.0603 5.74039 11.5436 5.53834Z" fill="url(#paint11_linear_338_932)"/>
<path d="M15.5001 22.647C19.7234 22.647 23.1471 19.2233 23.1471 15C23.1471 10.7766 19.7234 7.35291 15.5001 7.35291C11.2767 7.35291 7.85303 10.7766 7.85303 15C7.85303 19.2233 11.2767 22.647 15.5001 22.647Z" fill="url(#paint12_linear_338_932)"/>
<path d="M15.5001 22.647C19.7234 22.647 23.1471 19.2233 23.1471 15C23.1471 10.7766 19.7234 7.35291 15.5001 7.35291C11.2767 7.35291 7.85303 10.7766 7.85303 15C7.85303 19.2233 11.2767 22.647 15.5001 22.647Z" fill="url(#paint13_linear_338_932)"/>
<path d="M22.2053 18.6787L11.8213 8.29474C9.45602 9.59509 7.85291 12.1102 7.85291 15C7.85291 15.2862 7.86914 15.5686 7.89979 15.8467L14.6533 22.6002C14.9314 22.6308 15.2137 22.647 15.5 22.647C18.3898 22.647 20.9048 21.0439 22.2053 18.6787Z" fill="url(#paint14_linear_338_932)"/>
<path d="M13.0041 21.1882L11.02 17.7524C9.50412 15.1271 5.71412 15.1271 4.19765 17.7524L2.5 20.6929V22.5659C2.5 25.5671 4.93294 28 7.93412 28H16.9365L13.0041 21.1882Z" fill="url(#paint15_linear_338_932)"/>
<path d="M25.7888 11.7624C24.157 8.9359 20.0776 8.9359 18.4459 11.7624L13.0041 21.1883L9.07117 28H23.0659C26.067 28 28.5 25.5671 28.5 22.5659V16.4583L25.7888 11.7624Z" fill="url(#paint16_linear_338_932)"/>
<path d="M2.5 21.5517V22.566C2.5 25.5672 4.93277 28 7.934 28H23.066C26.0672 28 28.5 25.5672 28.5 22.566V21.5517H2.5Z" fill="url(#paint17_linear_338_932)"/>
<path d="M10.8146 8.26149C10.8575 8.1312 10.8811 7.99202 10.8811 7.84737C10.8811 7.11661 10.2886 6.52426 9.55793 6.52426C9.34458 6.52426 9.14317 6.57508 8.9647 6.66478C8.56376 5.7782 7.67152 5.16125 6.63517 5.16125C5.22387 5.16125 4.07981 6.30531 4.07981 7.71661C4.07981 7.9342 4.10711 8.14537 4.15828 8.34702C3.41569 8.58443 2.87793 9.28008 2.87793 10.1014C2.87793 11.1185 3.70246 11.9431 4.71958 11.9431H10.7371C10.7371 11.9431 12.5788 11.1185 12.5788 10.1014C12.5787 9.11025 11.7958 8.30214 10.8146 8.26149Z" fill="url(#paint18_linear_338_932)"/>
<path d="M10.8807 7.84741C10.8807 7.992 10.8576 8.13123 10.8146 8.26153C10.7889 8.26041 10.7628 8.25982 10.7367 8.25982C10.0822 8.25982 9.50738 8.60147 9.18097 9.11594C8.63373 8.95388 8.2345 8.44735 8.2345 7.84741C8.2345 7.11659 8.82679 6.52429 9.55762 6.52429C10.2884 6.52429 10.8807 7.11659 10.8807 7.84741Z" fill="url(#paint19_linear_338_932)"/>
<path d="M8.86064 8.97232C8.42223 9.7482 7.58964 10.2718 6.63476 10.2718C5.22359 10.2718 4.07947 9.1279 4.07947 7.71655C4.07947 6.30537 5.22359 5.16125 6.63476 5.16125C7.67106 5.16125 8.56335 5.77814 8.96429 6.66449C8.53135 6.8819 8.23447 7.33002 8.23447 7.84743C8.23447 8.32237 8.48482 8.7389 8.86064 8.97232Z" fill="url(#paint20_linear_338_932)"/>
<path d="M2.87756 10.1014C2.87756 11.1185 3.70209 11.9431 4.71921 11.9431H10.7367C10.7367 11.9431 12.5784 11.1185 12.5784 10.1014C12.5784 9.90419 12.5473 9.71425 12.4899 9.53613H2.96633C2.90886 9.71425 2.87756 9.90413 2.87756 10.1014Z" fill="url(#paint21_linear_338_932)"/>
</g>
<defs>
<linearGradient id="paint0_linear_338_932" x1="1.67647" y1="1.17647" x2="26.1572" y2="25.6572" gradientUnits="userSpaceOnUse">
<stop stop-color="#EEF4FF"/>
<stop offset="1" stop-color="#CFE7FD"/>
</linearGradient>
<linearGradient id="paint1_linear_338_932" x1="15.5" y1="24.0588" x2="15.5" y2="29.8968" gradientUnits="userSpaceOnUse">
<stop stop-color="#8AAADC" stop-opacity="0"/>
<stop offset="1" stop-color="#8AAADC"/>
</linearGradient>
<linearGradient id="paint2_linear_338_932" x1="6.04077" y1="5.48194" x2="22.5033" y2="21.9445" gradientUnits="userSpaceOnUse">
<stop stop-color="#76CCF8"/>
<stop offset="0.833" stop-color="#518EF8"/>
<stop offset="1" stop-color="#4981F8"/>
</linearGradient>
<linearGradient id="paint3_linear_338_932" x1="13.6587" y1="15.8609" x2="1.20263" y2="3.40486" gradientUnits="userSpaceOnUse">
<stop stop-color="#4071F7" stop-opacity="0"/>
<stop offset="1" stop-color="#30569F"/>
</linearGradient>
<linearGradient id="paint4_linear_338_932" x1="18.3304" y1="3.58164" x2="21.4373" y2="4.7467" gradientUnits="userSpaceOnUse">
<stop stop-color="#F7E07D"/>
<stop offset="1" stop-color="#E69642"/>
</linearGradient>
<linearGradient id="paint5_linear_338_932" x1="9.45524" y1="25.2129" x2="12.5621" y2="26.378" gradientUnits="userSpaceOnUse">
<stop stop-color="#F7E07D"/>
<stop offset="1" stop-color="#E69642"/>
</linearGradient>
<linearGradient id="paint6_linear_338_932" x1="23.922" y1="18.5399" x2="28.5492" y2="20.2751" gradientUnits="userSpaceOnUse">
<stop stop-color="#F7E07D"/>
<stop offset="1" stop-color="#E69642"/>
</linearGradient>
<linearGradient id="paint7_linear_338_932" x1="2.29069" y1="9.66484" x2="6.91787" y2="11.4001" gradientUnits="userSpaceOnUse">
<stop stop-color="#F7E07D"/>
<stop offset="1" stop-color="#E69642"/>
</linearGradient>
<linearGradient id="paint8_linear_338_932" x1="24.112" y1="9.67488" x2="28.3138" y2="11.2505" gradientUnits="userSpaceOnUse">
<stop stop-color="#F7E07D"/>
<stop offset="1" stop-color="#E69642"/>
</linearGradient>
<linearGradient id="paint9_linear_338_932" x1="2.54084" y1="18.695" x2="6.74261" y2="20.2706" gradientUnits="userSpaceOnUse">
<stop stop-color="#F7E07D"/>
<stop offset="1" stop-color="#E69642"/>
</linearGradient>
<linearGradient id="paint10_linear_338_932" x1="17.8716" y1="24.9837" x2="22.0055" y2="26.5339" gradientUnits="userSpaceOnUse">
<stop stop-color="#F7E07D"/>
<stop offset="1" stop-color="#E69642"/>
</linearGradient>
<linearGradient id="paint11_linear_338_932" x1="8.85147" y1="3.41245" x2="12.9853" y2="4.96263" gradientUnits="userSpaceOnUse">
<stop stop-color="#F7E07D"/>
<stop offset="1" stop-color="#E69642"/>
</linearGradient>
<linearGradient id="paint12_linear_338_932" x1="11.3258" y1="10.8257" x2="17.9138" y2="17.4137" gradientUnits="userSpaceOnUse">
<stop stop-color="#F7E07D"/>
<stop offset="1" stop-color="#E69642"/>
</linearGradient>
<linearGradient id="paint13_linear_338_932" x1="13.3236" y1="12.8235" x2="18.5316" y2="18.0314" gradientUnits="userSpaceOnUse">
<stop stop-color="#D52C1C" stop-opacity="0"/>
<stop offset="0.2813" stop-color="#CC2C20" stop-opacity="0.281"/>
<stop offset="0.7301" stop-color="#B52B2A" stop-opacity="0.73"/>
<stop offset="1" stop-color="#A42B31"/>
</linearGradient>
<linearGradient id="paint14_linear_338_932" x1="15.89" y1="18.1002" x2="4.0882" y2="6.29839" gradientUnits="userSpaceOnUse">
<stop stop-color="#D52C1C" stop-opacity="0"/>
<stop offset="0.2813" stop-color="#CC2C20" stop-opacity="0.281"/>
<stop offset="0.7301" stop-color="#B52B2A" stop-opacity="0.73"/>
<stop offset="1" stop-color="#A42B31"/>
</linearGradient>
<linearGradient id="paint15_linear_338_932" x1="4.77323" y1="19.2" x2="10.8301" y2="25.2568" gradientUnits="userSpaceOnUse">
<stop stop-color="#BCE097"/>
<stop offset="1" stop-color="#7DC03A"/>
</linearGradient>
<linearGradient id="paint16_linear_338_932" x1="13.9459" y1="16.2917" x2="25.1975" y2="27.5433" gradientUnits="userSpaceOnUse">
<stop stop-color="#BCE097"/>
<stop offset="1" stop-color="#7DC03A"/>
</linearGradient>
<linearGradient id="paint17_linear_338_932" x1="15.5" y1="23.2281" x2="15.5" y2="28.3645" gradientUnits="userSpaceOnUse">
<stop stop-color="#8CC951" stop-opacity="0"/>
<stop offset="1" stop-color="#3E6E66"/>
</linearGradient>
<linearGradient id="paint18_linear_338_932" x1="4.33546" y1="6.53778" x2="9.49275" y2="11.6951" gradientUnits="userSpaceOnUse">
<stop stop-color="#EEF4FF"/>
<stop offset="1" stop-color="#CFE7FD"/>
</linearGradient>
<linearGradient id="paint19_linear_338_932" x1="9.34479" y1="7.82012" x2="11.3289" y2="7.82012" gradientUnits="userSpaceOnUse">
<stop stop-color="#8AAADC" stop-opacity="0"/>
<stop offset="1" stop-color="#8AAADC"/>
</linearGradient>
<linearGradient id="paint20_linear_338_932" x1="7.32882" y1="7.02949" x2="9.23094" y2="5.14637" gradientUnits="userSpaceOnUse">
<stop stop-color="#8AAADC" stop-opacity="0"/>
<stop offset="1" stop-color="#8AAADC"/>
</linearGradient>
<linearGradient id="paint21_linear_338_932" x1="7.72798" y1="10.6394" x2="7.72798" y2="12.263" gradientUnits="userSpaceOnUse">
<stop stop-color="#8AAADC" stop-opacity="0"/>
<stop offset="1" stop-color="#8AAADC"/>
</linearGradient>
<clipPath id="clip0_338_932">
<rect width="30" height="30" fill="white" transform="translate(0.5)"/>
</clipPath>
</defs>
</svg>
