<svg width="35" height="35" viewBox="0 0 35 35" fill="none" xmlns="http://www.w3.org/2000/svg">
<g clip-path="url(#clip0_338_1025)">
<path d="M17.5001 2.81958C18.2787 2.81958 18.9099 2.18839 18.9099 1.40979C18.9099 0.631184 18.2787 0 17.5001 0C16.7215 0 16.0903 0.631184 16.0903 1.40979C16.0903 2.18839 16.7215 2.81958 17.5001 2.81958Z" fill="url(#paint0_linear_338_1025)"/>
<path d="M16.0903 1.40979C16.0903 2.1884 16.7215 2.81958 17.5001 2.81958C18.2787 2.81958 18.9099 2.1884 18.9099 1.40979C18.9099 1.24116 18.8802 1.07949 18.8259 0.929626H16.1744C16.12 1.07949 16.0903 1.24116 16.0903 1.40979Z" fill="url(#paint1_linear_338_1025)"/>
<path d="M16.5032 2.40666C17.0537 2.9572 17.9464 2.95724 18.4969 2.40666C19.0474 1.85612 19.0474 0.963472 18.4969 0.412931C18.3777 0.293706 18.2424 0.200395 18.098 0.132812L16.223 2.00775C16.2906 2.15212 16.3839 2.28744 16.5032 2.40666Z" fill="url(#paint2_linear_338_1025)"/>
<path d="M22.4124 7.96716C22.4872 7.62866 22.5279 7.27736 22.5307 6.91701C22.5525 4.14858 20.3047 1.86531 17.5362 1.84583C14.7412 1.82616 12.4691 4.08603 12.4691 6.87658C12.4691 7.26337 12.5128 7.64 12.5954 8.00175C12.932 9.47483 12.4698 11.0007 11.4507 12.1163C11.3126 12.2674 11.239 12.4262 11.239 12.5901C11.239 13.6015 14.0422 14.4213 17.5 14.4213C20.9578 14.4213 23.761 13.6015 23.761 12.5901C23.761 12.4182 23.68 12.2518 23.5285 12.0941C22.4791 11.001 22.0853 9.44677 22.4124 7.96716Z" fill="url(#paint3_linear_338_1025)"/>
<path d="M22.4123 7.96716C22.4872 7.62866 22.5279 7.27735 22.5307 6.91701C22.5525 4.14858 20.3047 1.86531 17.5362 1.84583C16.9828 1.84195 16.45 1.92774 15.9512 2.089V14.3648C16.4465 14.4017 16.9654 14.4213 17.5 14.4213C20.9579 14.4213 23.761 13.6015 23.761 12.5901C23.761 12.4182 23.68 12.2518 23.5285 12.0941C22.4791 11.001 22.0853 9.44677 22.4123 7.96716Z" fill="url(#paint4_linear_338_1025)"/>
<path d="M12.4691 6.87659C12.4691 7.26341 12.5128 7.64001 12.5954 8.00175C12.932 9.47483 12.4698 11.0007 11.4507 12.1163C11.3126 12.2674 11.239 12.4262 11.239 12.5901C11.239 13.6015 14.0422 14.4213 17.5 14.4213C20.9578 14.4213 23.761 13.6015 23.761 12.5901C23.761 12.4182 23.68 12.2518 23.5285 12.0941C22.479 11.001 22.0853 9.44677 22.4123 7.96717C22.4871 7.62866 22.5278 7.27736 22.5307 6.91701C22.534 6.49048 22.4834 6.07557 22.3854 5.67859H12.6131C12.5193 6.06258 12.4691 6.4637 12.4691 6.87659Z" fill="url(#paint5_linear_338_1025)"/>
<path d="M17.5 15.9091C21.1957 15.9091 24.1916 14.452 24.1916 12.6545C24.1916 10.857 21.1957 9.3999 17.5 9.3999C13.8044 9.3999 10.8085 10.857 10.8085 12.6545C10.8085 14.452 13.8044 15.9091 17.5 15.9091Z" fill="url(#paint6_linear_338_1025)"/>
<path d="M10.8085 12.6545C10.8085 12.007 11.1973 11.4037 11.8674 10.8968H23.1327C23.8028 11.4037 24.1916 12.007 24.1916 12.6545C24.1916 14.4519 21.1956 15.9091 17.5 15.9091C13.8044 15.9091 10.8085 14.4519 10.8085 12.6545Z" fill="url(#paint7_linear_338_1025)"/>
<path d="M17.5 15.3193C20.5261 15.3193 22.9792 14.2346 22.9792 12.8965C22.9792 11.5584 20.5261 10.4737 17.5 10.4737C14.474 10.4737 12.0209 11.5584 12.0209 12.8965C12.0209 14.2346 14.474 15.3193 17.5 15.3193Z" fill="url(#paint8_linear_338_1025)"/>
<path d="M17.5 15.3193C20.5261 15.3193 22.9792 14.2346 22.9792 12.8965C22.9792 11.5584 20.5261 10.4737 17.5 10.4737C14.474 10.4737 12.0209 11.5584 12.0209 12.8965C12.0209 14.2346 14.474 15.3193 17.5 15.3193Z" fill="url(#paint9_linear_338_1025)"/>
<path d="M17.8845 9.40533C21.4012 9.50228 24.1915 10.9198 24.1915 12.6545C24.1915 14.3891 21.4012 15.8066 17.8845 15.9036V9.40533Z" fill="url(#paint10_linear_338_1025)"/>
<path d="M18.0286 15.308L15.9512 13.2307V10.572C16.4424 10.5082 16.9621 10.4737 17.5 10.4737C20.5261 10.4737 22.9792 11.5584 22.9792 12.8965C22.9792 14.1557 20.8066 15.1904 18.0286 15.308Z" fill="url(#paint11_linear_338_1025)"/>
<path d="M15.2737 11.6317C15.2737 11.275 15.3581 10.938 15.5073 10.6392C15.5073 10.6392 16.1259 10.4379 17.5 10.4379C18.8742 10.4379 19.4928 10.6392 19.4928 10.6392C19.642 10.9381 19.7264 11.275 19.7264 11.6317C19.7264 12.8613 18.7296 13.8581 17.5 13.8581C16.2705 13.8581 15.2737 12.8613 15.2737 11.6317Z" fill="url(#paint12_linear_338_1025)"/>
<path d="M15.2737 11.6317C15.2737 11.275 15.3581 10.938 15.5073 10.6392C15.5073 10.6392 16.1259 10.4379 17.5 10.4379C18.8742 10.4379 19.4928 10.6392 19.4928 10.6392C19.642 10.9381 19.7264 11.275 19.7264 11.6317C19.7264 12.8613 18.7296 13.8581 17.5 13.8581C16.2705 13.8581 15.2737 12.8613 15.2737 11.6317Z" fill="url(#paint13_linear_338_1025)"/>
<path d="M17.5 10.4379C18.8742 10.4379 19.4928 10.6392 19.4928 10.6392C19.642 10.9381 19.7264 11.275 19.7264 11.6317C19.7264 12.8613 18.7296 13.8581 17.5 13.8581C17.3244 13.8581 17.1537 13.8371 16.9897 13.7986V10.4478C17.1467 10.4415 17.3164 10.4379 17.5 10.4379Z" fill="url(#paint14_linear_338_1025)"/>
<path d="M15.2737 11.6316C15.2737 11.613 15.2749 11.5947 15.2753 11.5762H19.7247C19.7252 11.5947 19.7264 11.613 19.7264 11.6316C19.7264 12.8612 18.7296 13.858 17.5 13.858C16.2705 13.858 15.2737 12.8612 15.2737 11.6316Z" fill="url(#paint15_linear_338_1025)"/>
</g>
<g clip-path="url(#clip1_338_1025)">
<path d="M14.729 31.2576C12.2846 33.7019 8.32142 33.7019 5.87705 31.2576L1.8334 27.2139C-0.610972 24.7695 -0.610972 20.8063 1.8334 18.3619L6.46985 22.9984L5.50421 23.964C5.03502 24.4332 5.03502 25.1939 5.50421 25.6631L7.42787 27.5868C7.89707 28.0559 8.65775 28.0559 9.12694 27.5868L10.0926 26.6211L14.729 31.2576Z" fill="url(#paint16_linear_338_1025)"/>
<path d="M4.40109 25.0672C3.9319 25.5364 3.9319 26.2971 4.40109 26.7663L6.32475 28.6899C6.79395 29.1591 7.55463 29.1591 8.02383 28.6899L9.12693 27.5868C8.65773 28.056 7.89705 28.056 7.42786 27.5868L5.50419 25.6632C5.035 25.194 5.035 24.4333 5.50419 23.9641L4.40109 25.0672Z" fill="url(#paint17_linear_338_1025)"/>
<path d="M8.29762 27.9382C7.98342 27.9435 7.6676 27.8266 7.42784 27.5868L5.50418 25.6632C5.26443 25.4234 5.1475 25.1076 5.15278 24.7934L0.558939 20.1996C-0.487923 22.5061 -0.0633802 25.3172 1.83337 27.214L5.87702 31.2576C7.77374 33.1543 10.5849 33.5789 12.8914 32.5321L8.29762 27.9382Z" fill="url(#paint18_linear_338_1025)"/>
<path d="M9.12694 27.5869C8.65775 28.0561 7.89707 28.0561 7.42787 27.5869L6.46602 26.625L3.85522 29.2358L5.87708 31.2577C8.32145 33.702 12.2846 33.702 14.729 31.2577L10.0926 26.6212L9.12694 27.5869Z" fill="url(#paint19_linear_338_1025)"/>
<path d="M4.1895 22.9983L1.83337 20.6422C1.20366 20.0125 1.20366 18.9916 1.83337 18.3619C2.46308 17.7322 3.48403 17.7322 4.11371 18.3619L6.46984 20.718C7.09956 21.3477 7.09956 22.3687 6.46984 22.9983C5.84016 23.6281 4.81921 23.6281 4.1895 22.9983Z" fill="url(#paint20_linear_338_1025)"/>
<path d="M4.47296 22.4626L2.3692 20.3588C1.91909 19.9087 1.91909 19.1789 2.3692 18.7288C2.81932 18.2786 3.54912 18.2786 3.99923 18.7288L6.10299 20.8325C6.55311 21.2826 6.55311 22.0124 6.10299 22.4626C5.65285 22.9127 4.92308 22.9127 4.47296 22.4626Z" fill="url(#paint21_linear_338_1025)"/>
<path d="M6.10287 20.8325L3.99911 18.7288C3.54899 18.2786 2.81919 18.2786 2.36908 18.7288C2.3183 18.7795 2.27359 18.834 2.23425 18.8911C2.68325 18.5818 3.30259 18.6265 3.70193 19.0259L5.80569 21.1297C6.20503 21.529 6.24978 22.1483 5.94051 22.5973C5.99759 22.558 6.05206 22.5133 6.10283 22.4625C6.55298 22.0124 6.55298 21.2826 6.10287 20.8325Z" fill="url(#paint22_linear_338_1025)"/>
<path d="M12.4485 31.2576L10.0924 28.9015C9.46269 28.2718 9.46269 27.2508 10.0924 26.6212C10.7221 25.9914 11.7431 25.9914 12.3727 26.6212L14.7289 28.9773C15.3586 29.607 15.3586 30.6279 14.7289 31.2576C14.0992 31.8873 13.0782 31.8873 12.4485 31.2576Z" fill="url(#paint23_linear_338_1025)"/>
<path d="M12.7321 30.7218L10.6284 28.6181C10.1782 28.168 10.1782 27.4382 10.6284 26.988C11.0785 26.5379 11.8083 26.5379 12.2584 26.988L14.3621 29.0918C14.8123 29.5419 14.8123 30.2717 14.3621 30.7218C13.912 31.1719 13.1822 31.1719 12.7321 30.7218Z" fill="url(#paint24_linear_338_1025)"/>
<path d="M14.3621 29.0917L12.2584 26.988C11.8083 26.5379 11.0785 26.5379 10.6284 26.988C10.5776 27.0387 10.5329 27.0932 10.4935 27.1503C10.9425 26.841 11.5619 26.8857 11.9612 27.2851L14.065 29.3889C14.4643 29.7882 14.5091 30.4076 14.1998 30.8566C14.2569 30.8173 14.3113 30.7725 14.3621 30.7217C14.8123 30.2717 14.8123 29.5419 14.3621 29.0917Z" fill="url(#paint25_linear_338_1025)"/>
<path d="M14.729 31.2576C15.3588 30.6279 15.3588 29.607 14.729 28.9773L12.852 27.1003L7.51489 32.4373C9.85701 33.6026 12.7772 33.2095 14.729 31.2576Z" fill="url(#paint26_linear_338_1025)"/>
<path d="M11.3934 24.5632C11.2406 23.8612 10.8903 23.2206 10.3803 22.7106C9.87024 22.2006 9.22965 21.8502 8.52766 21.6974C8.26003 21.6392 7.99585 21.8089 7.93759 22.0765C7.87936 22.3441 8.04908 22.6082 8.31664 22.6666C8.83251 22.7789 9.3036 23.0366 9.67892 23.4119C10.0542 23.7873 10.312 24.2583 10.4243 24.7742C10.4453 24.8706 10.4929 24.9542 10.5578 25.0191C10.6732 25.1345 10.8431 25.1906 11.0143 25.1533C11.2819 25.095 11.4517 24.8309 11.3934 24.5632Z" fill="url(#paint27_linear_338_1025)"/>
<path d="M13.5414 24.1249C13.3026 23.0013 12.7454 21.9764 11.93 21.161C11.1146 20.3456 10.0897 19.7884 8.96606 19.5496C8.62162 19.4764 8.28306 19.6963 8.20985 20.0408C8.13667 20.3852 8.3566 20.7238 8.70101 20.797C9.58291 20.9844 10.3877 21.4221 11.0283 22.0627C11.6689 22.7033 12.1066 23.5081 12.294 24.39C12.3206 24.5151 12.3822 24.6237 12.4663 24.7079C12.6139 24.8555 12.8309 24.9277 13.0502 24.8811C13.3947 24.8079 13.6146 24.4694 13.5414 24.1249Z" fill="url(#paint28_linear_338_1025)"/>
<path d="M15.8922 23.6442C15.5595 22.0594 14.7759 20.6141 13.6263 19.4645C12.4768 18.3149 11.0315 17.5314 9.44667 17.1986C9.02548 17.1102 8.61231 17.3799 8.52388 17.8011C8.43541 18.2223 8.70518 18.6355 9.12637 18.7239C10.4142 18.9943 11.5892 19.6315 12.5242 20.5666C13.4593 21.5016 14.0965 22.6766 14.3669 23.9644C14.3991 24.1181 14.4746 24.2516 14.5779 24.3549C14.7578 24.5348 15.0221 24.6231 15.2897 24.567C15.7109 24.4786 15.9807 24.0654 15.8922 23.6442Z" fill="url(#paint29_linear_338_1025)"/>
</g>
<g clip-path="url(#clip2_338_1025)">
<path d="M33.1343 24.9734C33.1298 24.983 33.1253 24.9927 33.1208 25.0023C32.9437 25.379 32.3773 25.2295 32.4122 24.8146C32.476 24.0565 32.3822 23.2729 32.109 22.5098C31.2224 20.0329 28.2453 17.2126 25.6091 17.182C25.3276 17.1787 25.166 17.501 25.3321 17.7283C25.5536 18.0312 25.7335 18.3727 25.8609 18.7473C26.2789 19.977 26.0216 21.2862 25.2855 22.2589C24.9786 22.6644 24.327 22.4642 24.3163 21.9558C24.3162 21.9521 24.3161 21.9484 24.3161 21.9447C24.3118 21.6752 24.356 21.4164 24.4408 21.1767C24.4782 21.0711 24.3802 20.9671 24.2729 20.9994C22.7784 21.4499 21.642 23.649 21.642 25.2177C21.642 25.3322 21.6484 25.4453 21.6602 25.5567C21.6617 25.7651 21.6969 25.977 21.7705 26.1854C21.7731 26.1929 21.7758 26.2003 21.7785 26.2078C21.8014 26.2719 21.8258 26.335 21.8508 26.3977C21.4969 25.965 21.1958 25.4873 20.9576 24.9745C20.847 24.7362 20.4968 24.7835 20.4538 25.0427C20.3772 25.5043 20.337 25.9544 20.337 26.3824C20.337 30.0875 23.3406 33.091 27.0457 33.091C30.7507 33.091 33.7543 30.0875 33.7543 26.3824C33.7543 25.9544 33.7142 25.5042 33.6375 25.0426C33.5946 24.784 33.2446 24.7356 33.1343 24.9734Z" fill="url(#paint30_linear_338_1025)"/>
<path d="M21.6417 25.2176C21.6417 25.3321 21.648 25.4452 21.6599 25.5566C21.6613 25.765 21.6965 25.9768 21.7701 26.1853C21.7728 26.1928 21.7754 26.2002 21.7781 26.2077C21.8011 26.2717 21.8254 26.3349 21.8505 26.3975C21.4965 25.9648 21.1954 25.4872 20.9573 24.9744C20.8466 24.7361 20.4964 24.7834 20.4534 25.0426C20.3768 25.5041 20.3367 25.9543 20.3367 26.3822C20.3366 30.0874 23.3402 33.0909 27.0453 33.0909C30.7504 33.0909 33.7539 30.0874 33.7539 26.3823C33.7539 25.9543 33.7138 25.5041 33.6371 25.0425C33.5942 24.7839 33.2442 24.7355 33.1339 24.9732C33.1294 24.9829 33.1249 24.9925 33.1203 25.0022C32.9433 25.3789 32.3769 25.2293 32.4118 24.8145C32.4266 24.639 32.4325 24.4621 32.4301 24.2845H21.7563C21.6816 24.6072 21.6417 24.9235 21.6417 25.2176Z" fill="url(#paint31_linear_338_1025)"/>
<path d="M21.6417 25.2176C21.6417 25.3321 21.648 25.4452 21.6599 25.5566C21.6613 25.765 21.6965 25.9768 21.7701 26.1853C21.7728 26.1928 21.7754 26.2002 21.7781 26.2077C21.8011 26.2717 21.8254 26.3349 21.8505 26.3975C21.4965 25.9648 21.1954 25.4872 20.9573 24.9744C20.8466 24.7361 20.4964 24.7834 20.4534 25.0426C20.3768 25.5041 20.3367 25.9543 20.3367 26.3822C20.3366 30.0874 23.3402 33.0909 27.0453 33.0909C30.7504 33.0909 33.7539 30.0874 33.7539 26.3823C33.7539 25.9543 33.7138 25.5041 33.6371 25.0425C33.5942 24.7839 33.2442 24.7355 33.1339 24.9732C33.1294 24.9829 33.1249 24.9925 33.1203 25.0022C32.9433 25.3789 32.3769 25.2293 32.4118 24.8145C32.4266 24.639 32.4325 24.4621 32.4301 24.2845H21.7563C21.6816 24.6072 21.6417 24.9235 21.6417 25.2176Z" fill="url(#paint32_linear_338_1025)"/>
<path d="M33.754 26.3823C33.754 25.9543 33.7139 25.5041 33.6372 25.0425C33.5943 24.784 33.2443 24.7355 33.1339 24.9733C33.1295 24.983 33.125 24.9926 33.1204 25.0022C32.9434 25.379 32.377 25.2294 32.4119 24.8146C32.4756 24.0564 32.3819 23.2728 32.1087 22.5097C31.222 20.0328 28.245 17.2125 25.6088 17.1819C25.3273 17.1786 25.1657 17.5009 25.3318 17.7282C25.5533 18.0312 25.7332 18.3727 25.8606 18.7473C26.2786 19.977 26.0213 21.2862 25.2852 22.2589C25.1323 22.4608 24.8941 22.5124 24.692 22.4507V32.6661C25.4243 32.9405 26.2172 33.091 27.0454 33.091C30.7504 33.091 33.754 30.0874 33.754 26.3823Z" fill="url(#paint33_linear_338_1025)"/>
<path d="M33.2428 28.9545L28.8817 24.5933L24.4304 30.9928L26.5069 33.0693C26.6846 33.0834 26.8641 33.0909 27.0454 33.0909C29.8392 33.0909 32.2337 31.383 33.2428 28.9545Z" fill="url(#paint34_linear_338_1025)"/>
<path d="M30.4441 27.5262C30.4416 27.5316 30.4391 27.537 30.4365 27.5424C30.3377 27.7527 30.0216 27.6692 30.041 27.4376C30.0766 27.0144 30.0243 26.577 29.8718 26.1511C29.3768 24.7684 27.715 23.1941 26.2435 23.177C26.0863 23.1752 25.9961 23.3551 26.0889 23.482C26.2125 23.6511 26.3129 23.8417 26.384 24.0508C26.6174 24.7373 26.4737 25.4681 26.0628 26.011C25.8915 26.2374 25.5278 26.1256 25.5218 25.8418C25.5218 25.8397 25.5217 25.8377 25.5217 25.8356C25.5193 25.6852 25.544 25.5407 25.5913 25.4069C25.6122 25.348 25.5575 25.2899 25.4976 25.3079C24.6634 25.5594 24.029 26.787 24.029 27.6626C24.029 27.7265 24.0326 27.7897 24.0392 27.8519C24.04 27.9682 24.0597 28.0864 24.1007 28.2028C24.1022 28.2069 24.1037 28.2111 24.1052 28.2153C24.118 28.2511 24.1316 28.2863 24.1456 28.3212C23.948 28.0797 23.7799 27.8131 23.647 27.5268C23.5852 27.3938 23.3897 27.4203 23.3657 27.5649C23.3229 27.8226 23.3005 28.0738 23.3005 28.3127C23.3005 30.3809 24.9771 32.0576 27.0454 32.0576C29.1136 32.0576 30.7902 30.3809 30.7902 28.3127C30.7902 28.0738 30.7678 27.8225 30.725 27.5648C30.7011 27.4205 30.5057 27.3935 30.4441 27.5262Z" fill="url(#paint35_linear_338_1025)"/>
<path d="M30.7903 28.3127C30.7903 28.0738 30.7679 27.8225 30.7251 27.5648C30.7011 27.4205 30.5058 27.3935 30.4442 27.5262C30.4416 27.5316 30.4392 27.5369 30.4366 27.5423C30.3378 27.7526 30.0216 27.6691 30.0411 27.4376C30.0767 27.0144 30.0243 26.577 29.8718 26.151C29.3769 24.7684 27.7151 23.194 26.2435 23.177C26.0864 23.1751 25.9962 23.355 26.0889 23.4819C26.2126 23.651 26.313 23.8417 26.3841 24.0508C26.6174 24.7372 26.4738 25.468 26.0629 26.011C25.9776 26.1237 25.8446 26.1525 25.7318 26.1181V31.8204C26.1406 31.9735 26.5832 32.0575 27.0455 32.0575C29.1137 32.0575 30.7903 30.3809 30.7903 28.3127Z" fill="url(#paint36_linear_338_1025)"/>
<path d="M24.029 27.6626C24.029 27.7265 24.0326 27.7896 24.0392 27.8519C24.04 27.9682 24.0597 28.0864 24.1007 28.2028C24.1022 28.2069 24.1037 28.2111 24.1052 28.2153C24.118 28.251 24.1316 28.2862 24.1456 28.3212C23.948 28.0797 23.7799 27.8131 23.647 27.5268C23.5852 27.3938 23.3897 27.4203 23.3657 27.5649C23.3229 27.8226 23.3005 28.0738 23.3005 28.3127C23.3005 30.3809 24.9771 32.0575 27.0454 32.0575C29.1136 32.0575 30.7902 30.3809 30.7902 28.3127C30.7902 28.0738 30.7678 27.8225 30.725 27.5648C30.701 27.4205 30.5056 27.3935 30.4441 27.5262C30.4415 27.5316 30.4391 27.537 30.4365 27.5423C30.3377 27.7526 30.0215 27.6691 30.041 27.4376C30.0492 27.3396 30.0525 27.2409 30.0512 27.1417H24.0931C24.0513 27.3219 24.029 27.4984 24.029 27.6626Z" fill="url(#paint37_linear_338_1025)"/>
<path d="M24.029 27.6626C24.029 27.7265 24.0326 27.7896 24.0392 27.8519C24.04 27.9682 24.0597 28.0864 24.1007 28.2028C24.1022 28.2069 24.1037 28.2111 24.1052 28.2153C24.118 28.251 24.1316 28.2862 24.1456 28.3212C23.948 28.0797 23.7799 27.8131 23.647 27.5268C23.5852 27.3938 23.3897 27.4203 23.3657 27.5649C23.3229 27.8226 23.3005 28.0738 23.3005 28.3127C23.3005 30.3809 24.9771 32.0575 27.0454 32.0575C29.1136 32.0575 30.7902 30.3809 30.7902 28.3127C30.7902 28.0738 30.7678 27.8225 30.725 27.5648C30.701 27.4205 30.5056 27.3935 30.4441 27.5262C30.4415 27.5316 30.4391 27.537 30.4365 27.5423C30.3377 27.7526 30.0215 27.6691 30.041 27.4376C30.0492 27.3396 30.0525 27.2409 30.0512 27.1417H24.0931C24.0513 27.3219 24.029 27.4984 24.029 27.6626Z" fill="url(#paint38_linear_338_1025)"/>
<path d="M21.0539 22.7538C21.5447 22.8544 21.9359 22.3496 21.7399 21.8885C21.5935 21.5438 21.6165 21.1347 21.8374 20.7981C21.8377 20.7976 21.8381 20.797 21.8385 20.7964C21.8943 20.7117 21.8497 20.5976 21.7507 20.5753C21.2931 20.4722 20.7994 20.6548 20.5269 21.0701C20.1756 21.6053 20.3247 22.3239 20.8599 22.6751C20.9199 22.7144 20.9853 22.7397 21.0539 22.7538Z" fill="url(#paint39_linear_338_1025)"/>
<path d="M21.0539 22.7538C21.5447 22.8544 21.9359 22.3496 21.7399 21.8885C21.5935 21.5438 21.6165 21.1347 21.8374 20.7981C21.8377 20.7976 21.8381 20.797 21.8385 20.7964C21.8943 20.7117 21.8497 20.5976 21.7507 20.5753C21.2931 20.4722 20.7994 20.6548 20.5269 21.0701C20.1756 21.6053 20.3247 22.3239 20.8599 22.6751C20.9199 22.7144 20.9853 22.7397 21.0539 22.7538Z" fill="url(#paint40_linear_338_1025)"/>
<path d="M21.0539 22.7538C21.5447 22.8544 21.9359 22.3496 21.7399 21.8885C21.5935 21.5438 21.6165 21.1347 21.8374 20.7981C21.8377 20.7976 21.8381 20.797 21.8385 20.7964C21.8943 20.7117 21.8497 20.5976 21.7507 20.5753C21.2931 20.4722 20.7994 20.6548 20.5269 21.0701C20.1756 21.6053 20.3247 22.3239 20.8599 22.6751C20.9199 22.7144 20.9853 22.7397 21.0539 22.7538Z" fill="url(#paint41_linear_338_1025)"/>
</g>
<defs>
<linearGradient id="paint0_linear_338_1025" x1="16.7666" y1="0.676292" x2="18.0184" y2="1.92805" gradientUnits="userSpaceOnUse">
<stop stop-color="#FEF0AE"/>
<stop offset="1" stop-color="#FAC600"/>
</linearGradient>
<linearGradient id="paint1_linear_338_1025" x1="17.5001" y1="1.1797" x2="17.5001" y2="2.00448" gradientUnits="userSpaceOnUse">
<stop stop-color="#FE9738" stop-opacity="0"/>
<stop offset="1" stop-color="#FE9738"/>
</linearGradient>
<linearGradient id="paint2_linear_338_1025" x1="17.4085" y1="1.33087" x2="18.6365" y2="2.3901" gradientUnits="userSpaceOnUse">
<stop stop-color="#FE9738" stop-opacity="0"/>
<stop offset="1" stop-color="#FE9738"/>
</linearGradient>
<linearGradient id="paint3_linear_338_1025" x1="14.0866" y1="8.13353" x2="19.3768" y2="8.13353" gradientUnits="userSpaceOnUse">
<stop stop-color="#FEF0AE"/>
<stop offset="1" stop-color="#FAC600"/>
</linearGradient>
<linearGradient id="paint4_linear_338_1025" x1="17.8936" y1="8.22886" x2="22.1731" y2="8.75006" gradientUnits="userSpaceOnUse">
<stop stop-color="#FE9738" stop-opacity="0"/>
<stop offset="1" stop-color="#FE9738"/>
</linearGradient>
<linearGradient id="paint5_linear_338_1025" x1="17.5" y1="8.03773" x2="17.5" y2="11.0283" gradientUnits="userSpaceOnUse">
<stop stop-color="#FE9738" stop-opacity="0"/>
<stop offset="1" stop-color="#FE9738"/>
</linearGradient>
<linearGradient id="paint6_linear_338_1025" x1="17.5" y1="9.73151" x2="17.5" y2="15.7852" gradientUnits="userSpaceOnUse">
<stop stop-color="#FEF0AE"/>
<stop offset="1" stop-color="#FAC600"/>
</linearGradient>
<linearGradient id="paint7_linear_338_1025" x1="17.5" y1="13.435" x2="17.5" y2="16.1445" gradientUnits="userSpaceOnUse">
<stop stop-color="#FE9738" stop-opacity="0"/>
<stop offset="1" stop-color="#FE9738"/>
</linearGradient>
<linearGradient id="paint8_linear_338_1025" x1="16.2276" y1="7.16243" x2="18.253" y2="16.2896" gradientUnits="userSpaceOnUse">
<stop stop-color="#FE9738" stop-opacity="0"/>
<stop offset="1" stop-color="#FE9738"/>
</linearGradient>
<linearGradient id="paint9_linear_338_1025" x1="17.5" y1="13.8964" x2="17.5" y2="10.4374" gradientUnits="userSpaceOnUse">
<stop stop-color="#FE9738" stop-opacity="0"/>
<stop offset="1" stop-color="#FE9738"/>
</linearGradient>
<linearGradient id="paint10_linear_338_1025" x1="20.3033" y1="13.2488" x2="23.0722" y2="15.2871" gradientUnits="userSpaceOnUse">
<stop stop-color="#FE9738" stop-opacity="0"/>
<stop offset="1" stop-color="#FE9738"/>
</linearGradient>
<linearGradient id="paint11_linear_338_1025" x1="20.7183" y1="14.0445" x2="18.4621" y2="11.8653" gradientUnits="userSpaceOnUse">
<stop stop-color="#FE9738" stop-opacity="0"/>
<stop offset="1" stop-color="#FE9738"/>
</linearGradient>
<linearGradient id="paint12_linear_338_1025" x1="16.5474" y1="11.1921" x2="18.7651" y2="12.6407" gradientUnits="userSpaceOnUse">
<stop stop-color="#F5FBFF"/>
<stop offset="1" stop-color="#DBD5EF"/>
</linearGradient>
<linearGradient id="paint13_linear_338_1025" x1="17.3674" y1="12.5299" x2="17.7007" y2="10.2738" gradientUnits="userSpaceOnUse">
<stop stop-color="#DBD5EF" stop-opacity="0"/>
<stop offset="0.2853" stop-color="#D9D2EE" stop-opacity="0.285"/>
<stop offset="0.4739" stop-color="#D4C9E9" stop-opacity="0.474"/>
<stop offset="0.6346" stop-color="#CBBAE2" stop-opacity="0.635"/>
<stop offset="0.7795" stop-color="#BFA5D7" stop-opacity="0.78"/>
<stop offset="0.9126" stop-color="#AF8ACA" stop-opacity="0.913"/>
<stop offset="1" stop-color="#A274BF"/>
</linearGradient>
<linearGradient id="paint14_linear_338_1025" x1="17.6307" y1="12.1479" x2="19.7843" y2="12.1479" gradientUnits="userSpaceOnUse">
<stop stop-color="#DBD5EF" stop-opacity="0"/>
<stop offset="0.2853" stop-color="#D9D2EE" stop-opacity="0.285"/>
<stop offset="0.4739" stop-color="#D4C9E9" stop-opacity="0.474"/>
<stop offset="0.6346" stop-color="#CBBAE2" stop-opacity="0.635"/>
<stop offset="0.7795" stop-color="#BFA5D7" stop-opacity="0.78"/>
<stop offset="0.9126" stop-color="#AF8ACA" stop-opacity="0.913"/>
<stop offset="1" stop-color="#A274BF"/>
</linearGradient>
<linearGradient id="paint15_linear_338_1025" x1="17.1562" y1="11.5971" x2="18.8483" y2="13.6225" gradientUnits="userSpaceOnUse">
<stop stop-color="#DBD5EF" stop-opacity="0"/>
<stop offset="0.2853" stop-color="#D9D2EE" stop-opacity="0.285"/>
<stop offset="0.4739" stop-color="#D4C9E9" stop-opacity="0.474"/>
<stop offset="0.6346" stop-color="#CBBAE2" stop-opacity="0.635"/>
<stop offset="0.7795" stop-color="#BFA5D7" stop-opacity="0.78"/>
<stop offset="0.9126" stop-color="#AF8ACA" stop-opacity="0.913"/>
<stop offset="1" stop-color="#A274BF"/>
</linearGradient>
<linearGradient id="paint16_linear_338_1025" x1="6.65581" y1="26.4335" x2="3.64432" y2="29.445" gradientUnits="userSpaceOnUse">
<stop stop-color="#BBEC6C"/>
<stop offset="1" stop-color="#81B823"/>
</linearGradient>
<linearGradient id="paint17_linear_338_1025" x1="5.38167" y1="27.7077" x2="6.7415" y2="26.3479" gradientUnits="userSpaceOnUse">
<stop stop-color="#BBEC6C"/>
<stop offset="1" stop-color="#81B823"/>
</linearGradient>
<linearGradient id="paint18_linear_338_1025" x1="4.9298" y1="28.1595" x2="3.5127" y2="29.5766" gradientUnits="userSpaceOnUse">
<stop stop-color="#026841" stop-opacity="0"/>
<stop offset="0.2391" stop-color="#0A6644" stop-opacity="0.239"/>
<stop offset="0.6113" stop-color="#20604D" stop-opacity="0.611"/>
<stop offset="1" stop-color="#3E5959"/>
</linearGradient>
<linearGradient id="paint19_linear_338_1025" x1="9.31103" y1="30.77" x2="9.41946" y2="33.734" gradientUnits="userSpaceOnUse">
<stop stop-color="#026841" stop-opacity="0"/>
<stop offset="0.2391" stop-color="#0A6644" stop-opacity="0.239"/>
<stop offset="0.6113" stop-color="#20604D" stop-opacity="0.611"/>
<stop offset="1" stop-color="#3E5959"/>
</linearGradient>
<linearGradient id="paint20_linear_338_1025" x1="5.1463" y1="19.685" x2="2.70906" y2="22.1222" gradientUnits="userSpaceOnUse">
<stop stop-color="#BBEC6C"/>
<stop offset="1" stop-color="#81B823"/>
</linearGradient>
<linearGradient id="paint21_linear_338_1025" x1="5.08415" y1="19.7471" x2="1.64121" y2="23.1901" gradientUnits="userSpaceOnUse">
<stop stop-color="#026841" stop-opacity="0"/>
<stop offset="0.2391" stop-color="#0A6644" stop-opacity="0.239"/>
<stop offset="0.6113" stop-color="#20604D" stop-opacity="0.611"/>
<stop offset="1" stop-color="#3E5959"/>
</linearGradient>
<linearGradient id="paint22_linear_338_1025" x1="5.68047" y1="19.1507" x2="3.17726" y2="21.6539" gradientUnits="userSpaceOnUse">
<stop stop-color="#026841" stop-opacity="0"/>
<stop offset="0.2391" stop-color="#0A6644" stop-opacity="0.239"/>
<stop offset="0.6113" stop-color="#20604D" stop-opacity="0.611"/>
<stop offset="1" stop-color="#3E5959"/>
</linearGradient>
<linearGradient id="paint23_linear_338_1025" x1="13.4041" y1="27.943" x2="10.9669" y2="30.3803" gradientUnits="userSpaceOnUse">
<stop stop-color="#BBEC6C"/>
<stop offset="1" stop-color="#81B823"/>
</linearGradient>
<linearGradient id="paint24_linear_338_1025" x1="13.3421" y1="28.0052" x2="9.89913" y2="31.4481" gradientUnits="userSpaceOnUse">
<stop stop-color="#026841" stop-opacity="0"/>
<stop offset="0.2391" stop-color="#0A6644" stop-opacity="0.239"/>
<stop offset="0.6113" stop-color="#20604D" stop-opacity="0.611"/>
<stop offset="1" stop-color="#3E5959"/>
</linearGradient>
<linearGradient id="paint25_linear_338_1025" x1="13.9385" y1="27.4087" x2="11.4353" y2="29.9119" gradientUnits="userSpaceOnUse">
<stop stop-color="#026841" stop-opacity="0"/>
<stop offset="0.2391" stop-color="#0A6644" stop-opacity="0.239"/>
<stop offset="0.6113" stop-color="#20604D" stop-opacity="0.611"/>
<stop offset="1" stop-color="#3E5959"/>
</linearGradient>
<linearGradient id="paint26_linear_338_1025" x1="11.9638" y1="31.8146" x2="12.8313" y2="32.9713" gradientUnits="userSpaceOnUse">
<stop stop-color="#026841" stop-opacity="0"/>
<stop offset="0.2391" stop-color="#0A6644" stop-opacity="0.239"/>
<stop offset="0.6113" stop-color="#20604D" stop-opacity="0.611"/>
<stop offset="1" stop-color="#3E5959"/>
</linearGradient>
<linearGradient id="paint27_linear_338_1025" x1="9.67123" y1="23.4187" x2="10.2676" y2="22.8223" gradientUnits="userSpaceOnUse">
<stop stop-color="#FEF0AE"/>
<stop offset="1" stop-color="#FBC56D"/>
</linearGradient>
<linearGradient id="paint28_linear_338_1025" x1="11.0267" y1="22.0633" x2="11.6977" y2="21.3924" gradientUnits="userSpaceOnUse">
<stop stop-color="#FEF0AE"/>
<stop offset="1" stop-color="#FBC56D"/>
</linearGradient>
<linearGradient id="paint29_linear_338_1025" x1="12.5087" y1="20.5813" x2="13.3252" y2="19.7648" gradientUnits="userSpaceOnUse">
<stop stop-color="#FEF0AE"/>
<stop offset="1" stop-color="#FBC56D"/>
</linearGradient>
<linearGradient id="paint30_linear_338_1025" x1="23.5698" y1="22.6686" x2="30.1315" y2="29.2304" gradientUnits="userSpaceOnUse">
<stop stop-color="#FFA1AE"/>
<stop offset="1" stop-color="#FF4565"/>
</linearGradient>
<linearGradient id="paint31_linear_338_1025" x1="28.5401" y1="28.7687" x2="30.8659" y2="31.5819" gradientUnits="userSpaceOnUse">
<stop stop-color="#FE0364" stop-opacity="0"/>
<stop offset="0.2343" stop-color="#F90362" stop-opacity="0.234"/>
<stop offset="0.5173" stop-color="#EA035B" stop-opacity="0.517"/>
<stop offset="0.8243" stop-color="#D20250" stop-opacity="0.824"/>
<stop offset="1" stop-color="#C00148"/>
</linearGradient>
<linearGradient id="paint32_linear_338_1025" x1="26.8345" y1="28.6557" x2="26.4137" y2="33.2187" gradientUnits="userSpaceOnUse">
<stop stop-color="#FE0364" stop-opacity="0"/>
<stop offset="0.2343" stop-color="#F90362" stop-opacity="0.234"/>
<stop offset="0.5173" stop-color="#EA035B" stop-opacity="0.517"/>
<stop offset="0.8243" stop-color="#D20250" stop-opacity="0.824"/>
<stop offset="1" stop-color="#C00148"/>
</linearGradient>
<linearGradient id="paint33_linear_338_1025" x1="28.6918" y1="24.3717" x2="32.8561" y2="22.4668" gradientUnits="userSpaceOnUse">
<stop stop-color="#FE0364" stop-opacity="0"/>
<stop offset="0.2343" stop-color="#F90362" stop-opacity="0.234"/>
<stop offset="0.5173" stop-color="#EA035B" stop-opacity="0.517"/>
<stop offset="0.8243" stop-color="#D20250" stop-opacity="0.824"/>
<stop offset="1" stop-color="#C00148"/>
</linearGradient>
<linearGradient id="paint34_linear_338_1025" x1="32.0878" y1="32.0787" x2="26.9932" y2="28.3131" gradientUnits="userSpaceOnUse">
<stop stop-color="#FE0364" stop-opacity="0"/>
<stop offset="0.2343" stop-color="#F90362" stop-opacity="0.234"/>
<stop offset="0.5173" stop-color="#EA035B" stop-opacity="0.517"/>
<stop offset="0.8243" stop-color="#D20250" stop-opacity="0.824"/>
<stop offset="1" stop-color="#C00148"/>
</linearGradient>
<linearGradient id="paint35_linear_338_1025" x1="25.5074" y1="26.4669" x2="28.5199" y2="29.9667" gradientUnits="userSpaceOnUse">
<stop stop-color="#FEF0AE"/>
<stop offset="1" stop-color="#FAC600"/>
</linearGradient>
<linearGradient id="paint36_linear_338_1025" x1="28.7516" y1="26.9888" x2="29.7705" y2="26.6344" gradientUnits="userSpaceOnUse">
<stop stop-color="#FE9738" stop-opacity="0"/>
<stop offset="1" stop-color="#FE9738"/>
</linearGradient>
<linearGradient id="paint37_linear_338_1025" x1="26.0055" y1="30.2028" x2="25.2524" y2="31.4285" gradientUnits="userSpaceOnUse">
<stop stop-color="#FE9738" stop-opacity="0"/>
<stop offset="1" stop-color="#FE9738"/>
</linearGradient>
<linearGradient id="paint38_linear_338_1025" x1="27.9423" y1="30.3265" x2="28.533" y2="31.5817" gradientUnits="userSpaceOnUse">
<stop stop-color="#FE9738" stop-opacity="0"/>
<stop offset="1" stop-color="#FE9738"/>
</linearGradient>
<linearGradient id="paint39_linear_338_1025" x1="20.6692" y1="21.0864" x2="22.0426" y2="22.2382" gradientUnits="userSpaceOnUse">
<stop stop-color="#FFA1AE"/>
<stop offset="1" stop-color="#FF4565"/>
</linearGradient>
<linearGradient id="paint40_linear_338_1025" x1="21.0351" y1="21.9486" x2="20.7249" y2="22.7571" gradientUnits="userSpaceOnUse">
<stop stop-color="#FE0364" stop-opacity="0"/>
<stop offset="0.2343" stop-color="#F90362" stop-opacity="0.234"/>
<stop offset="0.5173" stop-color="#EA035B" stop-opacity="0.517"/>
<stop offset="0.8243" stop-color="#D20250" stop-opacity="0.824"/>
<stop offset="1" stop-color="#C00148"/>
</linearGradient>
<linearGradient id="paint41_linear_338_1025" x1="21.0271" y1="21.5542" x2="22.035" y2="21.8532" gradientUnits="userSpaceOnUse">
<stop stop-color="#FE0364" stop-opacity="0"/>
<stop offset="0.2343" stop-color="#F90362" stop-opacity="0.234"/>
<stop offset="0.5173" stop-color="#EA035B" stop-opacity="0.517"/>
<stop offset="0.8243" stop-color="#D20250" stop-opacity="0.824"/>
<stop offset="1" stop-color="#C00148"/>
</linearGradient>
<clipPath id="clip0_338_1025">
<rect width="15.9091" height="15.9091" fill="white" transform="translate(9.54541)"/>
</clipPath>
<clipPath id="clip1_338_1025">
<rect width="15.9091" height="15.9091" fill="white" transform="translate(0 17.1818)"/>
</clipPath>
<clipPath id="clip2_338_1025">
<rect width="15.9091" height="15.9091" fill="white" transform="translate(19.0908 17.1818)"/>
</clipPath>
</defs>
</svg>
