<svg width="31" height="30" viewBox="0 0 31 30" fill="none" xmlns="http://www.w3.org/2000/svg">
<g clip-path="url(#clip0_338_1144)">
<path d="M20.9679 27.3445L18.5703 29.7427C18.5288 29.7842 18.3044 30.0001 17.9486 30C17.5932 29.9999 17.3691 29.7842 17.3275 29.7427L12.7725 25.1877C12.8326 24.0408 12.8929 22.8939 12.953 21.747C14.1223 21.6963 15.2916 21.6455 16.4609 21.5947L20.9679 26.1017C21.3112 26.4451 21.3112 27.0017 20.9679 27.3445Z" fill="#344147"/>
<path d="M12.2011 17.3227C11.5508 19.3228 10.9005 21.3228 10.2502 23.3228C8.08642 24.137 5.92268 24.9512 3.75894 25.7654C3.45408 25.4605 3.14916 25.1556 2.84429 24.8508C2.6241 24.6305 1.47625 23.4382 1.47614 21.5473C1.47602 19.6559 2.62422 18.4634 2.84429 18.2432L7.36596 13.7215C7.4181 13.6676 7.6349 13.4373 7.94017 13.0494C9.01935 13.1628 10.0985 13.276 11.1777 13.3893C11.5189 14.7005 11.86 16.0116 12.2011 17.3227Z" fill="#F3F5FC"/>
<path d="M16.4609 21.5947C16.2489 21.7624 16.0272 21.9501 15.8005 22.1596C15.5676 22.3748 15.358 22.5867 15.1701 22.79C13.8736 24.0865 12.5771 25.383 11.2806 26.6795C11.0594 26.9002 9.86705 28.0457 7.97712 28.0459C6.08678 28.046 4.89416 26.9001 4.67303 26.6795L3.75897 25.7654L12.2011 17.3227C13.4258 17.318 14.6505 17.3135 15.8752 17.3088C16.0704 18.7375 16.2656 20.1661 16.4609 21.5947Z" fill="#DCE0EA"/>
<path d="M8.82262 19.5463L6.42497 21.944C6.25329 22.1156 6.02829 22.2018 5.80329 22.2018C5.57829 22.2018 5.35388 22.1156 5.1822 21.944C4.83884 21.6006 4.83884 21.0445 5.1822 20.7012L7.57985 18.3035C7.92321 17.9602 8.47984 17.9602 8.82262 18.3035C9.16597 18.6469 9.16597 19.203 8.82262 19.5463Z" fill="#43555C"/>
<path d="M11.2203 21.944L8.82261 24.3422C8.65093 24.5133 8.42652 24.5994 8.20152 24.5994C7.97652 24.5994 7.75152 24.5133 7.57985 24.3422C7.23649 23.9988 7.23649 23.4422 7.57985 23.0988L9.97749 20.7012C10.3208 20.3578 10.8775 20.3578 11.2203 20.7012C11.5636 21.0445 11.5636 21.6006 11.2203 21.944Z" fill="#344147"/>
<path d="M23.232 6.29187C23.0636 6.9722 22.8953 7.65252 22.7269 8.33285C22.096 8.45174 21.4651 8.57063 20.8343 8.68951C19.9791 8.59055 19.124 8.49164 18.2688 8.39268C18.3818 7.74944 18.4947 7.1062 18.6078 6.46296L18.7789 6.29187C20.0063 5.06433 22.0044 5.06433 23.232 6.29187Z" fill="#FFE666"/>
<path d="M23.232 10.745L23.0609 10.9161C22.3412 10.9227 21.6215 10.9293 20.9018 10.9359C20.8793 10.1871 20.8568 9.43828 20.8344 8.68952C21.6336 7.8903 22.4328 7.09109 23.232 6.29187C24.4601 7.51999 24.4601 9.51744 23.232 10.745Z" fill="#FFBB33"/>
<path d="M20.8343 8.68952C19.9792 10.7947 19.124 12.8999 18.2688 15.005C16.2484 15.7756 14.228 16.5462 12.2076 17.3168C10.7851 15.8944 9.36272 14.4719 7.94025 13.0495C8.41134 12.453 9.09161 11.4838 9.7045 10.2112C11.1178 7.27683 11.5262 4.19306 10.9174 1.046C10.8441 0.666313 11.0275 0.283697 11.3686 0.102643C11.7096 -0.0784106 12.1291 -0.0157155 12.4021 0.25733C15.2129 3.06806 18.0236 5.87879 20.8343 8.68952Z" fill="#FF4D4D"/>
<path d="M29.4212 18.1553C29.2401 18.4969 28.8575 18.6797 28.4784 18.6065C25.3308 17.9977 22.247 18.4061 19.3126 19.8194C18.0394 20.4322 17.0708 21.1131 16.4744 21.5836L12.2076 17.3168L20.8343 8.68951L29.2665 17.1217C29.5395 17.3948 29.6022 17.8143 29.4212 18.1553Z" fill="#E62E2E"/>
<path d="M27.5169 2.00691C27.1869 2.58962 26.8568 3.17233 26.5268 3.75505C25.8541 4.17504 25.1814 4.5951 24.5087 5.0151C24.4673 4.97373 24.2512 4.74955 24.2512 4.39395C24.2512 4.16901 24.337 3.94401 24.5087 3.77233L26.2741 2.00691C26.6175 1.66355 27.1742 1.66355 27.5169 2.00691Z" fill="#FFBB33"/>
<path d="M21.0983 3.58153C20.6161 3.58153 20.2194 3.1848 20.2194 2.70263V0.879025C20.2194 0.396859 20.6161 0.00012207 21.0983 0.00012207C21.5804 0.00012207 21.9772 0.396859 21.9772 0.879025V2.70263C21.9772 3.1848 21.5804 3.58153 21.0983 3.58153Z" fill="#FFBB33"/>
<path d="M28.645 9.30456H26.8213C26.336 9.30456 25.9424 8.91104 25.9424 8.42566C25.9424 7.94027 26.336 7.54675 26.8213 7.54675H28.645C29.1303 7.54675 29.5239 7.94027 29.5239 8.42566C29.5239 8.91104 29.1303 9.30456 28.645 9.30456Z" fill="#FF9933"/>
<path d="M27.5169 3.24973L25.7515 5.01515C25.7104 5.0564 25.486 5.27308 25.1298 5.27296C24.774 5.27284 24.55 5.05646 24.5087 5.01515L27.5169 2.00696C27.8602 2.35032 27.8602 2.90695 27.5169 3.24973Z" fill="#FF9933"/>
</g>
<defs>
<clipPath id="clip0_338_1144">
<rect width="30" height="30" fill="white" transform="translate(0.5)"/>
</clipPath>
</defs>
</svg>
