<svg width="31" height="30" viewBox="0 0 31 30" fill="none" xmlns="http://www.w3.org/2000/svg">
<g clip-path="url(#clip0_353_779)">
<path d="M7.14863 18.1293L6.10438 22.0277L2.28764 22.1084C1.14699 19.9928 0.5 17.5722 0.5 14.9999C0.5 12.5126 1.10492 10.1669 2.17719 8.10156H2.17801L5.57598 8.72453L7.06449 12.1021C6.75295 13.0104 6.58314 13.9854 6.58314 14.9999C6.58326 16.101 6.78271 17.156 7.14863 18.1293Z" fill="#FBBB00"/>
<path d="M30.2382 12.1978C30.4105 13.1051 30.5003 14.0422 30.5003 14.9999C30.5003 16.0738 30.3874 17.1214 30.1723 18.1318C29.4421 21.5703 27.5341 24.5728 24.891 26.6975L24.8902 26.6967L20.6103 26.4783L20.0045 22.6969C21.7584 21.6684 23.129 20.0587 23.851 18.1318H15.8301V12.1978H23.968H30.2382Z" fill="#518EF8"/>
<path d="M24.8903 26.6967L24.8911 26.6975C22.3205 28.7637 19.0551 30 15.5004 30C9.78809 30 4.82162 26.8071 2.28809 22.1085L7.14908 18.1294C8.41582 21.5101 11.6771 23.9168 15.5004 23.9168C17.1438 23.9168 18.6834 23.4725 20.0046 22.697L24.8903 26.6967Z" fill="#28B446"/>
<path d="M25.074 3.45328L20.2147 7.43156C18.8474 6.57691 17.2311 6.0832 15.4996 6.0832C11.5897 6.0832 8.2674 8.60022 7.06412 12.1022L2.17758 8.10164H2.17676C4.6732 3.28846 9.70231 0 15.4996 0C19.1391 0 22.4762 1.29645 25.074 3.45328Z" fill="#F14336"/>
</g>
<defs>
<clipPath id="clip0_353_779">
<rect width="30" height="30" fill="white" transform="translate(0.5)"/>
</clipPath>
</defs>
</svg>
