<svg width="19" height="18" viewBox="0 0 19 18" fill="none" xmlns="http://www.w3.org/2000/svg">
<g clip-path="url(#clip0_159_1104)">
<path d="M9.22266 18C14.1932 18 18.2227 13.9706 18.2227 9C18.2227 4.02944 14.1932 -1.76132e-07 9.22266 -3.93402e-07C4.25209 -6.10673e-07 0.222656 4.02944 0.222656 9C0.222656 13.9706 4.25209 18 9.22266 18Z" fill="url(#paint0_linear_159_1104)"/>
<path opacity="0.1" d="M15.1421 15.7737C12.7334 14.4616 10.2489 12.6059 7.93022 10.2873C5.61154 7.96857 3.75943 5.4841 2.44733 3.07897C2.57838 2.92818 2.71496 2.78173 2.85706 2.63963C3.68735 1.78067 4.68033 1.0956 5.77812 0.62438C6.8759 0.153156 8.05651 -0.0947953 9.25112 -0.105018C10.4457 -0.11524 11.6304 0.112472 12.7361 0.56484C13.8418 1.01721 14.8463 1.68518 15.6912 2.5298C16.5361 3.37443 17.2043 4.3788 17.657 5.48436C18.1097 6.58993 18.3377 7.77455 18.3278 8.96915C18.3179 10.1638 18.0703 11.3444 17.5994 12.4424C17.1285 13.5403 16.4437 14.5334 15.585 15.364C15.4429 15.5061 15.2952 15.6427 15.1421 15.7737Z" fill="white"/>
<path d="M13.957 11.1312L13.957 6.86808C13.957 6.17712 13.6825 5.51446 13.194 5.02588C12.7054 4.5373 12.0427 4.26282 11.3518 4.26282L7.08861 4.26282C6.39765 4.26282 5.73499 4.5373 5.24641 5.02588C4.75783 5.51446 4.48335 6.17712 4.48335 6.86808L4.48335 11.1312C4.48335 11.8222 4.75783 12.4849 5.24641 12.9734C5.73499 13.462 6.39765 13.7365 7.08861 13.7365L11.3518 13.7365C12.0427 13.7365 12.7054 13.462 13.194 12.9734C13.6825 12.4849 13.957 11.8222 13.957 11.1312ZM7.46282 12.9076C6.89247 12.9076 6.34547 12.681 5.94217 12.2777C5.53887 11.8744 5.31229 11.3274 5.31229 10.757L5.31229 7.24229C5.31229 6.67194 5.53887 6.12494 5.94217 5.72164C6.34547 5.31834 6.89247 5.09176 7.46282 5.09176L10.9776 5.09176C11.5479 5.09176 12.0949 5.31834 12.4982 5.72164C12.9015 6.12494 13.1281 6.67194 13.1281 7.24229L13.1281 10.757C13.1281 11.3274 12.9015 11.8744 12.4982 12.2777C12.0949 12.681 11.5479 12.9076 10.9776 12.9076L7.46282 12.9076Z" fill="white"/>
<path d="M10.9302 10.7274L10.9527 10.7049L10.9717 10.686C11.4179 10.2382 11.6683 9.63179 11.668 8.99967C11.6658 8.68045 11.6008 8.36479 11.4766 8.07073C11.3524 7.77666 11.1714 7.50994 10.9441 7.28582C10.7168 7.06169 10.4476 6.88455 10.1518 6.76452C9.85597 6.64448 9.53942 6.58391 9.22021 6.58625C8.57238 6.58576 7.95058 6.84113 7.49007 7.29677C7.26417 7.51996 7.085 7.78591 6.963 8.0791C6.84101 8.37229 6.77864 8.68685 6.77955 9.0044C6.78954 9.48074 6.93792 9.94387 7.2066 10.3373C7.47528 10.7308 7.85265 11.0375 8.29268 11.2202C8.73271 11.4029 9.21639 11.4535 9.68472 11.366C10.1531 11.2785 10.5858 11.0567 10.9302 10.7274ZM7.61442 8.99967C7.60995 8.68115 7.70032 8.36851 7.87403 8.10149C8.04775 7.83448 8.29695 7.62516 8.58995 7.50017C8.88294 7.37517 9.2065 7.34014 9.51946 7.39954C9.83242 7.45893 10.1206 7.61007 10.3475 7.83372C10.5743 8.05737 10.7295 8.34343 10.7933 8.65553C10.8571 8.96762 10.8266 9.29163 10.7058 9.58637C10.5849 9.8811 10.3792 10.1332 10.1146 10.3107C9.85009 10.4882 9.53875 10.5829 9.22021 10.583C9.01078 10.5845 8.80311 10.5448 8.60905 10.4661C8.41499 10.3873 8.23834 10.2711 8.08922 10.1241C7.94009 9.97703 7.8214 9.80205 7.73993 9.60911C7.65846 9.41618 7.61581 9.20909 7.61442 8.99967Z" fill="white"/>
<path d="M11.7791 12.1299C11.7031 12.1305 11.6278 12.1162 11.5573 12.0876C11.4869 12.0591 11.4228 12.0169 11.3687 11.9636C11.3146 11.9102 11.2715 11.8467 11.2419 11.7767C11.2124 11.7067 11.1969 11.6315 11.1965 11.5556C11.1965 11.4802 11.2115 11.4056 11.2406 11.3361C11.2696 11.2666 11.3122 11.2035 11.3658 11.1506C11.4472 11.0703 11.5504 11.0158 11.6625 10.9936C11.7746 10.9715 11.8908 10.9827 11.9966 11.026C12.1024 11.0692 12.1931 11.1426 12.2576 11.2369C12.3221 11.3313 12.3575 11.4425 12.3594 11.5567C12.3594 11.6905 12.3125 11.82 12.2267 11.9227L12.2149 11.9345C12.1994 11.9536 12.1819 11.9711 12.1628 11.9866L12.1486 11.9996C12.0442 12.0844 11.9136 12.1304 11.7791 12.1299Z" fill="white"/>
</g>
<defs>
<linearGradient id="paint0_linear_159_1104" x1="15.5866" y1="2.63605" x2="2.85871" y2="15.3639" gradientUnits="userSpaceOnUse">
<stop stop-color="#FAE100"/>
<stop offset="0.15" stop-color="#FCB720"/>
<stop offset="0.3" stop-color="#FF7950"/>
<stop offset="0.5" stop-color="#FF1C74"/>
<stop offset="1" stop-color="#6C1CD1"/>
</linearGradient>
<clipPath id="clip0_159_1104">
<rect width="18" height="18" fill="white" transform="translate(18.2227) rotate(90)"/>
</clipPath>
</defs>
</svg>
