<svg width="19" height="19" viewBox="0 0 19 19" fill="none" xmlns="http://www.w3.org/2000/svg">
<g clip-path="url(#clip0_159_1082)">
<path d="M9.22266 18.2222C14.1932 18.2222 18.2227 14.1927 18.2227 9.22217C18.2227 4.25161 14.1932 0.222168 9.22266 0.222168C4.25209 0.222168 0.222656 4.25161 0.222656 9.22217C0.222656 14.1927 4.25209 18.2222 9.22266 18.2222Z" fill="#3B5998"/>
<path d="M11.4853 9.57515H9.8794V15.4586H7.44627V9.57515H6.28906V7.50749H7.44627V6.16947C7.44627 5.21264 7.90078 3.71436 9.90106 3.71436L11.7034 3.7219V5.72892H10.3957C10.1812 5.72892 9.87957 5.83609 9.87957 6.29252V7.50941H11.6979L11.4853 9.57515Z" fill="white"/>
</g>
<defs>
<clipPath id="clip0_159_1082">
<rect width="18" height="18" fill="white" transform="translate(0.222656 0.222168)"/>
</clipPath>
</defs>
</svg>
