<svg width="19" height="19" viewBox="0 0 19 19" fill="none" xmlns="http://www.w3.org/2000/svg">
<g clip-path="url(#clip0_159_1096)">
<path d="M9.22266 0.111084C4.25226 0.111084 0.222656 4.14069 0.222656 9.11108C0.222656 14.0815 4.25226 18.1111 9.22266 18.1111C14.193 18.1111 18.2227 14.0815 18.2227 9.11108C18.2227 4.14069 14.193 0.111084 9.22266 0.111084Z" fill="#1F2224"/>
<path d="M10.2062 8.29667L14.059 3.81812H13.146L9.80058 7.70679L7.12865 3.81812H4.04688L8.08737 9.69847L4.04688 14.3949H4.95992L8.49273 10.2884L11.3145 14.3949H14.3963L10.2059 8.29667H10.2062ZM5.28889 4.50545H6.69126L13.1464 13.7389H11.744L5.28889 4.50545Z" fill="white"/>
</g>
<defs>
<clipPath id="clip0_159_1096">
<rect width="18" height="18" fill="white" transform="translate(0.222656 0.111084)"/>
</clipPath>
</defs>
</svg>
