<svg width="16" height="16" viewBox="0 0 16 16" fill="none" xmlns="http://www.w3.org/2000/svg">
<path d="M4.66634 4.00037C3.85258 4.00281 3.40223 4.02227 3.03216 4.1776C2.51381 4.39517 2.09168 4.79705 1.84508 5.30777C1.64379 5.72462 1.61086 6.2587 1.54498 7.32687L1.44175 9.00067C1.27793 11.6569 1.19602 12.9851 1.97547 13.8259C2.75491 14.6667 4.06803 14.6667 6.69429 14.6667H9.30509C11.9314 14.6667 13.2444 14.6667 14.0239 13.8259C14.8034 12.9851 14.7214 11.6569 14.5576 9.00067L14.4544 7.32687C14.3885 6.2587 14.3556 5.72462 14.1543 5.30777C13.9077 4.79705 13.4856 4.39517 12.9672 4.1776C12.5972 4.02227 12.1468 4.00281 11.333 4.00037" stroke="#09A8F7" stroke-width="1.5" stroke-linecap="round"/>
<path d="M11.3337 4.66666L10.7431 3.19028C10.4883 2.5533 10.2666 1.83073 9.61139 1.50636C9.26193 1.33333 8.84139 1.33333 8.00033 1.33333C7.15926 1.33333 6.73873 1.33333 6.38923 1.50636C5.73406 1.83073 5.51233 2.5533 5.25755 3.19028L4.66699 4.66666" stroke="#09A8F7" stroke-width="1.5" stroke-linecap="round" stroke-linejoin="round"/>
<path d="M10.3337 9.33333C10.3337 10.622 9.28899 11.6667 8.00033 11.6667C6.71166 11.6667 5.66699 10.622 5.66699 9.33333C5.66699 8.04467 6.71166 7 8.00033 7C9.28899 7 10.3337 8.04467 10.3337 9.33333Z" stroke="#09A8F7" stroke-width="1.5"/>
<path d="M8 4H8.006" stroke="#09A8F7" stroke-width="1.5" stroke-linecap="round" stroke-linejoin="round"/>
</svg>
