<svg width="24" height="24" viewBox="0 0 24 24" fill="none" xmlns="http://www.w3.org/2000/svg">
<g clip-path="url(#clip0_106_4652)">
<path d="M12.3437 1.12299V2.54365L12.6261 7.50341C12.6261 7.76614 12.5382 8.086 12.7992 8.11621C14.7791 8.34548 16.5919 10.2863 16.5435 12.3385C16.4945 14.4171 14.517 16.3946 12.4384 16.4436C10.2313 16.4957 8.1899 14.4392 8.1899 12.2438C8.1899 11.9896 8.16708 11.7413 8.21348 11.5007H0.7107C0.695547 11.7464 0.6875 11.9941 0.6875 12.2438C0.6875 18.6814 5.90614 23.9 12.3436 23.9C18.7654 23.9 23.9999 18.6656 23.9999 12.2437C23.9999 5.98868 19.0727 0.884354 12.8878 0.600165C12.591 0.586518 12.3437 0.82586 12.3437 1.12299Z" fill="url(#paint0_linear_106_4652)"/>
<path d="M12.3934 16.4906C10.207 16.5175 8.14302 14.4241 8.14302 12.2439C8.14302 11.9896 8.16725 11.7414 8.21365 11.5007H0.710877C0.697747 11.7141 0.690312 11.9291 0.688477 12.1456L12.3934 23.8505V16.4906Z" fill="url(#paint1_linear_106_4652)"/>
<path d="M12.3438 2.54364V4.59065L12.5791 7.50341C12.5791 7.76614 12.717 8.15498 12.978 8.18524C14.9579 8.41451 16.521 10.2703 16.4725 12.3225C16.4235 14.401 14.4718 16.322 12.3933 16.3711C10.1862 16.4232 8.23702 14.4392 8.23702 12.2438C8.23702 11.9896 8.26125 11.7413 8.30765 11.5007H2.67179C2.65391 11.7358 2.64436 11.9732 2.6436 12.213C2.62694 17.5073 6.90633 21.8664 12.2 21.943C17.6233 22.0215 22.044 17.6491 22.044 12.2439C22.044 6.88646 17.7012 2.54364 12.3438 2.54364Z" fill="url(#paint2_linear_106_4652)"/>
<path d="M2.8708 14.328L10.2611 21.7183C10.8871 21.8563 11.5356 21.9334 12.2 21.9431C12.2646 21.944 12.329 21.9437 12.3933 21.9434V16.4906C10.2068 16.5175 8.18996 14.4241 8.18996 12.2439C8.18996 11.9896 8.21419 11.7414 8.26059 11.5007H2.67179C2.65391 11.7359 2.64435 11.9733 2.6436 12.2131C2.64134 12.9386 2.72021 13.6463 2.8708 14.328Z" fill="url(#paint3_linear_106_4652)"/>
<path d="M12.344 4.53851V6.41729L12.5323 7.55051C12.5323 7.81324 12.5385 8.1331 12.7995 8.16331C14.7794 8.39258 16.4981 10.2864 16.4497 12.3386C16.4006 14.4171 14.5173 16.3005 12.4387 16.3495C10.2316 16.4016 8.1902 14.4392 8.1902 12.2439C8.1902 11.9896 8.21444 11.7414 8.26084 11.5007H4.67397C4.65077 11.7454 4.63867 11.9931 4.63867 12.2439C4.63867 16.4994 8.08846 19.9492 12.344 19.9492C16.5956 19.9493 20.0495 16.4954 20.0494 12.2438C20.0494 7.9883 16.5995 4.53851 12.344 4.53851Z" fill="url(#paint4_linear_106_4652)"/>
<path d="M12.3439 19.9493C12.3605 19.9493 12.377 19.9487 12.3935 19.9486V16.3965C10.2071 16.4234 8.1902 14.4241 8.1902 12.2439C8.1902 11.9896 8.21444 11.7414 8.26084 11.5007H4.67397C4.65077 11.7454 4.63867 11.9932 4.63867 12.2439C4.63862 16.4994 8.08846 19.9493 12.3439 19.9493Z" fill="url(#paint5_linear_106_4652)"/>
<path d="M12.3435 6.4082V7.83286C12.3435 8.09559 12.5379 8.32133 12.799 8.35154C14.7788 8.58082 16.3093 10.2864 16.2609 12.3386C16.2119 14.4171 14.5167 16.1123 12.4382 16.1613C10.2311 16.2134 8.42494 14.4392 8.42494 12.2439C8.42494 11.9896 8.44918 11.7414 8.49558 11.5007H6.55473C6.52395 11.7439 6.50781 11.9921 6.50781 12.2439C6.50781 15.4944 9.16574 18.1244 12.4267 18.079C15.5697 18.0352 18.1348 15.4701 18.1786 12.3271C18.224 9.06613 15.594 6.4082 12.3435 6.4082Z" fill="url(#paint6_linear_106_4652)"/>
<path d="M12.393 18.079V16.1612C10.2065 16.1881 8.42494 14.4241 8.42494 12.2439C8.42494 11.9896 8.44918 11.7414 8.49558 11.5007H6.55473C6.52395 11.7439 6.50781 11.9921 6.50781 12.2439C6.50781 15.4832 9.14748 18.1059 12.393 18.079Z" fill="url(#paint7_linear_106_4652)"/>
<path d="M5.24508 0.0999756H3.95458C3.39501 0.0999756 2.94141 0.553576 2.94141 1.11315V1.34139C2.94141 1.82388 3.01336 2.30369 3.15496 2.76496C3.29651 3.22623 3.36851 3.70605 3.36851 4.18854V6.58713H5.8311V4.18854C5.8311 3.70605 5.90305 3.22623 6.04465 2.76496C6.18621 2.30369 6.25821 1.82388 6.25821 1.34139V1.11315C6.25825 0.553576 5.80461 0.0999756 5.24508 0.0999756Z" fill="url(#paint8_linear_106_4652)"/>
<path d="M0.660156 6.6825V12.0442C0.660156 12.1545 0.749521 12.2439 0.85978 12.2439H1.79743C1.8786 12.2439 1.95169 12.1947 1.98227 12.1196L2.14072 11.7307C2.20994 11.5608 2.45244 11.5664 2.51371 11.7393L2.64552 12.111C2.67376 12.1907 2.74914 12.2439 2.83366 12.2439H4.96298C5.03917 12.2439 5.10867 12.2006 5.14223 12.1321L5.30825 11.7935C5.36656 11.6745 5.52251 11.6443 5.621 11.733C5.70825 11.8115 5.84411 11.7982 5.91442 11.7041L6.00783 11.5792C6.10825 11.4449 6.3195 11.4868 6.36105 11.6493L6.47484 12.0938C6.49747 12.1821 6.57705 12.2439 6.6682 12.2439H8.33865C8.44891 12.2439 8.53827 12.1545 8.53827 12.0443V6.6825H0.660156Z" fill="url(#paint9_linear_106_4652)"/>
<path d="M0.660156 7.45134L5.20759 11.9988L5.30825 11.7934C5.36656 11.6744 5.52251 11.6442 5.621 11.7329C5.70825 11.8114 5.84411 11.7981 5.91442 11.704L6.00783 11.5792C6.10825 11.4448 6.3195 11.4867 6.3611 11.6492L6.47489 12.0937C6.49752 12.182 6.5771 12.2438 6.66825 12.2438H8.3387C8.44896 12.2438 8.53832 12.1544 8.53832 12.0442V6.6825H0.660156V7.45134Z" fill="url(#paint10_linear_106_4652)"/>
<path d="M7.67363 6.6825H1.52539V12.2439H1.79767C1.87885 12.2439 1.95193 12.1947 1.98252 12.1195L2.14097 11.7306C2.21019 11.5608 2.45268 11.5663 2.51396 11.7392L2.64577 12.111C2.674 12.1906 2.74939 12.2439 2.83391 12.2439H4.96323C5.03941 12.2439 5.10892 12.2005 5.14247 12.1321L5.3085 11.7935C5.3668 11.6745 5.52276 11.6443 5.62125 11.7329C5.7085 11.8114 5.84436 11.7981 5.91466 11.7041L6.00807 11.5792C6.1085 11.4449 6.31974 11.4868 6.36134 11.6492L6.47513 12.0937C6.49777 12.1821 6.57734 12.2439 6.6685 12.2439H7.67358V6.6825H7.67363Z" fill="url(#paint11_linear_106_4652)"/>
<path d="M6.14271 6.6825H3.05664V12.2439H4.96346C5.03965 12.2439 5.10916 12.2005 5.14271 12.1321L5.30873 11.7935C5.36704 11.6745 5.52299 11.6443 5.62149 11.7329C5.70873 11.8114 5.84459 11.7981 5.9149 11.7041L6.00831 11.5792C6.04351 11.5321 6.09241 11.5072 6.14276 11.5009L6.14271 6.6825Z" fill="url(#paint12_linear_106_4652)"/>
<path d="M8.57774 7.41228H0.621271C0.278165 7.41228 0 7.13412 0 6.79101V6.37774C0 6.03463 0.278165 5.75647 0.621271 5.75647H8.57774C8.92085 5.75647 9.19901 6.03463 9.19901 6.37774V6.79101C9.19901 7.13412 8.92085 7.41228 8.57774 7.41228Z" fill="url(#paint13_linear_106_4652)"/>
</g>
<defs>
<linearGradient id="paint0_linear_106_4652" x1="9.0987" y1="8.99885" x2="23.3177" y2="23.2179" gradientUnits="userSpaceOnUse">
<stop stop-color="#FF755C"/>
<stop offset="1" stop-color="#FF4181"/>
</linearGradient>
<linearGradient id="paint1_linear_106_4652" x1="6.57652" y1="14.4015" x2="4.62575" y2="9.82732" gradientUnits="userSpaceOnUse">
<stop stop-color="#843561" stop-opacity="0"/>
<stop offset="1" stop-color="#3A2F4D"/>
</linearGradient>
<linearGradient id="paint2_linear_106_4652" x1="9.60163" y1="9.49494" x2="21.4965" y2="21.3899" gradientUnits="userSpaceOnUse">
<stop stop-color="#FFCE47"/>
<stop offset="1" stop-color="#FF9356"/>
</linearGradient>
<linearGradient id="paint3_linear_106_4652" x1="8.04153" y1="16.3263" x2="4.81264" y2="9.09499" gradientUnits="userSpaceOnUse">
<stop stop-color="#FF755C" stop-opacity="0"/>
<stop offset="1" stop-color="#FF4181"/>
</linearGradient>
<linearGradient id="paint4_linear_106_4652" x1="9.20982" y1="9.10967" x2="17.7888" y2="17.6886" gradientUnits="userSpaceOnUse">
<stop stop-color="#E4E08E"/>
<stop offset="1" stop-color="#6FA953"/>
</linearGradient>
<linearGradient id="paint5_linear_106_4652" x1="9.10272" y1="16.3859" x2="5.95943" y2="10.4691" gradientUnits="userSpaceOnUse">
<stop stop-color="#43765A" stop-opacity="0"/>
<stop offset="1" stop-color="#43765A"/>
</linearGradient>
<linearGradient id="paint6_linear_106_4652" x1="9.89817" y1="9.79856" x2="16.4631" y2="16.3635" gradientUnits="userSpaceOnUse">
<stop stop-color="#7ACBFF"/>
<stop offset="1" stop-color="#45A2E0"/>
</linearGradient>
<linearGradient id="paint7_linear_106_4652" x1="9.76861" y1="15.5368" x2="7.31332" y2="11.2989" gradientUnits="userSpaceOnUse">
<stop stop-color="#7ACBFF" stop-opacity="0"/>
<stop offset="1" stop-color="#2F73A0"/>
</linearGradient>
<linearGradient id="paint8_linear_106_4652" x1="2.99025" y1="3.34355" x2="7.16108" y2="3.34355" gradientUnits="userSpaceOnUse">
<stop stop-color="#FFCE47"/>
<stop offset="1" stop-color="#FF9356"/>
</linearGradient>
<linearGradient id="paint9_linear_106_4652" x1="4.20199" y1="9.08358" x2="9.20195" y2="13.1984" gradientUnits="userSpaceOnUse">
<stop stop-color="#FFDECF"/>
<stop offset="1" stop-color="#FAA68E"/>
</linearGradient>
<linearGradient id="paint10_linear_106_4652" x1="4.59926" y1="8.97247" x2="4.59926" y2="5.74932" gradientUnits="userSpaceOnUse">
<stop stop-color="#FF9356" stop-opacity="0"/>
<stop offset="1" stop-color="#FF4181"/>
</linearGradient>
<linearGradient id="paint11_linear_106_4652" x1="3.98925" y1="8.11835" x2="7.7452" y2="16.3958" gradientUnits="userSpaceOnUse">
<stop stop-color="#FF9356" stop-opacity="0"/>
<stop offset="1" stop-color="#FF4181"/>
</linearGradient>
<linearGradient id="paint12_linear_106_4652" x1="3.90624" y1="10.2788" x2="1.08332" y2="15.1113" gradientUnits="userSpaceOnUse">
<stop stop-color="#FF9356" stop-opacity="0"/>
<stop offset="1" stop-color="#FF4181"/>
</linearGradient>
<linearGradient id="paint13_linear_106_4652" x1="4.59953" y1="5.70918" x2="4.59953" y2="7.13906" gradientUnits="userSpaceOnUse">
<stop stop-color="#FFCE47"/>
<stop offset="1" stop-color="#FF9356"/>
</linearGradient>
<clipPath id="clip0_106_4652">
<rect width="24" height="24" fill="white"/>
</clipPath>
</defs>
</svg>
