<svg width="41" height="40" viewBox="0 0 41 40" fill="none" xmlns="http://www.w3.org/2000/svg">
<path d="M12.168 14.1667L17.0713 17.0657C19.93 18.7558 21.0726 18.7558 23.9313 17.0657L28.8346 14.1667" stroke="#09A8F7" stroke-width="3.5" stroke-linecap="round" stroke-linejoin="round"/>
<path d="M3.85831 22.4594C3.96727 27.5686 4.02174 30.1232 5.90696 32.0156C7.79217 33.9081 10.4159 33.9739 15.6634 34.1057C18.8975 34.1871 22.0999 34.1871 25.334 34.1057C30.5815 33.9739 33.2052 33.9081 35.0904 32.0156C36.9757 30.1232 37.0302 27.5686 37.139 22.4594C37.1742 20.8166 37.1742 19.1834 37.139 17.5407C37.0302 12.4314 36.9757 9.87683 35.0904 7.98445C33.2052 6.09206 30.5815 6.02615 25.334 5.8943C22.0999 5.81303 18.8975 5.81303 15.6634 5.89428C10.4159 6.02611 7.79217 6.09203 5.90696 7.98443C4.02174 9.87681 3.96726 12.4314 3.85831 17.5406C3.82327 19.1834 3.82327 20.8166 3.85831 22.4594Z" stroke="#09A8F7" stroke-width="3.5" stroke-linejoin="round"/>
</svg>
