<svg width="47" height="47" viewBox="0 0 47 47" fill="none" xmlns="http://www.w3.org/2000/svg">
<path d="M42.4638 21.2989L39.6438 36.2591L40.6281 36.7468L41.8342 37.7223C41.8608 37.7489 41.8962 37.7755 41.9317 37.7933C42.5702 38.2721 42.987 39.0348 42.987 39.8949C42.987 41.3427 41.7822 42.5021 40.3798 42.5021H40.1227C40.167 42.5021 40.2113 42.5021 40.2557 42.4932H8.12716C8.17149 42.5021 8.21587 42.5021 8.2602 42.5021H8.003C6.6712 42.5021 5.4047 41.4154 5.4047 39.8949C5.4047 38.4495 6.5664 37.2789 8.003 37.2789H8.93417L7.09851 27.5065C7.45319 24.048 6.43341 20.421 4.03906 17.938C4.70416 17.0068 5.88361 16.1555 5.88361 16.1555L7.11621 17.1488L7.31133 17.2995C7.80793 17.7074 8.11829 18.337 8.11829 19.0287C8.11829 19.5519 7.94979 20.0308 7.64831 20.421L14.7959 26.4955L22.8657 10.9855C21.9612 10.5155 21.3315 9.54893 21.3315 8.44932C21.3315 6.8708 24.7013 5.20363 24.7013 5.20363L25.7832 6.08154L25.8364 6.11705L26.129 6.35645C26.6966 6.87968 27.0513 7.62455 27.0513 8.44932C27.0513 9.54893 26.4217 10.5155 25.5083 10.9855V10.9944L33.5959 26.4955L40.7345 20.421C40.433 20.0308 40.2557 19.5519 40.2557 19.0287C40.2557 17.805 42.5702 16.1644 42.5702 16.1644L43.9625 17.2817L43.9979 17.3084C44.4857 17.7251 44.7872 18.3459 44.7872 19.0287C44.7872 20.2791 43.7762 21.2989 42.5259 21.2989H42.4638Z" fill="#F16522"/>
<path d="M32.2213 25.3949L22.8203 7.35811V36.7479H27.2579L32.2213 25.3949Z" fill="url(#paint0_linear_159_2756)"/>
<path d="M22.819 7.35811L13.4258 25.3949L18.3815 36.7479H22.819V7.35811Z" fill="url(#paint1_linear_159_2756)"/>
<path d="M29.5623 31.4699L27.2584 36.7479H22.8203V17.0854L29.5623 31.4699Z" fill="url(#paint2_linear_159_2756)"/>
<path d="M29.2203 32.2536L27.2584 36.7479H22.8203V19.4074L29.2203 32.2536Z" fill="url(#paint3_linear_159_2756)"/>
<path d="M16.0781 31.4742L22.8207 17.0854V36.7479H18.3837L16.0781 31.4742Z" fill="url(#paint4_linear_159_2756)"/>
<path d="M22.8167 19.4089V36.747H18.3768L16.418 32.2536L22.8167 19.4089Z" fill="url(#paint5_linear_159_2756)"/>
<path d="M41.6143 17.4058L32.2211 25.395L27.2578 36.748H32.9642L37.2893 25.2479L41.6143 17.4058Z" fill="url(#paint6_linear_159_2756)"/>
<path d="M41.6149 17.4057L37.2899 25.2478L32.9648 36.7479H37.974L41.6149 17.4057Z" fill="url(#paint7_linear_159_2756)"/>
<path d="M37.2893 25.2478L29.5659 31.4781L29.5634 31.4742L27.2578 36.7479H32.9642L37.2893 25.2478Z" fill="url(#paint8_linear_159_2756)"/>
<path d="M36.8657 26.3582L32.9611 36.7471H27.2578L29.2233 32.2546L36.8657 26.3582Z" fill="url(#paint9_linear_159_2756)"/>
<path d="M4.02734 17.4058L13.4282 25.395L18.3839 36.748H12.6774L8.35236 25.2479L4.02734 17.4058Z" fill="url(#paint10_linear_159_2756)"/>
<path d="M4.0274 17.4057L8.35242 25.2478L12.6775 36.7479H7.6683L4.0274 17.4057Z" fill="url(#paint11_linear_159_2756)"/>
<path d="M8.35156 25.2478L16.075 31.4781L16.0775 31.4742L18.3831 36.7479H12.6766L8.35156 25.2478Z" fill="url(#paint12_linear_159_2756)"/>
<path d="M8.77344 26.3582L12.678 36.747H18.3814L16.4159 32.2546L8.77344 26.3582Z" fill="url(#paint13_linear_159_2756)"/>
<path d="M41.6125 38.7877C41.6125 40.2886 40.3715 41.3949 39.0054 41.3949H6.71269C5.2749 41.3949 4.10547 40.2255 4.10547 38.7877C4.10547 38.0688 4.40261 37.417 4.87228 36.9474C5.34194 36.4777 5.99379 36.1806 6.71269 36.1806H39.0054C40.4432 36.1806 41.6125 37.3499 41.6125 38.7877Z" fill="url(#paint14_linear_159_2756)"/>
<path d="M41.6128 38.7894C41.6128 40.2292 40.4152 41.3987 39.0036 41.3987H38.7461C40.1199 41.3987 41.3124 40.3315 41.3124 38.9525C41.3124 37.605 40.1623 36.8582 38.7461 36.8582H6.88554C5.4693 36.8582 4.31919 37.605 4.31919 38.9525C4.31919 39.622 4.6024 40.24 5.07451 40.6777C5.53798 41.1155 6.17312 41.3987 6.88554 41.3987C6.74832 41.3733 5.71252 41.5475 4.79125 40.6262C4.3106 40.1542 4.02734 39.5104 4.02734 38.7894C4.02734 37.3475 5.19464 36.1802 6.62805 36.1802H39.0036C40.4369 36.1802 41.6128 37.3475 41.6128 38.7894Z" fill="#FFFD83"/>
<path d="M22.82 20.1308C23.0503 23.6938 23.0681 30.5322 22.82 34.341C22.5723 30.537 22.5895 23.6973 22.82 20.1308Z" fill="url(#paint15_radial_159_2756)"/>
<path d="M22.82 9.881C23.0504 11.7157 23.0681 15.2366 22.82 17.1974C22.5723 15.239 22.5895 11.7174 22.82 9.881Z" fill="url(#paint16_radial_159_2756)"/>
<path d="M32.9648 36.7479C34.02 34.6468 36.6891 27.5688 37.2899 25.2478C36.2111 27.3921 33.5551 34.4743 32.9648 36.7479Z" fill="url(#paint17_radial_159_2756)"/>
<path d="M41.2065 18.1471C40.4064 20.0277 38.8939 22.7841 37.6992 24.5064C38.5178 22.5789 40.0414 19.8292 41.2065 18.1471Z" fill="url(#paint18_radial_159_2756)"/>
<path d="M12.661 36.7164C11.6059 34.6153 8.9368 27.5373 8.33594 25.2163C8.9852 26.5068 12.0707 34.4428 12.661 36.7164Z" fill="url(#paint19_radial_159_2756)"/>
<path d="M4.41797 18.1156C5.21807 19.9962 6.73061 22.7526 7.92524 24.4749C7.1067 22.5474 5.5831 19.7977 4.41797 18.1156Z" fill="url(#paint20_radial_159_2756)"/>
<path d="M37.9703 36.7456L40.9304 18.8912L31.752 26.4637L22.8176 9.21223L13.8993 26.4637L4.70472 18.8912L7.66477 36.7456L4.02344 17.4033L13.4262 25.3948L22.8176 7.35628L32.2204 25.3949L41.6117 17.4033L37.9703 36.7456Z" fill="#FEF328"/>
<path d="M22.8191 10.2141C24.3976 10.2141 25.6772 8.93445 25.6772 7.35595C25.6772 5.77745 24.3976 4.49782 22.8191 4.49782C21.2406 4.49782 19.9609 5.77745 19.9609 7.35595C19.9609 8.93445 21.2406 10.2141 22.8191 10.2141Z" fill="url(#paint21_linear_159_2756)"/>
<path d="M22.8181 9.88063C24.1091 9.88063 25.1556 8.83406 25.1556 7.54304C25.1556 6.25203 24.1091 5.20546 22.8181 5.20546C21.527 5.20546 20.4805 6.25203 20.4805 7.54304C20.4805 8.83406 21.527 9.88063 22.8181 9.88063Z" fill="url(#paint22_linear_159_2756)"/>
<path d="M41.1534 20.1985C42.4052 20.1985 43.42 19.1837 43.42 17.9318C43.42 16.68 42.4052 15.6652 41.1534 15.6652C39.9015 15.6652 38.8867 16.68 38.8867 17.9318C38.8867 19.1837 39.9015 20.1985 41.1534 20.1985Z" fill="url(#paint23_linear_159_2756)"/>
<path d="M41.1542 19.9333C42.1778 19.9333 43.0076 19.1035 43.0076 18.0799C43.0076 17.0563 42.1778 16.2265 41.1542 16.2265C40.1306 16.2265 39.3008 17.0563 39.3008 18.0799C39.3008 19.1035 40.1306 19.9333 41.1542 19.9333Z" fill="url(#paint24_linear_159_2756)"/>
<path d="M4.48539 20.1985C5.73722 20.1985 6.75203 19.1837 6.75203 17.9318C6.75203 16.68 5.73722 15.6652 4.48539 15.6652C3.23356 15.6652 2.21875 16.68 2.21875 17.9318C2.21875 19.1837 3.23356 20.1985 4.48539 20.1985Z" fill="url(#paint25_linear_159_2756)"/>
<path d="M4.48621 19.9333C5.50981 19.9333 6.3396 19.1035 6.3396 18.0799C6.3396 17.0563 5.50981 16.2265 4.48621 16.2265C3.46261 16.2265 2.63281 17.0563 2.63281 18.0799C2.63281 19.1035 3.46261 19.9333 4.48621 19.9333Z" fill="url(#paint26_linear_159_2756)"/>
<defs>
<linearGradient id="paint0_linear_159_2756" x1="4.01906" y1="22.0527" x2="41.6066" y2="22.0527" gradientUnits="userSpaceOnUse">
<stop stop-color="#FEF328"/>
<stop offset="0.886487" stop-color="#FF7F02"/>
</linearGradient>
<linearGradient id="paint1_linear_159_2756" x1="4.03284" y1="22.0527" x2="41.6213" y2="22.0527" gradientUnits="userSpaceOnUse">
<stop offset="0.136937" stop-color="#ED971A"/>
<stop offset="0.848648" stop-color="#FEF328"/>
</linearGradient>
<linearGradient id="paint2_linear_159_2756" x1="22.8206" y1="26.9168" x2="29.5628" y2="26.9168" gradientUnits="userSpaceOnUse">
<stop stop-color="#F16522"/>
<stop offset="1" stop-color="#ED971A"/>
</linearGradient>
<linearGradient id="paint3_linear_159_2756" x1="35.1044" y1="28.0776" x2="10.5349" y2="28.0776" gradientUnits="userSpaceOnUse">
<stop stop-color="#FEF328"/>
<stop offset="0.886487" stop-color="#FF7F02"/>
</linearGradient>
<linearGradient id="paint4_linear_159_2756" x1="16.0787" y1="26.9168" x2="22.821" y2="26.9168" gradientUnits="userSpaceOnUse">
<stop stop-color="#F16522"/>
<stop offset="1" stop-color="#ED971A"/>
</linearGradient>
<linearGradient id="paint5_linear_159_2756" x1="22.8174" y1="28.0776" x2="16.4183" y2="28.0776" gradientUnits="userSpaceOnUse">
<stop stop-color="#FEF328"/>
<stop offset="0.120245" stop-color="#FEE825"/>
<stop offset="0.330162" stop-color="#FCCB1E"/>
<stop offset="0.604835" stop-color="#FB9D13"/>
<stop offset="0.930612" stop-color="#F85C04"/>
<stop offset="0.942343" stop-color="#F85A03"/>
</linearGradient>
<linearGradient id="paint6_linear_159_2756" x1="4.02693" y1="27.0765" x2="41.6145" y2="27.0765" gradientUnits="userSpaceOnUse">
<stop offset="0.403604" stop-color="#FEF328"/>
<stop offset="0.942342" stop-color="#FCA81D"/>
</linearGradient>
<linearGradient id="paint7_linear_159_2756" x1="13.0773" y1="23.242" x2="40.0154" y2="27.5083" gradientUnits="userSpaceOnUse">
<stop offset="0.699099" stop-color="#F85A03"/>
<stop offset="0.950781" stop-color="#FB9B19"/>
<stop offset="1" stop-color="#FCA81D"/>
</linearGradient>
<linearGradient id="paint8_linear_159_2756" x1="27.2582" y1="30.9978" x2="37.2896" y2="30.9978" gradientUnits="userSpaceOnUse">
<stop stop-color="#F16522"/>
<stop offset="1" stop-color="#ED971A"/>
</linearGradient>
<linearGradient id="paint9_linear_159_2756" x1="27.258" y1="31.553" x2="36.8664" y2="31.553" gradientUnits="userSpaceOnUse">
<stop stop-color="#FEF328"/>
<stop offset="0.20877" stop-color="#FEE826"/>
<stop offset="0.573088" stop-color="#FDCB22"/>
<stop offset="0.942342" stop-color="#FCA81D"/>
</linearGradient>
<linearGradient id="paint10_linear_159_2756" x1="41.6157" y1="27.0765" x2="4.02721" y2="27.0765" gradientUnits="userSpaceOnUse">
<stop stop-color="#FEF328"/>
<stop offset="0.886487" stop-color="#FF7F02"/>
</linearGradient>
<linearGradient id="paint11_linear_159_2756" x1="46.7831" y1="27.0764" x2="4.02727" y2="27.0764" gradientUnits="userSpaceOnUse">
<stop stop-color="#F85A03"/>
<stop offset="1" stop-color="#FCA81D"/>
</linearGradient>
<linearGradient id="paint12_linear_159_2756" x1="38.8818" y1="30.9978" x2="8.35129" y2="30.9978" gradientUnits="userSpaceOnUse">
<stop stop-color="#F16522"/>
<stop offset="1" stop-color="#ED971A"/>
</linearGradient>
<linearGradient id="paint13_linear_159_2756" x1="18.3819" y1="31.553" x2="8.7735" y2="31.553" gradientUnits="userSpaceOnUse">
<stop stop-color="#FEF328"/>
<stop offset="0.20877" stop-color="#FEE826"/>
<stop offset="0.573088" stop-color="#FDCB22"/>
<stop offset="0.942342" stop-color="#FCA81D"/>
</linearGradient>
<linearGradient id="paint14_linear_159_2756" x1="22.8598" y1="36.1803" x2="22.8598" y2="41.3946" gradientUnits="userSpaceOnUse">
<stop stop-color="#F16522"/>
<stop offset="1" stop-color="#ED971A"/>
</linearGradient>
<radialGradient id="paint15_radial_159_2756" cx="0" cy="0" r="1" gradientUnits="userSpaceOnUse" gradientTransform="translate(22.8206 27.2648) scale(5.80494 5.02708)">
<stop offset="1e-07" stop-color="#FFFD83"/>
<stop offset="0.174803" stop-color="#FFFD87" stop-opacity="0.825"/>
<stop offset="0.355645" stop-color="#FFFD94" stop-opacity="0.644"/>
<stop offset="0.539299" stop-color="#FFFEA8" stop-opacity="0.461"/>
<stop offset="0.724836" stop-color="#FFFEC5" stop-opacity="0.275"/>
<stop offset="0.910089" stop-color="#FFFFEA" stop-opacity="0.09"/>
<stop offset="1" stop-color="white" stop-opacity="0"/>
</radialGradient>
<radialGradient id="paint16_radial_159_2756" cx="0" cy="0" r="1" gradientUnits="userSpaceOnUse" gradientTransform="translate(22.8206 13.6781) scale(5.80494 2.589)">
<stop offset="1e-07" stop-color="#FFFD83"/>
<stop offset="0.174803" stop-color="#FFFD87" stop-opacity="0.825"/>
<stop offset="0.355645" stop-color="#FFFD94" stop-opacity="0.644"/>
<stop offset="0.539299" stop-color="#FFFEA8" stop-opacity="0.461"/>
<stop offset="0.724836" stop-color="#FFFEC5" stop-opacity="0.275"/>
<stop offset="0.910089" stop-color="#FFFFEA" stop-opacity="0.09"/>
<stop offset="1" stop-color="white" stop-opacity="0"/>
</radialGradient>
<radialGradient id="paint17_radial_159_2756" cx="0" cy="0" r="1" gradientUnits="userSpaceOnUse" gradientTransform="translate(35.1282 30.9978) scale(4.34351)">
<stop offset="1e-07" stop-color="#FFFD83"/>
<stop offset="0.174803" stop-color="#FFFD87" stop-opacity="0.825"/>
<stop offset="0.355645" stop-color="#FFFD94" stop-opacity="0.644"/>
<stop offset="0.539299" stop-color="#FFFEA8" stop-opacity="0.461"/>
<stop offset="0.724836" stop-color="#FFFEC5" stop-opacity="0.275"/>
<stop offset="0.910089" stop-color="#FFFFEA" stop-opacity="0.09"/>
<stop offset="1" stop-color="white" stop-opacity="0"/>
</radialGradient>
<radialGradient id="paint18_radial_159_2756" cx="0" cy="0" r="1" gradientUnits="userSpaceOnUse" gradientTransform="translate(39.4536 21.3265) scale(2.56726)">
<stop offset="1e-07" stop-color="#FFFD83"/>
<stop offset="0.174803" stop-color="#FFFD87" stop-opacity="0.825"/>
<stop offset="0.355645" stop-color="#FFFD94" stop-opacity="0.644"/>
<stop offset="0.539299" stop-color="#FFFEA8" stop-opacity="0.461"/>
<stop offset="0.724836" stop-color="#FFFEC5" stop-opacity="0.275"/>
<stop offset="0.910089" stop-color="#FFFFEA" stop-opacity="0.09"/>
<stop offset="1" stop-color="white" stop-opacity="0"/>
</radialGradient>
<radialGradient id="paint19_radial_159_2756" cx="0" cy="0" r="1" gradientUnits="userSpaceOnUse" gradientTransform="translate(10.4982 30.9659) rotate(180) scale(4.34351)">
<stop offset="1e-07" stop-color="#FFFD83"/>
<stop offset="0.174803" stop-color="#FFFD87" stop-opacity="0.825"/>
<stop offset="0.355645" stop-color="#FFFD94" stop-opacity="0.644"/>
<stop offset="0.539299" stop-color="#FFFEA8" stop-opacity="0.461"/>
<stop offset="0.724836" stop-color="#FFFEC5" stop-opacity="0.275"/>
<stop offset="0.910089" stop-color="#FFFFEA" stop-opacity="0.09"/>
<stop offset="1" stop-color="white" stop-opacity="0"/>
</radialGradient>
<radialGradient id="paint20_radial_159_2756" cx="0" cy="0" r="1" gradientUnits="userSpaceOnUse" gradientTransform="translate(6.17149 21.2954) rotate(180) scale(2.56726)">
<stop offset="1e-07" stop-color="#FFFD83"/>
<stop offset="0.174803" stop-color="#FFFD87" stop-opacity="0.825"/>
<stop offset="0.355645" stop-color="#FFFD94" stop-opacity="0.644"/>
<stop offset="0.539299" stop-color="#FFFEA8" stop-opacity="0.461"/>
<stop offset="0.724836" stop-color="#FFFEC5" stop-opacity="0.275"/>
<stop offset="0.910089" stop-color="#FFFFEA" stop-opacity="0.09"/>
<stop offset="1" stop-color="white" stop-opacity="0"/>
</radialGradient>
<linearGradient id="paint21_linear_159_2756" x1="19.9609" y1="7.35595" x2="25.6781" y2="7.35595" gradientUnits="userSpaceOnUse">
<stop stop-color="#FEF328"/>
<stop offset="0.886487" stop-color="#FF7F02"/>
</linearGradient>
<linearGradient id="paint22_linear_159_2756" x1="22.8189" y1="5.20546" x2="22.8189" y2="9.88152" gradientUnits="userSpaceOnUse">
<stop stop-color="#FEF328"/>
<stop offset="0.886487" stop-color="#FF7F02"/>
</linearGradient>
<linearGradient id="paint23_linear_159_2756" x1="38.8876" y1="17.9318" x2="43.42" y2="17.9318" gradientUnits="userSpaceOnUse">
<stop stop-color="#FEF328"/>
<stop offset="0.886487" stop-color="#FF7F02"/>
</linearGradient>
<linearGradient id="paint24_linear_159_2756" x1="41.1551" y1="16.2265" x2="41.1551" y2="19.9342" gradientUnits="userSpaceOnUse">
<stop stop-color="#FEF328"/>
<stop offset="0.886487" stop-color="#FF7F02"/>
</linearGradient>
<linearGradient id="paint25_linear_159_2756" x1="2.21875" y1="17.9318" x2="6.75203" y2="17.9318" gradientUnits="userSpaceOnUse">
<stop stop-color="#FEF328"/>
<stop offset="0.886487" stop-color="#FF7F02"/>
</linearGradient>
<linearGradient id="paint26_linear_159_2756" x1="4.48621" y1="16.2265" x2="4.48621" y2="19.9342" gradientUnits="userSpaceOnUse">
<stop stop-color="#FEF328"/>
<stop offset="0.886487" stop-color="#FF7F02"/>
</linearGradient>
</defs>
</svg>
