<svg width="68" height="68" viewBox="0 0 68 68" fill="none" xmlns="http://www.w3.org/2000/svg">
<g clip-path="url(#clip0_110_4833)">
<path d="M65.3822 24.0124L3.79199 22.1653V29.8837H3.79212C3.79265 29.9399 3.79604 29.9966 3.80322 30.0539L7.86302 62.7003C8.01092 63.8901 9.32446 64.5438 10.3628 63.9443L64.9683 32.4178C65.2489 32.2558 65.3763 31.9897 65.3802 31.7237H65.3822V24.0124Z" fill="url(#paint0_linear_110_4833)"/>
<path d="M3.80335 22.3293L7.86315 54.9759C8.01106 56.1657 9.32459 56.8193 10.3629 56.2198L64.9685 24.6934C65.6844 24.2801 65.4158 23.1878 64.5899 23.1536L5.30748 20.6961C4.40908 20.6589 3.69239 21.4372 3.80335 22.3293Z" fill="url(#paint1_linear_110_4833)"/>
<path d="M6.66797 53.0891L7.07475 56.3606C7.66611 56.4688 8.38515 56.5382 9.14831 56.5809L9.31645 58.1702C9.46436 59.36 10.7779 60.0136 11.8162 59.4141L17.853 55.9287C21.4094 55.8393 25.0993 54.9363 28.0145 53.2533C30.9299 51.5701 32.495 49.4395 32.6496 47.386L33.566 46.8569C38.0101 46.2523 42.3716 44.8917 46.0031 42.7952C49.6349 40.6984 51.9936 38.1802 53.039 35.6142L65.3823 28.4878V24.7683C65.3824 24.7684 6.66092 53.0318 6.66797 53.0891Z" fill="url(#paint2_linear_110_4833)"/>
<path d="M67.4193 22.815L5.8291 20.9679V23.3565L9.90013 56.1732C10.048 57.363 11.3616 58.0166 12.3999 57.4172L67.0054 25.8907C67.286 25.7288 67.4135 25.4627 67.4173 25.1966H67.4193V22.815Z" fill="url(#paint3_linear_110_4833)"/>
<path d="M5.84046 21.132L9.90026 53.7785C10.0482 54.9683 11.3617 55.6219 12.4001 55.0224L67.0056 23.496C67.7215 23.0827 67.453 21.9904 66.627 21.9562L7.34459 19.4987C6.44632 19.4615 5.7295 20.2398 5.84046 21.132Z" fill="url(#paint4_linear_110_4833)"/>
<path d="M40.6748 18.2656C46.2964 15.02 54.8002 14.6674 59.6686 17.4783C64.5371 20.289 63.9265 25.1988 58.305 28.4444C52.6833 31.69 44.1795 32.0425 39.311 29.2317C34.4427 26.421 35.0532 21.5113 40.6748 18.2656Z" fill="url(#paint5_linear_110_4833)"/>
<path d="M54.245 27.3517C54.2335 24.4201 52.4579 21.6223 48.8345 19.5303C40.811 14.8979 26.7962 15.4788 17.5313 20.8279C12.5179 23.7225 9.92815 27.4196 9.87358 30.9378L9.86719 30.9383V34.2797L9.87358 34.2792C9.8869 37.2091 11.6626 40.0051 15.284 42.0959C23.3075 46.7283 37.3224 46.1474 46.5872 40.7983C51.6681 37.8648 54.2589 34.1071 54.2451 30.5469L54.2508 30.5464V27.3513L54.245 27.3517Z" fill="url(#paint6_linear_110_4833)"/>
<path d="M46.5874 37.6041C37.3224 42.9533 23.3069 43.5342 15.2831 38.9017C7.25931 34.2692 8.26555 26.1774 17.5307 20.8282C26.7958 15.479 40.8112 14.8981 48.8349 19.5306C56.8587 24.1631 55.8525 32.2549 46.5874 37.6041Z" fill="url(#paint7_linear_110_4833)"/>
<path d="M45.2599 36.8374C36.8415 41.6977 24.1069 42.2256 16.8164 38.0165C9.52586 33.8073 10.4402 26.4549 18.8585 21.5945C27.2769 16.7342 40.0115 16.2063 47.3021 20.4154C54.5926 24.6246 53.6783 31.977 45.2599 36.8374Z" fill="url(#paint8_linear_110_4833)"/>
<path d="M33.2478 28.2692C32.2866 28.8241 30.8328 28.8844 30.0004 28.4038C29.1681 27.9233 29.2724 27.0837 30.2336 26.5289C31.1948 25.974 32.6486 25.9137 33.481 26.3943C34.3133 26.8749 34.209 27.7144 33.2478 28.2692Z" fill="#EBCBA0"/>
<path d="M47.3397 27.8844C46.3785 28.4394 44.9247 28.4996 44.0922 28.019C43.2598 27.5385 43.3643 26.6991 44.3253 26.1441C45.2865 25.5892 46.7404 25.5289 47.5728 26.0095C48.4052 26.4901 48.3008 27.3295 47.3397 27.8844Z" fill="#EBCBA0"/>
<path d="M42.1521 36.4848C41.1909 37.0397 39.7371 37.0999 38.9047 36.6194C38.0724 36.1388 38.1767 35.2993 39.1379 34.7445C40.0991 34.1895 41.5529 34.1292 42.3853 34.6099C43.2176 35.0904 43.1133 35.93 42.1521 36.4848Z" fill="#EBCBA0"/>
<path d="M28.0193 37.8139C27.0581 38.3689 25.6042 38.4291 24.7719 37.9485C23.9395 37.468 24.044 36.6285 25.005 36.0737C25.9662 35.5187 27.4201 35.4585 28.2524 35.9391C29.0848 36.4196 28.9804 37.2591 28.0193 37.8139Z" fill="#EBCBA0"/>
<path d="M29.7644 21.922C28.8032 22.4769 27.3493 22.5371 26.517 22.0566C25.6846 21.576 25.7891 20.7366 26.7501 20.1817C27.7113 19.6267 29.1652 19.5666 29.9976 20.0471C30.8299 20.5276 30.7256 21.367 29.7644 21.922Z" fill="#EBCBA0"/>
<path d="M27.7545 25.8433C27.28 26.1171 26.5623 26.1469 26.1514 25.9097C25.7405 25.6725 25.7921 25.258 26.2666 24.9841C26.741 24.7103 27.4588 24.6805 27.8697 24.9177C28.2805 25.1549 28.2289 25.5694 27.7545 25.8433Z" fill="#5D3645"/>
<path d="M46.1745 34.4652C45.7001 34.7391 44.9822 34.7688 44.5714 34.5316C44.1604 34.2945 44.212 33.88 44.6865 33.6061C45.1609 33.3322 45.8788 33.3024 46.2896 33.5396C46.7004 33.777 46.6489 34.1913 46.1745 34.4652Z" fill="#5D3645"/>
<path d="M32.9967 36.3756C32.5223 36.6495 31.8046 36.6792 31.3936 36.4421C30.9827 36.2049 31.0342 35.7904 31.5088 35.5165C31.9833 35.2426 32.701 35.2128 33.1119 35.45C33.5227 35.6872 33.4712 36.1017 32.9967 36.3756Z" fill="#5D3645"/>
<path d="M23.984 31.8988C23.5096 32.1727 22.7919 32.2026 22.3809 31.9652C21.97 31.728 22.0216 31.3137 22.4961 31.0397C22.9705 30.7658 23.6882 30.736 24.0992 30.9732C24.5101 31.2106 24.4586 31.6249 23.984 31.8988Z" fill="#5D3645"/>
<path d="M37.9205 30.3186C37.446 30.5925 36.7284 30.6222 36.3174 30.385C35.9066 30.1478 35.958 29.7335 36.4326 29.4595C36.9069 29.1856 37.6247 29.1558 38.0356 29.393C38.4466 29.6302 38.395 30.0446 37.9205 30.3186Z" fill="#5D3645"/>
<path d="M47.3414 23.6814C46.8669 23.9553 46.1491 23.985 45.7383 23.7478C45.3275 23.5106 45.3789 23.0963 45.8534 22.8223C46.328 22.5484 47.0456 22.5186 47.4565 22.7558C47.8674 22.993 47.8158 23.4075 47.3414 23.6814Z" fill="#5D3645"/>
<path d="M15.9449 30.9747C15.4705 31.2486 14.7528 31.2784 14.3418 31.0412C13.931 30.804 13.9824 30.3896 14.457 30.1156C14.9315 29.8417 15.6491 29.812 16.06 30.0492C16.4709 30.2864 16.4194 30.7008 15.9449 30.9747Z" fill="#5D3645"/>
<path d="M38.9215 20.1522C38.447 20.4261 37.7293 20.4559 37.3184 20.2187C36.9075 19.9815 36.9591 19.5671 37.4336 19.2931C37.908 19.0192 38.6257 18.9895 39.0367 19.2267C39.4475 19.4639 39.3959 19.8783 38.9215 20.1522Z" fill="#5D3645"/>
<path d="M24.7125 21.8557C24.2381 22.1296 23.5204 22.1594 23.1094 21.9222C22.6986 21.685 22.75 21.2705 23.2245 20.9966C23.6991 20.7227 24.4168 20.6929 24.8276 20.9301C25.2384 21.1673 25.187 21.5817 24.7125 21.8557Z" fill="#5D3645"/>
<path d="M42.7351 22.9488C41.7739 23.5037 40.32 23.5639 39.4877 23.0834C38.6553 22.6028 38.7598 21.7633 39.7208 21.2085C40.682 20.6535 42.1359 20.5932 42.9683 21.0739C43.8006 21.5544 43.6963 22.3938 42.7351 22.9488Z" fill="#EBCBA0"/>
<path d="M36.2459 22.2963C35.2847 22.8512 33.8308 22.9114 32.9985 22.4309C32.1661 21.9504 32.2704 21.1108 33.2316 20.556C34.1928 20.0011 35.6467 19.9408 36.479 20.4214C37.3114 20.9019 37.207 21.7413 36.2459 22.2963Z" fill="#8B451C"/>
<path d="M45.8016 31.4153C44.8404 31.9703 43.3865 32.0304 42.5541 31.5499C41.7218 31.0694 41.8261 30.2298 42.7873 29.675C43.7484 29.1201 45.2024 29.0598 46.0347 29.5404C46.8671 30.021 46.7628 30.8604 45.8016 31.4153Z" fill="#8B451C"/>
<path d="M39.8494 27.8844C38.8882 28.4394 37.4343 28.4996 36.602 28.019C35.7696 27.5385 35.8739 26.6991 36.8351 26.1441C37.7963 25.5892 39.2502 25.5289 40.0826 26.0095C40.9149 26.4901 40.8106 27.3295 39.8494 27.8844Z" fill="#8B451C"/>
<path d="M28.6434 32.9205C27.6822 33.4755 26.2283 33.5356 25.3959 33.0551C24.5636 32.5746 24.6679 31.735 25.6291 31.1802C26.5903 30.6253 28.0442 30.5651 28.8765 31.0456C29.7089 31.5262 29.6044 32.3656 28.6434 32.9205Z" fill="#8B451C"/>
<path d="M20.7273 34.9676C19.7661 35.5226 18.3122 35.5828 17.4799 35.1022C16.6475 34.6217 16.752 33.7823 17.713 33.2273C18.6742 32.6724 20.1281 32.6122 20.9604 33.0927C21.7929 33.5733 21.6885 34.4127 20.7273 34.9676Z" fill="#8B451C"/>
<path d="M23.031 24.9546C22.0699 25.5095 20.616 25.5698 19.7836 25.0892C18.9513 24.6086 19.0556 23.7691 20.0168 23.2143C20.978 22.6593 22.4319 22.5992 23.2642 23.0797C24.0966 23.5602 23.9922 24.3996 23.031 24.9546Z" fill="#8B451C"/>
<path d="M37.0017 34.2496C36.0406 34.8046 34.5866 34.8649 33.7543 34.3842C32.9219 33.9037 33.0264 33.0641 33.9874 32.5093C34.9486 31.9544 36.4025 31.8942 37.235 32.3747C38.0673 32.8553 37.9629 33.6947 37.0017 34.2496Z" fill="#8B451C"/>
<path d="M20.7273 29.2136C19.7661 29.7685 18.3122 29.8289 17.4799 29.3482C16.6475 28.8677 16.752 28.0281 17.713 27.4733C18.6742 26.9184 20.1281 26.8582 20.9604 27.3387C21.7929 27.8193 21.6885 28.6587 20.7273 29.2136Z" fill="#EBCBA0"/>
<path d="M37.9875 39.7343C31.4949 43.4829 21.6384 43.8914 16.0156 40.6451L18.6856 39.1037C23.0333 41.6139 30.655 41.298 35.6753 38.3994C40.6957 35.5009 41.2428 31.1005 36.8952 28.5904L39.5652 27.049C45.1879 30.2952 44.4802 35.9859 37.9875 39.7343Z" fill="url(#paint9_linear_110_4833)"/>
<path d="M30.0793 38.2185C36.8514 35.9924 39.5068 33.9224 40.2025 32.2122C40.3517 30.49 39.3982 28.8249 37.2866 27.6059V25.2267L43.7501 29.1049V31.4812C43.7501 31.4812 43.7478 31.4858 43.7471 31.4871C43.7893 34.0072 41.9716 36.6757 38.3791 38.7498C31.8865 42.4984 22.03 42.9068 16.4072 39.6606V37.2814C16.4071 37.2813 26.3179 39.4548 30.0793 38.2185Z" fill="url(#paint10_linear_110_4833)"/>
<path d="M38.3791 36.3706C31.8865 40.1191 22.03 40.5276 16.4072 37.2814L19.0773 35.7399C23.4249 38.25 31.0466 37.9342 36.0669 35.0356C41.0873 32.1371 41.6344 27.7368 37.2868 25.2267L39.9566 23.6852C45.5793 26.9313 44.8718 32.622 38.3791 36.3706Z" fill="#F2EFFA"/>
<path d="M16.2582 53.5698C16.2582 53.5698 8.70997 54.0167 6.93665 53.0422C5.16321 52.0677 6.16892 50.1676 5.50719 48.823C4.84546 47.4783 3.4224 47.3774 2.92542 46.1185C2.42843 44.8597 4.75852 43.9125 4.00149 42.41C3.24447 40.9076 1.33382 40.5615 1.03357 38.8763C0.733316 37.1911 2.4099 36.853 2.5753 35.8196C2.7407 34.7864 0.882006 34.847 0.606165 32.9172C0.330456 30.9875 2.40911 31.196 2.73365 29.8082C3.05805 28.4204 1.25928 28.7464 0.985658 27.5332C0.712167 26.3201 2.62177 25.6903 3.33376 24.8725C4.04575 24.0546 2.35755 24.0767 1.98367 23.1252C1.60979 22.1737 2.15037 21.9323 3.02424 21.2971C3.8981 20.6619 2.84226 20.4276 2.8655 19.543C2.88873 18.6584 4.95042 18.7912 5.27704 18.1199C5.6038 17.4487 4.04979 16.5641 4.15162 15.4256C4.25344 14.2871 6.46199 14.1875 6.96603 13.5959C7.47006 13.0041 7.25675 11.4644 7.42646 10.7948C7.56966 10.2297 8.68334 9.36457 9.83839 10.0798C10.4449 10.4554 11.0642 12.5124 11.957 12.2315C12.8498 11.9505 13.2474 11.064 14.4859 12.1393C15.7241 13.2146 16.2582 53.5698 16.2582 53.5698Z" fill="url(#paint11_linear_110_4833)"/>
<path d="M60.7003 23.799C60.7003 23.799 61.4224 14.4163 60.2486 12.1882C59.0749 9.96003 56.6886 11.1698 55.0297 10.3168C53.3709 9.46383 53.2766 7.69078 51.7211 7.04471C50.1655 6.39865 48.9358 9.27728 47.0827 8.30225C45.2298 7.32721 44.841 4.94217 42.7507 4.53147C40.6603 4.12078 40.2028 6.1997 38.9134 6.38272C37.624 6.56588 37.7402 4.25433 35.3449 3.8687C32.9497 3.4832 33.1635 6.07451 31.4295 6.44773C29.6955 6.82109 30.1405 4.5897 28.6371 4.22274C27.1334 3.85577 26.3079 6.21824 25.2745 7.08609C24.2411 7.95408 24.3057 5.85389 23.1299 5.36774C21.9541 4.88159 21.6418 5.54907 20.8322 6.62253C20.0226 7.696 19.7542 6.37711 18.653 6.38651C17.5519 6.39591 17.6717 8.96437 16.8293 9.35613C15.9869 9.74789 14.9202 7.79482 13.5013 7.89651C12.0825 7.99821 11.91 10.7442 11.1628 11.3583C10.4154 11.9724 8.50398 11.6733 7.66719 11.8698C6.96095 12.0356 5.8598 13.4022 6.72453 14.8553C7.17856 15.6183 9.72457 16.434 9.35539 17.5388C8.98608 18.6436 7.87436 19.1189 9.18516 20.6836C10.4961 22.248 60.7003 23.799 60.7003 23.799Z" fill="url(#paint12_linear_110_4833)"/>
<path d="M10.2881 41.469C15.9098 38.2235 24.4136 37.871 29.282 40.6817C34.1503 43.4925 33.5399 48.4023 27.9183 51.6479C22.2967 54.8934 13.7929 55.2459 8.92434 52.4352C4.05595 49.6244 4.66651 44.7146 10.2881 41.469Z" fill="url(#paint13_linear_110_4833)"/>
<path d="M6.31888 47.2468L6.31836 44.8671L33.2491 42.661V45.054C33.2487 47.2089 31.6731 49.4816 28.5988 51.2566C22.9771 54.5022 14.4733 54.8546 9.60481 52.0439C7.38517 50.7622 6.30504 49.0442 6.31888 47.2468Z" fill="url(#paint14_linear_110_4833)"/>
<path d="M10.9688 38.6846C16.5904 35.439 25.0942 35.0866 29.9626 37.8973C34.8311 40.7081 34.2205 45.6178 28.599 48.8634C22.9773 52.109 14.4735 52.4615 9.60501 49.6507C4.73662 46.84 5.34717 41.9302 10.9688 38.6846Z" fill="url(#paint15_linear_110_4833)"/>
<path d="M29.9212 41.592C30.0436 41.9702 30.0936 42.3521 30.0768 42.7331C30.0354 43.6663 28.3973 44.4316 26.8594 44.2537L20.1585 43.4782L18.8724 39.5076C18.5795 38.6033 19.963 37.661 21.5961 37.6647C25.6997 37.6741 29.1444 39.1938 29.9212 41.592Z" fill="#AB2C37"/>
<path d="M27.9293 41.977C28.0268 42.278 28.0665 42.5821 28.0531 42.8852C28.0202 43.628 26.7162 44.2372 25.4923 44.0956L20.1586 43.4784L19.1349 40.3178C18.9017 39.5981 20.003 38.848 21.3028 38.851C24.569 38.8585 27.3109 40.0682 27.9293 41.977Z" fill="#FF4757"/>
<path d="M25.5873 39.6663C25.9749 39.4424 26.5614 39.4181 26.8972 39.612C27.2329 39.8058 27.1908 40.1443 26.8032 40.3682C26.4156 40.5921 25.829 40.6164 25.4934 40.4225C25.1575 40.2287 25.1996 39.8902 25.5873 39.6663Z" fill="#FF7A85"/>
<path d="M27.1408 40.6615C27.6132 40.5085 28.158 40.5901 28.3575 40.8436C28.5569 41.0971 28.3357 41.4266 27.8634 41.5796C27.3909 41.7326 26.8462 41.651 26.6467 41.3975C26.4471 41.1439 26.6684 40.8144 27.1408 40.6615Z" fill="#FF7A85"/>
<path d="M28.0105 41.9324C28.5214 41.8653 28.9712 42.0445 29.0149 42.3329C29.0586 42.6213 28.6799 42.9095 28.169 42.9766C27.658 43.0437 27.2083 42.8645 27.1646 42.5761C27.1208 42.2878 27.4995 41.9995 28.0105 41.9324Z" fill="#FF7A85"/>
<path d="M25.0792 39.4714C25.3442 39.1987 25.2029 38.8841 24.7639 38.7689C24.3248 38.6538 23.7542 38.7814 23.4892 39.0543C23.2241 39.327 23.3654 39.6415 23.8044 39.7567C24.2436 39.8719 24.8143 39.7441 25.0792 39.4714Z" fill="#FF7A85"/>
<path d="M22.8781 38.9691C22.9945 38.674 22.6838 38.4144 22.1843 38.3892C21.6848 38.364 21.1856 38.5827 21.0693 38.8777C20.953 39.1727 21.2637 39.4324 21.7632 39.4576C22.2626 39.4828 22.7618 39.2641 22.8781 38.9691Z" fill="#FF7A85"/>
<path d="M16.3997 50.1086C15.75 50.0287 15.1399 49.9107 14.5732 49.7593C13.1847 49.3884 13.0487 48.2738 14.2796 47.5637L19.6427 44.4692L26.4643 45.3085C28.0178 45.4996 28.5812 46.5519 27.5549 47.3754C24.9757 49.4452 20.5198 50.6155 16.3997 50.1086Z" fill="#AB2C37"/>
<path d="M17.061 48.9581C16.5438 48.8945 16.0582 48.8006 15.6071 48.6801C14.5019 48.3849 14.3936 47.4977 15.3733 46.9325L19.6423 44.4695L25.072 45.1375C26.3085 45.2897 26.7571 46.1273 25.9401 46.7827C23.8873 48.4301 20.3405 49.3616 17.061 48.9581Z" fill="#FF4757"/>
<path d="M22.0262 48.6413C22.123 48.9211 21.7934 49.2264 21.2898 49.3234C20.7863 49.4204 20.2993 49.2721 20.2025 48.9924C20.1055 48.7126 20.4352 48.4073 20.9387 48.3103C21.4424 48.2134 21.9292 48.3617 22.0262 48.6413Z" fill="#FF7A85"/>
<path d="M19.5473 49.0531C19.4838 49.3491 19.0199 49.5937 18.511 49.5995C18.0021 49.6052 17.6411 49.3698 17.7045 49.0738C17.7679 48.7777 18.2319 48.5332 18.7408 48.5274C19.2496 48.5217 19.6107 48.7571 19.5473 49.0531Z" fill="#FF7A85"/>
<path d="M17.0772 49.0159C16.8596 49.2992 16.3068 49.4591 15.8424 49.3731C15.3781 49.287 15.178 48.9876 15.3956 48.7043C15.6132 48.421 16.166 48.2611 16.6304 48.3471C17.0947 48.4333 17.2947 48.7326 17.0772 49.0159Z" fill="#FF7A85"/>
<path d="M22.6392 48.458C22.8869 48.6941 23.4518 48.7407 23.9007 48.5621C24.3497 48.3836 24.5129 48.0473 24.2651 47.8111C24.0173 47.575 23.4525 47.5284 23.0035 47.7069C22.5546 47.8857 22.3914 48.2218 22.6392 48.458Z" fill="#FF7A85"/>
<path d="M24.7755 47.5342C25.1499 47.7035 25.7375 47.644 26.088 47.4012C26.4384 47.1584 26.4191 46.8242 26.0446 46.6547C25.6702 46.4854 25.0826 46.545 24.7321 46.7878C24.3817 47.0307 24.401 47.3649 24.7755 47.5342Z" fill="#FF7A85"/>
<path d="M11.943 40.0842C12.4703 39.7859 13.0305 39.522 13.614 39.2925C15.0439 38.7301 16.8181 39.0793 17.125 39.9675L18.4627 43.8373L12.9272 46.9686C11.6665 47.6818 9.71974 47.5717 9.11297 46.7445C7.58847 44.6656 8.59967 41.9756 11.943 40.0842Z" fill="#AB2C37"/>
<path d="M13.273 40.8497C13.6927 40.6124 14.1386 40.4022 14.6031 40.2196C15.7412 39.7719 17.1534 40.0499 17.3978 40.7569L18.4625 43.8371L14.0565 46.3296C13.0531 46.8972 11.5035 46.8096 11.0204 46.1511C9.8069 44.4962 10.6118 42.3552 13.273 40.8497Z" fill="#FF4757"/>
<path d="M10.6503 43.477C10.1657 43.4212 9.90892 43.14 10.0768 42.8493C10.2447 42.5585 10.7735 42.3682 11.2581 42.4242C11.7427 42.4801 11.9995 42.7611 11.8316 43.052C11.6638 43.3427 11.1349 43.533 10.6503 43.477Z" fill="#FF7A85"/>
<path d="M11.5764 42.0703C11.1674 41.9272 11.0867 41.6011 11.3961 41.3419C11.7055 41.0826 12.2879 40.9885 12.6968 41.1316C13.1058 41.2746 13.1865 41.6007 12.8771 41.86C12.5676 42.1191 11.9852 42.2134 11.5764 42.0703Z" fill="#FF7A85"/>
<path d="M13.1758 40.8365C12.8825 40.6203 12.9856 40.281 13.4062 40.0787C13.8268 39.8763 14.4057 39.8876 14.699 40.1037C14.9923 40.3199 14.8892 40.6592 14.4686 40.8615C14.048 41.0638 13.4691 41.0525 13.1758 40.8365Z" fill="#FF7A85"/>
<path d="M10.5451 43.8555C10.0323 43.8922 9.60873 44.1599 9.59881 44.4538C9.58889 44.7476 9.99658 44.9561 10.5092 44.9194C11.022 44.8829 11.4456 44.615 11.4555 44.3211C11.4655 44.0274 11.0579 43.8189 10.5451 43.8555Z" fill="#FF7A85"/>
<path d="M10.6091 45.2813C10.1184 45.4069 9.84154 45.7261 9.99049 45.9942C10.1396 46.2624 10.6581 46.3778 11.1488 46.2522C11.6395 46.1266 11.9164 45.8074 11.7675 45.5393C11.6185 45.2713 11.0999 45.1558 10.6091 45.2813Z" fill="#FF7A85"/>
<path d="M37.6685 22.9711L37.668 20.5914L64.5989 18.3854V20.7784C64.5985 22.9333 63.0228 25.2059 59.9485 26.9809C54.3269 30.2265 45.8231 30.579 40.9546 27.7683C38.7348 26.4866 37.6547 24.7686 37.6685 22.9711Z" fill="url(#paint16_linear_110_4833)"/>
<path d="M42.3184 14.409C47.94 11.1634 56.4438 10.8109 61.3123 13.6217C66.1809 16.4324 65.5703 21.3422 59.9487 24.5878C54.327 27.8334 45.8232 28.1859 40.9547 25.3751C36.0862 22.5644 36.6968 17.6547 42.3184 14.409Z" fill="url(#paint17_linear_110_4833)"/>
<path d="M61.2708 17.3163C61.3932 17.6945 61.4432 18.0765 61.4264 18.4574C61.385 19.3907 59.7469 20.1559 58.209 19.978L51.5081 19.2026L50.222 15.2319C49.9291 14.3277 51.3126 13.3854 52.9457 13.389C57.0494 13.3986 60.4939 14.9181 61.2708 17.3163Z" fill="#AB2C37"/>
<path d="M59.279 17.7015C59.3765 18.0025 59.4162 18.3065 59.4027 18.6097C59.3699 19.3524 58.066 19.9617 56.8419 19.8201L51.5082 19.2028L50.4845 16.0424C50.2513 15.3227 51.3526 14.5726 52.6524 14.5756C55.9189 14.583 58.6607 15.7925 59.279 17.7015Z" fill="#FF4757"/>
<path d="M56.9369 15.3906C57.3244 15.1668 57.911 15.1425 58.2466 15.3363C58.5824 15.5302 58.5402 15.8687 58.1526 16.0926C57.765 16.3165 57.1785 16.3407 56.8429 16.1469C56.5071 15.953 56.5493 15.6145 56.9369 15.3906Z" fill="#FF7A85"/>
<path d="M58.4904 16.386C58.9628 16.233 59.5076 16.3146 59.7071 16.5681C59.9065 16.8216 59.6853 17.1511 59.213 17.3041C58.7405 17.4571 58.1958 17.3755 57.9963 17.122C57.7967 16.8685 58.018 16.539 58.4904 16.386Z" fill="#FF7A85"/>
<path d="M59.3601 17.6569C59.8711 17.5898 60.3208 17.769 60.3645 18.0574C60.4083 18.3458 60.0296 18.6339 59.5186 18.7011C59.0077 18.7682 58.5579 18.589 58.5142 18.3006C58.4703 18.0121 58.8492 17.724 59.3601 17.6569Z" fill="#FF7A85"/>
<path d="M56.4289 15.1957C56.6937 14.923 56.5526 14.6084 56.1135 14.4933C55.6744 14.3781 55.1037 14.5058 54.8387 14.7787C54.5738 15.0514 54.7149 15.3658 55.1541 15.4811C55.5931 15.5963 56.1639 15.4684 56.4289 15.1957Z" fill="#FF7A85"/>
<path d="M54.2278 14.6935C54.3441 14.3985 54.0334 14.1389 53.5339 14.1137C53.0344 14.0885 52.5352 14.3071 52.4189 14.6022C52.3026 14.8972 52.6133 15.1569 53.1128 15.182C53.6124 15.2071 54.1114 14.9884 54.2278 14.6935Z" fill="#FF7A85"/>
<path d="M47.7494 25.833C47.0997 25.7531 46.4895 25.6351 45.9228 25.4837C44.5342 25.1128 44.3983 23.9982 45.6292 23.288L50.9924 20.1936L57.814 21.0329C59.3674 21.224 59.9309 22.2763 58.9045 23.0998C56.3254 25.1696 51.8695 26.3399 47.7494 25.833Z" fill="#AB2C37"/>
<path d="M48.4106 24.6827C47.8933 24.6192 47.4077 24.5252 46.9567 24.4047C45.8515 24.1095 45.7433 23.2223 46.7229 22.6571L50.9918 20.1941L56.4215 20.8621C57.6581 21.0142 58.1066 21.8517 57.2897 22.5073C55.2369 24.1547 51.6901 25.0861 48.4106 24.6827Z" fill="#FF4757"/>
<path d="M53.3758 24.3658C53.4726 24.6455 53.143 24.9509 52.6394 25.0479C52.1357 25.1449 51.6489 24.9966 51.552 24.7168C51.4552 24.4371 51.7848 24.1317 52.2884 24.0347C52.7921 23.9377 53.2788 24.086 53.3758 24.3658Z" fill="#FF7A85"/>
<path d="M50.8969 24.7775C50.8334 25.0735 50.3695 25.3181 49.8606 25.3238C49.3517 25.3296 48.9907 25.0942 49.0541 24.7981C49.1176 24.5021 49.5815 24.2576 50.0904 24.2518C50.5992 24.2461 50.9603 24.4814 50.8969 24.7775Z" fill="#FF7A85"/>
<path d="M48.4268 24.7404C48.2092 25.0237 47.6563 25.1836 47.192 25.0976C46.7276 25.0115 46.5276 24.7121 46.7451 24.4288C46.9627 24.1455 47.5156 23.9856 47.9799 24.0716C48.4443 24.1576 48.6444 24.457 48.4268 24.7404Z" fill="#FF7A85"/>
<path d="M53.9889 24.1823C54.2366 24.4185 54.8015 24.4651 55.2504 24.2865C55.6995 24.1079 55.8626 23.7716 55.6148 23.5355C55.367 23.2993 54.8022 23.2527 54.3532 23.4313C53.9041 23.61 53.741 23.9463 53.9889 24.1823Z" fill="#FF7A85"/>
<path d="M56.1251 23.2587C56.4995 23.428 57.0871 23.3685 57.4376 23.1257C57.7881 22.8829 57.7686 22.5487 57.3942 22.3792C57.0198 22.2099 56.4322 22.2694 56.0817 22.5123C55.7312 22.7551 55.7507 23.0893 56.1251 23.2587Z" fill="#FF7A85"/>
<path d="M43.2926 15.8087C43.8198 15.5104 44.38 15.2465 44.9635 15.017C46.3934 14.4546 48.1676 14.8038 48.4747 15.692L49.8124 19.5617L44.2769 22.6931C43.0162 23.4063 41.0694 23.2962 40.4626 22.469C38.938 20.3899 39.9493 17.7 43.2926 15.8087Z" fill="#AB2C37"/>
<path d="M44.6226 16.574C45.0423 16.3366 45.4882 16.1265 45.9527 15.9437C47.0909 15.4961 48.503 15.774 48.7474 16.481L49.8121 19.5612L45.4061 22.0537C44.4028 22.6213 42.8531 22.5338 42.37 21.8752C41.1565 20.2205 41.9614 18.0795 44.6226 16.574Z" fill="#FF4757"/>
<path d="M41.9999 19.2013C41.5153 19.1454 41.2585 18.8644 41.4264 18.5735C41.5943 18.2828 42.1233 18.0924 42.6078 18.1484C43.0924 18.2043 43.3492 18.4855 43.1813 18.7762C43.0133 19.067 42.4845 19.2573 41.9999 19.2013Z" fill="#FF7A85"/>
<path d="M42.925 17.7945C42.516 17.6515 42.4353 17.3254 42.7447 17.0661C43.0541 16.8068 43.6365 16.7127 44.0455 16.8558C44.4545 16.9989 44.5352 17.325 44.2258 17.5842C43.9164 17.8434 43.334 17.9376 42.925 17.7945Z" fill="#FF7A85"/>
<path d="M44.5254 16.5607C44.2321 16.3445 44.3352 16.0053 44.7558 15.8029C45.1764 15.6006 45.7553 15.6118 46.0486 15.828C46.3419 16.0442 46.2388 16.3834 45.8182 16.5858C45.3974 16.7881 44.8187 16.7769 44.5254 16.5607Z" fill="#FF7A85"/>
<path d="M41.8947 19.5797C41.382 19.6164 40.9583 19.8841 40.9484 20.178C40.9385 20.4719 41.3462 20.6803 41.8588 20.6437C42.3716 20.607 42.7952 20.3391 42.8052 20.0454C42.8151 19.7516 42.4074 19.5432 41.8947 19.5797Z" fill="#FF7A85"/>
<path d="M41.9588 21.0058C41.4681 21.1314 41.1911 21.4505 41.3401 21.7187C41.4891 21.9868 42.0077 22.1022 42.4985 21.9766C42.9892 21.8511 43.2661 21.5319 43.1171 21.2637C42.968 20.9956 42.4495 20.8801 41.9588 21.0058Z" fill="#FF7A85"/>
<path d="M49.0383 29.6636L49.8479 27.2639L44.5938 29.159C45.9867 29.4862 47.4937 29.6524 49.0383 29.6636Z" fill="url(#paint18_linear_110_4833)"/>
<path d="M65.3822 10.1283L3.79199 8.28125V15.9997H3.79212C3.79265 16.0558 3.79604 16.1127 3.80322 16.1699L7.86302 48.8163C8.01092 50.0061 9.32446 50.6597 10.3628 50.0603L64.9683 18.5338C65.2489 18.3718 65.3763 18.1058 65.3802 17.8397L65.3822 17.8398V10.1283Z" fill="url(#paint19_linear_110_4833)"/>
<path d="M3.80335 8.44531L7.86315 41.0917C8.01106 42.2815 9.32459 42.9351 10.3629 42.3357L64.9685 10.8092C65.6844 10.3959 65.4158 9.30364 64.5899 9.26944L5.30748 6.81207C4.40908 6.77487 3.69239 7.55317 3.80335 8.44531Z" fill="url(#paint20_linear_110_4833)"/>
<path opacity="0.2" d="M10.8085 13.9889C9.79365 14.5748 8.25832 14.6385 7.37949 14.1311C6.50054 13.6237 6.61085 12.7373 7.6257 12.1514C8.64055 11.5654 10.1759 11.5018 11.0547 12.0092C11.9335 12.5166 11.8234 13.403 10.8085 13.9889Z" fill="#CC8241"/>
<path opacity="0.2" d="M22.3466 21.9706C21.3317 22.5566 19.7964 22.6202 18.9176 22.1128C18.0386 21.6053 18.1489 20.7189 19.1638 20.1331C20.1786 19.547 21.714 19.4835 22.5928 19.9909C23.4717 20.4983 23.3614 21.3846 22.3466 21.9706Z" fill="#CC8241"/>
<path opacity="0.2" d="M20.915 14.5332C20.4494 14.8022 19.7448 14.8313 19.3416 14.5985C18.9383 14.3656 18.9889 13.959 19.4545 13.6901C19.9202 13.4211 20.6247 13.392 21.028 13.6249C21.4313 13.8577 21.3808 14.2643 20.915 14.5332Z" fill="#CC8241"/>
<path opacity="0.2" d="M37.3545 19.9191C36.8888 20.1881 36.1843 20.2172 35.781 19.9843C35.3778 19.7514 35.4283 19.3447 35.8941 19.0758C36.3599 18.8069 37.0643 18.7778 37.4675 19.0106C37.8708 19.2436 37.8201 19.6502 37.3545 19.9191Z" fill="#CC8241"/>
<path opacity="0.2" d="M40.5 12.7322C40.0344 13.0012 39.3298 13.0303 38.9266 12.7975C38.5233 12.5646 38.5738 12.158 39.0395 11.8891C39.5051 11.6201 40.2097 11.591 40.6129 11.8238C41.0163 12.0567 40.9657 12.4633 40.5 12.7322Z" fill="#CC8241"/>
<path opacity="0.2" d="M24.5557 27.8206C24.09 28.0895 23.3856 28.1187 22.9822 27.8859C22.579 27.653 22.6295 27.2464 23.0951 26.9774C23.5608 26.7085 24.2653 26.6794 24.6686 26.9122C25.072 27.1451 25.0214 27.5518 24.5557 27.8206Z" fill="#CC8241"/>
<path opacity="0.2" d="M12.5371 21.1916C12.0715 21.4605 11.3669 21.4896 10.9637 21.2569C10.5604 21.024 10.6109 20.6173 11.0766 20.3484C11.5424 20.0795 12.2468 20.0504 12.65 20.2831C13.0534 20.516 13.0028 20.9227 12.5371 21.1916Z" fill="#CC8241"/>
<path opacity="0.2" d="M30.6093 12.5854C29.5944 13.1714 28.0592 13.235 27.1803 12.7276C26.3013 12.2202 26.4116 11.3338 27.4265 10.7478C28.4413 10.1619 29.9767 10.0982 30.8555 10.6056C31.7344 11.1132 31.6241 11.9996 30.6093 12.5854Z" fill="#CC8241"/>
<path opacity="0.2" d="M14.6552 34.4578C13.6403 35.0438 12.105 35.1074 11.2262 34.5999C10.3472 34.0925 10.4575 33.2061 11.4724 32.6202C12.4872 32.0342 14.0224 31.9707 14.9014 32.4781C15.7803 32.9855 15.67 33.8719 14.6552 34.4578Z" fill="#CC8241"/>
<path opacity="0.2" d="M49.1776 14.308C48.1628 14.894 46.6276 14.9575 45.7486 14.4501C44.8697 13.9427 44.98 13.0563 45.9948 12.4704C47.0097 11.8845 48.545 11.8208 49.4238 12.3283C50.3027 12.8356 50.1925 13.7219 49.1776 14.308Z" fill="#CC8241"/>
</g>
<defs>
<linearGradient id="paint0_linear_110_4833" x1="7.3958" y1="43.1678" x2="34.0535" y2="43.1678" gradientUnits="userSpaceOnUse">
<stop stop-color="#E2823A"/>
<stop offset="0.0097" stop-color="#E3843C"/>
<stop offset="0.1219" stop-color="#E8954A"/>
<stop offset="0.2609" stop-color="#ECA054"/>
<stop offset="0.4566" stop-color="#EEA75A"/>
<stop offset="1" stop-color="#EFA95C"/>
</linearGradient>
<linearGradient id="paint1_linear_110_4833" x1="63.0751" y1="54.8701" x2="31.268" y2="-0.219787" gradientUnits="userSpaceOnUse">
<stop offset="0.0128" stop-color="#DEA861"/>
<stop offset="0.2774" stop-color="#E4B873"/>
<stop offset="0.8035" stop-color="#F5E2A0"/>
<stop offset="1" stop-color="#FCF3B3"/>
</linearGradient>
<linearGradient id="paint2_linear_110_4833" x1="30.9529" y1="31.4267" x2="39.8829" y2="46.894" gradientUnits="userSpaceOnUse">
<stop stop-color="#8B451C"/>
<stop offset="1" stop-color="#8B451C" stop-opacity="0"/>
</linearGradient>
<linearGradient id="paint3_linear_110_4833" x1="9.74608" y1="39.3056" x2="13.1451" y2="39.3056" gradientUnits="userSpaceOnUse">
<stop stop-color="#FFA538"/>
<stop offset="1" stop-color="#F7E041"/>
</linearGradient>
<linearGradient id="paint4_linear_110_4833" x1="48.5157" y1="44.0966" x2="16.7087" y2="-10.9933" gradientUnits="userSpaceOnUse">
<stop stop-color="#FCF3B3"/>
<stop offset="1" stop-color="#F7E041"/>
</linearGradient>
<linearGradient id="paint5_linear_110_4833" x1="32.2858" y1="15.1055" x2="65.2577" y2="30.9159" gradientUnits="userSpaceOnUse">
<stop stop-color="#8B451C"/>
<stop offset="1" stop-color="#8B451C" stop-opacity="0"/>
</linearGradient>
<linearGradient id="paint6_linear_110_4833" x1="30.5658" y1="30.813" x2="41.361" y2="30.813" gradientUnits="userSpaceOnUse">
<stop stop-color="#8B451C"/>
<stop offset="1" stop-color="#BA5C25"/>
</linearGradient>
<linearGradient id="paint7_linear_110_4833" x1="-8.70966" y1="5.67843" x2="54.7055" y2="42.2912" gradientUnits="userSpaceOnUse">
<stop stop-color="#8B451C"/>
<stop offset="1" stop-color="#CC8241"/>
</linearGradient>
<linearGradient id="paint8_linear_110_4833" x1="10.0127" y1="16.4874" x2="45.3342" y2="36.8802" gradientUnits="userSpaceOnUse">
<stop stop-color="#8B451C"/>
<stop offset="1" stop-color="#CC8241"/>
</linearGradient>
<linearGradient id="paint9_linear_110_4833" x1="16.0156" y1="34.9426" x2="43.36" y2="34.9426" gradientUnits="userSpaceOnUse">
<stop stop-color="#8B451C"/>
<stop offset="1" stop-color="#8B451C" stop-opacity="0"/>
</linearGradient>
<linearGradient id="paint10_linear_110_4833" x1="43.7499" y1="33.539" x2="16.4071" y2="33.539" gradientUnits="userSpaceOnUse">
<stop stop-color="#A996EB"/>
<stop offset="0.5068" stop-color="#C5BAEB"/>
<stop offset="1" stop-color="#A996EB"/>
</linearGradient>
<linearGradient id="paint11_linear_110_4833" x1="32.4475" y1="31.8117" x2="-15.4654" y2="31.6551" gradientUnits="userSpaceOnUse">
<stop stop-color="#7AB922"/>
<stop offset="0.3327" stop-color="#7DBA24"/>
<stop offset="0.5364" stop-color="#85BD29"/>
<stop offset="0.7053" stop-color="#93C231"/>
<stop offset="0.8543" stop-color="#A8CA3E"/>
<stop offset="0.9904" stop-color="#C2D34E"/>
<stop offset="1" stop-color="#C4D44F"/>
</linearGradient>
<linearGradient id="paint12_linear_110_4833" x1="32.3952" y1="50.1693" x2="34.7438" y2="-12.1488" gradientUnits="userSpaceOnUse">
<stop stop-color="#7AB922"/>
<stop offset="0.3327" stop-color="#7DBA24"/>
<stop offset="0.5364" stop-color="#85BD29"/>
<stop offset="0.7053" stop-color="#93C231"/>
<stop offset="0.8543" stop-color="#A8CA3E"/>
<stop offset="0.9904" stop-color="#C2D34E"/>
<stop offset="1" stop-color="#C4D44F"/>
</linearGradient>
<linearGradient id="paint13_linear_110_4833" x1="-4.74247" y1="35.1243" x2="28.2295" y2="50.9346" gradientUnits="userSpaceOnUse">
<stop stop-color="#8B451C"/>
<stop offset="1" stop-color="#8B451C" stop-opacity="0"/>
</linearGradient>
<linearGradient id="paint14_linear_110_4833" x1="7.181" y1="48.3012" x2="22.0813" y2="48.3012" gradientUnits="userSpaceOnUse">
<stop stop-color="#AB2C37"/>
<stop offset="0.716" stop-color="#FF4757"/>
<stop offset="0.9923" stop-color="#FF7A85"/>
</linearGradient>
<linearGradient id="paint15_linear_110_4833" x1="-4.06181" y1="32.3399" x2="28.9102" y2="48.1501" gradientUnits="userSpaceOnUse">
<stop stop-color="#AB2C37"/>
<stop offset="1" stop-color="#FF4757"/>
</linearGradient>
<linearGradient id="paint16_linear_110_4833" x1="38.5306" y1="24.0255" x2="53.4311" y2="24.0255" gradientUnits="userSpaceOnUse">
<stop stop-color="#AB2C37"/>
<stop offset="0.716" stop-color="#FF4757"/>
<stop offset="0.9923" stop-color="#FF7A85"/>
</linearGradient>
<linearGradient id="paint17_linear_110_4833" x1="27.2879" y1="8.06427" x2="60.2599" y2="23.8746" gradientUnits="userSpaceOnUse">
<stop stop-color="#AB2C37"/>
<stop offset="1" stop-color="#FF4757"/>
</linearGradient>
<linearGradient id="paint18_linear_110_4833" x1="43.7831" y1="27.3202" x2="49.1956" y2="28.7234" gradientUnits="userSpaceOnUse">
<stop stop-color="#462934"/>
<stop offset="1" stop-color="#462934" stop-opacity="0"/>
</linearGradient>
<linearGradient id="paint19_linear_110_4833" x1="7.3958" y1="29.2837" x2="34.0535" y2="29.2837" gradientUnits="userSpaceOnUse">
<stop stop-color="#E2823A"/>
<stop offset="0.0097" stop-color="#E3843C"/>
<stop offset="0.1219" stop-color="#E8954A"/>
<stop offset="0.2609" stop-color="#ECA054"/>
<stop offset="0.4566" stop-color="#EEA75A"/>
<stop offset="1" stop-color="#EFA95C"/>
</linearGradient>
<linearGradient id="paint20_linear_110_4833" x1="-19.8492" y1="-6.86754" x2="61.553" y2="40.1301" gradientUnits="userSpaceOnUse">
<stop offset="0.0128" stop-color="#DEA861"/>
<stop offset="0.1516" stop-color="#E4B671"/>
<stop offset="0.5149" stop-color="#F1D795"/>
<stop offset="0.8106" stop-color="#F9ECAB"/>
<stop offset="1" stop-color="#FCF3B3"/>
</linearGradient>
<clipPath id="clip0_110_4833">
<rect width="66.8387" height="66.8387" fill="white" transform="translate(0.581055 0.580688)"/>
</clipPath>
</defs>
</svg>
