<svg width="18" height="18" viewBox="0 0 18 18" fill="none" xmlns="http://www.w3.org/2000/svg">
<path d="M16.158 8.28375C16.386 8.60348 16.5 8.76338 16.5 9C16.5 9.23663 16.386 9.39653 16.158 9.71625C15.1334 11.153 12.5169 14.25 9 14.25C5.48308 14.25 2.86657 11.153 1.84203 9.71625C1.61401 9.39653 1.5 9.23663 1.5 9C1.5 8.76338 1.61401 8.60348 1.84203 8.28375C2.86657 6.84708 5.48308 3.75 9 3.75C12.5169 3.75 15.1334 6.84708 16.158 8.28375Z" stroke="#686B8B" stroke-width="1.5"/>
<path d="M11.25 9C11.25 7.75732 10.2427 6.75 9 6.75C7.75732 6.75 6.75 7.75732 6.75 9C6.75 10.2427 7.75732 11.25 9 11.25C10.2427 11.25 11.25 10.2427 11.25 9Z" stroke="#686B8B" stroke-width="1.5"/>
</svg>
