<svg width="64" height="64" viewBox="0 0 64 64" fill="none" xmlns="http://www.w3.org/2000/svg">
<path d="M46.6076 24.0295C46.6273 24.0294 46.6473 24.0294 46.6673 24.0294C53.2948 24.0294 58.6673 29.4117 58.6673 36.0515C58.6673 42.2395 54.0006 47.3355 48.0006 48M46.6076 24.0295C46.647 23.5895 46.6673 23.1439 46.6673 22.6936C46.6673 14.5785 40.1009 8 32.0006 8C24.3293 8 18.0335 13.9005 17.3884 21.4185M46.6076 24.0295C46.3348 27.0603 45.1436 29.8256 43.3148 32.044M17.3884 21.4185C10.6246 22.0633 5.33398 27.7704 5.33398 34.7155C5.33398 41.1779 9.91468 46.5685 16.0007 47.8061M17.3884 21.4185C17.8093 21.3783 18.2359 21.3578 18.6673 21.3578C21.6695 21.3578 24.44 22.3518 26.6686 24.0294" stroke="#BEBEBE" stroke-width="3" stroke-linecap="round" stroke-linejoin="round"/>
<path d="M32.0007 34.6667V56M32.0007 34.6667C30.1335 34.6667 26.6447 39.9848 25.334 41.3333M32.0007 34.6667C33.8679 34.6667 37.3567 39.9848 38.6673 41.3333" stroke="#BEBEBE" stroke-width="3" stroke-linecap="round" stroke-linejoin="round"/>
</svg>
