<svg width="30" height="30" viewBox="0 0 30 30" fill="none" xmlns="http://www.w3.org/2000/svg">
<path d="M17.5 3.75H12.5C7.78595 3.75 5.42894 3.75 3.96446 5.21446C2.5 6.67894 2.5 9.03595 2.5 13.75C2.5 18.464 2.5 20.8211 3.96446 22.2855C5.42894 23.75 7.78595 23.75 12.5 23.75H17.5C22.214 23.75 24.5711 23.75 26.0355 22.2855C27.5 20.8211 27.5 18.464 27.5 13.75C27.5 9.03595 27.5 6.67894 26.0355 5.21446C24.5711 3.75 22.214 3.75 17.5 3.75Z" stroke="#1F2224" stroke-width="2" stroke-linecap="round"/>
<path d="M22.5 23.75L23.75 26.25" stroke="#1F2224" stroke-width="2" stroke-linecap="round" stroke-linejoin="round"/>
<path d="M7.5 23.75L6.25 26.25" stroke="#1F2224" stroke-width="2" stroke-linecap="round" stroke-linejoin="round"/>
</svg>
