<svg width="60" height="60" viewBox="0 0 60 60" fill="none" xmlns="http://www.w3.org/2000/svg">
<rect width="60" height="60" rx="8.57143" fill="#FCFFEC"/>
<path d="M30 28.7487C28.6193 28.7487 27.5 29.5874 27.5 30.6219C27.5 31.6564 28.6193 32.495 30 32.495C31.3807 32.495 32.5 33.3338 32.5 34.3683C32.5 35.4026 31.3807 36.2414 30 36.2414M30 28.7487C31.0885 28.7487 32.0145 29.27 32.3577 29.9975M30 28.7487V27.5M30 36.2414C28.9115 36.2414 27.9855 35.7201 27.6423 34.9926M30 36.2414L30.0035 37.5" stroke="#A4B712" stroke-width="1.875" stroke-linecap="round"/>
<path d="M41.25 28.75C41.446 28.6511 41.6164 28.5265 41.7677 28.3694C42.5 27.6094 42.5 26.3862 42.5 23.9397C42.5 21.4933 42.5 20.27 41.7677 19.51C41.0355 18.75 39.857 18.75 37.5 18.75H22.5C20.143 18.75 18.9645 18.75 18.2322 19.51C17.5 20.27 17.5 21.4933 17.5 23.9397C17.5 26.3862 17.5 27.6094 18.2322 28.3694C18.3836 28.5265 18.554 28.6511 18.75 28.75" stroke="#A4B712" stroke-width="1.5" stroke-linecap="round"/>
<path d="M30 41.25C34.8325 41.25 38.75 37.3325 38.75 32.5C38.75 27.6675 34.8325 23.75 30 23.75C25.1675 23.75 21.25 27.6675 21.25 32.5C21.25 37.3325 25.1675 41.25 30 41.25Z" stroke="#A4B712" stroke-width="1.5"/>
<path d="M21.25 23.75H38.75" stroke="#A4B712" stroke-width="1.5" stroke-linecap="round" stroke-linejoin="round"/>
</svg>
