<svg width="20" height="20" viewBox="0 0 20 20" fill="none" xmlns="http://www.w3.org/2000/svg">
<path d="M5.3125 12.5C3.76925 12.4387 2.45883 11.1526 2.501 9.42967C2.51083 9.02883 2.6505 8.53342 2.93 7.5426C3.60267 5.15801 4.73309 3.08796 7.26542 2.5913C7.73084 2.5 8.25467 2.5 9.30225 2.5L10.6978 2.5C11.7453 2.5 12.2691 2.5 12.7346 2.5913C15.267 3.08796 16.3974 5.15801 17.07 7.5426C17.3495 8.53342 17.4892 9.02883 17.499 9.42967C17.5412 11.1526 16.2308 12.4387 14.6875 12.5" stroke="#1F2224" stroke-width="1.5" stroke-linecap="round"/>
<path d="M9.99967 17.5L9.99967 8.33333M9.99967 17.5C10.5832 17.5 11.6734 15.8381 12.083 15.4167M9.99967 17.5C9.41617 17.5 8.32592 15.8381 7.91634 15.4167" stroke="#1F2224" stroke-width="1.5" stroke-linecap="round" stroke-linejoin="round"/>
</svg>
