<svg width="18" height="18" viewBox="0 0 18 18" fill="none" xmlns="http://www.w3.org/2000/svg">
<path d="M1.5 8.625C1.5 9.45345 2.17157 10.125 3 10.125C4.24264 10.125 5.25 9.11768 5.25 7.875V4.875C5.25 3.63236 4.24264 2.625 3 2.625C2.17157 2.625 1.5 3.29657 1.5 4.125V8.625Z" stroke="#09A8F7" stroke-width="1.125" stroke-linecap="round" stroke-linejoin="round"/>
<path d="M11.609 12.1453L11.4093 11.5003C11.2456 10.9717 11.1638 10.7074 11.2267 10.4987C11.2777 10.3298 11.3894 10.1842 11.5417 10.0885C11.73 9.97012 12.0148 9.97012 12.5843 9.97012H12.8873C14.8149 9.97012 15.7786 9.97012 16.2339 9.39952C16.2859 9.33435 16.3321 9.26497 16.3722 9.19222C16.7224 8.55592 16.3243 7.69867 15.528 5.98417C14.7973 4.41083 14.4319 3.62416 13.7535 3.16114C13.6879 3.11631 13.6204 3.07402 13.5512 3.03439C12.837 2.625 11.9521 2.625 10.1823 2.625H9.79845C7.65427 2.625 6.58221 2.625 5.91611 3.2704C5.25 3.91579 5.25 4.95455 5.25 7.03205V7.76227C5.25 8.85405 5.25 9.3999 5.44375 9.89955C5.63751 10.3992 6.00851 10.81 6.75052 11.6317L9.81907 15.0296C9.89602 15.1148 9.9345 15.1574 9.96847 15.187C10.2851 15.4625 10.7739 15.4315 11.0508 15.1183C11.0805 15.0847 11.1129 15.0376 11.1777 14.9434C11.2791 14.796 11.3298 14.7223 11.374 14.6492C11.7696 13.9957 11.8893 13.2192 11.7081 12.4822C11.6878 12.3998 11.6616 12.3149 11.609 12.1453Z" stroke="#09A8F7" stroke-width="1.125" stroke-linecap="round" stroke-linejoin="round"/>
</svg>
