<svg width="25" height="25" viewBox="0 0 25 25" fill="none" xmlns="http://www.w3.org/2000/svg">
<path d="M5.5441 10.0863C8.05835 5.63739 9.31547 3.41293 11.0406 2.84032C11.9895 2.52531 13.0118 2.52531 13.9608 2.84032C15.6859 3.41293 16.9429 5.63739 19.4572 10.0863C21.9715 14.5351 23.2286 16.7596 22.8515 18.5721C22.644 19.5693 22.1328 20.4737 21.3913 21.1559C20.0434 22.3958 17.5292 22.3958 12.5007 22.3958C7.47217 22.3958 4.95792 22.3958 3.60999 21.1559C2.86845 20.4737 2.35731 19.5693 2.14984 18.5721C1.77273 16.7596 3.02985 14.5351 5.5441 10.0863Z" stroke="#FF2121" stroke-width="2.5"/>
<path d="M12.4922 16.6667H12.5102" stroke="#FF2121" stroke-width="2.5" stroke-linecap="round" stroke-linejoin="round"/>
<path d="M12.5 13.5417V9.37497" stroke="#FF2121" stroke-width="2.5" stroke-linecap="round" stroke-linejoin="round"/>
</svg>
