<svg width="180" height="46" viewBox="0 0 180 46" fill="none" xmlns="http://www.w3.org/2000/svg">
<path d="M21.2924 9.19914V3.53247H3.42578V42.4658H21.2924V36.7991C17.6324 36.7991 14.1223 35.3451 11.5344 32.7571C8.94637 30.1691 7.49245 26.6591 7.49245 22.9991C7.49245 19.3391 8.94637 15.829 11.5344 13.2411C14.1223 10.6531 17.6324 9.19914 21.2924 9.19914Z" fill="#71779B"/>
<path d="M21.2891 9.20044V36.8005C24.9491 36.8005 28.4592 35.3465 31.0472 32.7585C33.6352 30.1705 35.0891 26.6605 35.0891 23.0005C35.0891 19.3405 33.6352 15.8303 31.0472 13.2424C28.4592 10.6544 24.9491 9.20044 21.2891 9.20044Z" fill="#71779B"/>
<path d="M45.1172 12.6692H49.1172V31.9359H45.1172V12.6692Z" fill="#71779B"/>
<path d="M51.36 25.3331C51.36 23.947 51.7716 22.592 52.5425 21.44C53.3135 20.288 54.4091 19.3908 55.6905 18.8622C56.972 18.3336 58.3815 18.1974 59.7404 18.4707C61.0993 18.744 62.3465 19.4147 63.3239 20.3976C64.3012 21.3807 64.9648 22.6316 65.2304 23.9922C65.4959 25.3527 65.3516 26.7614 64.8156 28.0398C64.2796 29.318 63.3763 30.4086 62.2199 31.1728C61.0635 31.9372 59.7061 32.341 58.32 32.3331C57.4007 32.3403 56.4891 32.1639 55.6388 31.814C54.7885 31.4643 54.0165 30.9483 53.3683 30.2964C52.72 29.6444 52.2085 28.8695 51.8636 28.0172C51.5188 27.165 51.3476 26.2524 51.36 25.3331ZM61.3867 25.3331C61.3709 24.7355 61.1793 24.1558 60.8359 23.6666C60.4924 23.1772 60.0124 22.8 59.4556 22.5822C58.8989 22.3643 58.2904 22.3154 57.7061 22.4416C57.1217 22.5678 56.5876 22.8634 56.1704 23.2916C55.7532 23.7198 55.4715 24.2614 55.3605 24.8488C55.2496 25.4363 55.3143 26.0434 55.5465 26.5942C55.7788 27.145 56.1683 27.6152 56.6664 27.9458C57.1644 28.2764 57.7488 28.4528 58.3467 28.4531C58.7537 28.4611 59.158 28.385 59.5343 28.2295C59.9105 28.0742 60.2507 27.8428 60.5335 27.55C60.8163 27.2572 61.0356 26.9091 61.1779 26.5278C61.3201 26.1463 61.3821 25.7396 61.36 25.3331H61.3867Z" fill="#71779B"/>
<path d="M81.1077 18.7373V31.284C81.1077 35.7106 77.641 37.5906 74.1344 37.5906C72.8974 37.6921 71.6568 37.4464 70.5521 36.881C69.4473 36.3157 68.5222 35.4532 67.881 34.3906L71.2544 32.444C71.5277 32.9952 71.9625 33.4498 72.5009 33.7476C73.0393 34.0453 73.6556 34.172 74.2677 34.1106C74.6577 34.1586 75.0534 34.12 75.4266 33.9973C75.8 33.8745 76.1414 33.6709 76.4268 33.4008C76.7122 33.1306 76.9344 32.8009 77.0774 32.4349C77.2205 32.069 77.2809 31.676 77.2544 31.284V30.0706C76.7889 30.635 76.1982 31.083 75.5294 31.3793C74.8605 31.6756 74.1318 31.8118 73.401 31.7773C71.6329 31.7773 69.9373 31.0749 68.687 29.8246C67.4368 28.5745 66.7344 26.8788 66.7344 25.1106C66.7344 23.3425 67.4368 21.6469 68.687 20.3966C69.9373 19.1464 71.6329 18.444 73.401 18.444C74.1318 18.4094 74.8605 18.5457 75.5294 18.842C76.1982 19.1382 76.7889 19.5862 77.2544 20.1506V18.8173L81.1077 18.7373ZM77.2544 25.0706C77.2809 24.4328 77.1161 23.8014 76.781 23.258C76.446 22.7145 75.9561 22.2837 75.3741 22.0209C74.7922 21.7581 74.1452 21.6754 73.5158 21.7834C72.8866 21.8914 72.304 22.1852 71.843 22.6269C71.3821 23.0686 71.0638 23.6382 70.9292 24.2624C70.7945 24.8865 70.8496 25.5365 71.0873 26.129C71.3252 26.7216 71.7348 27.2294 72.2634 27.5873C72.7922 27.9452 73.416 28.1368 74.0544 28.1373C74.471 28.1673 74.8893 28.1096 75.2821 27.968C75.675 27.8262 76.034 27.6037 76.3354 27.3146C76.637 27.0257 76.8746 26.6766 77.0329 26.2901C77.1912 25.9036 77.2666 25.4881 77.2544 25.0706Z" fill="#71779B"/>
<path d="M83.3598 25.3333C83.3598 23.9482 83.7708 22.5943 84.5405 21.4429C85.3102 20.2914 86.4042 19.3942 87.6841 18.8649C88.964 18.3354 90.3721 18.1975 91.7304 18.4687C93.0886 18.7399 94.3358 19.4079 95.3144 20.3882C96.2928 21.3686 96.9584 22.6171 97.2269 23.9758C97.4956 25.3346 97.355 26.7425 96.8232 28.0213C96.2913 29.3002 95.392 30.3925 94.2392 31.1601C93.0862 31.9277 91.7316 32.3359 90.3465 32.3333C89.4254 32.3422 88.5117 32.1671 87.6592 31.8183C86.8066 31.4695 86.0322 30.9541 85.3816 30.3021C84.7308 29.6501 84.2168 28.8747 83.8696 28.0215C83.5225 27.1683 83.3492 26.2543 83.3598 25.3333ZM93.3865 25.3333C93.3708 24.7351 93.1788 24.1549 92.8348 23.6653C92.4908 23.1758 92.0098 22.7986 91.4524 22.5811C90.8949 22.3637 90.2857 22.3155 89.701 22.4429C89.1164 22.5701 88.5822 22.8671 88.1656 23.2966C87.7489 23.7261 87.4682 24.269 87.3589 24.8573C87.2494 25.4455 87.316 26.053 87.5502 26.6035C87.7845 27.1542 88.1761 27.6234 88.676 27.9525C89.1757 28.2814 89.7614 28.4557 90.3598 28.4533C90.7669 28.4613 91.1712 28.3851 91.5474 28.2297C91.9237 28.0743 92.2638 27.843 92.5466 27.5502C92.8294 27.2574 93.0488 26.9093 93.191 26.5279C93.3333 26.1465 93.3953 25.7398 93.3732 25.3333H93.3865Z" fill="#71779B"/>
<path d="M99.1836 15.1988C99.1836 14.7294 99.3228 14.2705 99.5836 13.8802C99.8444 13.4899 100.215 13.1857 100.649 13.0061C101.082 12.8265 101.56 12.7795 102.02 12.871C102.48 12.9626 102.903 13.1887 103.235 13.5206C103.567 13.8525 103.793 14.2754 103.885 14.7357C103.976 15.1961 103.929 15.6733 103.75 16.107C103.57 16.5406 103.266 16.9113 102.875 17.1721C102.485 17.4329 102.026 17.5721 101.557 17.5721C100.93 17.5652 100.33 17.3129 99.8864 16.8693C99.4428 16.4257 99.1905 15.8261 99.1836 15.1988ZM99.5703 18.7321H103.57V31.9321H99.5703V18.7321Z" fill="#71779B"/>
<path d="M120.692 25.3327C120.737 26.2106 120.608 27.0887 120.312 27.9165C120.016 28.7442 119.559 29.5053 118.968 30.1558C118.377 30.8065 117.663 31.3337 116.867 31.7073C116.072 32.0809 115.21 32.2934 114.332 32.3327C113.587 32.3823 112.84 32.263 112.147 31.9837C111.455 31.7042 110.834 31.2721 110.332 30.7194V37.2394H106.332V18.7327H110.332V19.9727C110.835 19.4217 111.456 18.9915 112.149 18.7145C112.841 18.4373 113.588 18.3205 114.332 18.3727C115.207 18.4121 116.065 18.6234 116.858 18.9945C117.651 19.3655 118.363 19.8893 118.953 20.5355C119.544 21.1818 120.002 21.9381 120.3 22.7613C120.598 23.5843 120.731 24.4581 120.692 25.3327ZM116.692 25.3327C116.676 24.7134 116.478 24.1126 116.122 23.6055C115.767 23.0985 115.269 22.7075 114.692 22.4821C114.115 22.2565 113.484 22.2063 112.879 22.3377C112.274 22.469 111.721 22.7762 111.289 23.2206C110.857 23.665 110.567 24.2269 110.453 24.8359C110.339 25.4449 110.408 26.0738 110.651 26.6439C110.893 27.2139 111.298 27.6998 111.815 28.0406C112.333 28.3814 112.939 28.5618 113.559 28.5594C113.983 28.5774 114.406 28.5055 114.801 28.3485C115.195 28.1914 115.552 27.9527 115.848 27.6481C116.144 27.3434 116.372 26.9795 116.518 26.5806C116.663 26.1815 116.722 25.7563 116.692 25.3327Z" fill="#71779B"/>
<path d="M132.865 27.9703C132.865 31.0103 130.198 32.3036 127.371 32.3036C126.218 32.4074 125.061 32.163 124.048 31.602C123.036 31.0411 122.215 30.1894 121.691 29.157L125.131 27.2103C125.268 27.686 125.563 28.1006 125.968 28.3846C126.374 28.6686 126.864 28.8047 127.358 28.7703C128.305 28.7703 128.785 28.477 128.785 27.9436C128.785 26.4903 122.291 27.2636 122.291 22.6903C122.291 19.8103 124.718 18.3703 127.465 18.3703C128.509 18.3235 129.546 18.5604 130.466 19.0558C131.386 19.5511 132.155 20.2864 132.691 21.1836L129.251 22.997C129.099 22.653 128.851 22.3604 128.536 22.1546C128.222 21.9487 127.854 21.8384 127.478 21.837C126.785 21.837 126.371 22.1036 126.371 22.5703C126.371 24.0903 132.865 23.0903 132.865 27.9703Z" fill="#71779B"/>
<path d="M147.355 18.7356V31.9356H143.355V30.6956C142.9 31.2445 142.323 31.6788 141.671 31.9637C141.018 32.2487 140.307 32.376 139.595 32.3356C136.928 32.3356 134.648 30.4289 134.648 26.8689V18.7356H138.648V26.2689C138.616 26.5839 138.654 26.9019 138.758 27.2011C138.862 27.5001 139.028 27.7732 139.247 28.0015C139.467 28.2296 139.734 28.4075 140.028 28.5228C140.323 28.638 140.639 28.6879 140.955 28.6689C142.395 28.6689 143.408 27.8156 143.408 26.0023V18.7356H147.355Z" fill="#71779B"/>
<path d="M170.022 23.8275V31.9342H166.022V24.1742C166.022 22.8408 165.395 22.0142 164.128 22.0142C162.862 22.0142 162.062 22.9342 162.062 24.4942V31.9342H158.062V24.1742C158.062 22.8408 157.435 22.0142 156.168 22.0142C154.902 22.0142 154.102 22.9342 154.102 24.4942V31.9342H150.102V18.7342H154.102V19.9475C154.516 19.4115 155.056 18.987 155.676 18.7123C156.295 18.4376 156.974 18.3214 157.648 18.3742C158.324 18.3388 158.999 18.4802 159.604 18.784C160.21 19.0879 160.726 19.544 161.102 20.1075C161.542 19.5187 162.123 19.051 162.792 18.7479C163.46 18.4447 164.196 18.3162 164.928 18.3742C168.048 18.3742 170.022 20.5342 170.022 23.8275Z" fill="#71779B"/>
<path d="M173.386 18.653C175.006 18.653 176.32 17.3397 176.32 15.7197C176.32 14.0997 175.006 12.7864 173.386 12.7864C171.766 12.7864 170.453 14.0997 170.453 15.7197C170.453 17.3397 171.766 18.653 173.386 18.653Z" fill="#71779B"/>
</svg>
