<svg width="124" height="30" viewBox="0 0 124 30" fill="none" xmlns="http://www.w3.org/2000/svg">
<g clip-path="url(#clip0_159_4205)">
<path fill-rule="evenodd" clip-rule="evenodd" d="M7.36762 2.16919V29.6692H0.0234375V2.16919H7.36762Z" fill="#71779B"/>
<path fill-rule="evenodd" clip-rule="evenodd" d="M11.0391 2.16919H26.6455C31.7156 2.16919 35.8257 6.27325 35.8257 11.3359C35.8257 16.3985 31.7156 20.5025 26.6455 20.5025H18.3833V29.6692H11.0391V2.16919ZM18.3833 13.1692H26.6455C27.6595 13.1692 28.4815 12.3484 28.4815 11.3359C28.4815 10.3233 27.6595 9.50252 26.6455 9.50252H18.3833V13.1692Z" fill="#71779B"/>
<path fill-rule="evenodd" clip-rule="evenodd" d="M63.3676 2.16919V16.3775C63.3676 19.6682 66.0392 22.3359 69.3348 22.3359C72.6304 22.3359 75.302 19.6682 75.302 16.3775V2.16919H82.6464V16.3775C82.6464 23.7183 76.6866 29.6692 69.3348 29.6692C61.9831 29.6692 56.0234 23.7183 56.0234 16.3775V2.16919H63.3676Z" fill="#71779B"/>
<path fill-rule="evenodd" clip-rule="evenodd" d="M38.5786 15.0025C38.5786 7.91486 44.3327 2.16919 51.4309 2.16919H53.2669V9.50252H51.4309C48.3888 9.50252 45.9227 11.965 45.9227 15.0025V15.9192C45.9227 23.5131 39.7575 29.6692 32.1524 29.6692H31.2344V22.3359H32.1524C35.7015 22.3359 38.5786 19.463 38.5786 15.9192V15.0025Z" fill="#71779B"/>
<path d="M123.953 3.08325C123.953 4.60204 122.721 5.83325 121.199 5.83325C119.678 5.83325 118.445 4.60204 118.445 3.08325C118.445 1.56447 119.678 0.333252 121.199 0.333252C122.721 0.333252 123.953 1.56447 123.953 3.08325Z" fill="#71779B"/>
<path d="M90.5309 29.6718L94.0355 15.0184L96.641 23.8339C98.1942 29.0918 105.653 29.0918 107.207 23.8339L109.812 15.0184L113.316 29.6718H120.867L115.356 6.63007C114.046 1.15056 106.313 0.94768 104.716 6.35097L101.924 15.7995L99.1314 6.35098C97.5349 0.947712 89.8012 1.15053 88.4907 6.63006L82.9805 29.6718H90.5309Z" fill="#71779B"/>
</g>
<defs>
<clipPath id="clip0_159_4205">
<rect width="123.933" height="29.3333" fill="white" transform="translate(0.0234375 0.333252)"/>
</clipPath>
</defs>
</svg>
