<svg width="41" height="40" viewBox="0 0 41 40" fill="none" xmlns="http://www.w3.org/2000/svg">
<path d="M33.4101 21.6667C34.7283 19.777 35.5013 17.4787 35.5013 15C35.5013 8.55672 30.278 3.33337 23.8346 3.33337C17.3913 3.33337 12.168 8.55671 12.168 15C12.168 16.7894 12.5708 18.4845 13.2907 20" stroke="#09A8F7" stroke-width="3.5" stroke-linecap="round" stroke-linejoin="round"/>
<path d="M23.8333 10C21.9923 10 20.5 11.1193 20.5 12.5C20.5 13.8808 21.9923 15 23.8333 15C25.6743 15 27.1667 16.1193 27.1667 17.5C27.1667 18.8807 25.6743 20 23.8333 20M23.8333 10C25.2847 10 26.5193 10.6957 26.977 11.6667M23.8333 10V8.33337M23.8333 20C22.382 20 21.1473 19.3044 20.6897 18.3334M23.8333 20V21.6667" stroke="#09A8F7" stroke-width="3.5" stroke-linecap="round"/>
<path d="M5.5 23.3334H9.49137C9.98162 23.3334 10.4651 23.4439 10.9036 23.656L14.3069 25.3027C14.7454 25.5149 15.2289 25.6252 15.7192 25.6252H17.4568C19.1375 25.6252 20.5 26.9437 20.5 28.57C20.5 28.6357 20.455 28.6935 20.3897 28.7115L16.1548 29.8825C15.3951 30.0925 14.5817 30.0194 13.875 29.6774L10.2369 27.9172M20.5 27.5L28.1547 25.1482C29.5117 24.7254 30.9785 25.2267 31.8285 26.4039C32.4432 27.2549 32.1928 28.4737 31.2975 28.9904L18.7715 36.2175C17.9748 36.6772 17.0349 36.7894 16.1586 36.5294L5.5 33.3665" stroke="#09A8F7" stroke-width="3.5" stroke-linecap="round" stroke-linejoin="round"/>
</svg>
