<svg width="41" height="40" viewBox="0 0 41 40" fill="none" xmlns="http://www.w3.org/2000/svg">
<path d="M15.5 25C15.5 20.286 15.5 17.929 16.9645 16.4645C18.429 15 20.786 15 25.5 15H27.1667C31.8807 15 34.2377 15 35.7022 16.4645C37.1667 17.929 37.1667 20.286 37.1667 25V26.6667C37.1667 31.3807 37.1667 33.7377 35.7022 35.2022C34.2377 36.6667 31.8807 36.6667 27.1667 36.6667H25.5C20.786 36.6667 18.429 36.6667 16.9645 35.2022C15.5 33.7377 15.5 31.3807 15.5 26.6667V25Z" stroke="#09A8F7" stroke-width="3.5" stroke-linecap="round" stroke-linejoin="round"/>
<path d="M28.8319 15C28.8279 10.0716 28.7534 7.51872 27.3187 5.77076C27.0417 5.43319 26.7322 5.12367 26.3947 4.84664C24.5507 3.33337 21.8112 3.33337 16.332 3.33337C10.8529 3.33337 8.11333 3.33337 6.26941 4.84664C5.93185 5.12366 5.62233 5.43319 5.3453 5.77076C3.83203 7.61467 3.83203 10.3542 3.83203 15.8334C3.83203 21.3125 3.83203 24.052 5.3453 25.896C5.62231 26.2335 5.93185 26.543 6.26941 26.82C8.01738 28.2547 10.5702 28.3292 15.4987 28.3332" stroke="#09A8F7" stroke-width="3.5" stroke-linecap="round" stroke-linejoin="round"/>
</svg>
