<svg width="41" height="40" viewBox="0 0 41 40" fill="none" xmlns="http://www.w3.org/2000/svg">
<path d="M23.832 23.3334L27.9987 27.5" stroke="#09A8F7" stroke-width="3.5" stroke-linejoin="round"/>
<path d="M27.8901 30.8754C26.9273 29.9125 26.9273 28.3515 27.8901 27.3889C28.8528 26.426 30.4138 26.426 31.3766 27.3889L36.4458 32.458C37.4086 33.4209 37.4086 34.9819 36.4458 35.9445C35.4831 36.9074 33.9221 36.9074 32.9593 35.9445L27.8901 30.8754Z" stroke="#09A8F7" stroke-width="3.5" stroke-linecap="round"/>
<path d="M27.1654 15C27.1654 8.55673 21.942 3.33337 15.4987 3.33337C9.05538 3.33337 3.83203 8.55673 3.83203 15C3.83203 21.4434 9.05538 26.6667 15.4987 26.6667C21.942 26.6667 27.1654 21.4434 27.1654 15Z" stroke="#09A8F7" stroke-width="3.5" stroke-linejoin="round"/>
</svg>
