<svg width="41" height="40" viewBox="0 0 41 40" fill="none" xmlns="http://www.w3.org/2000/svg">
<path d="M37.1654 19.1667V8.52332C37.1654 7.20502 37.1654 6.54589 36.8419 5.86614C36.6574 5.47846 36.237 4.95111 35.9004 4.68469C35.31 4.21756 34.8174 4.10472 33.832 3.87904C32.2992 3.52796 30.6085 3.33337 28.832 3.33337C25.6369 3.33337 22.7195 3.96277 20.4987 5.00004C18.2779 6.03731 15.3605 6.66671 12.1654 6.66671C10.3888 6.66671 8.69818 6.47212 7.16536 6.12104C5.56541 5.75459 3.83203 6.88194 3.83203 8.52332V26.4767C3.83203 27.795 3.83203 28.4542 4.15556 29.1339C4.34008 29.5215 4.7603 30.049 5.097 30.3154C5.68735 30.7825 6.18003 30.8954 7.16536 31.121C8.69818 31.4722 10.3888 31.6667 12.1654 31.6667C14.6134 31.6667 16.8984 31.2972 18.832 30.6579" stroke="#09A8F7" stroke-width="3.5" stroke-linecap="round"/>
<path d="M24.6654 17.5C24.6654 19.8012 22.7999 21.6667 20.4987 21.6667C18.1975 21.6667 16.332 19.8012 16.332 17.5C16.332 15.1989 18.1975 13.3334 20.4987 13.3334C22.7999 13.3334 24.6654 15.1989 24.6654 17.5Z" stroke="#09A8F7" stroke-width="3.5"/>
<path d="M9.66797 19.1666V19.1816" stroke="#09A8F7" stroke-width="3.5" stroke-linecap="round" stroke-linejoin="round"/>
<path d="M31.332 15.8203V15.8353" stroke="#09A8F7" stroke-width="3.5" stroke-linecap="round" stroke-linejoin="round"/>
<path d="M32.7209 23.3334L34.0929 24.5965C34.3915 24.89 34.5409 25.0369 34.4884 25.1615C34.4357 25.2862 34.2245 25.2862 33.8022 25.2862H28.6282C25.9794 25.2862 23.832 27.3967 23.832 30C23.832 30.5869 23.9412 31.1485 24.1404 31.6667M28.2765 36.6667L26.9045 35.4035C26.6059 35.11 26.4565 34.9632 26.509 34.8385C26.5617 34.7139 26.7729 34.7139 27.1952 34.7139H32.3692C35.018 34.7139 37.1654 32.6034 37.1654 30C37.1654 29.4132 37.0562 28.8515 36.857 28.3334" stroke="#09A8F7" stroke-width="3.5" stroke-linecap="round" stroke-linejoin="round"/>
</svg>
