<svg width="24" height="30" viewBox="0 0 24 30" fill="none" xmlns="http://www.w3.org/2000/svg">
<path d="M13.4 4.64999V0.399994H0V29.6H13.4V25.35C10.655 25.35 8.0224 24.2595 6.08144 22.3185C4.14044 20.3775 3.05 17.745 3.05 15C3.05 12.255 4.14044 9.6224 6.08144 7.68144C8.0224 5.74044 10.655 4.64999 13.4 4.64999Z" fill="#09A8F7"/>
<path d="M13.4004 4.64999V25.35C16.1454 25.35 18.778 24.2595 20.719 22.3185C22.66 20.3775 23.7504 17.745 23.7504 15C23.7504 12.255 22.66 9.6224 20.719 7.68144C18.778 5.74044 16.1454 4.64999 13.4004 4.64999Z" fill="#09A8F7"/>
</svg>
