<svg width="161" height="45" viewBox="0 0 161 45" fill="none" xmlns="http://www.w3.org/2000/svg">
<path d="M35.6018 11.8488C34.1329 10.4504 32.0031 9.99563 30.0912 10.6722C29.5505 10.8529 29.1567 11.3216 29.0721 11.8852L28.6475 14.8028C28.0037 19.2095 24.2331 22.4822 19.7796 22.5H13.714C13.018 22.5002 12.4115 22.9741 12.2431 23.6494L7.69389 41.8461C7.49117 42.6587 7.9856 43.4816 8.7982 43.6843C8.91804 43.7142 9.04115 43.7294 9.16469 43.7294H16.7466C17.4426 43.7293 18.0491 43.2553 18.2175 42.58L20.9622 31.5983H26.8762C31.416 31.6134 35.3763 28.5191 36.4597 24.1104L37.5788 19.6249C38.3667 16.8659 37.6115 13.8965 35.6018 11.8488Z" fill="#03A9F4"/>
<path d="M30.5946 3.89382C29.1376 2.22498 27.0296 1.26838 24.8142 1.27051H7.64862C6.91521 1.27051 6.287 1.79537 6.1565 2.51698L0.0908969 35.8775C-0.0582305 36.7016 0.489091 37.4904 1.3132 37.6396C1.40219 37.6556 1.49261 37.6637 1.58302 37.6637H10.6814C11.3774 37.6636 11.9838 37.1896 12.1523 36.5144L14.9 25.5327H19.7797C25.7445 25.5092 30.7941 21.1239 31.653 15.2213L32.4112 10.0382C32.7238 7.82373 32.0612 5.58241 30.5946 3.89382Z" fill="#283593"/>
<path d="M56.8011 32.1455C55.4695 32.1453 54.3902 31.0655 54.3906 29.7339C54.3906 29.5374 54.4148 29.3417 54.4623 29.1511L56.8735 19.5549V19.4537L59.2847 9.86222C59.5525 8.78852 60.5168 8.03489 61.6235 8.03467H67.7574C71.0866 8.03399 73.7857 10.732 73.7866 14.0612C73.7866 14.5542 73.7263 15.0454 73.6069 15.5237L73.0041 17.9349C72.3334 20.6191 69.9215 22.5021 67.1548 22.5016H61.0978L59.1447 30.3184C58.8764 31.3935 57.9094 32.1475 56.8011 32.1455ZM62.3032 17.6788H67.1543C67.7075 17.6772 68.1885 17.2995 68.3214 16.7626L68.9242 14.3514C69.0895 13.7092 68.7025 13.0546 68.0603 12.8896C67.9613 12.8641 67.8596 12.8514 67.7572 12.8519H63.5087L62.3032 17.6788Z" fill="#283593"/>
<path d="M82.5912 32.1453H79.1579C75.4666 32.1462 72.4736 29.1546 72.4727 25.4633C72.4724 24.9165 72.5396 24.3717 72.672 23.8414L72.9903 22.5586C73.7039 19.6798 76.2932 17.6621 79.2591 17.6736H82.6925C86.3838 17.68 89.3709 20.6775 89.3646 24.3688C89.3637 24.9129 89.2963 25.4547 89.1641 25.9823L88.8458 27.2651C88.1315 30.1369 85.5503 32.1507 82.5912 32.1453ZM77.3543 25.0132C77.1065 26.011 77.7146 27.0205 78.7123 27.2682C78.8581 27.3044 79.0075 27.3227 79.1579 27.3232H82.5912C83.3347 27.3252 83.9834 26.8198 84.1633 26.0982L84.4816 24.8154C84.7294 23.8177 84.1213 22.8082 83.1235 22.5604C82.9777 22.5243 82.8283 22.506 82.678 22.5055H79.2447C78.5012 22.5035 77.8525 23.0089 77.6725 23.7304L77.3543 25.0132Z" fill="#283593"/>
<path d="M85.7347 32.1454C84.4031 32.1449 83.324 31.0651 83.3242 29.7335C83.3242 29.537 83.3484 29.3413 83.3959 29.1507L85.8071 19.5062C86.1294 18.2132 87.4386 17.4261 88.7318 17.7485C90.0248 18.0708 90.8119 19.3801 90.4895 20.6732L88.0783 30.3178C87.81 31.3933 86.843 32.1474 85.7347 32.1454Z" fill="#283593"/>
<path d="M114.657 32.1457C113.325 32.1452 112.246 31.0654 112.246 29.7338C112.246 29.5374 112.27 29.3416 112.318 29.1511L114.729 19.5549V19.4536L117.14 9.86222C117.408 8.78852 118.372 8.03489 119.479 8.03467H125.613C128.942 8.03399 131.641 10.732 131.642 14.0612C131.642 14.5542 131.582 15.0454 131.462 15.5237L130.86 17.9349C130.189 20.6191 127.777 22.5021 125.01 22.5016H118.953L117 30.3184C116.732 31.3937 115.765 32.1477 114.657 32.1457ZM120.159 17.679H125.015C125.568 17.6774 126.049 17.2997 126.182 16.7628L126.785 14.3516C126.95 13.7095 126.563 13.0548 125.921 12.8898C125.822 12.8643 125.72 12.8516 125.618 12.8521H121.364L120.159 17.679Z" fill="#03A9F4"/>
<path d="M140.447 32.1456H137.013C133.322 32.1465 130.329 29.1548 130.328 25.4635C130.328 24.9167 130.395 24.372 130.527 23.8417L130.846 22.5589C131.559 19.68 134.149 17.6623 137.115 17.6739H140.548C144.239 17.673 147.232 20.6646 147.233 24.3559C147.233 24.9027 147.166 25.4475 147.034 25.9778L146.716 27.2606C146.002 30.1394 143.413 32.1571 140.447 32.1456ZM135.21 25.0135C134.962 26.0112 135.57 27.0207 136.568 27.2685C136.714 27.3046 136.863 27.3229 137.013 27.3234H140.447C141.19 27.3254 141.839 26.82 142.019 26.0985L142.337 24.8157C142.585 23.8179 141.977 22.8084 140.979 22.5607C140.833 22.5245 140.684 22.5062 140.533 22.5058H137.1C136.357 22.5037 135.708 23.0092 135.528 23.7307L135.21 25.0135Z" fill="#03A9F4"/>
<path d="M143.59 32.1454C142.259 32.1449 141.179 31.0651 141.18 29.7335C141.18 29.537 141.204 29.3413 141.251 29.1507L143.663 19.5062C143.985 18.2132 145.294 17.4261 146.587 17.7485C147.88 18.0708 148.667 19.3801 148.345 20.6732L145.934 30.3178C145.666 31.3933 144.698 32.1474 143.59 32.1454Z" fill="#03A9F4"/>
<path d="M100.211 29.7344C99.404 29.734 98.6513 29.3305 98.2044 28.6591L93.3822 21.4258C92.6431 20.3179 92.9421 18.8206 94.0502 18.0815C95.1583 17.3423 96.6553 17.6414 97.3945 18.7494L102.217 25.9828C102.957 27.0897 102.66 28.587 101.553 29.3275C101.156 29.5931 100.688 29.7346 100.211 29.7344Z" fill="#283593"/>
<path d="M95.3869 36.9678C94.0552 36.9673 92.9761 35.8873 92.9766 34.5557C92.9768 33.9922 93.1743 33.4465 93.5351 33.0134L105.591 18.5467C106.444 17.5241 107.965 17.3869 108.988 18.2404C110.01 19.0939 110.148 20.615 109.294 21.6376L97.2386 36.1043C96.7799 36.6525 96.1016 36.9687 95.3869 36.9678Z" fill="#283593"/>
<path d="M153.235 32.1454C151.903 32.145 150.824 31.0651 150.824 29.7335C150.824 29.5371 150.848 29.3413 150.896 29.1508L155.718 9.8619C156.04 8.56894 157.35 7.78186 158.643 8.10419C159.936 8.42653 160.723 9.73577 160.401 11.029L155.578 30.3178C155.31 31.3934 154.343 32.1474 153.235 32.1454Z" fill="#03A9F4"/>
</svg>
